<?xml version="1.0" encoding="UTF-8"?><svg id="Layer_1" xmlns="http://www.w3.org/2000/svg" viewBox="0 0 300 300"><defs><style>.cls-1,.cls-2{fill:#fff;}.cls-2{fill-rule:evenodd;}.cls-3{fill:#8e9194;stroke:#fff;stroke-width:5px;}</style></defs><circle class="cls-3" cx="150" cy="150" r="147.5"/><path class="cls-1" d="M115.9,42h63.16v-8.67h-63.16v8.67Z"/><path class="cls-2" d="M149.52,76.13l-63.1-31.94-8.42,4.34,62.16,32.47-24.27,12.49-33.68-17.34-37.89,19.5v44.36l33.68,17.34v39.01l33.68,17.34v39.01l37.9,19.5,37.89-19.5v-39.01l33.68-17.34v-39.01l33.68-17.34v-44.36l-37.9-19.5-33.68,17.34-24.51-12.62,58.2-32.35-8.42-4.34-59.01,31.94ZM125.32,98.35l24.27-12.49,24.27,12.49-24.27,12.49-24.27-12.49ZM120.11,105.36v29.32l25.26,13v-29.31l-25.26-13ZM115.9,142.2l-24.27,12.49,24.27,12.49,24.27-12.49-24.27-12.49ZM111.69,105.36l-25.26,13v29.31l25.26-13v-29.32ZM78.01,118.36l-25.26-13v29.32l25.26,13v-29.31ZM106.49,98.35l-24.27,12.49-24.27-12.49,24.27-12.49,24.27,12.49ZM187.48,134.67v-29.32l25.26,13v29.31l-25.26-13ZM159,154.69l24.27-12.49,24.27,12.49-24.27,12.49-24.27-12.49ZM153.79,118.36l25.26-13v29.32l-25.26,13v-29.31ZM246.43,134.67l-25.26,13v-29.31l25.26-13v29.32ZM241.22,98.35l-24.27,12.49-24.27-12.49,24.27-12.49,24.27,12.49ZM149.59,198.54l24.27,12.49-24.27,12.49-24.27-12.49,24.27-12.49ZM145.37,161.7v29.32l-25.26,13v-29.32l25.26-13ZM179.06,174.7v29.32l-25.26-13v-29.32l25.26,13ZM111.69,174.7l-25.26-13v29.32l25.26,13v-29.32ZM145.37,231.05l-25.26-13v29.31l25.26,13v-29.32ZM179.06,247.36l-25.26,13v-29.32l25.26-13v29.31ZM187.48,204.02l25.26-13v-29.32l-25.26,13v29.32Z"/></svg>