<?xml version="1.0" encoding="UTF-8"?><svg id="Layer_1" xmlns="http://www.w3.org/2000/svg" viewBox="0 0 600 171"><defs><style>.cls-1,.cls-2{fill:#fff;}.cls-2,.cls-3{fill-rule:evenodd;}.cls-4,.cls-3{fill:#ae194a;}</style></defs><circle class="cls-1" cx="85.5" cy="85.5" r="85.5"/><path class="cls-4" d="M66.06,23.94h36v-4.94h-36v4.94Z"/><path class="cls-3" d="M85.23,43.39l-35.96-18.21-4.8,2.48,35.43,18.51-13.83,7.12-19.2-9.88-21.6,11.12v25.29l19.2,9.88v22.23l19.2,9.88v22.23l21.6,11.12,21.6-11.12v-22.23l19.2-9.88v-22.23l19.2-9.88v-25.29l-21.6-11.12-19.2,9.88-13.97-7.19,33.17-18.44-4.8-2.48-33.64,18.21ZM71.43,56.06l13.83-7.12,13.83,7.12-13.83,7.12-13.83-7.12ZM68.46,60.05v16.71l14.4,7.41v-16.71l-14.4-7.41ZM66.06,81.05l-13.83,7.12,13.83,7.12,13.83-7.12-13.83-7.12ZM63.66,60.05l-14.4,7.41v16.71l14.4-7.41v-16.71ZM44.46,67.47l-14.4-7.41v16.71l14.4,7.41v-16.71ZM60.7,56.06l-13.83,7.12-13.83-7.12,13.83-7.12,13.83,7.12ZM106.86,76.76v-16.71l14.4,7.41v16.71l-14.4-7.41ZM90.63,88.17l13.83-7.12,13.83,7.12-13.83,7.12-13.83-7.12ZM87.66,67.47l14.4-7.41v16.71l-14.4,7.41v-16.71ZM140.46,76.76l-14.4,7.41v-16.71l14.4-7.41v16.71ZM137.5,56.06l-13.83,7.12-13.83-7.12,13.83-7.12,13.83,7.12ZM85.26,113.17l13.83,7.12-13.83,7.12-13.83-7.12,13.83-7.12ZM82.86,92.17v16.71l-14.4,7.41v-16.71l14.4-7.41ZM102.06,99.58v16.71l-14.4-7.41v-16.71l14.4,7.41ZM63.66,99.58l-14.4-7.41v16.71l14.4,7.41v-16.71ZM82.86,131.7l-14.4-7.41v16.71l14.4,7.41v-16.71ZM102.06,141l-14.4,7.41v-16.71l14.4-7.41v16.71ZM106.86,116.29l14.4-7.41v-16.71l-14.4,7.41v16.71Z"/><path class="cls-1" d="M390.43,34.81l-18.79,1.65v64.93h20.36v-43.43c3.42-3.01,8.17-4.51,14.27-4.51,3.05,0,5.49.42,7.34,1.27v46.62h20.36v-48.17c0-6.2-1.66-11-4.99-14.38-3.23-3.38-7.99-5.08-14.27-5.08-9.23,0-16.67,3.95-22.3,11.84h-1.11l-.88-10.74Z"/><path class="cls-1" d="M338.76,34.82l20.5,1.64v64.9h-20.5V34.82Z"/><path class="cls-1" d="M290.96,101.36c-9.14-21.71-16.65-44.34-21.73-66.52l19.52,1.62c3.51,16.26,7.86,30.57,13.03,46.17h.55c5.17-15.13,9.19-29.44,12.79-46.17l19.64-1.62c-4.89,21.52-12.1,44.15-21.42,66.52h-22.39Z"/><path class="cls-1" d="M444.23,34.83l20.5,1.64v64.88h-20.5V34.83Z"/><path class="cls-1" d="M479.88,94.33c5.45,5.83,14.15,8.61,26.15,8.61,5.82,0,10.88-.81,15.13-2.69,4.34-1.88,8.31-4.46,11.91-7.75l-9.14-15.08c-4.99,4.04-10.76,6.06-17.32,6.06-5.36,0-9.1-1.17-11.22-3.52-2.03-2.44-3.05-6.25-3.05-11.42,0-4.89.65-9.49,1.94-13.82,2.49-.75,5.59-1.13,9.28-1.13,2.58,0,4.8.19,6.65.56l.92,5.3,17.05,2.03c1.2-5.08,1.98-11.18,1.98-16.35v-5.08c-6.47-3.85-14.82-5.78-25.07-5.78s-18.38,3.2-24.38,9.59c-5.91,6.3-8.87,14.8-8.87,25.52s2.68,19.13,8.03,24.95Z"/><path class="cls-2" d="M564.68,102.93c-10.71,0-18.52-2.87-23.41-8.6-4.89-5.73-7.34-13.91-7.34-24.53,0-6.95,1.39-13.16,4.16-18.61,2.86-5.45,6.93-9.73,12.19-12.83,5.36-3.1,11.68-4.65,18.98-4.65,20.5,0,30.75,11.18,30.75,33.55,0,10.81-2.91,19.45-8.73,25.94-5.82,6.49-14.68,9.73-26.6,9.73ZM567.17,85.31c3.69,0,7.11-.47,10.25-1.41,1.57-4.04,2.36-9.26,2.36-15.65s-.97-10.48-2.91-12.83c-1.85-2.44-5.22-3.67-10.11-3.67-3.51,0-6.93.42-10.25,1.27-1.57,3.95-2.36,9.21-2.36,15.79,0,6.2.92,10.53,2.77,12.97,1.94,2.35,5.36,3.52,10.25,3.52Z"/><path class="cls-2" d="M198.95,63.33c-.06-5.4,1.99-9.71,4.07-13.44,2.12-3.78,5.39-6.72,9.83-8.82,4.43-2.1,10.13-3.39,17.1-3.88l33.78-2.37,3.15,15.7h-17.11v1.1c8.05,2.68,10.97,9.3,11.05,16.2.08,6.85-2.26,12.13-7.03,15.84-4.72,3.66-12.07,5.54-22.04,5.66-1.99.02-4.72-.3-7.45-.69-2.03,1.08-4.07,4.55-2.42,5.23,1.06.44,2.77.79,5.11,1.07l15.44,1.85c7.51.91,13.12,2.95,16.82,6.11,3.7,3.16,6.01,8.12,6.09,14.82.05,4.65-1.25,9.29-4.11,13.07-2.48,3.38-6.11,5.9-10.9,7.56-6.41,2.3-13.21,2.63-19.96,2.71-6.53.08-12.12-.46-16.76-1.61-4.6-1.1-8.11-2.91-10.52-5.43-2.69-2.82-4.07-6.7-4.12-10.51-.08-7.26,5.25-13.07,12.69-13.83v-.75c-5.43-1.05-9.39-5.32-9.45-10.92v-.08c-.03-2.25.39-4.16,1.26-5.72.91-1.56,2.24-2.75,4-3.57,1.76-.87,3.91-1.4,6.47-1.58v-.61c-2.19-.93-4.13-2.08-5.8-3.45-5.95-4.87-9.06-12.22-9.15-19.67ZM231.15,124.22c-3.13.04-5.72-.21-7.75-.73-3.18-.76-5.44-2.81-5.48-6.36-.03-2.93,1.43-6.24,5.24-6.24,6.19,0,14.56,1.16,21.31,3.2,1.11,4.04.1,8.45-3.66,9.35-2.94.72-5.98.75-8.99.78h-.66ZM220.57,71.79c-2.23-4.01-2.55-12.96,0-16.71,6.01-2.12,17.69-1.72,20.23,2.72,1.98,3.45,3.18,10.29.97,14.37-1.73,3.19-7.53,4.04-10.69,4.07-3.96.05-8.3-.8-10.51-4.45Z"/><path class="cls-1" d="M304.2,139.52l-6.74-23.95h4.65l4.3,17.6h.22l4.59-17.6h4.23l4.61,17.61h.21l4.3-17.61h4.65l-6.74,23.95h-4.27l-4.78-16.81h-.19l-4.79,16.81h-4.27Z"/><path class="cls-1" d="M336.57,115.57v23.95h-4.33v-23.95h4.33Z"/><path class="cls-1" d="M360.88,115.57v23.95h-3.85l-11.26-16.31h-.2v16.31h-4.33v-23.95h3.87l11.24,16.33h.21v-16.33h4.3Z"/><path class="cls-1" d="M365.6,139.52v-23.95h15.54v3.64h-11.21v6.5h10.4v3.64h-10.4v6.54h11.3v3.64h-15.63Z"/><path class="cls-1" d="M398.02,115.57v23.95h-4.33v-23.95h4.33Z"/><path class="cls-1" d="M402.71,115.57h5.3l7.09,17.36h.28l7.09-17.36h5.29v23.95h-4.15v-16.45h-.22l-6.6,16.39h-3.1l-6.6-16.42h-.22v16.49h-4.15v-23.95Z"/><path class="cls-1" d="M432.47,139.52v-23.95h8.96c1.83,0,3.37.34,4.62,1.03,1.25.69,2.2,1.63,2.83,2.83.65,1.19.97,2.55.97,4.07s-.32,2.9-.97,4.09c-.64,1.19-1.6,2.13-2.86,2.82-1.26.68-2.81,1.02-4.65,1.02h-5.94v-3.57h5.35c1.07,0,1.95-.19,2.64-.56.68-.37,1.19-.89,1.52-1.54.33-.65.5-1.41.5-2.26s-.17-1.6-.5-2.25c-.33-.65-.84-1.15-1.53-1.51-.68-.37-1.57-.55-2.65-.55h-3.96v20.33h-4.33Z"/><path class="cls-1" d="M474.95,127.54c0,2.58-.48,4.79-1.45,6.63-.96,1.83-2.26,3.24-3.92,4.21-1.65.97-3.52,1.46-5.61,1.46s-3.97-.49-5.62-1.46c-1.65-.98-2.95-2.39-3.92-4.22-.96-1.84-1.44-4.05-1.44-6.62s.48-4.79,1.44-6.62c.96-1.84,2.27-3.25,3.92-4.22,1.66-.97,3.53-1.46,5.62-1.46s3.96.49,5.61,1.46c1.66.97,2.96,2.38,3.92,4.22.96,1.83,1.45,4.04,1.45,6.62ZM470.6,127.54c0-1.82-.28-3.35-.85-4.6-.56-1.25-1.34-2.2-2.33-2.84-.99-.65-2.14-.97-3.44-.97s-2.45.32-3.44.97c-1,.64-1.78,1.59-2.34,2.84-.56,1.25-.84,2.78-.84,4.6s.28,3.35.84,4.61c.57,1.25,1.35,2.19,2.34,2.84.99.64,2.14.96,3.44.96s2.45-.32,3.44-.96c.99-.65,1.77-1.59,2.33-2.84.57-1.26.85-2.79.85-4.61Z"/><path class="cls-1" d="M479.04,139.52v-23.95h8.96c1.83,0,3.37.32,4.62.96,1.25.64,2.2,1.54,2.83,2.69.65,1.15.97,2.48.97,4.01s-.33,2.87-.98,4c-.65,1.12-1.6,1.99-2.86,2.61-1.26.61-2.81.91-4.64.91h-6.38v-3.6h5.8c1.07,0,1.95-.15,2.64-.45.68-.3,1.19-.74,1.52-1.32.33-.58.5-1.3.5-2.15s-.17-1.57-.5-2.17c-.33-.61-.84-1.07-1.53-1.38-.68-.32-1.57-.48-2.65-.48h-3.96v20.33h-4.33ZM491.38,128.67l5.91,10.85h-4.83l-5.81-10.85h4.72Z"/><path class="cls-1" d="M499.35,119.21v-3.64h19.06v3.64h-7.38v20.31h-4.29v-20.31h-7.38Z"/><path class="cls-1" d="M530.22,139.52v-23.95h4.33v10.14h11.07v-10.14h4.34v23.95h-4.34v-10.17h-11.07v10.17h-4.33Z"/><path class="cls-1" d="M569.72,115.57h4.33v15.65c0,1.71-.4,3.22-1.21,4.53-.8,1.3-1.93,2.32-3.38,3.05-1.45.72-3.15,1.09-5.1,1.09s-3.65-.36-5.11-1.09c-1.45-.73-2.58-1.75-3.38-3.05-.8-1.3-1.2-2.81-1.2-4.53v-15.65h4.33v15.28c0,1,.22,1.89.65,2.67.44.78,1.07,1.39,1.87,1.84.8.44,1.75.65,2.85.65s2.04-.22,2.85-.65c.81-.45,1.43-1.06,1.87-1.84.43-.78.65-1.67.65-2.67v-15.28Z"/><path class="cls-1" d="M578.75,139.52v-23.95h9.14c1.73,0,3.16.27,4.3.82,1.15.54,2.01,1.28,2.58,2.21.58.93.86,2,.86,3.18,0,.97-.19,1.81-.56,2.5-.37.69-.88,1.24-1.51,1.67s-1.33.74-2.11.92v.23c.85.05,1.66.31,2.44.78.78.47,1.43,1.13,1.92,1.99.5.86.75,1.89.75,3.11s-.3,2.36-.9,3.35c-.6.98-1.5,1.76-2.71,2.33-1.21.57-2.72.85-4.55.85h-9.67ZM583.08,135.89h4.65c1.57,0,2.7-.3,3.39-.9.7-.61,1.05-1.39,1.05-2.34,0-.71-.17-1.35-.52-1.92-.35-.58-.85-1.03-1.49-1.36-.64-.34-1.41-.5-2.31-.5h-4.77v7.02ZM583.08,125.75h4.28c.75,0,1.42-.14,2.02-.41.6-.28,1.07-.68,1.41-1.18.35-.51.53-1.12.53-1.83,0-.93-.33-1.69-.98-2.29-.64-.6-1.61-.9-2.88-.9h-4.37v6.61Z"/></svg>