<?xml version="1.0" encoding="UTF-8"?><svg id="Layer_1" xmlns="http://www.w3.org/2000/svg" viewBox="0 0 200 52"><defs><style>.cls-1{fill:#fff;}</style></defs><path class="cls-1" d="M69.39,34.43c-2.4,0-4.63-.45-6.68-1.34-2.05-.89-3.86-2.12-5.4-3.69s-2.75-3.4-3.6-5.48c-.85-2.08-1.28-4.32-1.28-6.7s.43-4.62,1.3-6.7c.87-2.08,2.07-3.91,3.6-5.48,1.53-1.57,3.33-2.8,5.4-3.69,2.07-.89,4.3-1.34,6.71-1.34s4.79.44,6.99,1.31c2.19.88,4.13,2.15,5.8,3.84l-1.42,1.67c-1.36-1.49-3.06-2.66-5.1-3.5-2.04-.84-4.13-1.26-6.28-1.26s-4.07.39-5.85,1.17c-1.79.78-3.35,1.86-4.69,3.24-1.34,1.38-2.39,2.99-3.13,4.82-.74,1.83-1.11,3.81-1.11,5.94s.37,4.11,1.11,5.94c.74,1.83,1.78,3.43,3.1,4.82,1.33,1.38,2.88,2.46,4.67,3.24,1.79.78,3.74,1.17,5.85,1.17,2.56,0,4.84-.58,6.85-1.74,2.01-1.16,3.62-2.75,4.83-4.77,1.22-2.02,1.89-4.28,2.01-6.79h-12.75v-2.05h14.88v1.19c0,2.26-.4,4.36-1.21,6.32-.81,1.95-1.93,3.67-3.36,5.15-1.44,1.48-3.11,2.64-5.02,3.48-1.91.84-3.99,1.26-6.23,1.26Z"/><path class="cls-1" d="M97.21,33.9l-10.19-23.46h2.27l8.91,20.79,8.86-20.79h2.18l-10.14,23.46h-1.9Z"/><path class="cls-1" d="M113.84,5.15c-.51,0-.93-.17-1.28-.52-.35-.35-.52-.78-.52-1.29s.17-.94.52-1.29c.35-.35.77-.53,1.28-.53.54,0,.97.17,1.3.53.33.35.5.78.5,1.29s-.17.94-.5,1.29-.77.52-1.3.52ZM112.8,33.9V10.44h2.09v23.46h-2.09Z"/><path class="cls-1" d="M121.33,33.9V10.44h2.09v3.29c1.9-2.51,4.47-3.77,7.72-3.77,1.77,0,3.33.37,4.67,1.12,1.34.75,2.39,1.8,3.13,3.15.74,1.35,1.11,2.92,1.11,4.7v14.97h-2.09v-14.4c0-2.35-.65-4.2-1.94-5.56-1.3-1.35-3.08-2.03-5.36-2.03-1.58,0-3,.37-4.26,1.12-1.26.75-2.26,1.82-2.99,3.22v17.64h-2.09Z"/><path class="cls-1" d="M147.44,5.15c-.51,0-.93-.17-1.28-.52-.35-.35-.52-.78-.52-1.29s.17-.94.52-1.29c.35-.35.77-.53,1.28-.53.54,0,.97.17,1.3.53.33.35.5.78.5,1.29s-.17.94-.5,1.29-.77.52-1.3.52ZM146.4,33.9V10.44h2.09v23.46h-2.09Z"/><path class="cls-1" d="M165.45,34.38c-2.15,0-4.11-.54-5.88-1.62-1.77-1.08-3.17-2.54-4.19-4.39-1.03-1.84-1.54-3.91-1.54-6.2s.51-4.35,1.54-6.2c1.03-1.84,2.43-3.3,4.19-4.39,1.77-1.08,3.73-1.62,5.88-1.62,1.58,0,3.17.32,4.76.95,1.59.64,2.99,1.51,4.19,2.62l-1.42,1.72c-1.01-1.02-2.17-1.82-3.48-2.41-1.31-.59-2.66-.88-4.05-.88-1.77,0-3.37.45-4.81,1.36-1.44.91-2.57,2.13-3.41,3.67-.84,1.54-1.26,3.27-1.26,5.17s.42,3.63,1.26,5.17c.84,1.54,1.97,2.76,3.41,3.67,1.44.91,3.04,1.36,4.81,1.36,1.39,0,2.74-.3,4.05-.91,1.31-.6,2.47-1.4,3.48-2.38l1.42,1.72c-1.2,1.11-2.6,1.99-4.19,2.62-1.6.64-3.18.95-4.76.95Z"/><path class="cls-1" d="M188.39,34.38c-2.15,0-4.11-.54-5.88-1.62-1.77-1.08-3.17-2.55-4.19-4.41-1.03-1.86-1.54-3.92-1.54-6.17s.51-4.35,1.54-6.2c1.03-1.84,2.42-3.3,4.19-4.39,1.77-1.08,3.73-1.62,5.88-1.62s4.15.54,5.9,1.62c1.75,1.08,3.14,2.54,4.17,4.39,1.03,1.84,1.54,3.91,1.54,6.2s-.51,4.31-1.54,6.17c-1.03,1.86-2.42,3.33-4.17,4.41-1.75,1.08-3.72,1.62-5.9,1.62ZM188.39,32.37c1.77,0,3.37-.45,4.81-1.36,1.44-.91,2.57-2.13,3.41-3.67.84-1.54,1.26-3.27,1.26-5.17s-.42-3.63-1.26-5.17c-.84-1.54-1.98-2.77-3.41-3.67-1.44-.91-3.04-1.36-4.81-1.36s-3.37.45-4.81,1.36c-1.44.91-2.57,2.13-3.41,3.67-.84,1.54-1.26,3.27-1.26,5.17s.42,3.63,1.26,5.17c.84,1.54,1.97,2.76,3.41,3.67,1.44.91,3.04,1.36,4.81,1.36Z"/><path class="cls-1" d="M60.69,45.98h.54v2.89c-.34.32-.74.57-1.22.74-.48.17-.99.25-1.52.25-.76,0-1.45-.17-2.06-.51-.61-.34-1.09-.81-1.44-1.4-.35-.6-.52-1.27-.52-2.01s.17-1.41.52-2.01c.35-.6.83-1.06,1.44-1.4.61-.34,1.3-.51,2.07-.51.56,0,1.08.09,1.55.27.47.18.88.44,1.21.79l-.35.38c-.32-.32-.68-.56-1.08-.7-.4-.14-.84-.22-1.32-.22-.66,0-1.25.15-1.78.44-.53.29-.95.7-1.25,1.22-.3.52-.45,1.1-.45,1.74s.15,1.21.46,1.73c.3.52.72.93,1.25,1.23.53.3,1.12.45,1.78.45.88,0,1.61-.24,2.18-.71v-2.66Z"/><path class="cls-1" d="M68.35,47.06h-4.93c.02.45.13.85.34,1.2.21.35.5.62.86.81.36.19.77.29,1.22.29.37,0,.72-.07,1.04-.2.32-.14.58-.34.8-.6l.32.37c-.25.3-.56.53-.94.69-.38.16-.78.24-1.22.24-.57,0-1.08-.13-1.53-.38-.45-.25-.8-.6-1.05-1.04-.25-.44-.38-.95-.38-1.51s.12-1.06.36-1.51c.24-.45.57-.79.98-1.04.42-.25.89-.38,1.41-.38s.99.12,1.4.37c.41.25.74.59.98,1.03.24.44.36.94.36,1.5v.15ZM64.54,44.76c-.32.18-.58.43-.77.76-.19.33-.31.7-.33,1.11h4.39c-.02-.41-.13-.78-.33-1.1-.2-.32-.46-.58-.78-.76-.32-.18-.68-.28-1.09-.28s-.76.09-1.09.27Z"/><path class="cls-1" d="M70.84,49.48c-.44-.25-.78-.6-1.03-1.04-.25-.45-.37-.95-.37-1.51s.12-1.06.37-1.51c.25-.45.59-.79,1.03-1.04.43-.25.92-.38,1.46-.38s1.03.13,1.47.38c.43.25.78.6,1.03,1.04.25.44.37.95.37,1.51s-.13,1.06-.37,1.51c-.25.44-.59.79-1.03,1.04-.44.25-.92.38-1.47.38s-1.03-.13-1.46-.38ZM73.48,49.05c.35-.21.62-.49.82-.86.2-.37.3-.79.3-1.26s-.1-.89-.3-1.26c-.2-.37-.48-.66-.82-.86-.35-.21-.74-.31-1.18-.31s-.83.1-1.18.31c-.35.21-.62.49-.82.86-.2.37-.3.79-.3,1.26s.1.89.3,1.26c.2.37.48.66.82.86.35.21.74.31,1.18.31s.83-.1,1.18-.31Z"/><path class="cls-1" d="M78.22,44.34c.37-.22.83-.34,1.36-.34v.54h-.13c-.64-.01-1.13.19-1.49.59-.36.4-.54.96-.54,1.67v3h-.55v-5.76h.53v1.26c.17-.42.45-.74.82-.97Z"/><path class="cls-1" d="M86.2,44.05v5.15c0,.96-.23,1.66-.69,2.12-.46.46-1.16.69-2.09.69-.53,0-1.02-.08-1.49-.24-.47-.16-.85-.39-1.13-.67l.3-.42c.29.26.63.47,1.03.62.4.15.83.22,1.28.22.76,0,1.32-.18,1.69-.55.37-.36.55-.93.55-1.7v-.97c-.23.42-.56.74-.98.97-.42.23-.89.34-1.41.34s-1.02-.12-1.45-.36c-.44-.24-.78-.57-1.03-1-.25-.43-.37-.91-.37-1.45s.12-1.02.37-1.45c.25-.43.59-.76,1.03-.99.43-.23.92-.35,1.45-.35s1,.12,1.43.35c.42.24.75.57.98.99v-1.3h.53ZM84.52,48.81c.36-.2.64-.47.84-.82.2-.35.3-.75.3-1.2s-.1-.85-.3-1.19c-.2-.35-.48-.62-.84-.81-.36-.19-.76-.29-1.21-.29s-.85.1-1.2.29c-.35.2-.63.47-.83.81-.2.35-.3.74-.3,1.19s.1.85.3,1.2c.2.35.48.62.83.82.35.2.76.29,1.2.29s.85-.1,1.21-.29Z"/><path class="cls-1" d="M88.48,42.52c-.09-.08-.13-.19-.13-.32s.04-.23.13-.32c.09-.09.19-.13.32-.13s.23.04.32.13c.09.09.13.19.13.32s-.04.23-.13.32c-.09.09-.19.13-.32.13s-.23-.04-.32-.13ZM88.52,44.05h.55v5.76h-.55v-5.76Z"/><path class="cls-1" d="M94.96,44.55c.38.36.57.9.57,1.61v3.65h-.53v-1.03c-.18.34-.45.6-.8.79-.35.19-.77.28-1.26.28-.64,0-1.14-.15-1.51-.45-.37-.3-.56-.7-.56-1.19s.17-.87.51-1.17c.34-.3.88-.45,1.63-.45h1.96v-.46c0-.54-.14-.95-.43-1.23-.29-.28-.71-.42-1.27-.42-.38,0-.74.07-1.09.2-.35.13-.64.31-.88.53l-.27-.4c.28-.26.63-.46,1.03-.6.4-.14.82-.22,1.26-.22.71,0,1.25.18,1.64.55ZM94.22,49.07c.33-.22.58-.54.75-.96v-1.08h-1.95c-.56,0-.97.1-1.22.31-.25.21-.38.49-.38.85s.14.67.42.89c.28.22.67.33,1.17.33.48,0,.88-.11,1.21-.33Z"/><path class="cls-1" d="M102.29,44.63c.42.42.63,1.02.63,1.81v3.37h-.55v-3.32c0-.65-.16-1.14-.49-1.48-.33-.34-.78-.51-1.37-.51-.67,0-1.2.2-1.59.61-.39.4-.58.95-.58,1.63v3.07h-.55v-5.76h.53v1.25c.2-.4.49-.72.88-.95.39-.23.85-.34,1.39-.34.72,0,1.28.21,1.7.63Z"/><path class="cls-1" d="M116.18,44.05l-2.17,5.76h-.51l-1.93-5-1.94,5h-.51l-2.17-5.76h.53l1.91,5.15,1.95-5.15h.47l1.94,5.14,1.93-5.14h.5Z"/><path class="cls-1" d="M117.41,42.52c-.09-.08-.13-.19-.13-.32s.04-.23.13-.32c.09-.09.19-.13.32-.13s.23.04.32.13c.09.09.13.19.13.32s-.04.23-.13.32c-.09.09-.19.13-.32.13s-.23-.04-.32-.13ZM117.46,44.05h.55v5.76h-.55v-5.76Z"/><path class="cls-1" d="M124.82,44.63c.42.42.63,1.02.63,1.81v3.37h-.55v-3.32c0-.65-.16-1.14-.49-1.48-.33-.34-.78-.51-1.37-.51-.67,0-1.2.2-1.59.61-.39.4-.58.95-.58,1.63v3.07h-.55v-5.76h.53v1.25c.2-.4.49-.72.88-.95.39-.23.85-.34,1.39-.34.72,0,1.28.21,1.7.63Z"/><path class="cls-1" d="M132.56,47.06h-4.93c.02.45.13.85.34,1.2.21.35.5.62.86.81.36.19.77.29,1.22.29.37,0,.72-.07,1.04-.2.32-.14.58-.34.79-.6l.32.37c-.25.3-.56.53-.94.69-.38.16-.79.24-1.22.24-.57,0-1.08-.13-1.53-.38-.45-.25-.8-.6-1.05-1.04-.25-.44-.38-.95-.38-1.51s.12-1.06.36-1.51c.24-.45.57-.79.98-1.04.42-.25.89-.38,1.4-.38s.99.12,1.4.37c.41.25.74.59.98,1.03.24.44.36.94.36,1.5v.15ZM128.75,44.76c-.32.18-.58.43-.77.76-.19.33-.31.7-.33,1.11h4.39c-.02-.41-.13-.78-.33-1.1-.2-.32-.46-.58-.78-.76-.32-.18-.68-.28-1.09-.28s-.76.09-1.09.27Z"/><path class="cls-1" d="M137.05,42.52c-.09-.08-.13-.19-.13-.32s.04-.23.13-.32c.09-.09.19-.13.32-.13s.23.04.32.13c.09.09.13.19.13.32s-.04.23-.13.32c-.09.09-.2.13-.32.13s-.23-.04-.32-.13ZM137.09,44.05h.55v5.76h-.55v-5.76Z"/><path class="cls-1" d="M148.76,44.63c.41.42.61,1.02.61,1.81v3.37h-.55v-3.32c0-.65-.16-1.14-.47-1.48-.31-.34-.75-.51-1.32-.51-.64,0-1.15.2-1.53.61-.38.4-.56.95-.56,1.63v3.07h-.55v-3.32c0-.65-.16-1.14-.47-1.48-.32-.34-.75-.51-1.32-.51-.64,0-1.15.2-1.53.61-.38.4-.57.95-.57,1.63v3.07h-.55v-5.76h.53v1.24c.19-.4.47-.72.85-.94.38-.22.83-.34,1.34-.34s.96.12,1.32.35c.36.24.62.58.77,1.04.19-.43.49-.77.9-1.02.41-.25.88-.38,1.42-.38.71,0,1.27.21,1.67.63Z"/><path class="cls-1" d="M155.96,44.38c.43.25.77.6,1.01,1.04.24.44.37.95.37,1.51s-.12,1.07-.37,1.52c-.25.45-.58.79-1.01,1.04-.43.25-.91.37-1.45.37-.5,0-.96-.12-1.37-.36-.41-.24-.73-.57-.96-1v3.46h-.55v-7.91h.53v1.36c.23-.44.55-.79.96-1.03.41-.25.88-.37,1.39-.37s1.02.13,1.45.38ZM155.66,49.05c.35-.21.63-.49.83-.86.2-.37.3-.79.3-1.26s-.1-.89-.3-1.26c-.2-.37-.48-.66-.83-.86-.35-.21-.75-.31-1.18-.31s-.83.1-1.18.31c-.35.21-.62.49-.82.86-.2.37-.3.79-.3,1.26s.1.89.3,1.26c.2.37.48.66.82.86.35.21.74.31,1.18.31s.83-.1,1.18-.31Z"/><path class="cls-1" d="M159.82,49.48c-.44-.25-.78-.6-1.03-1.04-.25-.45-.37-.95-.37-1.51s.12-1.06.37-1.51c.25-.45.59-.79,1.03-1.04.43-.25.92-.38,1.46-.38s1.03.13,1.47.38c.44.25.78.6,1.03,1.04.25.44.37.95.37,1.51s-.12,1.06-.37,1.51c-.25.44-.59.79-1.03,1.04-.43.25-.92.38-1.47.38s-1.03-.13-1.46-.38ZM162.46,49.05c.35-.21.62-.49.82-.86.2-.37.3-.79.3-1.26s-.1-.89-.3-1.26c-.2-.37-.48-.66-.82-.86-.35-.21-.74-.31-1.18-.31s-.83.1-1.18.31c-.35.21-.62.49-.82.86-.2.37-.3.79-.3,1.26s.1.89.3,1.26c.2.37.48.66.82.86.35.21.74.31,1.18.31s.83-.1,1.18-.31Z"/><path class="cls-1" d="M167.2,44.34c.37-.22.83-.34,1.36-.34v.54h-.13c-.64-.01-1.13.19-1.49.59-.36.4-.54.96-.54,1.67v3h-.55v-5.76h.53v1.26c.18-.42.45-.74.82-.97Z"/><path class="cls-1" d="M173.18,49.45c-.14.13-.31.23-.52.3-.21.07-.43.11-.65.11-.5,0-.88-.14-1.15-.41-.27-.28-.41-.66-.41-1.15v-3.76h-1.05v-.48h1.05v-1.26h.55v1.26h1.82v.48h-1.82v3.71c0,.38.09.66.27.86.18.2.45.29.8.29s.65-.11.89-.32l.23.39Z"/><path class="cls-1" d="M182.03,44.63c.42.42.62,1.02.62,1.81v3.37h-.55v-3.32c0-.65-.16-1.14-.49-1.48-.33-.34-.78-.51-1.37-.51-.67,0-1.2.2-1.59.61-.39.4-.58.95-.58,1.63v3.07h-.55v-8.19h.55v3.63c.2-.4.49-.7.88-.92.39-.22.85-.33,1.37-.33.72,0,1.28.21,1.7.63Z"/><path class="cls-1" d="M189.93,44.05v5.76h-.53v-1.24c-.19.41-.47.72-.85.94-.37.22-.81.34-1.32.34-.75,0-1.33-.21-1.76-.63-.42-.42-.64-1.02-.64-1.81v-3.37h.55v3.32c0,.65.17,1.14.49,1.48.33.34.79.51,1.39.51.64,0,1.15-.2,1.53-.61s.57-.95.57-1.63v-3.07h.55Z"/><path class="cls-1" d="M196.58,44.37c.43.25.77.59,1.01,1.04.25.45.37.95.37,1.52s-.12,1.07-.37,1.51c-.24.44-.58.79-1.01,1.04-.43.25-.91.38-1.45.38s-.98-.12-1.39-.37c-.41-.25-.73-.59-.96-1.03v1.36h-.53v-8.19h.55v3.74c.23-.43.55-.76.96-1,.41-.24.87-.36,1.37-.36.53,0,1.02.12,1.45.37ZM196.28,49.05c.35-.21.63-.49.83-.86.2-.37.3-.79.3-1.26s-.1-.89-.3-1.26c-.2-.37-.48-.66-.83-.86-.35-.21-.75-.31-1.18-.31s-.83.1-1.18.31c-.35.21-.62.49-.82.86-.2.37-.3.79-.3,1.26s.1.89.3,1.26c.2.37.48.66.82.86.35.21.74.31,1.18.31s.84-.1,1.18-.31Z"/><path class="cls-1" d="M36.78,27.01l-8.34-4.71v-9.18l8.34,4.71v9.18ZM29.67,21.58l5.89,3.33v-6.35l-5.89-3.32v6.35Z"/><path class="cls-1" d="M35.56,27.01v-9.18l7.71-4.35.63.33v.38s0,8.11,0,8.11l-8.34,4.71ZM36.78,18.56v6.35l5.89-3.33v-6.35l-5.89,3.33Z"/><path class="cls-1" d="M36.17,18.85l-8.4-4.75,8.4-4.42,7.74,4.07-.04.76-.32.16-7.37,4.17ZM30.34,14.15l5.83,3.29,5.83-3.29-5.83-3.07-5.83,3.07Z"/><path class="cls-1" d="M22.56,27.01l-8.34-4.71v-9.18l8.34,4.71v9.18ZM15.45,21.58l5.89,3.33v-6.35l-5.89-3.32v6.35Z"/><path class="cls-1" d="M21.33,27.01v-9.18l8.34-4.71v9.18l-8.34,4.71ZM22.56,18.56v6.35l5.89-3.33v-6.35l-5.89,3.32Z"/><path class="cls-1" d="M21.95,18.85l-8.4-4.75,8.4-4.42,8.4,4.42-8.4,4.75ZM16.12,14.15l5.83,3.29,5.83-3.29-5.83-3.07-5.83,3.07Z"/><path class="cls-1" d="M8.34,27.01L0,22.3v-8.48l.65-.36.31.21,7.37,4.16v9.18ZM1.23,21.58l5.89,3.33v-6.35l-5.89-3.32v6.35Z"/><path class="cls-1" d="M7.11,27.01v-9.18l8.34-4.71v9.18l-8.34,4.71ZM8.34,18.56v6.35l5.89-3.33v-6.35l-5.89,3.32Z"/><path class="cls-1" d="M7.72,18.85L.01,14.5v-.75s7.71-4.06,7.71-4.06l8.4,4.42-8.4,4.75ZM1.9,14.15l5.83,3.29,5.83-3.29-5.83-3.07-5.83,3.07Z"/><path class="cls-1" d="M29.67,38.62l-8.34-4.71v-9.18l8.34,4.71v9.18ZM22.56,33.19l5.89,3.33v-6.35l-5.89-3.32v6.35Z"/><path class="cls-1" d="M28.45,38.62v-9.18l8.34-4.71v9.18l-8.34,4.71ZM29.67,30.17v6.35l5.89-3.33v-6.35l-5.89,3.32Z"/><path class="cls-1" d="M29.06,30.46l-8.4-4.74,8.4-4.42,8.4,4.42-8.4,4.74ZM23.23,25.76l5.83,3.29,5.83-3.29-5.83-3.07-5.83,3.07Z"/><path class="cls-1" d="M15.45,38.62l-8.34-4.71v-9.18l8.34,4.71v9.18ZM8.34,33.19l5.89,3.33v-6.35l-5.89-3.32v6.35Z"/><path class="cls-1" d="M14.22,38.62v-9.18l8.34-4.71v9.18l-8.34,4.71ZM15.45,30.17v6.35l5.89-3.33v-6.35l-5.89,3.32Z"/><path class="cls-1" d="M14.84,30.46l-8.4-4.74,8.4-4.42,8.4,4.42-8.4,4.74ZM9.01,25.76l5.83,3.29,5.83-3.29-5.83-3.07-5.83,3.07Z"/><path class="cls-1" d="M21.91,49.97l-.29-.19-7.4-4.18v-9.18l8.34,4.71v8.48l-.65.36ZM15.45,44.88l5.89,3.33v-6.35l-5.89-3.32v6.35Z"/><path class="cls-1" d="M21.93,49.96l-.59-.36v-8.46s8.34-4.71,8.34-4.71v9.18l-7.74,4.36ZM22.56,41.85v6.35l5.89-3.33v-6.35l-5.89,3.32Z"/><path class="cls-1" d="M21.95,42.15l-8.4-4.74,8.4-4.42,8.4,4.42-8.4,4.74ZM16.12,37.45l5.83,3.29,5.83-3.29-5.83-3.07-5.83,3.07Z"/><path class="cls-1" d="M28.51.33h-13.12v1.23h13.12V.33Z"/><path class="cls-1" d="M24.05,12.15L7.85,3.23l1.12-.62,15.63,8.51-.55,1.02Z"/><path class="cls-1" d="M19.84,12.15L36.04,3.23l-1.12-.62-15.63,8.51.55,1.02Z"/></svg>