<svg width="18" height="24" viewBox="0 0 18 24" fill="none" xmlns="http://www.w3.org/2000/svg">
<path d="M9.4275 23.8046C9.78188 23.3916 18 13.7023 18 8.93022C18 6.56178 17.0518 4.29034 15.364 2.6156C13.6761 0.94086 11.387 0 9 0C6.61305 0 4.32387 0.94086 2.63604 2.6156C0.948212 4.29034 0 6.56178 0 8.93022C0 13.7023 8.21813 23.3916 8.5725 23.8046C8.62531 23.8659 8.69087 23.9151 8.76466 23.9488C8.83846 23.9825 8.91875 24 9 24C9.08125 24 9.16154 23.9825 9.23534 23.9488C9.30914 23.9151 9.37469 23.8659 9.4275 23.8046ZM5.0625 8.93022C5.0625 8.15749 5.29343 7.40212 5.72609 6.75962C6.15875 6.11712 6.7737 5.61636 7.49319 5.32065C8.21267 5.02494 9.00437 4.94757 9.76817 5.09832C10.532 5.24907 11.2336 5.62117 11.7842 6.16757C12.3349 6.71397 12.7099 7.41013 12.8618 8.168C13.0138 8.92588 12.9358 9.71144 12.6378 10.4253C12.3398 11.1393 11.8351 11.7494 11.1876 12.1787C10.54 12.608 9.77877 12.8372 9 12.8372C7.95571 12.8372 6.95419 12.4256 6.21577 11.6929C5.47734 10.9602 5.0625 9.96641 5.0625 8.93022Z" fill="#222222"/>
</svg>
