<?xml version="1.0" encoding="UTF-8"?><svg id="Layer_1" xmlns="http://www.w3.org/2000/svg" viewBox="0 0 21 20"><defs><style>.cls-1{fill:#222;}</style></defs><path class="cls-1" d="m18.5,8c.13,0,.26-.05.35-.15l2-2c.2-.2.2-.51,0-.71l-2-2c-.09-.09-.22-.15-.35-.15h-7.5V.5c0-.28-.22-.5-.5-.5s-.5.22-.5.5v2.5H2.5c-.28,0-.5.22-.5.5v4c0,.28.22.5.5.5h7.5v1H2.5c-.13,0-.26.05-.35.15L.15,11.15c-.2.2-.2.51,0,.71l2,2c.09.09.22.15.35.15h7.5v5.5c0,.28.22.5.5.5s.5-.22.5-.5v-5.5h7.5c.28,0,.5-.22.5-.5v-4c0-.28-.22-.5-.5-.5h-7.5v-1h7.5Zm-8.5,5H2.71l-1.5-1.5,1.5-1.5h7.29v3Zm8-3v3h-7v-3h7ZM3,7v-3h15.29l1.5,1.5-1.5,1.5H3Z"/></svg>