<svg width="24" height="16" viewBox="0 0 24 16" fill="none" xmlns="http://www.w3.org/2000/svg">
<g clip-path="url(#clip0_247_18155)">
<path d="M15.2459 13.831H8.75586V2.16797H15.2459V13.831Z" fill="#FF5F00"/>
<path d="M9.167 8.00035C9.16602 6.8772 9.42058 5.76854 9.9114 4.75831C10.4022 3.74808 11.1164 2.86275 12 2.16935C10.9059 1.30948 9.59187 0.77476 8.20821 0.626311C6.82456 0.477861 5.42704 0.721668 4.17539 1.32987C2.92374 1.93807 1.86843 2.88612 1.13008 4.06569C0.391732 5.24526 0.000119671 6.60875 0 8.00035C0.000267045 9.39177 0.391926 10.7551 1.13023 11.9345C1.86853 13.1138 2.9237 14.0618 4.17517 14.6699C5.42665 15.2781 6.82396 15.522 8.20746 15.3737C9.59096 15.2254 10.9048 14.6909 11.999 13.8314C11.1157 13.1377 10.4018 12.2524 9.91115 11.2422C9.42052 10.232 9.16605 9.1234 9.167 8.00035Z" fill="#EB001B"/>
<path d="M24 8.00035C23.9999 9.39195 23.6083 10.7554 22.8699 11.935C22.1316 13.1146 21.0763 14.0626 19.8246 14.6708C18.573 15.279 17.1754 15.5228 15.7918 15.3744C14.4081 15.2259 13.0941 14.6912 12 13.8314C13.725 12.4734 14.833 10.3664 14.833 8.00035C14.833 5.63435 13.725 3.52735 12 2.16935C13.0941 1.30948 14.4081 0.77476 15.7918 0.626311C17.1754 0.477861 18.573 0.721668 19.8246 1.32987C21.0763 1.93807 22.1316 2.88612 22.8699 4.06569C23.6083 5.24526 23.9999 6.60875 24 8.00035Z" fill="#F79E1B"/>
</g>
<defs>
<clipPath id="clip0_247_18155">
<rect width="24" height="16" fill="white"/>
</clipPath>
</defs>
</svg>
