<svg width="37" height="12" viewBox="0 0 37 12" fill="none" xmlns="http://www.w3.org/2000/svg">
<g clip-path="url(#clip0_247_18165)">
<path fill-rule="evenodd" clip-rule="evenodd" d="M32.8486 0.518555H25.8262C26.2037 2.94607 28.469 5.21697 30.9609 5.21697H36.5486C36.6241 4.98205 36.6241 4.66882 36.6241 4.4339C36.6241 2.24131 34.9629 0.518555 32.8486 0.518555Z" fill="url(#paint0_linear_247_18165)"/>
<path fill-rule="evenodd" clip-rule="evenodd" d="M26.4277 5.6084V11.4814H29.8257V8.34914H32.8461C34.5073 8.34914 35.942 7.17454 36.3951 5.6084H26.4277Z" fill="#4DB45F"/>
<path fill-rule="evenodd" clip-rule="evenodd" d="M14.3457 0.518555V11.4815H17.3661C17.3661 11.4815 18.1212 11.4815 18.4988 10.6984C20.5375 6.46988 21.1416 5.21697 21.1416 5.21697H21.5192V11.4815H24.9171V0.518555H21.8967C21.8967 0.518555 21.1416 0.596862 20.7641 1.30162C19.0273 4.90374 18.1212 6.7831 18.1212 6.7831H17.7437V0.518555H14.3457Z" fill="#4DB45F"/>
<path fill-rule="evenodd" clip-rule="evenodd" d="M0 11.4815V0.518555H3.39796C3.39796 0.518555 4.37959 0.518555 4.90816 2.08469C6.26735 6.23496 6.41837 6.7831 6.41837 6.7831C6.41837 6.7831 6.72041 5.76512 7.92857 2.08469C8.45714 0.518555 9.43878 0.518555 9.43878 0.518555H12.8367V11.4815H9.43878V5.6085H9.06122L7.17347 11.4815H5.66327L3.77551 5.6085H3.39796V11.4815H0Z" fill="#4DB45F"/>
</g>
<defs>
<linearGradient id="paint0_linear_247_18165" x1="25.8067" y1="2.86776" x2="36.6241" y2="2.86776" gradientUnits="userSpaceOnUse">
<stop stop-color="#00B4E6"/>
<stop offset="1" stop-color="#088CCB"/>
</linearGradient>
<clipPath id="clip0_247_18165">
<rect width="37" height="12" fill="white"/>
</clipPath>
</defs>
</svg>
