<svg width="20" height="20" viewBox="0 0 20 20" fill="none" xmlns="http://www.w3.org/2000/svg">
<path d="M10.0007 20H1.00066C0.802915 20 0.609616 19.9413 0.445206 19.8314C0.280796 19.7215 0.152657 19.5654 0.0769869 19.3827C0.0013169 19.2 -0.0184861 18.9989 0.0200814 18.805C0.058649 18.611 0.153855 18.4329 0.293665 18.293L2.25766 16.329C0.820614 14.571 0.024609 12.3764 0.000561266 10.1059C-0.0234864 7.83547 0.725855 5.62442 2.12535 3.83642C3.52484 2.04841 5.49116 0.789912 7.70092 0.267887C9.91067 -0.254139 12.2323 -0.00860637 14.284 0.964105C16.3356 1.93682 17.9952 3.57879 18.9897 5.61998C19.9843 7.66117 20.2545 9.98005 19.7561 12.1952C19.2576 14.4104 18.0202 16.3901 16.2472 17.8085C14.4742 19.227 12.2712 19.9999 10.0007 20Z" fill="#B2B1FF"/>
</svg>
