<svg width="26" height="26" viewBox="0 0 26 26" fill="none" xmlns="http://www.w3.org/2000/svg">
<path d="M22.9994 17.9738V20.9846C23.0005 21.2642 22.9431 21.5408 22.831 21.7969C22.7188 22.053 22.5542 22.2829 22.3478 22.4719C22.1415 22.6608 21.8978 22.8047 21.6325 22.8942C21.3672 22.9838 21.0861 23.017 20.8072 22.9919C17.7128 22.6563 14.7404 21.601 12.1289 19.9108C9.69921 18.3699 7.63926 16.3141 6.09534 13.8892C4.39586 11.271 3.33824 8.29008 3.00816 5.18795C2.98303 4.91042 3.01608 4.63071 3.1052 4.36663C3.19432 4.10254 3.33757 3.85987 3.52581 3.65407C3.71405 3.44826 3.94317 3.28383 4.19858 3.17123C4.45398 3.05864 4.73008 3.00036 5.0093 3.0001H8.02608C8.5141 2.9953 8.98722 3.16778 9.35725 3.48537C9.72727 3.80297 9.96896 4.24401 10.0373 4.72629C10.1646 5.68982 10.4007 6.63587 10.7412 7.54641C10.8765 7.90563 10.9058 8.29602 10.8256 8.67133C10.7454 9.04665 10.559 9.39115 10.2887 9.66402L9.01156 10.9386C10.4431 13.4512 12.5276 15.5315 15.0451 16.9602L16.3222 15.6856C16.5956 15.4158 16.9408 15.2298 17.3169 15.1498C17.6929 15.0698 18.0841 15.099 18.444 15.234C19.3564 15.5738 20.3043 15.8095 21.2698 15.9365C21.7582 16.0053 22.2044 16.2509 22.5233 16.6265C22.8422 17.0021 23.0116 17.4817 22.9994 17.9738Z" fill="#222222"/>
</svg>
