<svg width="32" height="12" viewBox="0 0 32 12" fill="none" xmlns="http://www.w3.org/2000/svg">
<g clip-path="url(#clip0_247_18160)">
<path d="M11.4668 11.5123H14.0568L15.7215 1.1543H12.9468L11.4668 11.5123Z" fill="#1565C0"/>
<path d="M9.24833 0.968847L6.84367 8.36751L6.38967 6.28351C5.095 3.13885 2.875 1.84418 2.875 1.84418L5.179 11.3268H7.95367L11.8383 0.968179H9.24833V0.968847ZM29.965 0.968847H27.1903L22.9357 11.3275H25.525L26.0797 9.84751H29.409L29.779 11.3275H31.9997L29.965 0.968847ZM26.6357 7.99751L28.1157 4.11351L28.8557 7.99751H26.6357ZM19.2363 3.92818C19.2363 3.37351 19.6063 2.81818 20.901 2.81818C21.8257 2.81818 22.751 3.55818 22.751 3.55818L23.3057 1.33885C23.3057 1.33885 22.011 0.78418 20.901 0.78418C18.1263 0.78418 16.8317 2.26418 16.8317 3.92885C16.8317 7.25818 20.531 6.70351 20.531 8.36818C20.531 8.73818 20.3463 9.29285 18.8663 9.29285C17.3863 9.29285 16.277 8.73818 16.277 8.73818L15.907 10.9575C15.907 10.9575 16.8317 11.5122 18.6817 11.5122C20.3463 11.6968 22.9363 10.2175 22.9363 7.99751C22.9363 5.40818 19.2363 5.22351 19.2363 3.92818Z" fill="#1565C0"/>
<path d="M6.474 6.70296L5.54933 2.07896C5.54933 2.07896 5.17933 1.1543 4.06933 1.1543C2.95933 1.1543 0 1.1543 0 1.1543C0 1.1543 5.364 2.81896 6.474 6.70296Z" fill="#FF9800"/>
</g>
<defs>
<clipPath id="clip0_247_18160">
<rect width="32" height="12" fill="white"/>
</clipPath>
</defs>
</svg>
