<svg width="26" height="26" viewBox="0 0 26 26" fill="none" xmlns="http://www.w3.org/2000/svg">
<path d="M12.7418 19.0394H14.1758C14.1758 19.0394 14.6093 18.9914 14.8298 18.7529C15.0338 18.5339 15.0263 18.1229 15.0263 18.1229C15.0263 18.1229 14.9978 16.1984 15.8918 15.9149C16.7723 15.6359 17.9033 17.7749 19.1018 18.5984C20.0078 19.2209 20.6963 19.0844 20.6963 19.0844L23.9018 19.0394C23.9018 19.0394 25.5788 18.9359 24.7838 17.6174C24.7193 17.5094 24.3203 16.6424 22.4003 14.8604C20.3903 12.9944 20.6603 13.2974 23.0813 10.0709C24.5558 8.10592 25.1453 6.90592 24.9608 6.39292C24.7853 5.90392 23.7008 6.03292 23.7008 6.03292L20.0948 6.05392C20.0948 6.05392 19.8278 6.01792 19.6283 6.13642C19.4348 6.25342 19.3103 6.52342 19.3103 6.52342C19.3103 6.52342 18.7388 8.04442 17.9768 9.33742C16.3703 12.0659 15.7268 12.2099 15.4643 12.0404C14.8538 11.6459 15.0068 10.4534 15.0068 9.60742C15.0068 6.96292 15.4073 5.86042 14.2253 5.57542C13.8323 5.48092 13.5443 5.41792 12.5408 5.40742C11.2538 5.39392 10.1633 5.41192 9.54685 5.71342C9.13585 5.91442 8.81935 6.36292 9.01285 6.38842C9.25135 6.41992 9.79135 6.53392 10.0778 6.92392C10.4483 7.42642 10.4348 8.55742 10.4348 8.55742C10.4348 8.55742 10.6478 11.6699 9.93835 12.0569C9.45085 12.3224 8.78335 11.7809 7.35085 9.30442C6.61735 8.03692 6.06235 6.63442 6.06235 6.63442C6.06235 6.63442 5.95585 6.37342 5.76535 6.23392C5.53435 6.06442 5.21035 6.01042 5.21035 6.01042L1.78135 6.03142C1.78135 6.03142 1.26685 6.04642 1.07785 6.26992C0.909847 6.46942 1.06435 6.88042 1.06435 6.88042C1.06435 6.88042 3.74935 13.1609 6.78835 16.3274C9.57685 19.2299 12.7418 19.0394 12.7418 19.0394Z" fill="#222222"/>
</svg>
