<svg width="26" height="26" viewBox="0 0 26 26" fill="none" xmlns="http://www.w3.org/2000/svg">
<path d="M17.9834 15.1667C17.7667 15.0584 16.3584 14.4084 16.1417 14.3001C15.9251 14.1917 15.7084 14.1917 15.4917 14.4084C15.2751 14.6251 14.8417 15.2751 14.6251 15.4917C14.5167 15.7084 14.3001 15.7084 14.0834 15.6001C13.3251 15.2751 12.5667 14.8417 11.9167 14.3001C11.3751 13.7584 10.8334 13.1084 10.4001 12.4584C10.2917 12.2417 10.4001 12.0251 10.5084 11.9167C10.6167 11.8084 10.7251 11.5917 10.9417 11.4834C11.0501 11.3751 11.1584 11.1584 11.1584 11.0501C11.2667 10.9417 11.2667 10.7251 11.1584 10.6167C11.0501 10.5084 10.5084 9.2084 10.2917 8.66673C10.1834 7.9084 9.96675 7.9084 9.75008 7.9084H9.20842C8.99175 7.9084 8.66675 8.12507 8.55841 8.2334C7.90841 8.8834 7.58342 9.64173 7.58342 10.5084C7.69175 11.4834 8.01675 12.4584 8.66675 13.3251C9.85842 15.0584 11.3751 16.4667 13.2167 17.3334C13.7584 17.5501 14.1917 17.7667 14.7334 17.8751C15.2751 18.0917 15.8167 18.0917 16.4667 17.9834C17.2251 17.8751 17.8751 17.3334 18.3084 16.6834C18.5251 16.2501 18.5251 15.8167 18.4167 15.3834L17.9834 15.1667ZM20.6917 5.3084C16.4667 1.0834 9.64175 1.0834 5.41675 5.3084C1.95008 8.77507 1.30008 14.0834 3.68341 18.3084L2.16675 23.8334L7.90842 22.3167C9.53342 23.1834 11.2667 23.6167 13.0001 23.6167C18.9584 23.6167 23.7251 18.8501 23.7251 12.8917C23.8334 10.0751 22.6417 7.36673 20.6917 5.3084ZM17.7667 20.4751C16.3584 21.3417 14.7334 21.8834 13.0001 21.8834C11.3751 21.8834 9.85842 21.4501 8.45008 20.6917L8.12508 20.4751L4.76675 21.3417L5.63341 18.0917L5.41675 17.7667C2.81675 13.4334 4.11675 8.01673 8.34175 5.3084C12.5667 2.60007 17.9834 4.0084 20.5834 8.12507C23.1834 12.3501 21.9917 17.8751 17.7667 20.4751Z" fill="#222222"/>
</svg>
