<svg width="20" height="20" viewBox="0 0 20 20" fill="none" xmlns="http://www.w3.org/2000/svg">
<path d="M18.4375 3.125H1.5625C1.23109 3.12537 0.913367 3.25719 0.679028 3.49153C0.444688 3.72587 0.312872 4.04359 0.3125 4.375V11.25C0.312872 11.5814 0.444688 11.8991 0.679028 12.1335C0.913367 12.3678 1.23109 12.4996 1.5625 12.5H18.4375C18.7689 12.4996 19.0866 12.3678 19.321 12.1335C19.5553 11.8991 19.6871 11.5814 19.6875 11.25V4.375C19.6871 4.04359 19.5553 3.72587 19.321 3.49153C19.0866 3.25719 18.7689 3.12537 18.4375 3.125ZM19.0625 11.25C19.0623 11.4157 18.9964 11.5745 18.8792 11.6917C18.762 11.8089 18.6032 11.8748 18.4375 11.875H1.5625C1.39681 11.8748 1.23796 11.8089 1.1208 11.6917C1.00363 11.5745 0.937717 11.4157 0.9375 11.25V4.375C0.937717 4.20931 1.00363 4.05046 1.1208 3.9333C1.23796 3.81613 1.39681 3.75022 1.5625 3.75H18.4375C18.6032 3.75022 18.762 3.81613 18.8792 3.9333C18.9964 4.05046 19.0623 4.20931 19.0625 4.375V11.25Z" fill="#222222"/>
<path d="M17.1875 9.375H2.8125C2.72962 9.375 2.65013 9.40792 2.59153 9.46653C2.53292 9.52513 2.5 9.60462 2.5 9.6875V10.9375C2.5 11.0204 2.53292 11.0999 2.59153 11.1585C2.65013 11.2171 2.72962 11.25 2.8125 11.25H17.1875C17.2704 11.25 17.3499 11.2171 17.4085 11.1585C17.4671 11.0999 17.5 11.0204 17.5 10.9375V9.6875C17.5 9.60462 17.4671 9.52513 17.4085 9.46653C17.3499 9.40792 17.2704 9.375 17.1875 9.375ZM16.875 10.625H3.125V10H16.875V10.625ZM6.5625 5.9375V4.6875C6.5625 4.60462 6.52958 4.52513 6.47097 4.46653C6.41237 4.40792 6.33288 4.375 6.25 4.375H1.875C1.79212 4.375 1.71263 4.40792 1.65403 4.46653C1.59542 4.52513 1.5625 4.60462 1.5625 4.6875V5.9375C1.5625 6.02038 1.59542 6.09987 1.65403 6.15847C1.71263 6.21708 1.79212 6.25 1.875 6.25H6.25C6.33288 6.25 6.41237 6.21708 6.47097 6.15847C6.52958 6.09987 6.5625 6.02038 6.5625 5.9375ZM5.9375 5.625H2.1875V5H5.9375V5.625ZM10.26 13.2641C10.2373 13.2298 10.2081 13.2002 10.174 13.1771C10.1399 13.1541 10.1015 13.138 10.0612 13.1298C10.0208 13.1217 9.97922 13.1215 9.93882 13.1295C9.89841 13.1374 9.85997 13.1533 9.82571 13.1761C9.79145 13.199 9.76204 13.2283 9.73918 13.2626C9.71631 13.2968 9.70044 13.3353 9.69248 13.3757C9.68451 13.4161 9.68461 13.4576 9.69277 13.498C9.70092 13.5384 9.71697 13.5767 9.74 13.6109C9.7448 13.6181 10.2178 14.3402 9.77906 14.779C9.14141 15.4167 9.47469 16.3379 9.74 16.7359C9.78618 16.8043 9.8576 16.8517 9.93863 16.8677C10.0197 16.8837 10.1037 16.8669 10.1724 16.8211C10.2412 16.7753 10.2889 16.7041 10.3053 16.6232C10.3218 16.5423 10.3055 16.4581 10.26 16.3891C10.2552 16.3819 9.78219 15.6598 10.2209 15.221C10.8586 14.5833 10.5254 13.6621 10.26 13.2641ZM8.385 13.2641C8.36234 13.2298 8.33311 13.2002 8.29898 13.1771C8.26486 13.1541 8.22651 13.138 8.18616 13.1298C8.1458 13.1217 8.10422 13.1215 8.06382 13.1295C8.02341 13.1374 7.98497 13.1533 7.95071 13.1761C7.91645 13.199 7.88704 13.2283 7.86418 13.2626C7.84131 13.2968 7.82544 13.3353 7.81748 13.3757C7.80951 13.4161 7.80961 13.4576 7.81777 13.498C7.82592 13.5384 7.84197 13.5767 7.865 13.6109C7.8698 13.6181 8.34281 14.3402 7.90406 14.779C7.26641 15.4167 7.59969 16.3379 7.865 16.7359C7.91118 16.8043 7.9826 16.8517 8.06363 16.8677C8.14466 16.8837 8.22872 16.8669 8.29744 16.8211C8.36615 16.7753 8.41394 16.7041 8.43035 16.6232C8.44675 16.5423 8.43045 16.4581 8.385 16.3891C8.3802 16.3819 7.90719 15.6598 8.34594 15.221C8.98363 14.5833 8.65035 13.6621 8.385 13.2641ZM12.135 13.2641C12.1123 13.2298 12.0831 13.2002 12.049 13.1771C12.0149 13.1541 11.9765 13.138 11.9362 13.1298C11.8958 13.1217 11.8542 13.1215 11.8138 13.1295C11.7734 13.1374 11.735 13.1533 11.7007 13.1761C11.6665 13.199 11.637 13.2283 11.6142 13.2626C11.5913 13.2968 11.5754 13.3353 11.5675 13.3757C11.5595 13.4161 11.5596 13.4576 11.5678 13.498C11.5759 13.5384 11.592 13.5767 11.615 13.6109C11.6198 13.6181 12.0928 14.3402 11.6541 14.779C11.0164 15.4167 11.3497 16.3379 11.615 16.7359C11.6612 16.8043 11.7326 16.8517 11.8136 16.8677C11.8947 16.8837 11.9787 16.8669 12.0474 16.8211C12.1162 16.7753 12.1639 16.7041 12.1803 16.6232C12.1968 16.5423 12.1805 16.4581 12.135 16.3891C12.1302 16.3819 11.6572 15.6598 12.0959 15.221C12.7336 14.5833 12.4004 13.6621 12.135 13.2641ZM14.01 13.2641C13.9873 13.2298 13.9581 13.2002 13.924 13.1771C13.8899 13.1541 13.8515 13.138 13.8112 13.1298C13.7708 13.1217 13.7292 13.1215 13.6888 13.1295C13.6484 13.1374 13.61 13.1533 13.5757 13.1761C13.5415 13.199 13.512 13.2283 13.4892 13.2626C13.4663 13.2968 13.4504 13.3353 13.4425 13.3757C13.4345 13.4161 13.4346 13.4576 13.4428 13.498C13.4509 13.5384 13.467 13.5767 13.49 13.6109C13.4948 13.6181 13.9678 14.3402 13.5291 14.779C12.8914 15.4167 13.2247 16.3379 13.49 16.7359C13.5362 16.8043 13.6076 16.8517 13.6886 16.8677C13.7697 16.8837 13.8537 16.8669 13.9224 16.8211C13.9912 16.7753 14.0389 16.7041 14.0553 16.6232C14.0718 16.5423 14.0555 16.4581 14.01 16.3891C14.0052 16.3819 13.5322 15.6598 13.9709 15.221C14.6086 14.5833 14.2754 13.6621 14.01 13.2641ZM6.51 13.2641C6.48734 13.2298 6.45811 13.2002 6.42398 13.1771C6.38986 13.1541 6.35151 13.138 6.31116 13.1298C6.2708 13.1217 6.22922 13.1215 6.18882 13.1295C6.14841 13.1374 6.10997 13.1533 6.07571 13.1761C6.04145 13.199 6.01204 13.2283 5.98918 13.2626C5.96631 13.2968 5.95044 13.3353 5.94248 13.3757C5.93451 13.4161 5.93461 13.4576 5.94277 13.498C5.95092 13.5384 5.96697 13.5767 5.99 13.6109C5.9948 13.6181 6.46781 14.3402 6.02906 14.779C5.39141 15.4167 5.72469 16.3379 5.99 16.7359C6.03618 16.8043 6.1076 16.8517 6.18863 16.8677C6.26966 16.8837 6.35372 16.8669 6.42244 16.8211C6.49115 16.7753 6.53894 16.7041 6.55535 16.6232C6.57175 16.5423 6.55545 16.4581 6.51 16.3891C6.5052 16.3819 6.03219 15.6598 6.47094 15.221C7.10863 14.5833 6.77535 13.6621 6.51 13.2641ZM18.125 4.375H16.875C16.7921 4.375 16.7126 4.40792 16.654 4.46653C16.5954 4.52513 16.5625 4.60462 16.5625 4.6875V5.9375C16.5625 6.02038 16.5954 6.09987 16.654 6.15847C16.7126 6.21708 16.7921 6.25 16.875 6.25H18.125C18.2079 6.25 18.2874 6.21708 18.346 6.15847C18.4046 6.09987 18.4375 6.02038 18.4375 5.9375V4.6875C18.4375 4.60462 18.4046 4.52513 18.346 4.46653C18.2874 4.40792 18.2079 4.375 18.125 4.375ZM17.8125 5.625H17.1875V5H17.8125V5.625ZM14.6875 6.25H15.9375C16.0204 6.25 16.0999 6.21708 16.1585 6.15847C16.2171 6.09987 16.25 6.02038 16.25 5.9375V4.6875C16.25 4.60462 16.2171 4.52513 16.1585 4.46653C16.0999 4.40792 16.0204 4.375 15.9375 4.375H14.6875C14.6046 4.375 14.5251 4.40792 14.4665 4.46653C14.4079 4.52513 14.375 4.60462 14.375 4.6875V5.9375C14.375 6.02038 14.4079 6.09987 14.4665 6.15847C14.5251 6.21708 14.6046 6.25 14.6875 6.25ZM15 5H15.625V5.625H15V5Z" fill="#222222"/>
</svg>
