<svg width="20" height="20" viewBox="0 0 20 20" fill="none" xmlns="http://www.w3.org/2000/svg">
<path d="M17.428 12.6818L12.4 10.2258V9.49984C12.4 8.83784 11.862 8.29984 11.2 8.29984H10.456C10.548 8.02984 10.748 7.79384 11.026 7.64584C11.772 7.25184 12.222 6.48184 12.198 5.63784C12.166 4.49184 11.208 3.53184 10.06 3.49984C9.464 3.48384 8.894 3.70384 8.464 4.12184C8.036 4.53984 7.8 5.09984 7.8 5.69984C7.8 5.91984 7.98 6.09984 8.2 6.09984C8.42 6.09984 8.6 5.91984 8.6 5.69984C8.6 5.31784 8.75 4.96184 9.024 4.69584C9.298 4.42984 9.656 4.29384 10.04 4.29984C10.77 4.31984 11.38 4.92984 11.4 5.65984C11.414 6.19784 11.128 6.68784 10.654 6.93784C10.108 7.22584 9.738 7.73184 9.634 8.29984H8.8C8.138 8.29984 7.6 8.83784 7.6 9.49984V10.2258L2.572 12.6818C1.616 13.1478 1 14.1358 1 15.1978V16.0998C1 16.3198 1.18 16.4998 1.4 16.4998H18.6C18.82 16.4998 19 16.3198 19 16.0998V15.1978C19 14.1358 18.384 13.1478 17.428 12.6818ZM2.922 13.4018L8.176 10.8358C8.314 10.7698 8.4 10.6298 8.4 10.4758V9.49984C8.4 9.27984 8.58 9.09984 8.8 9.09984H11.2C11.42 9.09984 11.6 9.27984 11.6 9.49984V10.4758C11.6 10.6278 11.688 10.7678 11.824 10.8358L17.078 13.4018C17.76 13.7338 18.2 14.4398 18.2 15.1978V15.4578L10.176 11.5398C10.066 11.4858 9.936 11.4858 9.824 11.5398L1.8 15.4598V15.1998C1.8 14.4398 2.24 13.7338 2.922 13.4018ZM16.87 15.6998H3.13L10 12.3458L16.87 15.6998Z" fill="#222222"/>
</svg>
