<svg width="20" height="20" viewBox="0 0 20 20" fill="none" xmlns="http://www.w3.org/2000/svg">
<g clip-path="url(#clip0_182_6844)">
<path d="M5.11906 3.39984C5.11906 2.55984 4.43906 1.83984 3.55906 1.83984C2.67906 1.83984 2.03906 2.55984 2.03906 3.39984C2.03906 4.23984 2.71906 4.95984 3.59906 4.95984C4.47906 4.95984 5.11906 4.23984 5.11906 3.39984ZM2.83906 3.39984C2.83906 2.99984 3.15906 2.63984 3.59906 2.63984C3.99906 2.63984 4.35906 2.95984 4.35906 3.39984C4.35906 3.83984 4.03906 4.15984 3.59906 4.15984C3.15906 4.15984 2.83906 3.79984 2.83906 3.39984Z" fill="#222222"/>
<path d="M15.8399 8.72039C12.9599 8.72039 11.1599 11.8404 12.5999 14.3604L15.0399 18.6004L8.15989 17.0404L9.35989 14.3204C9.43989 14.1604 9.39989 13.9604 9.27989 13.8804L4.07989 9.04039L6.31989 5.16039C7.55989 3.04039 5.99989 0.400391 3.55989 0.400391C1.11989 0.400391 -0.400109 3.04039 0.839891 5.16039L3.23989 9.32039C3.23989 9.36039 3.27989 9.40039 3.31989 9.40039L8.55989 14.2404L7.27989 17.1204C7.23989 17.2404 7.23989 17.3604 7.27989 17.4804C7.31989 17.6004 7.43989 17.6804 7.55989 17.6804C7.59989 17.6804 16.4399 19.6804 15.8799 19.5604C15.9199 19.5604 15.9599 19.5604 15.9999 19.5204H16.0399C16.0799 19.5204 16.0799 19.4804 16.1199 19.4804C16.1199 19.4804 16.1599 19.4804 16.1599 19.4404C16.1999 19.4404 16.1999 19.4004 16.1999 19.3604C16.1999 19.3604 16.1999 19.3604 16.2399 19.3204L19.1599 14.2804C20.5199 11.8804 18.7199 8.72039 15.8399 8.72039ZM3.55989 1.20039C5.39989 1.20039 6.51989 3.20039 5.59989 4.76039L3.55989 8.32039L1.51989 4.76039C0.599891 3.16039 1.75989 1.20039 3.55989 1.20039ZM18.3999 13.9604L15.8399 18.4004L13.2799 13.9604C12.1599 12.0004 13.5599 9.52039 15.8399 9.52039C18.1199 9.52039 19.5199 12.0004 18.3999 13.9604Z" fill="#222222"/>
<path d="M15.8391 10.4805C14.8391 10.4805 14.0391 11.2805 14.0391 12.2805C14.0391 13.2805 14.8391 14.0805 15.8391 14.0805C16.8391 14.0805 17.6391 13.2805 17.6391 12.2805C17.6391 11.2805 16.8391 10.4805 15.8391 10.4805ZM15.8391 13.2805C15.2791 13.2805 14.8391 12.8405 14.8391 12.2805C14.8391 11.7205 15.2791 11.2805 15.8391 11.2805C16.3991 11.2805 16.8391 11.7205 16.8391 12.2805C16.8391 12.8405 16.3991 13.2805 15.8391 13.2805Z" fill="#222222"/>
</g>
<defs>
<clipPath id="clip0_182_6844">
<rect width="20" height="20" fill="white"/>
</clipPath>
</defs>
</svg>
