<svg width="20" height="20" viewBox="0 0 20 20" fill="none" xmlns="http://www.w3.org/2000/svg">
<g clip-path="url(#clip0_247_18258)">
<path d="M18.5352 3.32031H1.46484C1.07648 3.32075 0.70414 3.47522 0.429522 3.74983C0.154905 4.02445 0.000434242 4.39679 0 4.78516L0 15.0586C0.000434242 15.447 0.154905 15.8193 0.429522 16.0939C0.70414 16.3685 1.07648 16.523 1.46484 16.5234H8.4375V17.6562H6.33625C6.19274 17.6561 6.05285 17.7012 5.93643 17.7851C5.82001 17.869 5.73299 17.9875 5.68773 18.1237L5.36219 19.1002C5.32793 19.203 5.31859 19.3124 5.33493 19.4195C5.35126 19.5266 5.39281 19.6282 5.45614 19.7161C5.51948 19.804 5.60278 19.8755 5.6992 19.9249C5.79562 19.9743 5.90239 20 6.0107 20H13.9893C14.0976 20 14.2044 19.9743 14.3008 19.9249C14.3972 19.8755 14.4805 19.804 14.5439 19.7161C14.6072 19.6282 14.6487 19.5266 14.6651 19.4195C14.6814 19.3124 14.6721 19.203 14.6378 19.1002L14.3123 18.1237C14.267 17.9875 14.18 17.869 14.0636 17.7851C13.9472 17.7012 13.8073 17.6561 13.6637 17.6562H11.5625V16.5234H16.4844V19.1211C16.4846 19.3541 16.5773 19.5775 16.7421 19.7423C16.9069 19.9071 17.1303 19.9997 17.3633 20H19.1211C19.3541 19.9997 19.5775 19.9071 19.7423 19.7423C19.9071 19.5775 19.9997 19.3541 20 19.1211V4.78516C19.9996 4.39679 19.8451 4.02445 19.5705 3.74983C19.2959 3.47522 18.9235 3.32075 18.5352 3.32031ZM13.6637 18.2422C13.6843 18.2422 13.7042 18.2486 13.7209 18.2606C13.7375 18.2726 13.7499 18.2895 13.7564 18.309L14.082 19.2855C14.0868 19.3002 14.0882 19.3159 14.0858 19.3312C14.0835 19.3464 14.0776 19.361 14.0685 19.3735C14.0595 19.3861 14.0476 19.3963 14.0338 19.4033C14.02 19.4104 14.0048 19.4141 13.9893 19.4141H6.0107C5.99523 19.4141 5.97998 19.4104 5.96621 19.4033C5.95243 19.3963 5.94053 19.3861 5.93148 19.3735C5.92244 19.361 5.9165 19.3464 5.91416 19.3312C5.91183 19.3159 5.91316 19.3002 5.91805 19.2855L6.24359 18.309C6.25005 18.2895 6.26248 18.2726 6.27911 18.2606C6.29573 18.2486 6.31571 18.2422 6.33621 18.2422H13.6637ZM9.02344 17.6562V16.5234H10.9766V17.6562H9.02344ZM16.4844 12.1289V14.7656H1.75781V5.07812H18.2422V11.25H17.3633C17.1303 11.2503 16.9069 11.3429 16.7421 11.5077C16.5773 11.6725 16.4846 11.8959 16.4844 12.1289ZM19.4141 19.1211C19.414 19.1988 19.3831 19.2732 19.3282 19.3282C19.2732 19.3831 19.1988 19.414 19.1211 19.4141H17.3633C17.2856 19.414 17.2111 19.3831 17.1562 19.3282C17.1013 19.2732 17.0704 19.1988 17.0703 19.1211V12.1289C17.0704 12.0512 17.1013 11.9768 17.1562 11.9218C17.2111 11.8669 17.2856 11.836 17.3633 11.8359H19.1211C19.1988 11.836 19.2732 11.8669 19.3282 11.9218C19.3831 11.9768 19.414 12.0512 19.4141 12.1289V19.1211ZM19.4141 11.3004C19.32 11.267 19.2209 11.25 19.1211 11.25H18.8281V4.78516C18.8281 4.70746 18.7973 4.63294 18.7423 4.578C18.6874 4.52305 18.6129 4.49219 18.5352 4.49219H1.46484C1.38714 4.49219 1.31263 4.52305 1.25768 4.578C1.20274 4.63294 1.17188 4.70746 1.17188 4.78516V15.0586C1.17188 15.1363 1.20274 15.2108 1.25768 15.2658C1.31263 15.3207 1.38714 15.3516 1.46484 15.3516H16.4844V15.9375H1.46484C1.23182 15.9372 1.00842 15.8446 0.843649 15.6798C0.678878 15.515 0.586196 15.2916 0.585938 15.0586V4.78516C0.586196 4.55214 0.678878 4.32873 0.843649 4.16396C1.00842 3.99919 1.23182 3.90651 1.46484 3.90625H18.5352C18.7682 3.90651 18.9916 3.99919 19.1564 4.16396C19.3211 4.32873 19.4138 4.55214 19.4141 4.78516V11.3004ZM17.9715 12.7879C17.9788 12.8055 17.9879 12.8224 17.9984 12.8383C18.0201 12.8703 18.0476 12.8979 18.0797 12.9195C18.0956 12.9301 18.1125 12.9391 18.1301 12.9465C18.1477 12.9537 18.1661 12.9592 18.1848 12.9629C18.2226 12.9707 18.2617 12.9707 18.2996 12.9629C18.3183 12.9592 18.3366 12.9537 18.3543 12.9465C18.3719 12.9391 18.3888 12.9301 18.4047 12.9195C18.4367 12.8979 18.4643 12.8703 18.4859 12.8383C18.4965 12.8224 18.5056 12.8055 18.5129 12.7879C18.5201 12.7702 18.5256 12.7519 18.5293 12.7332C18.5371 12.6953 18.5371 12.6562 18.5293 12.6184C18.5256 12.5997 18.5201 12.5813 18.5129 12.5637C18.5056 12.546 18.4965 12.5292 18.4859 12.5133C18.4643 12.4812 18.4367 12.4537 18.4047 12.432C18.3888 12.4214 18.3719 12.4124 18.3543 12.4051C18.3366 12.3979 18.3183 12.3924 18.2996 12.3887C18.2617 12.3809 18.2226 12.3809 18.1848 12.3887C18.1661 12.3924 18.1477 12.3979 18.1301 12.4051C18.1125 12.4124 18.0956 12.4214 18.0797 12.432C18.0476 12.4537 18.0201 12.4812 17.9984 12.5133C17.9879 12.5292 17.9788 12.546 17.9715 12.5637C17.9643 12.5813 17.9588 12.5997 17.9551 12.6184C17.9473 12.6562 17.9473 12.6953 17.9551 12.7332C17.9588 12.7519 17.9643 12.7702 17.9715 12.7879ZM18.5352 17.0703H17.9492C17.8715 17.0703 17.797 17.1012 17.7421 17.1561C17.6871 17.2111 17.6562 17.2856 17.6562 17.3633C17.6562 17.441 17.6871 17.5155 17.7421 17.5704C17.797 17.6254 17.8715 17.6562 17.9492 17.6562H18.5352C18.6129 17.6562 18.6874 17.6254 18.7423 17.5704C18.7973 17.5155 18.8281 17.441 18.8281 17.3633C18.8281 17.2856 18.7973 17.2111 18.7423 17.1561C18.6874 17.1012 18.6129 17.0703 18.5352 17.0703ZM18.5352 18.2422H17.9492C17.8715 18.2422 17.797 18.2731 17.7421 18.328C17.6871 18.3829 17.6562 18.4575 17.6562 18.5352C17.6562 18.6129 17.6871 18.6874 17.7421 18.7423C17.797 18.7973 17.8715 18.8281 17.9492 18.8281H18.5352C18.6129 18.8281 18.6874 18.7973 18.7423 18.7423C18.7973 18.6874 18.8281 18.6129 18.8281 18.5352C18.8281 18.4575 18.7973 18.3829 18.7423 18.328C18.6874 18.2731 18.6129 18.2422 18.5352 18.2422Z" fill="#222222"/>
</g>
<defs>
<clipPath id="clip0_247_18258">
<rect width="20" height="20" fill="white"/>
</clipPath>
</defs>
</svg>
