<svg width="20" height="20" viewBox="0 0 20 20" fill="none" xmlns="http://www.w3.org/2000/svg">
<path d="M2.16922 8.25534C4.15946 5.97726 7.06754 4.67078 10.1475 4.67078C13.2281 4.67078 16.1362 5.97782 18.1259 8.2559C18.174 8.31156 18.2327 8.35713 18.2985 8.38998C18.3644 8.42283 18.436 8.44232 18.5095 8.44732C18.5829 8.45232 18.6565 8.44273 18.7262 8.4191C18.7959 8.39547 18.8602 8.35828 18.9155 8.30966C19.0272 8.21203 19.0956 8.07403 19.1057 7.92599C19.1158 7.77794 19.0667 7.63194 18.9692 7.52006C16.7667 4.99726 13.5518 3.55078 10.1475 3.55078C6.74386 3.55078 3.5289 4.9967 1.32586 7.51838C1.22904 7.63034 1.18049 7.77608 1.19082 7.92374C1.20115 8.0714 1.26951 8.20896 1.38097 8.30636C1.49243 8.40375 1.63791 8.45306 1.78562 8.4435C1.93333 8.43394 2.07124 8.36629 2.16922 8.25534Z" fill="#222222"/>
<path d="M15.805 10.4762C15.8512 10.5334 15.9083 10.5809 15.973 10.6159C16.0377 10.6509 16.1087 10.6728 16.1819 10.6803C16.255 10.6878 16.329 10.6808 16.3994 10.6596C16.4699 10.6384 16.5354 10.6034 16.5923 10.5568C16.7074 10.4631 16.7806 10.3276 16.7959 10.1799C16.8111 10.0323 16.7671 9.88465 16.6735 9.76944C15.0831 7.81448 12.7037 6.69336 10.1467 6.69336C7.59031 6.69336 5.21143 7.81448 3.61991 9.76832C3.57347 9.82535 3.53872 9.89097 3.51764 9.96143C3.49656 10.0319 3.48956 10.1058 3.49705 10.179C3.51217 10.3267 3.58538 10.4624 3.70055 10.5562C3.81573 10.65 3.96345 10.6942 4.11122 10.6791C4.25898 10.664 4.39468 10.5908 4.48847 10.4756C5.86607 8.78384 7.92911 7.8128 10.1467 7.8128C12.3654 7.81336 14.4279 8.78384 15.805 10.4762Z" fill="#222222"/>
<path d="M13.4303 12.6446C13.5187 12.7576 13.6471 12.8324 13.789 12.8537C13.9309 12.8749 14.0755 12.841 14.1932 12.7589C14.3109 12.6768 14.3926 12.5528 14.4216 12.4122C14.4507 12.2717 14.4247 12.1254 14.3492 12.0034C13.4011 10.6449 11.8309 9.83398 10.1481 9.83398C8.4401 9.83398 6.85698 10.6639 5.91226 12.0538C5.83379 12.1768 5.80633 12.3255 5.83571 12.4683C5.8651 12.6112 5.94902 12.737 6.06965 12.819C6.19028 12.901 6.33812 12.9328 6.48178 12.9075C6.62544 12.8823 6.75361 12.802 6.83906 12.6838C7.5749 11.6002 8.81194 10.954 10.1487 10.954C11.4647 10.954 12.6922 11.5862 13.4303 12.6446Z" fill="#222222"/>
<path d="M10.1473 15.8713C10.7659 15.8713 11.2673 15.3776 11.2673 14.7687C11.2673 14.1597 10.7659 13.666 10.1473 13.666C9.52878 13.666 9.02734 14.1597 9.02734 14.7687C9.02734 15.3776 9.52878 15.8713 10.1473 15.8713Z" fill="#222222"/>
</svg>
