<svg width="148" height="28" viewBox="0 0 148 28" fill="none" xmlns="http://www.w3.org/2000/svg">
<path d="M13.4294 1.75623C13.609 1.20344 14.391 1.20344 14.5706 1.75623L17.0085 9.25917C17.0888 9.50639 17.3192 9.67376 17.5791 9.67376H25.4682C26.0494 9.67376 26.2911 10.4175 25.8209 10.7592L19.4385 15.3962C19.2282 15.549 19.1402 15.8199 19.2205 16.0671L21.6584 23.57C21.838 24.1228 21.2053 24.5825 20.7351 24.2408L14.3527 19.6038C14.1424 19.451 13.8576 19.451 13.6473 19.6038L7.26494 24.2408C6.79472 24.5825 6.16203 24.1228 6.34164 23.57L8.77949 16.0671C8.85982 15.8199 8.77182 15.549 8.56153 15.3962L2.17915 10.7592C1.70892 10.4175 1.95058 9.67376 2.53182 9.67376H10.4209C10.6808 9.67376 10.9112 9.50638 10.9915 9.25917L13.4294 1.75623Z" fill="#FBCA3C"/>
<path d="M43.4294 1.75623C43.609 1.20344 44.391 1.20344 44.5706 1.75623L47.0085 9.25917C47.0888 9.50639 47.3192 9.67376 47.5791 9.67376H55.4682C56.0494 9.67376 56.2911 10.4175 55.8209 10.7592L49.4385 15.3962C49.2282 15.549 49.1402 15.8199 49.2205 16.0671L51.6584 23.57C51.838 24.1228 51.2053 24.5825 50.7351 24.2408L44.3527 19.6038C44.1424 19.451 43.8576 19.451 43.6473 19.6038L37.2649 24.2408C36.7947 24.5825 36.162 24.1228 36.3416 23.57L38.7795 16.0671C38.8598 15.8199 38.7718 15.549 38.5615 15.3962L32.1791 10.7592C31.7089 10.4175 31.9506 9.67376 32.5318 9.67376H40.4209C40.6808 9.67376 40.9112 9.50638 40.9915 9.25917L43.4294 1.75623Z" fill="#ECECEC"/>
<path d="M73.4294 1.75623C73.609 1.20344 74.391 1.20344 74.5706 1.75623L77.0085 9.25917C77.0888 9.50639 77.3192 9.67376 77.5791 9.67376H85.4682C86.0494 9.67376 86.2911 10.4175 85.8209 10.7592L79.4385 15.3962C79.2282 15.549 79.1402 15.8199 79.2205 16.0671L81.6584 23.57C81.838 24.1228 81.2053 24.5825 80.7351 24.2408L74.3527 19.6038C74.1424 19.451 73.8576 19.451 73.6473 19.6038L67.2649 24.2408C66.7947 24.5825 66.162 24.1228 66.3416 23.57L68.7795 16.0671C68.8598 15.8199 68.7718 15.549 68.5615 15.3962L62.1791 10.7592C61.7089 10.4175 61.9506 9.67376 62.5318 9.67376H70.4209C70.6808 9.67376 70.9112 9.50638 70.9915 9.25917L73.4294 1.75623Z" fill="#ECECEC"/>
<path d="M103.429 1.75623C103.609 1.20344 104.391 1.20344 104.571 1.75623L107.008 9.25917C107.089 9.50639 107.319 9.67376 107.579 9.67376H115.468C116.049 9.67376 116.291 10.4175 115.821 10.7592L109.438 15.3962C109.228 15.549 109.14 15.8199 109.221 16.0671L111.658 23.57C111.838 24.1228 111.205 24.5825 110.735 24.2408L104.353 19.6038C104.142 19.451 103.858 19.451 103.647 19.6038L97.2649 24.2408C96.7947 24.5825 96.162 24.1228 96.3416 23.57L98.7795 16.0671C98.8598 15.8199 98.7718 15.549 98.5615 15.3962L92.1791 10.7592C91.7089 10.4175 91.9506 9.67376 92.5318 9.67376H100.421C100.681 9.67376 100.911 9.50638 100.992 9.25917L103.429 1.75623Z" fill="#ECECEC"/>
<path d="M133.429 1.75623C133.609 1.20344 134.391 1.20344 134.571 1.75623L137.008 9.25917C137.089 9.50639 137.319 9.67376 137.579 9.67376H145.468C146.049 9.67376 146.291 10.4175 145.821 10.7592L139.438 15.3962C139.228 15.549 139.14 15.8199 139.221 16.0671L141.658 23.57C141.838 24.1228 141.205 24.5825 140.735 24.2408L134.353 19.6038C134.142 19.451 133.858 19.451 133.647 19.6038L127.265 24.2408C126.795 24.5825 126.162 24.1228 126.342 23.57L128.779 16.0671C128.86 15.8199 128.772 15.549 128.562 15.3962L122.179 10.7592C121.709 10.4175 121.951 9.67376 122.532 9.67376H130.421C130.681 9.67376 130.911 9.50638 130.992 9.25917L133.429 1.75623Z" fill="#ECECEC"/>
</svg>
