<svg width="540" height="220" viewBox="0 0 540 220" fill="none" xmlns="http://www.w3.org/2000/svg">
<g filter="url(#filter0_d_79_40)">
<path d="M523.02 192.415H504.206V182.197L491.631 192.612C490.244 193.136 488.429 193.398 486.185 193.398C481.696 193.398 478.131 192.055 475.491 189.37C472.85 186.619 471.53 182.918 471.53 178.267V154.785L462.717 149.676V146.631L479.649 138.378H483.412V173.355C483.412 176.957 483.973 179.479 485.095 180.92C486.218 182.361 488.231 183.082 491.136 183.082C493.182 183.082 495.195 182.721 497.176 182.001C499.156 181.215 501.499 179.708 504.206 177.481V154.785L495.393 149.676V146.631L512.326 138.378H516.088V185.047L525 188.485L523.02 192.415Z" fill="white"/>
<path d="M459.737 192.415H440.924V183.868L429.735 192.612C428.414 193.136 426.764 193.398 424.784 193.398C419.107 193.398 414.981 191.99 412.406 189.173C409.898 186.357 408.644 182.983 408.644 179.053C408.644 176.695 409.502 174.37 411.218 172.078C412.934 169.785 415.377 167.623 418.546 165.593H440.924V159.305C440.924 155.047 439.769 152.034 437.458 150.266C435.214 148.497 432.111 147.613 428.15 147.613C424.058 147.613 419.041 150.069 413.1 154.982L410.129 151.248L424.388 140.048C427.028 139.524 430.197 139.262 433.893 139.262C439.901 139.262 444.555 140.736 447.855 143.683C451.156 146.565 452.806 150.79 452.806 156.357V185.047L461.718 188.485L459.737 192.415ZM427.952 185.047C431.979 185.047 436.303 183.213 440.924 179.545V169.621H423.397C422.539 170.669 421.912 171.717 421.516 172.765C421.186 173.813 421.021 174.96 421.021 176.204C421.021 178.628 421.648 180.724 422.902 182.492C424.157 184.195 425.84 185.047 427.952 185.047Z" fill="white"/>
<path d="M403.29 192.415H384.477V159.305C384.477 155.702 383.916 153.181 382.794 151.74C381.671 150.299 379.658 149.578 376.753 149.578C374.707 149.578 372.694 149.971 370.713 150.757C368.733 151.478 366.389 152.951 363.683 155.178V185.047L372.595 188.485L370.614 192.415H351.801V159.305C351.801 155.702 351.24 153.181 350.117 151.74C348.995 150.299 346.982 149.578 344.077 149.578C342.031 149.578 340.017 149.971 338.037 150.757C336.057 151.478 333.713 152.951 331.007 155.178V185.047L339.918 188.485L337.938 192.415H310.312V189.37L319.124 182.492V154.687L310.312 149.578V146.532L327.244 138.279L330.413 150.855L343.582 139.949C344.968 139.425 346.784 139.163 349.028 139.163C352.857 139.163 356.025 140.211 358.534 142.308C361.042 144.338 362.627 147.155 363.287 150.757L376.159 140.048C377.546 139.524 379.361 139.262 381.605 139.262C386.094 139.262 389.659 140.637 392.299 143.388C394.94 146.074 396.26 149.742 396.26 154.392V185.047L405.271 188.485L403.29 192.415Z" fill="white"/>
<path d="M305.253 192.415H286.439V183.868L275.25 192.612C273.93 193.136 272.279 193.398 270.299 193.398C264.622 193.398 260.496 191.99 257.922 189.173C255.413 186.357 254.159 182.983 254.159 179.053C254.159 176.695 255.017 174.37 256.733 172.078C258.45 169.785 260.892 167.623 264.061 165.593H286.439V159.305C286.439 155.047 285.284 152.034 282.973 150.266C280.729 148.497 277.626 147.613 273.666 147.613C269.573 147.613 264.556 150.069 258.615 154.982L255.644 151.248L269.903 140.048C272.543 139.524 275.712 139.262 279.409 139.262C285.416 139.262 290.07 140.736 293.37 143.683C296.671 146.565 298.321 150.79 298.321 156.357V185.047L307.233 188.485L305.253 192.415ZM273.468 185.047C277.494 185.047 281.818 183.213 286.439 179.545V169.621H268.913C268.054 170.669 267.427 171.717 267.031 172.765C266.701 173.813 266.536 174.96 266.536 176.204C266.536 178.628 267.163 180.724 268.418 182.492C269.672 184.195 271.355 185.047 273.468 185.047Z" fill="white"/>
<path d="M243.981 139.36C246.159 139.36 248.074 139.95 249.724 141.129C251.374 142.308 252.661 143.945 253.586 146.041L247.05 154.196H243.288C243.024 152.558 242.528 151.412 241.802 150.757C241.142 150.037 240.218 149.676 239.03 149.676C237.578 149.676 236.026 150.069 234.376 150.855C232.792 151.576 230.976 152.984 228.93 155.08V184.359L242.793 188.584L240.812 192.514H208.235V189.468L217.048 182.59V154.785L208.235 149.676V146.631L225.167 138.378L228.237 150.462L238.535 140.048C239.921 139.524 241.736 139.262 243.981 139.262V139.36Z" fill="white"/>
<path d="M203.275 192.415H184.461V183.868L173.272 192.612C171.952 193.136 170.302 193.398 168.321 193.398C162.644 193.398 158.518 191.99 155.944 189.173C153.435 186.357 152.181 182.983 152.181 179.053C152.181 176.695 153.039 174.37 154.756 172.078C156.472 169.785 158.914 167.623 162.083 165.593H184.461V159.305C184.461 155.047 183.306 152.034 180.996 150.266C178.751 148.497 175.649 147.613 171.688 147.613C167.595 147.613 162.578 150.069 156.637 154.982L153.666 151.248L167.925 140.048C170.566 139.524 173.734 139.262 177.431 139.262C183.438 139.262 188.092 140.736 191.393 143.683C194.693 146.565 196.344 150.79 196.344 156.357V185.047L205.255 188.485L203.275 192.415ZM171.49 185.047C175.517 185.047 179.84 183.213 184.461 179.545V169.621H166.935C166.077 170.669 165.45 171.717 165.054 172.765C164.724 173.813 164.558 174.96 164.558 176.204C164.558 178.628 165.186 180.724 166.44 182.492C167.694 184.195 169.377 185.047 171.49 185.047Z" fill="white"/>
<path d="M146.785 192.448H127.893V159.262C127.893 155.651 127.329 153.124 126.202 151.679C125.076 150.235 123.054 149.513 120.137 149.513C117.95 149.513 115.762 149.907 113.575 150.694C111.453 151.482 108.934 152.992 106.018 155.224V185.063L114.967 188.509L112.978 192.448H85.2364V189.396L94.0859 182.502V121.939L85.2364 115.834V112.781L102.239 106.479H106.018V150.596L119.64 139.961C121.032 139.435 122.855 139.173 125.109 139.173C129.616 139.173 133.196 140.551 135.847 143.309C138.499 146 139.825 149.677 139.825 154.338V185.063L148.773 188.509L146.785 192.448Z" fill="#F1D5AB"/>
<path d="M67.281 175.025C67.281 172.995 66.4559 171.095 64.8056 169.327C63.1552 167.558 61.0758 165.953 58.5674 164.512C56.1249 163.006 52.7913 161.172 48.5665 159.01C43.5495 156.39 39.5228 154.163 36.4862 152.329C33.4496 150.43 30.8421 148.203 28.6637 145.648C26.5513 143.094 25.4951 140.277 25.4951 137.198C25.4951 133.923 26.8814 130.419 29.6539 126.686C32.4264 122.887 35.793 119.71 39.7538 117.155C43.7806 114.535 47.4773 113.225 50.8439 113.225C54.9367 113.225 59.6896 113.717 65.1026 114.699C70.5156 115.682 74.4764 116.73 76.9849 117.843V136.904H73.2222C69.9875 131.598 66.4229 127.472 62.5281 124.524C58.6994 121.577 54.6726 120.103 50.4478 120.103C46.6851 120.103 43.6815 121.282 41.4371 123.64C39.2587 125.932 38.1695 128.945 38.1695 132.679C38.1695 134.84 38.9947 136.871 40.645 138.771C42.3613 140.605 44.4407 142.242 46.8832 143.683C49.3916 145.124 52.8573 146.991 57.2801 149.283C62.1651 151.707 66.1258 153.868 69.1624 155.768C72.199 157.602 74.7404 159.763 76.7868 162.252C78.8992 164.676 79.9554 167.427 79.9554 170.506C79.9554 173.781 78.4702 177.318 75.4996 181.117C72.529 184.85 68.8983 188.027 64.6075 190.647C60.3827 193.201 56.521 194.479 53.0223 194.479C48.7315 194.479 43.6155 193.987 37.6744 193.005C31.7993 192.022 27.5745 190.974 25 189.861V170.8H28.7627C32.1294 176.106 35.9581 180.232 40.2489 183.18C44.5397 186.127 48.9625 187.601 53.5174 187.601C56.2239 187.601 58.6334 187.012 60.7458 185.833C62.8582 184.654 64.4755 183.114 65.5977 181.215C66.7199 179.25 67.281 177.187 67.281 175.025Z" fill="#F1D5AB"/>
<path d="M243.356 47.9322C245.527 47.9322 247.435 48.522 249.08 49.7017C250.725 50.8814 252.008 52.5198 252.929 54.617L246.415 62.7763H242.665C242.402 61.1379 241.908 59.991 241.184 59.3356C240.526 58.6147 239.605 58.2542 238.421 58.2542C236.973 58.2542 235.427 58.6475 233.782 59.4339C232.203 60.1548 230.393 61.5638 228.354 63.661V92.9559L242.171 97.1831L240.197 101.115H207.726V98.0678L216.51 91.1865V63.3661L207.726 58.2542V55.2068L224.603 46.9492L227.663 59.0407L237.927 48.6203C239.309 48.096 241.119 47.8339 243.356 47.8339V47.9322Z" fill="#8BB3C3"/>
<path d="M202.782 101.017H184.029V92.4644L172.876 101.214C171.56 101.738 169.915 102 167.941 102C162.282 102 158.17 100.591 155.604 97.7729C153.103 94.9548 151.853 91.5797 151.853 87.6475C151.853 85.2881 152.709 82.9616 154.419 80.6678C156.13 78.374 158.565 76.2113 161.723 74.1797H184.029V67.8881C184.029 63.6282 182.877 60.6136 180.574 58.8441C178.337 57.0746 175.245 56.1898 171.297 56.1898C167.217 56.1898 162.217 58.6475 156.295 63.5627L153.334 59.8271L167.546 48.6203C170.178 48.096 173.337 47.8339 177.021 47.8339C183.009 47.8339 187.648 49.3085 190.938 52.2576C194.228 55.1412 195.873 59.3684 195.873 64.939V93.6441L204.756 97.0847L202.782 101.017ZM171.099 93.6441C175.113 93.6441 179.423 91.809 184.029 88.139V78.2102H166.559C165.704 79.2588 165.079 80.3073 164.684 81.3559C164.355 82.4045 164.191 83.5514 164.191 84.7966C164.191 87.2215 164.816 89.3186 166.066 91.0881C167.316 92.7921 168.994 93.6441 171.099 93.6441Z" fill="#8BB3C3"/>
<path d="M146.468 101.017H127.637V67.8122C127.637 64.1995 127.076 61.6705 125.952 60.2254C124.829 58.7803 122.814 58.0577 119.907 58.0577C117.726 58.0577 115.546 58.4519 113.365 59.2401C111.251 60.0283 108.74 61.5392 105.833 63.7725V93.6272L114.753 97.0757L112.771 101.017H85.1189V97.9625L93.9397 91.0654V30.4693L85.1189 24.3604V21.3059L102.067 15H105.833V59.1416L119.411 48.5003C120.799 47.9748 122.616 47.7121 124.862 47.7121C129.355 47.7121 132.923 49.0915 135.566 51.8503C138.209 54.5435 139.53 58.222 139.53 62.8857V93.6272L148.45 97.0757L146.468 101.017Z" fill="white"/>
<path d="M79.9208 101.017H49.9165V97.9695L59.1942 90.6949V31.122L48.9295 27.6813L50.9035 23.7491H80.9078V26.7966L71.5314 34.0712V93.5458L81.8947 97.0847L79.9208 101.017Z" fill="white"/>
</g>
<defs>
<filter id="filter0_d_79_40" x="0" y="0" width="540" height="220" filterUnits="userSpaceOnUse" color-interpolation-filters="sRGB">
<feFlood flood-opacity="0" result="BackgroundImageFix"/>
<feColorMatrix in="SourceAlpha" type="matrix" values="0 0 0 0 0 0 0 0 0 0 0 0 0 0 0 0 0 0 127 0" result="hardAlpha"/>
<feOffset dx="-5" dy="5"/>
<feGaussianBlur stdDeviation="10"/>
<feComposite in2="hardAlpha" operator="out"/>
<feColorMatrix type="matrix" values="0 0 0 0 0 0 0 0 0 0 0 0 0 0 0 0 0 0 0.5 0"/>
<feBlend mode="normal" in2="BackgroundImageFix" result="effect1_dropShadow_79_40"/>
<feBlend mode="normal" in="SourceGraphic" in2="effect1_dropShadow_79_40" result="shape"/>
</filter>
</defs>
</svg>
