<?xml version="1.0" encoding="UTF-8"?><svg id="Layer_1" xmlns="http://www.w3.org/2000/svg" viewBox="0 0 166.09 122.37"><defs><style>.cls-1{fill:#fff;}.cls-2{fill:none;stroke:#fff;stroke-width:.19px;}.cls-3{fill:#d32714;}.cls-3,.cls-4{fill-rule:evenodd;}.cls-5{fill:#2c1a1d;}.cls-4{fill:#a12529;}.cls-6{fill:#fefefe;}.cls-7{fill:#820b0f;}</style></defs><path class="cls-4" d="m132.98,16.55c-.41,1.06.14,2.25,1.21,2.63,11.33,4.07,21.77,9.43,31.05,15.87,1,.69,1.13,2.12.28,3l-80.88,83.72c-.79.81-2.09.81-2.88,0L.56,37.71c-.85-.88-.72-2.31.29-3,9.45-6.49,20.1-11.87,31.64-15.91,1.08-.38,1.64-1.58,1.23-2.64l-1.96-5c-.4-1.02.08-2.16,1.1-2.56,29.44-11.51,71.62-11.61,100.95.58.99.41,1.45,1.54,1.06,2.54l-1.88,4.84Z"/><path class="cls-3" d="m148.3,29.36c-5.62-2.87-11.53-5.38-17.69-7.49l-.93-.32c-1.08-.37-1.63-1.56-1.22-2.62l1.88-4.82c.4-1.02-.1-2.18-1.13-2.56-13.45-5.08-29.43-7.62-45.45-7.71-16.27-.09-32.54,2.33-46.25,7.19-1.05.37-1.57,1.55-1.16,2.58l1.94,4.95c.42,1.07-.14,2.27-1.23,2.63l-.94.31c-6.28,2.09-12.31,4.59-18.01,7.47-3.95,1.99-7.76,4.16-11.41,6.5-1.05.67-1.2,2.14-.34,3.03l75.43,77.88c.79.81,2.09.81,2.88,0l75.12-77.57c.87-.89.72-2.35-.33-3.03-3.54-2.3-7.27-4.44-11.16-6.43Z"/><path class="cls-7" d="m73.88,98.74c.58-.13,1.21-.34,1.88-.64.67-.29,1.34-.67,2.01-1.13.28-.18.57-.4.89-.66.31-.26.62-.52.92-.81.3-.28.58-.56.84-.84.26-.28.49-.53.67-.75.55-.68,1-1.3,1.35-1.87.35-.57.6-1.1.77-1.59.07-.19.08-.38.01-.56-.02-.12-.07-.28-.15-.49-.08-.21-.18-.44-.29-.69-.07-.15-.12-.33-.15-.54-.03-.21.06-.33.26-.37.22-.04.4.03.54.2.15.17.24.43.27.78.01.24,0,.52-.06.84-.05.32-.12.62-.2.88-.18.58-.43,1.19-.74,1.83-.31.64-.72,1.26-1.22,1.87-.52.67-1.07,1.26-1.66,1.76-.59.5-1.19.95-1.82,1.34-.76.46-1.53.83-2.29,1.11-.77.28-1.51.5-2.24.66-.16.07-.35.15-.55.22-.2.07-.38.13-.54.17-.3.08-.54.13-.72.14-.18.01-.28-.03-.3-.12-.02-.12.05-.22.21-.31.16-.09.34-.16.54-.21.23-.06.45-.1.66-.12.21-.03.44-.05.69-.06.44-.29.93-.72,1.46-1.3.54-.59,1.11-1.32,1.71-2.19.24-.34.47-.71.71-1.1.23-.4.44-.81.62-1.23.18-.42.33-.84.44-1.26.11-.42.16-.82.14-1.21-.03-.59-.19-.99-.48-1.21-.3-.22-.66-.29-1.09-.21-.55.09-1.08.32-1.62.67-.53.35-.99.74-1.38,1.16-.4.45-.71.96-.95,1.52-.24.56-.35,1.07-.33,1.53.02.38.13.69.32.94.19.24.47.34.85.31.42-.04.81-.25,1.16-.61.35-.37.65-.74.89-1.13.2-.3.36-.64.48-1.01.12-.37.18-.68.17-.91-.01-.24-.07-.42-.18-.55-.09-.07-.12-.12-.11-.14.02-.05.08-.04.18.04.03.02.1.1.2.22.1.12.17.31.2.56.02.29-.02.62-.13.97-.11.35-.26.69-.46,1.01-.12.18-.26.37-.44.56-.17.19-.37.37-.57.54-.21.17-.43.31-.67.43-.24.12-.48.19-.73.22-.48.05-.86-.05-1.14-.31-.28-.26-.44-.62-.47-1.09-.02-.44.1-.96.36-1.54.26-.58.63-1.14,1.13-1.67.45-.48.96-.9,1.53-1.25.57-.35,1.14-.58,1.71-.68.3-.05.61-.07.93-.06.32.01.61.08.88.22.27.13.49.34.66.61.17.28.28.64.31,1.1.02.37-.03.76-.16,1.17-.12.41-.28.82-.49,1.24-.2.42-.44.82-.7,1.23-.26.4-.52.78-.77,1.12-.23.31-.49.62-.79.93-.3.31-.62.61-.95.9-.33.29-.67.56-1.02.8-.34.25-.67.45-.98.63Zm-5.74-16.81c.82-.5,1.59-.98,2.32-1.45.72-.46,1.47-.93,2.26-1.4.49-1.08,1.01-2.04,1.56-2.89.55-.85,1.11-1.56,1.69-2.13.31-.3.62-.54.93-.72.31-.18.61-.29.89-.35.24-.05.48-.02.73.09.25.11.36.37.34.79,0,.29-.1.62-.3.98-.19.36-.45.73-.76,1.1-.31.37-.69.74-1.12,1.1-.44.36-.9.69-1.39.99-.1.06-.22.14-.38.24-.16.1-.29.18-.41.24-.25.66-.48,1.31-.7,1.94-.22.63-.44,1.24-.65,1.82-.51,1.42-1.1,2.65-1.76,3.69-.66,1.04-1.39,1.92-2.19,2.64-.8.72-1.65,1.29-2.54,1.71-.9.42-1.83.72-2.81.9-.8.13-1.66.17-2.57.1-.91-.06-1.71-.34-2.4-.83-.53.66-1,1.31-1.4,1.94-.4.63-.68,1.19-.84,1.7-.09.25-.16.37-.22.35-.04-.02-.06-.09-.06-.2,0-.11.02-.19.03-.24.13-.55.38-1.16.74-1.83.36-.67.8-1.35,1.33-2.04-.34-.31-.64-.74-.9-1.3-.26-.56-.39-1.23-.39-2.01.01-.9.23-1.72.65-2.44.42-.73.93-1.36,1.54-1.9.61-.54,1.26-.97,1.94-1.3.69-.33,1.31-.54,1.87-.65.4-.09.83-.14,1.31-.15.47-.01.94.03,1.41.13.47.1.9.26,1.3.49.4.23.71.52.95.89Zm6.51-3.93c.08-.06.17-.11.26-.16.1-.05.19-.1.26-.16.41-.26.81-.55,1.2-.86.39-.31.74-.63,1.05-.97.32-.34.57-.67.76-1.01.19-.34.3-.65.33-.95.03-.27-.04-.45-.19-.55-.16-.09-.33-.11-.53-.04-.42.12-.86.5-1.33,1.16-.26.34-.57.85-.91,1.52-.34.67-.64,1.33-.91,2Zm-10.27,9.66c-.36.04-.75.02-1.17-.06-.42-.08-.8-.23-1.16-.46-.31.3-.6.59-.88.86-.28.27-.56.55-.85.85-.17.18-.33.36-.49.52-.15.16-.31.33-.46.52.6.59,1.33.93,2.2,1.03.87.1,1.71.08,2.51-.08,1.6-.34,2.97-1.19,4.12-2.56,1.15-1.37,2.2-3.32,3.16-5.85.2-.5.39-.99.59-1.44.2-.46.4-.9.6-1.34v-.04c-.73.44-1.42.88-2.1,1.31-.67.44-1.37.9-2.09,1.39.14.33.22.7.24,1.11.01.61-.11,1.16-.37,1.67-.26.5-.59.93-.99,1.29-.41.36-.86.65-1.38.87-.51.22-1.01.36-1.49.41Zm-.08-.36c.42-.04.84-.17,1.27-.37.42-.2.81-.47,1.17-.8.36-.33.64-.72.86-1.17.22-.45.32-.93.32-1.44-.02-.32-.06-.6-.14-.86-.31.23-.63.45-.95.67-.32.22-.66.44-1.01.67-.49.34-1.04.76-1.66,1.25-.62.49-1.25,1.04-1.88,1.64.35.18.71.3,1.06.37.36.06.67.08.96.05Zm3.37-5.01c-.2-.39-.48-.69-.83-.91-.35-.22-.74-.37-1.16-.46-.42-.09-.85-.13-1.29-.12-.44,0-.84.06-1.2.14-.52.1-1.07.3-1.65.59-.58.29-1.11.66-1.61,1.12-.49.46-.9,1.03-1.21,1.69-.32.66-.49,1.42-.5,2.27,0,.63.07,1.19.22,1.67.16.48.35.87.59,1.16.24-.34.54-.69.88-1.04.27-.3.53-.57.79-.81.26-.25.55-.52.88-.82-.38-.35-.62-.79-.7-1.32-.05-.24-.03-.36.07-.37.02,0,.05.09.1.28.07.26.18.48.32.66.14.18.3.35.46.5.62-.55,1.26-1.07,1.93-1.57.67-.49,1.33-.95,1.97-1.38l1.93-1.29Zm8.13.35c.45-.58.84-1.08,1.16-1.49.33-.41.62-.76.87-1.07.25-.31.48-.59.7-.84.21-.26.43-.53.64-.81.45-.59.88-1.16,1.3-1.72.42-.57.79-1.1,1.1-1.59.32-.5.57-.95.76-1.36.19-.4.28-.75.29-1.04-.01-.32-.14-.46-.39-.43-.18.02-.38.16-.61.4-.23.24-.44.5-.64.79-.31.46-.67,1.02-1.1,1.68-.42.66-.87,1.41-1.34,2.27-.32.6-.61,1.12-.85,1.55-.24.43-.46.83-.66,1.22-.2.38-.39.76-.59,1.14-.2.38-.41.82-.65,1.3Zm2.83,3.39c-.1.11-.22.24-.35.38-.13.14-.28.27-.44.39-.16.12-.32.23-.48.32-.17.09-.33.15-.5.17-.44.06-.66-.13-.67-.56-.01-.28.06-.59.22-.91.16-.32.32-.64.49-.95.13-.25.26-.49.4-.71.13-.22.25-.43.36-.63.04-.07.06-.14.07-.21,0-.07-.02-.12-.07-.14-.06-.03-.13-.01-.23.03-.09.05-.19.11-.3.19-.18.14-.4.34-.66.58-.26.25-.54.55-.84.91-.22.25-.4.48-.57.68-.16.21-.33.41-.49.61-.16.2-.33.4-.5.61-.17.21-.36.44-.56.68-.15.17-.32.27-.52.3-.15.02-.25.01-.3-.02-.05-.04-.05-.15,0-.34.18-.53.41-1.12.7-1.79.07-.16.15-.33.24-.51.09-.18.19-.37.29-.57v-.03c-.14.19-.27.36-.39.51-.12.15-.23.3-.33.45-.1.13-.17.17-.22.11-.02-.05.01-.13.08-.24.01-.02.07-.09.16-.21.09-.12.2-.26.32-.42.12-.16.24-.32.38-.49.13-.17.25-.32.37-.45.31-.61.64-1.27,1.01-1.98.36-.71.75-1.41,1.16-2.1.27-.46.59-1,.98-1.62.38-.62.78-1.25,1.18-1.88.4-.63.8-1.2,1.18-1.73.38-.52.7-.92.95-1.19.27-.29.54-.56.81-.8.27-.25.56-.39.86-.43.28-.04.46.03.57.2.11.17.15.37.15.61-.02.3-.13.67-.34,1.09-.21.42-.5.89-.85,1.4-.35.51-.75,1.05-1.19,1.63-.44.57-.9,1.16-1.38,1.74-.58.72-1.19,1.44-1.84,2.17-.65.73-1.32,1.55-2.02,2.47-.07.13-.17.32-.3.57-.12.25-.26.53-.4.82-.14.3-.28.6-.41.9-.13.3-.25.57-.36.81l.02.02c.23-.28.49-.61.79-.99.3-.38.62-.76.94-1.14.33-.38.69-.74,1.07-1.08.39-.34.74-.53,1.06-.57.47-.06.7.13.7.59,0,.24-.09.5-.25.79-.16.29-.31.57-.45.84-.28.49-.47.89-.59,1.19-.11.3-.13.49-.04.56.06.04.14.04.23,0,.09-.05.18-.1.26-.16.12-.1.25-.21.39-.33.14-.12.32-.31.53-.58.16-.19.33-.39.5-.61.17-.22.3-.4.4-.55.12-.17.21-.23.26-.19.03.05-.01.16-.14.35-.09.13-.24.35-.48.66-.23.31-.45.58-.65.81Zm2.41.37c.14-.02.37-.11.69-.27.32-.16.69-.46,1.11-.91.18-.19.37-.41.58-.65.21-.24.4-.48.58-.72.1-.13.17-.18.22-.13.05.06,0,.18-.14.35-.12.17-.31.4-.55.71-.25.3-.46.54-.64.72-.79.8-1.54,1.25-2.24,1.34-.75.1-1.15-.18-1.18-.85-.03-.47.14-1.01.49-1.63l-.02-.02s-.08.11-.16.22c-.08.11-.15.21-.22.28-.09.11-.15.15-.2.1-.03-.03-.03-.07,0-.13.03-.05.06-.11.1-.17.12-.17.24-.31.34-.44.1-.12.22-.26.36-.42.1-.11.24-.25.41-.41.17-.16.35-.32.53-.48.29-.22.58-.43.87-.61.29-.18.57-.29.85-.33h.02c.23-.03.4.01.5.14.1.13.15.28.15.45,0,.34-.12.65-.37.93-.25.29-.52.54-.82.77-.29.22-.58.43-.9.6-.31.18-.58.32-.81.44-.07.21-.09.41-.07.59.03.38.21.55.52.51Zm-.35-1.39c.2-.1.42-.22.67-.38.24-.16.47-.35.67-.56.24-.25.43-.5.55-.76.12-.25.18-.47.18-.66,0-.24-.08-.34-.28-.31-.18.02-.46.31-.84.85-.15.21-.32.49-.51.86-.19.37-.34.69-.44.96Zm6.74-2.97c.01.17-.07.39-.25.66-.18.28-.37.6-.57.96-.31.55-.51.97-.6,1.27-.09.25-.08.41.02.48.09.07.24.02.44-.16.1-.1.23-.22.4-.37.16-.15.32-.32.47-.51.22-.25.39-.45.51-.61.12-.16.25-.32.37-.49.14-.2.23-.28.29-.24.03.03.02.09-.03.17-.05.08-.11.18-.18.29-.11.15-.26.35-.44.59-.18.24-.39.5-.63.77-.2.23-.46.48-.77.76-.31.28-.64.44-.98.49-.22.03-.39,0-.51-.12-.12-.11-.18-.26-.18-.44-.01-.28.07-.6.25-.94s.37-.67.58-.96c.11-.17.24-.34.37-.51.14-.17.27-.33.39-.47s.22-.27.31-.38c.09-.11.14-.2.15-.25.03-.14-.04-.2-.2-.17-.16.02-.38.05-.64.09-.11.02-.2.03-.28.04-.07.01-.14,0-.2-.02-.16.26-.39.61-.7,1.06-.16.22-.3.42-.42.58-.12.16-.23.31-.32.46-.15.21-.25.29-.29.24-.04-.04.02-.19.19-.43.11-.15.22-.29.32-.43.1-.14.24-.33.41-.57.27-.39.49-.71.65-.97-.1-.07-.16-.18-.18-.33-.02-.15.02-.31.12-.47.17-.31.42-.49.75-.53.08-.01.16,0,.24.03.08.03.13.09.15.17-.06.08-.12.14-.16.19-.04.05-.1.12-.16.21-.23.37-.2.55.11.54.29-.02.56-.03.81-.02.25,0,.39.13.4.36v.02Zm2.23,3.17c.14-.02.37-.11.69-.27.32-.16.69-.47,1.11-.91.18-.19.37-.41.58-.65.21-.24.4-.48.57-.72.1-.13.17-.18.22-.13.05.06,0,.18-.14.35-.12.17-.31.4-.55.71-.25.3-.46.54-.64.72-.79.8-1.54,1.25-2.24,1.34-.75.1-1.15-.18-1.17-.85-.03-.47.14-1.01.49-1.63l-.02-.02s-.08.11-.16.22c-.08.11-.15.21-.22.28-.09.11-.15.15-.2.1-.03-.03-.03-.07,0-.13.03-.05.06-.11.1-.17.12-.17.24-.31.34-.44.1-.12.22-.26.36-.42.1-.11.24-.25.41-.41.17-.16.35-.32.53-.48.29-.22.58-.43.87-.61.29-.18.57-.29.85-.33h.02c.23-.04.4.01.5.14.1.13.15.28.15.45,0,.34-.12.65-.37.93-.25.29-.52.54-.82.77-.29.22-.58.43-.9.6-.31.18-.58.32-.81.44-.07.21-.09.41-.07.59.03.38.21.55.52.51Zm-.35-1.39c.2-.09.42-.22.67-.38.24-.16.47-.35.67-.56.24-.25.42-.5.55-.76.12-.25.18-.47.18-.66,0-.24-.08-.34-.28-.32-.18.02-.46.31-.84.85-.15.21-.32.49-.51.86-.19.37-.34.69-.44.96Zm6.08-.49l-.02-.02c-.12.17-.27.34-.43.53-.17.18-.34.35-.53.51-.19.16-.38.3-.57.42-.19.12-.38.2-.57.24-.23.05-.44.02-.63-.09-.19-.11-.29-.37-.3-.79.01-.19.05-.39.11-.61.07-.22.18-.48.35-.77l-.02-.02s-.06.08-.09.14c-.04.06-.09.12-.15.2-.09.1-.15.13-.18.1-.03-.03-.02-.1.04-.2.06-.1.14-.23.24-.37.03-.04.09-.13.21-.27.11-.14.22-.26.32-.36.1-.1.23-.22.38-.37.15-.15.32-.3.51-.46.35-.28.7-.52,1.05-.71.35-.19.67-.28.95-.27.21,0,.35.09.44.24.08.16.12.34.11.54h.02c.21-.35.37-.6.5-.74.13-.14.26-.23.42-.25.38-.05.49.07.3.36-.17.29-.32.57-.46.85-.14.27-.29.59-.47.95-.15.31-.37.75-.64,1.32-.27.58-.54,1.13-.82,1.68.22-.2.51-.47.87-.83.36-.35.68-.69.98-1.02.21-.25.41-.49.6-.71.18-.23.37-.47.57-.73.1-.15.18-.2.24-.16.03.03.02.09-.03.17-.05.08-.1.16-.15.23-.13.2-.3.42-.5.65-.2.23-.4.48-.61.74-.34.38-.7.76-1.08,1.12-.38.36-.72.68-1.03.96-.81,1.8-2.53,4.65-3.74,5.45,1.83-3.05,2.78-4.97,3.82-7.66Zm.61-2.91c-.21.03-.47.22-.78.56-.32.35-.64.77-.98,1.27-.38.56-.65,1.01-.81,1.36-.16.35-.22.61-.17.77.03.16.12.24.29.21.19-.03.45-.18.77-.46.32-.28.61-.6.86-.95.15-.19.3-.4.45-.64.15-.24.28-.47.4-.69.12-.22.22-.42.29-.61.07-.19.11-.33.1-.43-.01-.3-.15-.43-.41-.4Zm3.89,3.37c.14-.02.37-.11.68-.27.32-.16.69-.47,1.11-.91.18-.19.37-.41.58-.65.1-.11.19-.22.28-.33.04-.11.1-.21.16-.31.18-.29.4-.44.65-.46.15,0,.27.04.35.14.08.1.11.22.09.35-.02.26-.15.48-.4.69-.09.08-.18.19-.27.33-.09.14-.14.3-.14.49,0,.2.06.35.18.44.12.09.28.13.47.1.21-.03.42-.16.64-.4.22-.24.43-.62.62-1.13.08-.2.15-.43.22-.7.07-.27.13-.54.19-.8.06-.26.12-.5.18-.72.06-.22.11-.37.16-.46v-.02c-.1.15-.24.32-.4.52-.17.2-.34.39-.5.56-.14.15-.28.29-.41.42-.14.13-.24.22-.32.28-.1.08-.17.1-.2.05-.02-.06,0-.14.09-.21.1-.1.23-.22.37-.35s.29-.29.44-.46c.18-.19.36-.4.53-.62.18-.22.37-.47.58-.75.02-.05.06-.13.12-.22.06-.09.11-.18.18-.25.1-.11.21-.2.31-.26.11-.06.19-.09.26-.1.23-.03.31.02.24.16-.07.14-.17.26-.3.38-.09.1-.18.18-.26.24-.08.06-.15.13-.2.2-.07.11-.11.22-.11.33,0,.11,0,.23.02.36.04.35.08.69.1,1.02.02.33-.01.68-.11,1.05-.05.19-.13.4-.24.61-.11.22-.22.38-.33.5.11-.06.24-.15.39-.27.16-.11.31-.25.46-.4.27-.26.51-.51.71-.75.2-.25.38-.47.55-.68.05-.06.1-.11.14-.16.04-.05.08-.06.11-.03.04.04-.02.19-.19.43-.1.13-.23.3-.39.51-.16.21-.35.42-.57.63-.22.22-.43.41-.64.58-.21.17-.4.32-.59.45-.18.13-.43.26-.75.41-.31.14-.63.24-.94.28-.27.04-.5.02-.68-.04-.18-.07-.32-.17-.42-.29-.1-.13-.17-.28-.21-.45-.04-.17-.06-.35-.05-.54,0-.08,0-.15.02-.22l-.06.07c-.24.3-.46.54-.64.72-.79.8-1.54,1.25-2.24,1.34-.75.1-1.15-.18-1.18-.85-.03-.47.14-1.01.49-1.63l-.02-.02s-.08.11-.16.22c-.08.11-.15.21-.22.28-.09.11-.15.15-.2.1-.03-.03-.03-.07,0-.13.03-.05.06-.11.1-.17.12-.17.24-.31.34-.44.1-.12.22-.26.36-.42.1-.11.24-.25.41-.41.17-.16.35-.32.53-.48.29-.22.57-.43.86-.61.29-.18.57-.29.85-.33h.02c.23-.04.4.01.5.14.1.13.15.28.15.45,0,.34-.12.65-.37.93-.25.29-.52.54-.82.77-.29.22-.59.43-.9.6-.31.18-.58.32-.81.44-.07.21-.09.41-.08.59.03.38.21.55.52.51Zm-.35-1.39c.2-.1.42-.22.67-.38.24-.16.47-.35.67-.56.24-.25.43-.5.55-.76.12-.25.19-.47.18-.66,0-.24-.08-.34-.28-.31-.18.02-.46.31-.84.85-.15.21-.32.49-.51.86-.19.37-.34.69-.44.96Zm10.74-4.53c.45-.58.84-1.08,1.16-1.49.33-.41.62-.76.87-1.07.25-.31.49-.59.7-.84.21-.26.43-.53.64-.81.45-.59.88-1.16,1.3-1.72.42-.57.78-1.1,1.1-1.59.32-.5.57-.95.76-1.36.19-.4.28-.75.29-1.04-.01-.32-.14-.46-.39-.43-.18.02-.38.16-.61.4-.23.24-.44.5-.64.79-.31.46-.67,1.02-1.1,1.68-.42.66-.87,1.41-1.34,2.27-.32.6-.61,1.12-.85,1.55-.24.43-.46.83-.66,1.22-.2.38-.39.76-.59,1.14-.2.38-.41.82-.65,1.3Zm2.83,3.39c-.1.12-.22.24-.35.38-.13.14-.28.27-.44.39-.16.12-.32.23-.48.32-.16.09-.33.15-.49.17-.44.06-.66-.13-.67-.56,0-.28.06-.59.22-.91.16-.32.32-.64.49-.95.13-.25.26-.49.4-.71.13-.22.25-.43.36-.63.04-.07.06-.14.07-.21,0-.07-.02-.12-.07-.14-.06-.03-.13-.02-.23.03-.09.05-.19.11-.3.19-.18.14-.4.34-.66.58-.26.25-.54.55-.84.91-.22.25-.4.48-.57.68-.16.21-.33.41-.49.61-.16.2-.33.4-.5.61-.17.21-.36.44-.56.68-.15.17-.32.27-.52.3-.15.02-.25.01-.3-.02-.05-.03-.05-.15,0-.34.18-.53.41-1.12.7-1.79.07-.16.15-.33.24-.51.09-.18.19-.37.29-.57v-.03c-.14.19-.27.36-.39.51-.12.15-.23.3-.33.45-.1.13-.17.17-.22.11-.02-.05.01-.13.08-.24.01-.02.07-.09.16-.21.09-.12.2-.26.32-.42.12-.16.24-.32.37-.49.13-.17.25-.32.37-.45.31-.61.65-1.27,1.01-1.98.36-.71.75-1.41,1.16-2.1.27-.46.59-1,.98-1.62.38-.62.78-1.25,1.18-1.88.4-.63.8-1.2,1.18-1.73.38-.52.7-.92.95-1.19.27-.29.54-.56.81-.8.27-.25.56-.39.86-.43.27-.04.46.03.57.2.1.17.15.37.15.61-.01.3-.13.67-.34,1.09-.21.42-.5.89-.85,1.4-.35.51-.75,1.05-1.19,1.63-.44.57-.91,1.15-1.38,1.74-.58.72-1.19,1.44-1.84,2.17-.65.73-1.32,1.55-2.02,2.47-.07.13-.17.32-.29.57-.12.25-.26.53-.4.82-.14.3-.28.6-.41.9-.13.3-.25.57-.36.81l.02.02c.23-.28.49-.61.79-.99.3-.38.62-.76.94-1.14.33-.38.69-.74,1.07-1.08s.74-.53,1.05-.57c.47-.06.7.13.7.59,0,.24-.09.5-.25.79-.16.29-.3.57-.45.84-.28.49-.47.89-.59,1.19-.11.3-.12.49-.04.56.06.04.14.04.23,0,.09-.05.18-.1.26-.16.12-.1.25-.21.39-.33.14-.12.32-.31.53-.58.17-.19.33-.39.5-.61.17-.22.3-.4.4-.55.12-.17.21-.23.25-.19.03.05-.01.16-.14.35-.09.13-.24.35-.47.66-.23.31-.45.58-.65.81Zm-27.94,8.63c.12-.02.21.01.26.1.05.09.03.21-.05.36-.08.17-.21.31-.38.44-.17.12-.3.2-.4.21-.06-.05-.1-.14-.13-.25-.03-.12-.03-.24,0-.37.04-.15.12-.26.24-.33.12-.07.27-.12.44-.15h.02Zm-2.07,3.43c-.06.04-.16.13-.3.27-.15.15-.28.29-.39.42-.12.13-.22.25-.31.36-.09.1-.18.21-.26.31-.13.15-.21.21-.25.2-.03-.02-.03-.05,0-.09.02-.04.08-.12.16-.24.04-.06.11-.14.2-.24.09-.1.19-.22.29-.34.11-.12.22-.24.33-.36.11-.12.22-.23.31-.32.22-.22.39-.36.53-.44.14-.08.29-.13.47-.16.2-.03.31-.03.34,0,.03.03,0,.12-.09.26-.25.4-.51.85-.79,1.36-.12.23-.23.42-.31.6-.08.17-.14.31-.18.42-.08.22-.07.36.01.42.1.06.24.02.43-.13.09-.07.2-.16.32-.28.12-.12.26-.26.39-.42.17-.19.3-.35.39-.47.09-.12.2-.26.33-.42.13-.18.22-.25.27-.22.03.02.02.07-.04.16s-.09.14-.11.17c-.09.13-.22.3-.4.52-.17.21-.34.41-.5.59-.16.18-.37.39-.62.61-.26.23-.54.37-.85.42-.37.06-.58-.07-.63-.39-.02-.12-.01-.25.02-.38.03-.13.08-.25.13-.38.06-.16.14-.33.25-.51.1-.18.21-.35.32-.52.11-.17.21-.33.31-.47.1-.14.18-.25.24-.33Zm2.4-.03c-.11.15-.23.29-.34.43-.11.14-.21.27-.29.39-.08.1-.15.13-.19.09-.02-.04,0-.1.06-.18,0-.01.06-.07.13-.17.08-.1.17-.21.28-.35.11-.13.23-.28.35-.43.12-.16.25-.31.38-.46.1-.17.21-.37.34-.61.13-.24.27-.5.42-.77.15-.27.31-.55.47-.84.17-.28.33-.55.49-.81.25-.43.53-.87.83-1.33.3-.46.62-.91.96-1.35.2-.25.4-.39.61-.43.18-.03.28,0,.3.08-.07.1-.2.3-.38.58-.18.29-.39.61-.6.96-.22.35-.44.71-.66,1.07-.22.36-.41.68-.57.95-.24.42-.49.86-.73,1.31-.24.45-.47.88-.67,1.28-.2.4-.38.78-.53,1.13-.15.35-.25.64-.32.87-.01.07-.03.15-.04.26-.01.11.02.19.09.24.07.04.16.03.27-.03.11-.06.2-.12.28-.18.11-.08.22-.18.33-.3.11-.11.22-.23.34-.35.15-.17.28-.31.38-.44.1-.13.21-.26.31-.39.03-.04.07-.09.13-.15.05-.05.1-.07.12-.05.03.03,0,.11-.09.24-.09.13-.23.3-.4.52-.18.22-.36.43-.55.64-.09.09-.18.19-.29.3-.11.11-.23.21-.36.31-.14.1-.28.19-.43.27-.15.08-.3.13-.45.15-.18.03-.34.02-.45-.05-.12-.06-.19-.18-.2-.36-.03-.22.03-.52.17-.89.14-.37.32-.76.54-1.16l-.02-.02Zm3.09-.54c-.11.15-.23.29-.34.43-.11.14-.21.27-.29.39-.08.1-.15.13-.19.09-.02-.04,0-.1.06-.18.01-.01.05-.07.13-.17.08-.1.17-.21.28-.35.11-.13.23-.28.35-.43.12-.16.25-.31.38-.46.1-.17.21-.37.34-.61.13-.24.27-.5.42-.77.15-.27.31-.55.47-.84.17-.28.33-.55.49-.81.26-.43.53-.87.83-1.33.3-.46.62-.91.96-1.35.2-.25.4-.39.61-.43.18-.03.28,0,.3.08-.07.1-.2.3-.38.58-.18.29-.39.61-.6.96-.22.35-.44.71-.66,1.07-.22.36-.41.68-.57.95-.24.42-.49.86-.73,1.31-.25.45-.47.88-.67,1.28-.2.4-.38.78-.53,1.13-.15.35-.25.64-.32.87-.01.07-.03.15-.04.26-.01.11.02.19.09.24.07.04.16.03.27-.03.11-.06.2-.12.28-.18.11-.08.22-.18.33-.3.11-.11.22-.23.34-.35.15-.17.28-.31.38-.44.1-.13.21-.26.31-.39.03-.04.07-.09.13-.15.05-.05.1-.07.12-.05.03.03,0,.11-.09.25-.09.13-.23.3-.4.52s-.36.43-.55.64c-.09.09-.18.19-.29.3-.11.11-.23.21-.36.31-.13.1-.28.19-.43.27-.15.08-.3.13-.45.15-.18.03-.33.02-.45-.05-.12-.06-.19-.18-.2-.36-.03-.22.03-.52.17-.89.14-.37.32-.76.54-1.16l-.02-.02Zm5.8-1.2c.18-.27.34-.48.49-.63.15-.15.29-.23.44-.26.19-.05.31-.05.35,0,.04.04.02.13-.06.26-.1.16-.22.36-.37.61-.15.25-.3.51-.45.79-.1.17-.19.34-.27.51-.08.17-.16.34-.22.51-.08.24-.08.39.02.44.06.03.12.02.2-.01.08-.04.15-.08.22-.13.09-.07.2-.17.34-.3.14-.13.27-.27.39-.42.17-.19.32-.37.44-.52s.23-.28.31-.4c.05-.06.1-.11.14-.15.04-.04.07-.05.1-.03.04.03-.02.16-.18.38-.1.13-.24.3-.4.51-.17.21-.32.39-.47.56-.16.18-.36.38-.62.6-.25.22-.53.36-.84.41-.17.03-.31.02-.41-.04-.1-.06-.16-.14-.19-.25-.03-.1-.03-.21,0-.34.03-.13.08-.26.14-.37l-.02-.02c-.1.13-.23.27-.37.42-.14.14-.29.29-.45.42-.16.14-.33.26-.51.36-.18.11-.35.18-.52.22-.21.05-.4.03-.58-.04-.18-.08-.28-.27-.3-.57,0-.14.03-.29.07-.46.05-.17.14-.36.28-.59l-.02-.02s-.05.07-.08.11c-.03.04-.07.1-.12.16-.08.08-.13.11-.16.08-.05-.04.02-.18.2-.4.02-.03.08-.11.19-.23.11-.13.2-.23.29-.31.09-.08.2-.18.33-.3.13-.12.27-.24.43-.37.32-.25.63-.45.93-.6.3-.15.57-.23.82-.24.19,0,.33.05.42.18.09.13.12.28.09.45Zm-.55-.44c-.18.03-.41.19-.68.46-.27.28-.54.61-.82,1-.32.44-.54.79-.66,1.06-.12.27-.16.46-.12.58.03.12.12.17.27.14.17-.03.4-.16.67-.38.28-.23.52-.48.72-.76.13-.15.25-.32.37-.5.12-.19.23-.36.33-.53.1-.17.18-.33.23-.47.06-.14.08-.25.07-.33-.03-.22-.15-.32-.39-.28Zm3.84,3.59c-.24.23-.47.45-.7.65-.23.2-.48.41-.74.63-.26.22-.54.47-.83.74-.3.27-.63.58-1.02.94-.35.33-.67.66-.97,1.01-.3.35-.56.68-.78,1.01-.22.33-.39.65-.52.96-.12.31-.17.58-.15.82.03.27.15.43.36.45.15.02.34-.02.56-.13.21-.11.4-.24.55-.36.37-.32.79-.79,1.25-1.4.46-.61.97-1.46,1.55-2.52.29-.53.56-1.06.83-1.58.27-.52.47-.92.61-1.21Zm1.45-4.51c-.18.03-.41.19-.68.46-.27.28-.54.61-.81,1-.32.44-.54.79-.66,1.06-.12.27-.16.46-.12.58.03.12.12.17.27.14.17-.03.4-.16.67-.38.28-.23.52-.48.72-.76.13-.15.25-.32.37-.5.12-.19.23-.36.33-.53.1-.17.17-.33.23-.47s.08-.25.07-.33c-.03-.22-.15-.32-.39-.28Zm-1.71.64c.3-.23.61-.43.91-.59.31-.16.59-.25.84-.25.19,0,.32.05.41.16s.12.25.12.4h.02c.17-.27.31-.47.41-.58.11-.11.23-.18.36-.21.34-.06.44.03.29.26-.14.23-.26.45-.37.66-.11.21-.24.45-.38.73-.12.24-.29.58-.51,1.02-.21.45-.43.88-.65,1.3.19-.16.43-.38.74-.66.31-.28.58-.55.83-.81.18-.2.35-.39.5-.56.15-.18.31-.37.48-.58.08-.12.15-.16.2-.13.03.02.02.06-.02.13-.04.06-.08.13-.12.18-.11.16-.25.33-.42.51-.17.18-.34.38-.52.59-.29.3-.59.6-.92.89-.32.29-.62.55-.88.77-.14.33-.31.68-.5,1.04-.18.36-.37.72-.55,1.07-.18.35-.35.67-.51.96-.16.29-.29.52-.4.69-.51.8-1.05,1.53-1.63,2.2-.58.67-1.12,1.19-1.63,1.57-.43.34-.83.55-1.2.61-.11.02-.23.03-.35.02-.12,0-.23-.03-.32-.07-.1-.04-.17-.11-.23-.2-.06-.09-.09-.22-.1-.38,0-.28.09-.6.29-.98.2-.37.46-.75.77-1.14.31-.39.65-.76,1.02-1.14.37-.38.71-.71,1.02-1.01.37-.34.7-.64.99-.9.29-.25.56-.49.82-.71.25-.22.5-.44.74-.64.24-.21.51-.44.79-.69.07-.13.14-.28.23-.45.08-.17.17-.35.26-.53s.17-.36.25-.53c.08-.17.14-.32.2-.45h-.02c-.1.12-.22.26-.37.4-.14.14-.29.28-.45.41-.16.13-.32.24-.49.34-.17.1-.33.17-.5.21-.21.05-.4.04-.57-.03-.18-.07-.28-.26-.31-.58,0-.14.03-.29.07-.46.05-.17.14-.36.28-.59l-.02-.02s-.05.07-.08.11c-.03.04-.07.1-.12.16-.07.08-.13.11-.16.08-.03-.02-.02-.07.03-.15.05-.08.12-.18.2-.29.02-.03.08-.1.17-.21.1-.11.19-.21.27-.29.09-.08.19-.18.32-.29.12-.12.27-.24.44-.37Zm5.39,1.68c.12-.02.32-.1.6-.24.28-.14.6-.38.95-.74.15-.15.31-.33.49-.51.18-.19.34-.38.48-.57.08-.1.15-.14.19-.11.05.04.01.13-.11.27-.1.13-.26.32-.46.56-.21.24-.38.43-.54.57-.67.64-1.32,1.01-1.95,1.12-.67.12-1.04-.07-1.1-.57-.05-.35.07-.76.36-1.25l-.02-.02s-.06.09-.13.18c-.07.09-.13.16-.18.22-.07.09-.13.12-.18.09-.03-.02-.03-.05,0-.09.02-.04.05-.09.08-.13.1-.13.2-.25.28-.34.08-.1.19-.21.3-.33.08-.09.2-.2.35-.33.15-.13.3-.26.46-.38.25-.18.5-.35.75-.5.25-.15.5-.25.75-.29h.02c.21-.04.36-.01.46.08.1.09.15.2.16.33.02.25-.08.49-.28.72-.21.23-.44.43-.7.62-.25.18-.5.35-.78.5-.27.15-.51.27-.7.37-.05.16-.06.31-.04.45.05.28.21.4.5.35Zm-.38-1.02c.18-.08.37-.19.58-.32.21-.13.4-.28.58-.45.21-.2.36-.4.46-.6.1-.2.14-.36.13-.5,0-.18-.09-.25-.26-.22-.16.03-.4.25-.72.68-.12.16-.26.39-.42.67-.15.29-.27.53-.35.74Z"/><path class="cls-6" d="m73.59,98.44c.58-.13,1.21-.34,1.88-.64.67-.29,1.34-.67,2.01-1.13.28-.18.57-.4.89-.66.31-.26.62-.52.92-.81.3-.28.58-.56.84-.84.26-.28.49-.53.67-.75.55-.68,1-1.3,1.35-1.87.35-.57.6-1.1.77-1.59.07-.19.08-.38.01-.56-.02-.12-.07-.28-.15-.49-.08-.21-.18-.44-.29-.69-.07-.15-.12-.33-.15-.54-.03-.21.06-.33.26-.37.22-.04.4.03.54.2.15.17.24.43.27.78.01.24,0,.52-.06.84-.05.32-.12.62-.2.88-.18.58-.43,1.19-.74,1.83-.31.64-.72,1.26-1.22,1.87-.52.67-1.08,1.26-1.66,1.76-.59.5-1.19.95-1.82,1.34-.76.46-1.53.83-2.29,1.11-.77.28-1.51.5-2.24.66-.16.07-.35.15-.55.22-.2.07-.38.13-.54.17-.3.08-.54.13-.72.14-.18,0-.28-.03-.3-.12-.02-.12.05-.22.21-.31.16-.09.34-.16.54-.21.23-.05.45-.1.66-.12.21-.03.44-.05.69-.06.44-.28.93-.72,1.46-1.3.54-.59,1.11-1.32,1.71-2.19.24-.34.47-.71.71-1.1.24-.4.44-.81.62-1.23.18-.42.33-.84.44-1.26.11-.42.16-.82.14-1.21-.03-.59-.19-.99-.48-1.21-.3-.22-.66-.29-1.09-.21-.55.09-1.08.32-1.62.67-.53.35-.99.74-1.38,1.16-.4.45-.71.96-.95,1.52-.24.56-.35,1.07-.33,1.53.02.38.13.69.32.94.19.24.47.34.85.31.42-.04.81-.25,1.16-.61.35-.37.65-.74.89-1.13.2-.3.36-.64.48-1.01.12-.37.18-.68.17-.91-.01-.24-.07-.42-.18-.55-.09-.07-.12-.12-.11-.14.02-.05.08-.04.18.04.03.02.1.1.2.22.1.12.17.31.2.56.02.29-.02.62-.13.97-.11.35-.26.69-.46,1.01-.12.18-.26.37-.44.56-.18.19-.37.37-.57.54-.21.17-.43.31-.67.43-.24.12-.48.19-.73.22-.48.05-.86-.05-1.14-.31-.28-.26-.44-.62-.48-1.09-.02-.44.1-.96.36-1.54.26-.58.63-1.14,1.13-1.67.45-.48.96-.9,1.53-1.25.57-.35,1.14-.58,1.71-.68.3-.05.61-.07.93-.06.32.01.61.08.88.22.27.13.49.34.66.61.17.28.28.64.31,1.1.02.37-.03.76-.16,1.17-.12.41-.28.82-.49,1.24-.2.42-.44.82-.7,1.23-.26.4-.52.78-.77,1.12-.23.31-.49.62-.79.93-.3.31-.62.61-.95.9-.33.29-.67.56-1.02.8-.34.25-.67.45-.98.63Zm-5.74-16.81c.82-.5,1.59-.98,2.32-1.45.72-.47,1.47-.93,2.26-1.4.49-1.08,1.01-2.04,1.56-2.89.55-.85,1.11-1.56,1.69-2.13.31-.3.62-.54.93-.72.31-.18.61-.29.89-.35.24-.05.48-.02.73.09.25.11.36.37.34.79,0,.29-.1.62-.3.98-.19.36-.45.73-.76,1.1-.31.37-.69.74-1.12,1.1-.44.36-.9.69-1.39.99-.1.06-.23.14-.38.24-.16.1-.29.18-.41.24-.25.66-.48,1.31-.7,1.94-.22.63-.44,1.24-.65,1.82-.51,1.42-1.1,2.65-1.76,3.69-.66,1.04-1.39,1.92-2.19,2.64-.8.72-1.65,1.29-2.54,1.71-.9.42-1.83.72-2.81.9-.8.13-1.66.17-2.57.1-.91-.06-1.71-.34-2.4-.83-.53.66-1,1.31-1.4,1.94-.4.63-.68,1.19-.84,1.7-.09.25-.16.37-.22.35-.04-.02-.06-.09-.06-.2,0-.11.02-.19.03-.24.13-.55.38-1.16.74-1.83.36-.67.8-1.35,1.33-2.04-.34-.31-.64-.74-.9-1.3-.26-.56-.39-1.23-.39-2.01.01-.9.23-1.72.65-2.44.42-.73.93-1.36,1.54-1.9.61-.54,1.26-.97,1.94-1.3.69-.33,1.31-.54,1.87-.65.4-.09.83-.14,1.31-.15.47-.01.94.03,1.41.13.47.1.9.26,1.3.49.39.23.71.52.95.89Zm6.51-3.93c.08-.06.17-.11.26-.16.1-.05.19-.1.26-.16.41-.26.81-.55,1.2-.86.39-.31.74-.63,1.05-.97.32-.34.57-.67.76-1.01.19-.34.3-.65.33-.95.03-.27-.04-.45-.19-.55-.16-.09-.33-.11-.53-.04-.42.12-.86.5-1.33,1.16-.26.34-.57.85-.9,1.52-.34.67-.64,1.33-.91,2Zm-10.27,9.66c-.36.04-.75.02-1.17-.06-.42-.08-.8-.23-1.16-.46-.31.3-.6.59-.88.86-.28.27-.56.55-.85.85-.17.18-.33.36-.49.52-.15.16-.31.33-.46.52.59.59,1.33.93,2.2,1.03.87.1,1.71.08,2.51-.08,1.6-.34,2.97-1.19,4.12-2.56,1.15-1.37,2.2-3.32,3.16-5.85.2-.5.39-.99.59-1.44.2-.46.4-.9.6-1.34v-.04c-.73.44-1.42.88-2.1,1.31-.67.44-1.37.9-2.09,1.39.14.33.22.7.24,1.11.01.61-.11,1.16-.37,1.67-.26.5-.59.93-.99,1.29-.4.36-.86.65-1.38.87-.51.22-1.01.36-1.49.41Zm-.08-.36c.42-.04.84-.17,1.27-.37.42-.2.81-.47,1.17-.8.36-.33.64-.72.86-1.17.22-.45.33-.93.32-1.44-.02-.32-.06-.6-.13-.86-.31.23-.63.45-.95.67-.32.22-.66.44-1.01.67-.49.34-1.04.76-1.66,1.25-.62.49-1.25,1.04-1.88,1.64.35.18.71.3,1.06.37.36.06.67.08.96.05Zm3.37-5.01c-.2-.39-.48-.69-.83-.91-.35-.22-.74-.37-1.16-.46-.42-.09-.85-.13-1.29-.12-.44,0-.84.06-1.2.14-.52.1-1.07.3-1.65.59-.58.29-1.12.66-1.61,1.12-.49.47-.89,1.03-1.21,1.69-.32.66-.49,1.42-.5,2.27,0,.63.07,1.19.22,1.67.16.48.35.87.59,1.16.24-.34.54-.69.88-1.04.27-.3.53-.57.79-.81.26-.25.55-.52.88-.82-.38-.35-.61-.79-.7-1.32-.05-.24-.03-.36.07-.37.02,0,.06.09.1.28.07.26.18.48.32.66.14.18.29.35.46.5.62-.55,1.26-1.07,1.93-1.57.67-.49,1.33-.95,1.97-1.38l1.93-1.29Zm8.13.35c.45-.58.84-1.08,1.16-1.49.33-.41.62-.76.87-1.07.25-.31.48-.59.7-.84.21-.26.43-.53.64-.81.45-.59.88-1.16,1.3-1.72.42-.57.79-1.1,1.1-1.59.32-.5.57-.95.76-1.36.19-.4.28-.75.29-1.04-.01-.32-.14-.46-.39-.43-.18.02-.38.16-.61.4-.23.24-.44.5-.64.79-.31.46-.67,1.02-1.1,1.68-.42.66-.87,1.41-1.34,2.27-.32.6-.61,1.12-.85,1.55-.24.43-.46.83-.66,1.22-.2.38-.39.76-.59,1.14-.2.38-.41.82-.65,1.3Zm2.83,3.39c-.1.11-.22.24-.35.38-.13.14-.28.27-.44.39-.16.12-.32.23-.48.32-.17.09-.33.15-.5.17-.44.06-.66-.13-.67-.56-.01-.28.06-.59.22-.91.16-.32.32-.64.49-.95.13-.25.26-.49.4-.71.13-.22.26-.43.36-.63.04-.07.06-.14.07-.21,0-.07-.02-.12-.07-.14-.06-.03-.13-.02-.23.03-.09.05-.19.11-.3.19-.18.14-.4.34-.66.58-.26.25-.54.55-.84.91-.22.25-.4.48-.57.68-.16.21-.33.41-.49.61-.16.2-.33.4-.5.61-.17.21-.36.44-.56.68-.15.17-.32.27-.52.3-.15.02-.25.01-.3-.02-.05-.04-.05-.15,0-.34.18-.53.41-1.12.7-1.79.07-.16.15-.33.24-.51.09-.18.19-.37.3-.57v-.03c-.14.19-.27.36-.39.51-.12.15-.23.3-.33.45-.1.13-.17.17-.22.11-.02-.05,0-.13.08-.24.01-.02.07-.09.16-.21.09-.12.2-.26.32-.42.12-.16.24-.32.37-.49.13-.17.25-.32.37-.45.31-.61.65-1.27,1.01-1.98.36-.71.75-1.41,1.16-2.1.27-.46.59-1,.98-1.62.38-.62.78-1.25,1.18-1.88.4-.63.8-1.2,1.18-1.73.38-.52.7-.92.95-1.19.27-.29.54-.56.81-.8.27-.25.56-.39.86-.43.28-.04.46.03.57.2.11.17.15.37.15.61-.02.3-.13.67-.35,1.09-.21.42-.5.89-.85,1.4-.35.51-.75,1.05-1.19,1.63-.44.57-.9,1.16-1.38,1.74-.58.72-1.19,1.44-1.84,2.17-.65.73-1.32,1.55-2.02,2.47-.07.13-.17.32-.3.57-.12.25-.26.53-.4.82-.14.3-.28.6-.41.9-.13.3-.25.57-.36.81l.02.02c.23-.28.49-.61.79-.99.3-.38.62-.76.94-1.14.33-.38.69-.74,1.07-1.08.39-.34.74-.53,1.06-.57.47-.06.7.13.7.59,0,.24-.09.5-.25.79-.16.29-.31.57-.45.84-.28.49-.47.89-.59,1.19-.11.3-.12.49-.04.56.06.04.14.04.23,0,.09-.05.18-.1.26-.16.12-.1.25-.21.39-.33.14-.12.32-.31.53-.58.16-.19.33-.39.5-.61.17-.22.3-.4.4-.55.12-.17.21-.23.26-.19.03.05-.01.16-.14.35-.09.13-.24.35-.48.66-.23.31-.45.58-.65.81Zm2.41.37c.14-.02.37-.11.69-.27.32-.16.69-.47,1.11-.91.18-.19.37-.41.58-.65.21-.24.4-.48.58-.72.1-.13.17-.18.22-.13.05.06,0,.18-.14.35-.12.17-.31.4-.55.71-.24.3-.46.54-.64.72-.79.8-1.54,1.25-2.24,1.34-.75.1-1.15-.18-1.18-.85-.03-.47.14-1.01.49-1.63l-.02-.02s-.08.11-.16.22c-.08.11-.15.21-.22.28-.09.11-.15.15-.2.1-.03-.03-.03-.07,0-.13.03-.05.06-.11.1-.17.12-.17.24-.31.34-.44.1-.12.22-.26.36-.42.1-.12.24-.25.41-.41.17-.16.35-.32.53-.48.29-.22.58-.43.87-.61.29-.18.57-.29.85-.33h.02c.23-.03.4.01.5.14.1.13.15.28.15.45,0,.34-.12.65-.37.93-.25.29-.52.54-.82.77-.29.22-.59.43-.9.6-.31.18-.58.32-.81.44-.07.21-.09.41-.07.59.03.38.21.55.52.51Zm-.35-1.39c.2-.1.42-.22.66-.38.24-.16.47-.35.67-.56.24-.25.43-.5.55-.76.12-.25.18-.47.18-.66,0-.24-.08-.34-.28-.31-.18.02-.46.31-.84.85-.15.21-.32.49-.51.86-.19.37-.34.69-.44.96Zm6.74-2.97c.01.17-.07.39-.25.66-.18.28-.37.6-.57.96-.31.55-.51.97-.6,1.27-.09.25-.08.41.02.48.09.07.24.02.44-.16.1-.1.23-.22.39-.37.16-.15.32-.32.47-.51.22-.25.39-.45.51-.61.12-.16.25-.32.38-.49.14-.2.23-.28.29-.24.03.03.02.09-.03.17-.05.08-.11.18-.18.29-.11.15-.26.35-.44.59-.18.24-.39.5-.63.77-.2.23-.46.48-.77.76-.31.28-.64.44-.98.49-.22.03-.39,0-.51-.12-.12-.11-.18-.26-.18-.44-.01-.28.07-.6.25-.94s.37-.67.58-.96c.11-.17.24-.34.37-.51.14-.17.27-.33.39-.47.12-.14.22-.27.31-.38.09-.11.14-.2.15-.25.03-.14-.04-.2-.2-.17-.17.02-.38.05-.64.09-.11.02-.2.03-.28.04-.07.01-.14,0-.2-.02-.16.26-.39.61-.7,1.06-.16.22-.3.42-.42.58-.12.16-.23.31-.32.46-.15.21-.25.29-.29.24-.05-.04.02-.19.19-.43.11-.15.22-.29.32-.43.1-.14.24-.33.41-.57.27-.39.49-.71.65-.97-.1-.07-.16-.18-.18-.33-.02-.15.02-.31.12-.47.17-.31.42-.49.75-.53.08-.01.16,0,.24.03.08.03.13.09.15.17-.06.08-.12.14-.16.19-.04.05-.1.12-.16.21-.23.37-.2.55.11.54.29-.02.56-.03.81-.02.25,0,.39.13.41.36v.03Zm2.23,3.17c.14-.02.37-.11.69-.27.32-.16.69-.46,1.11-.91.18-.19.37-.41.58-.65.21-.24.4-.48.58-.72.1-.13.17-.18.22-.13.05.06,0,.18-.14.35-.12.17-.31.4-.55.71-.24.3-.46.54-.64.72-.79.8-1.54,1.25-2.24,1.34-.75.1-1.15-.18-1.18-.85-.03-.47.14-1.01.49-1.63l-.02-.02s-.08.11-.16.22c-.08.11-.15.21-.22.28-.09.11-.15.15-.2.1-.03-.03-.03-.07,0-.13.03-.05.06-.11.1-.17.12-.17.24-.31.34-.44.1-.12.22-.26.36-.42.1-.11.24-.25.41-.41.17-.16.35-.32.53-.48.29-.22.57-.43.87-.61.29-.18.57-.29.85-.33h.02c.23-.04.4.01.5.14.1.13.15.28.15.45,0,.34-.12.65-.37.93-.25.29-.52.54-.82.77-.29.22-.59.43-.9.6-.31.18-.58.32-.81.44-.07.21-.09.41-.07.59.03.38.21.55.52.51Zm-.35-1.39c.2-.09.42-.22.67-.38.24-.16.47-.35.67-.56.24-.25.43-.5.55-.76.12-.25.19-.47.18-.66,0-.24-.08-.34-.28-.32-.18.02-.46.31-.85.85-.15.21-.32.49-.51.86-.19.37-.34.69-.44.96Zm6.08-.49l-.02-.02c-.12.17-.27.34-.43.53-.17.18-.34.35-.53.51-.19.16-.38.3-.57.42-.19.12-.38.2-.57.24-.23.05-.44.02-.63-.09-.19-.11-.29-.37-.3-.79.01-.19.05-.39.11-.61.07-.22.18-.48.35-.77l-.02-.02s-.06.08-.09.14c-.04.06-.09.12-.15.2-.09.1-.15.13-.18.1-.03-.03-.01-.1.05-.2.06-.1.14-.23.24-.37.03-.04.09-.13.21-.27.11-.14.22-.26.32-.36.1-.1.23-.22.38-.37.15-.15.32-.3.51-.46.35-.28.7-.52,1.05-.71.35-.19.67-.28.95-.27.21,0,.35.09.44.24.08.16.12.34.11.54h.02c.21-.35.37-.6.5-.74.13-.14.26-.23.42-.25.38-.05.49.07.3.36-.17.29-.32.57-.46.85-.14.27-.29.59-.47.95-.16.31-.37.75-.64,1.32-.27.58-.54,1.13-.82,1.68.22-.2.51-.47.87-.83.36-.35.68-.69.98-1.02.21-.25.41-.49.6-.71.18-.23.37-.47.57-.73.1-.15.18-.2.24-.16.03.03.02.09-.03.17-.05.08-.1.16-.15.23-.13.2-.3.42-.5.65-.19.23-.4.48-.61.74-.34.38-.7.76-1.08,1.12-.38.36-.72.68-1.03.96-.82,1.8-2.53,4.65-3.74,5.45,1.83-3.05,2.78-4.97,3.82-7.66Zm.61-2.91c-.21.03-.47.22-.79.56-.32.35-.64.77-.97,1.27-.38.56-.65,1.01-.81,1.36-.16.35-.22.61-.17.77.03.16.12.24.29.21.19-.03.45-.18.77-.46.32-.28.61-.6.86-.95.15-.19.3-.4.44-.64.15-.24.28-.47.4-.69.12-.22.22-.42.29-.61.07-.19.11-.33.1-.43-.01-.3-.15-.43-.41-.4Zm3.89,3.37c.14-.02.37-.11.68-.27.32-.16.69-.47,1.11-.91.18-.19.37-.41.58-.65.1-.11.19-.22.28-.33.04-.11.1-.21.16-.31.18-.29.4-.44.65-.46.15,0,.27.04.35.14.08.1.11.22.09.35-.02.25-.15.48-.4.69-.09.08-.18.19-.27.33-.09.14-.14.3-.14.49,0,.2.06.35.18.44.12.09.27.13.47.1.21-.03.42-.16.64-.4.22-.24.43-.62.62-1.13.08-.2.15-.43.22-.7.07-.27.13-.54.19-.8.06-.26.12-.5.18-.72.06-.22.11-.37.16-.46v-.02c-.1.15-.24.32-.41.52-.17.2-.34.39-.5.56-.14.15-.28.29-.41.42-.14.13-.24.22-.32.28-.11.08-.17.1-.2.05-.02-.06,0-.14.09-.21.1-.1.23-.22.37-.35s.29-.29.44-.46c.18-.19.36-.4.53-.62.18-.22.37-.47.58-.75.02-.05.06-.13.12-.22s.11-.18.18-.25c.1-.11.21-.2.31-.26.11-.06.19-.09.26-.1.23-.03.31.02.24.16s-.17.26-.3.38c-.09.1-.18.18-.26.24-.08.06-.15.13-.2.2-.07.11-.11.22-.11.33,0,.11,0,.23.02.36.04.35.08.69.1,1.02.02.33-.01.68-.11,1.05-.05.19-.13.4-.24.61-.11.22-.22.38-.33.5.11-.06.24-.15.39-.27.16-.11.31-.25.47-.4.27-.26.5-.51.71-.75.2-.25.38-.47.55-.68.05-.06.1-.11.14-.16.04-.05.08-.06.11-.03.04.04-.02.19-.19.43-.1.13-.23.3-.39.51-.16.21-.35.42-.57.63-.22.22-.43.41-.64.58-.21.17-.4.32-.59.45-.18.13-.43.26-.75.41-.31.14-.63.24-.94.28-.28.04-.5.02-.68-.04-.18-.07-.32-.17-.42-.29-.1-.13-.17-.28-.22-.45-.04-.17-.06-.35-.05-.54,0-.08,0-.15.02-.22l-.06.07c-.24.3-.46.54-.64.72-.79.8-1.54,1.25-2.24,1.34-.75.1-1.15-.18-1.18-.85-.03-.47.14-1.01.49-1.63l-.02-.02s-.08.11-.16.22c-.08.11-.15.21-.21.28-.09.11-.15.15-.2.1-.03-.03-.03-.07,0-.13.03-.05.06-.11.1-.17.12-.17.24-.31.34-.44.1-.12.22-.26.36-.42.1-.12.24-.25.41-.41.17-.16.35-.32.53-.48.29-.22.57-.43.86-.61.29-.18.57-.29.85-.33h.02c.23-.04.4.01.5.14.1.13.15.28.15.45,0,.34-.12.65-.37.93-.25.29-.52.54-.82.77-.29.22-.58.43-.9.6-.31.18-.58.32-.81.44-.07.21-.09.41-.08.59.03.38.21.55.52.51Zm-.35-1.39c.2-.1.42-.22.67-.38.24-.16.47-.35.67-.56.24-.25.43-.5.55-.76.12-.25.19-.47.18-.66,0-.24-.08-.34-.28-.31-.18.02-.46.31-.84.85-.15.21-.32.49-.51.87-.19.37-.34.69-.44.96Zm10.74-4.53c.45-.58.84-1.08,1.16-1.49.33-.41.62-.76.87-1.07.25-.31.49-.59.7-.84.21-.26.43-.53.64-.81.45-.59.88-1.16,1.3-1.72.42-.57.78-1.1,1.1-1.59.32-.5.57-.95.76-1.36.19-.4.28-.75.29-1.04-.01-.32-.14-.46-.39-.43-.18.02-.38.16-.61.4-.23.24-.44.5-.64.79-.31.46-.67,1.02-1.1,1.68-.42.66-.87,1.41-1.34,2.27-.32.6-.6,1.12-.85,1.55-.24.43-.46.83-.66,1.22-.2.38-.39.76-.59,1.14-.2.38-.41.82-.65,1.3Zm2.83,3.39c-.1.11-.22.24-.35.38-.13.14-.28.27-.44.39-.16.12-.32.23-.48.32s-.33.15-.49.17c-.44.06-.66-.13-.67-.56-.01-.28.06-.59.22-.91.16-.32.32-.64.49-.95.13-.25.26-.49.4-.71.13-.22.25-.43.36-.63.04-.07.06-.14.07-.21,0-.07-.02-.12-.07-.14-.06-.03-.13-.02-.23.03-.09.05-.19.11-.3.19-.18.14-.4.34-.66.58-.26.25-.54.55-.84.91-.22.25-.4.48-.57.68-.16.21-.33.41-.49.61-.16.2-.33.4-.5.61-.17.21-.36.44-.56.68-.15.17-.32.27-.52.3-.15.02-.25.01-.3-.02-.05-.03-.05-.15,0-.34.18-.53.41-1.12.7-1.79.07-.16.15-.33.24-.51.09-.18.19-.37.29-.57v-.03c-.14.19-.27.36-.39.51-.12.15-.23.3-.33.45-.1.13-.17.17-.22.11-.02-.05.01-.13.08-.24.01-.02.07-.09.16-.21.09-.12.2-.26.32-.42.12-.16.24-.32.37-.49.13-.17.25-.32.37-.45.31-.61.64-1.27,1.01-1.98.36-.71.75-1.41,1.16-2.1.27-.46.59-1,.98-1.62.38-.62.78-1.25,1.18-1.88.4-.63.8-1.2,1.18-1.73.38-.52.7-.92.95-1.19.27-.29.54-.56.81-.8.27-.25.56-.39.86-.43.27-.04.46.03.57.2.1.17.15.37.14.61-.02.3-.13.67-.34,1.09-.21.42-.5.89-.85,1.4-.35.51-.75,1.05-1.19,1.63-.44.57-.91,1.15-1.38,1.74-.58.72-1.19,1.44-1.84,2.17-.65.73-1.32,1.55-2.02,2.47-.07.13-.17.32-.29.57-.12.25-.26.53-.4.82-.14.3-.28.6-.41.9-.13.3-.25.57-.36.81l.02.02c.23-.28.49-.61.79-.99.3-.38.62-.76.94-1.14.33-.38.69-.74,1.07-1.08.39-.34.74-.53,1.05-.57.47-.06.7.13.7.59,0,.24-.09.5-.25.79-.16.29-.31.57-.45.84-.28.49-.47.89-.59,1.19-.11.3-.12.49-.04.56.06.04.14.04.23,0,.09-.05.18-.1.26-.16.12-.1.25-.21.39-.33.14-.12.32-.31.53-.58.16-.19.33-.39.5-.61.17-.22.3-.4.4-.55.12-.17.21-.23.26-.19.03.05-.01.16-.14.35-.09.13-.24.35-.47.66-.23.31-.45.58-.65.81Zm-27.94,8.63c.12-.02.21.01.26.1.05.09.03.21-.05.36-.08.17-.21.31-.38.44-.17.12-.3.2-.4.21-.06-.05-.1-.14-.13-.25-.03-.12-.03-.24,0-.37.04-.15.12-.26.24-.33.12-.07.27-.12.44-.15h.02Zm-2.07,3.43c-.06.04-.16.13-.3.27-.15.15-.28.29-.39.42-.12.13-.22.25-.31.36-.09.1-.18.21-.26.31-.13.15-.21.21-.25.2-.03-.02-.03-.05,0-.09.02-.04.08-.12.16-.24.04-.06.11-.14.19-.24.09-.1.19-.22.29-.34.11-.12.21-.24.33-.36.11-.12.22-.23.31-.32.22-.22.39-.36.53-.44.14-.08.29-.13.47-.16.2-.03.31-.03.34,0,.03.03,0,.12-.09.26-.25.4-.51.85-.79,1.36-.12.23-.23.42-.31.6-.08.17-.14.31-.18.42-.08.22-.07.36.01.42.1.06.24.02.43-.13.09-.07.2-.16.32-.28.12-.12.26-.26.39-.42.17-.2.3-.35.39-.47.09-.12.2-.26.33-.42.13-.18.22-.25.27-.22.03.02.02.07-.04.16s-.09.14-.11.17c-.09.13-.22.3-.4.52-.17.21-.34.41-.49.59-.16.18-.37.39-.62.61-.26.23-.54.37-.85.42-.37.06-.58-.07-.63-.39-.02-.12-.01-.25.02-.38.03-.13.08-.25.13-.38.06-.16.14-.33.25-.51.1-.18.21-.35.32-.52.11-.17.21-.33.31-.47.1-.14.17-.25.24-.33Zm2.4-.03c-.11.15-.23.29-.34.43-.11.14-.21.27-.29.39-.08.1-.15.13-.19.09-.02-.04,0-.1.06-.18,0-.01.05-.07.13-.17.08-.1.17-.21.28-.35.11-.13.23-.28.35-.43.12-.16.25-.31.38-.46.1-.17.21-.37.34-.61.13-.24.27-.5.42-.77.15-.27.31-.55.47-.84.17-.28.33-.55.49-.81.25-.43.53-.87.83-1.33.3-.46.62-.91.96-1.35.2-.25.4-.39.61-.43.18-.03.28,0,.3.08-.07.1-.2.3-.38.58-.19.29-.39.61-.61.96-.22.35-.44.71-.66,1.07-.22.36-.41.68-.57.95-.24.42-.49.86-.73,1.31s-.47.88-.67,1.28c-.2.4-.38.78-.53,1.13s-.25.64-.32.87c-.01.07-.03.15-.04.26-.01.11.02.19.09.24.07.04.16.03.27-.03.11-.06.2-.12.28-.18.11-.08.22-.18.33-.3.11-.11.22-.23.34-.35.15-.17.28-.31.38-.44.1-.13.21-.26.31-.39.03-.04.07-.09.13-.15.05-.05.1-.07.12-.05.03.03,0,.11-.09.25-.09.13-.23.3-.4.52-.18.22-.36.43-.55.64-.09.09-.18.19-.29.3-.11.11-.23.21-.36.31-.14.1-.28.19-.43.27-.15.08-.3.13-.45.15-.18.03-.33.02-.45-.05-.12-.06-.19-.18-.2-.36-.03-.22.03-.52.17-.89.14-.37.32-.76.54-1.16l-.02-.02Zm3.09-.54c-.11.15-.23.29-.34.43-.11.14-.21.27-.29.39-.08.1-.15.13-.19.09-.02-.04,0-.1.06-.18.01-.01.05-.07.13-.17.08-.1.17-.21.28-.35.11-.13.23-.28.35-.43.12-.16.25-.31.38-.46.1-.17.21-.37.34-.61.13-.24.27-.5.42-.77.15-.27.31-.55.47-.84.17-.28.33-.55.49-.81.26-.43.53-.87.83-1.33.3-.46.62-.91.96-1.35.2-.25.4-.39.61-.43.18-.03.28,0,.3.08-.07.1-.2.3-.38.58-.18.29-.39.6-.6.96-.22.35-.44.71-.66,1.07-.22.36-.41.68-.57.95-.24.42-.49.86-.73,1.31-.25.45-.47.88-.67,1.28-.2.4-.38.78-.53,1.13-.15.35-.25.64-.32.87-.01.07-.03.15-.04.26-.01.11.02.19.09.24.07.04.16.03.27-.03.11-.06.2-.12.28-.18.11-.08.22-.18.33-.3.11-.11.22-.23.34-.35.15-.17.28-.31.38-.44.11-.13.21-.26.31-.39.03-.04.07-.09.13-.15.05-.05.1-.07.12-.05.03.03,0,.11-.09.24-.09.13-.23.3-.4.52-.18.22-.36.43-.55.64-.08.09-.18.19-.29.3-.11.11-.23.21-.36.31-.13.1-.28.19-.43.27-.15.08-.3.13-.45.15-.18.03-.33.02-.45-.05-.12-.06-.19-.18-.2-.36-.03-.22.03-.52.17-.89.14-.37.32-.76.54-1.16l-.02-.02Zm5.8-1.2c.18-.27.34-.48.49-.63.15-.15.29-.23.44-.26.19-.05.31-.05.35,0,.04.04.02.13-.06.26-.1.16-.22.36-.37.61-.15.25-.3.51-.45.79-.1.17-.19.34-.27.51-.08.17-.16.34-.22.51-.09.24-.08.39.02.44.06.03.12.02.2-.01.08-.04.15-.08.21-.13.09-.07.2-.17.34-.3.14-.13.27-.27.39-.42.17-.19.32-.37.44-.52s.23-.28.31-.4c.05-.06.1-.11.14-.15.04-.04.07-.05.1-.03.04.03-.02.16-.18.38-.1.13-.24.3-.4.51-.17.21-.32.39-.47.56-.16.18-.36.38-.62.6-.25.22-.53.36-.84.41-.17.03-.31.02-.41-.04-.1-.06-.16-.14-.19-.25-.03-.1-.03-.21,0-.34.03-.13.08-.26.14-.37l-.02-.02c-.1.13-.23.27-.36.42-.14.14-.29.29-.45.42-.16.14-.33.26-.51.36-.18.11-.35.18-.52.22-.21.05-.4.03-.58-.04-.18-.08-.28-.27-.3-.57,0-.14.02-.29.07-.46.05-.17.14-.36.28-.59l-.02-.02s-.04.07-.08.11c-.03.04-.07.1-.12.16-.08.08-.13.11-.16.08-.05-.04.02-.18.2-.4.02-.03.08-.11.19-.23.1-.13.2-.23.29-.31.09-.08.2-.18.33-.3.13-.12.27-.24.43-.37.32-.25.63-.45.93-.6.3-.15.57-.23.82-.24.19,0,.33.05.42.18.09.13.12.28.09.45Zm-.55-.44c-.18.03-.41.19-.68.46-.27.28-.54.61-.81,1-.32.44-.54.79-.66,1.06-.12.27-.16.46-.12.58.03.12.12.17.27.14.17-.03.4-.16.67-.38s.52-.48.72-.76c.13-.15.25-.32.37-.5.12-.19.23-.36.33-.53.1-.17.17-.33.23-.47.06-.14.08-.25.07-.33-.03-.22-.16-.32-.39-.28Zm3.84,3.59c-.24.23-.47.45-.7.65-.23.2-.48.41-.74.63-.26.22-.53.47-.83.74-.29.27-.63.58-1.01.94-.35.33-.67.66-.97,1.01-.3.35-.56.68-.78,1.01s-.39.65-.52.96c-.12.31-.17.58-.15.82.03.27.15.43.36.45.16.02.34-.02.56-.14.21-.11.4-.23.55-.36.37-.32.79-.79,1.25-1.4.46-.61.97-1.46,1.55-2.52.29-.53.56-1.06.83-1.58.26-.52.47-.92.61-1.21Zm1.45-4.51c-.18.03-.41.19-.68.46-.27.28-.54.61-.82,1-.32.44-.54.79-.66,1.06-.12.27-.16.46-.12.58.03.12.12.17.27.14.17-.03.4-.16.67-.38.28-.23.52-.48.72-.76.13-.15.25-.32.37-.5.12-.19.23-.36.32-.53.1-.17.18-.33.23-.47.06-.14.08-.25.07-.33-.03-.22-.15-.32-.39-.28Zm-1.71.64c.3-.23.61-.43.91-.59.31-.16.59-.25.84-.25.19,0,.32.05.41.16.08.11.12.25.12.4h.02c.17-.27.31-.47.41-.58.11-.11.23-.18.36-.21.34-.06.44.03.29.26-.14.23-.26.45-.37.66-.11.21-.24.45-.38.73-.12.24-.29.58-.51,1.02-.22.44-.43.88-.65,1.3.19-.16.43-.38.74-.66.31-.28.58-.55.83-.81.18-.2.35-.39.5-.56.15-.18.31-.37.48-.58.08-.12.15-.16.21-.13.03.02.02.06-.02.13-.04.06-.08.13-.12.18-.11.16-.25.33-.41.51-.17.18-.34.38-.52.59-.29.3-.59.6-.92.89-.32.29-.62.55-.88.77-.15.33-.31.68-.5,1.04-.18.36-.37.72-.55,1.07-.18.35-.35.67-.51.96-.16.29-.29.52-.4.69-.51.8-1.05,1.54-1.63,2.2-.58.67-1.12,1.19-1.63,1.57-.43.34-.84.55-1.2.61-.11.02-.23.03-.35.02-.12,0-.23-.03-.32-.07-.1-.04-.17-.11-.23-.2-.06-.09-.09-.22-.1-.39,0-.28.09-.6.29-.98.2-.37.46-.75.77-1.14.31-.39.65-.76,1.02-1.14.37-.38.71-.71,1.02-1.01.37-.34.7-.64.99-.9.29-.25.56-.49.82-.71.25-.22.5-.44.74-.64.24-.21.51-.44.79-.69.07-.13.14-.28.23-.45.08-.17.17-.35.26-.53.09-.18.17-.36.25-.53.08-.17.14-.32.2-.45h-.02c-.1.12-.23.26-.37.4-.14.14-.29.28-.45.41-.16.13-.32.24-.49.34-.17.1-.33.17-.5.21-.21.05-.4.04-.57-.03-.18-.07-.28-.26-.31-.58,0-.14.03-.29.07-.46.05-.17.14-.36.28-.59l-.02-.02s-.05.07-.08.11c-.03.04-.07.1-.12.16-.08.08-.13.11-.16.08s-.02-.07.03-.15c.05-.08.11-.18.2-.29.02-.03.08-.1.17-.21.09-.11.18-.21.27-.29.09-.08.19-.18.32-.29.12-.12.27-.24.44-.37Zm5.39,1.68c.12-.02.32-.1.6-.24.28-.14.6-.38.95-.74.15-.15.31-.33.49-.51.18-.19.34-.38.48-.57.08-.1.15-.14.19-.11.05.04.01.13-.11.27-.1.13-.26.32-.46.56-.21.24-.38.43-.54.57-.67.64-1.32,1.01-1.95,1.12-.67.12-1.04-.07-1.1-.57-.05-.35.07-.76.35-1.25l-.02-.02s-.06.09-.13.18c-.07.09-.13.16-.18.22-.07.09-.13.12-.17.09-.03-.02-.03-.05,0-.09.03-.04.05-.09.08-.13.1-.13.2-.25.28-.35.08-.1.19-.21.3-.33.09-.09.2-.2.35-.33.15-.13.3-.26.46-.38.25-.18.5-.35.75-.5.25-.15.5-.25.75-.29h.02c.21-.04.36-.01.46.08.1.09.15.2.16.33.02.25-.08.49-.28.72-.21.23-.44.43-.7.62-.25.18-.5.35-.78.5-.27.15-.5.27-.7.37-.05.16-.06.31-.04.45.05.28.21.4.5.35Zm-.38-1.02c.18-.08.37-.19.58-.32s.4-.28.58-.45c.21-.2.36-.4.46-.6.1-.2.14-.36.13-.5,0-.18-.09-.25-.26-.22-.16.03-.4.25-.72.68-.12.16-.26.39-.42.67-.15.29-.27.53-.35.74Z"/><path class="cls-2" d="m83.69,83.56c-.17.24-.37.48-.58.72-.21.24-.4.46-.58.65-.42.44-.79.75-1.11.91-.32.16-.55.25-.69.27-.32.04-.49-.13-.52-.51-.02-.18,0-.38.07-.59.23-.12.49-.26.81-.44.31-.18.61-.38.9-.6.3-.23.57-.48.82-.77.25-.29.37-.6.37-.93,0-.17-.05-.32-.15-.45-.1-.13-.27-.18-.5-.15h-.02c-.28.04-.56.15-.85.33-.29.18-.58.39-.87.61-.18.16-.36.32-.53.48-.17.16-.31.29-.41.41-.14.15-.26.29-.36.42-.1.12-.21.27-.34.44-.04.06-.07.11-.1.17-.03.05-.03.1,0,.13.05.04.11,0,.2-.1.06-.08.14-.17.22-.28.08-.11.13-.19.16-.22l.02.02c-.35.62-.51,1.16-.49,1.63.03.67.42.95,1.18.85.7-.1,1.45-.54,2.24-1.34.18-.18.39-.42.64-.72.25-.3.43-.54.55-.71.14-.17.18-.29.14-.35-.05-.04-.12,0-.22.13Zm0,0c-.17.24-.24.39-.19.43.04.04.14-.04.29-.24.1-.15.21-.3.32-.46.12-.16.26-.35.42-.58.31-.45.54-.8.7-1.06.06.03.12.03.2.02.08-.01.17-.02.28-.04.26-.04.47-.07.64-.09.17-.02.23.04.2.17,0,.05-.06.13-.15.25-.09.11-.19.24-.31.38-.12.14-.25.3-.39.47-.14.17-.26.34-.37.51-.21.3-.4.62-.58.96s-.26.66-.25.94c0,.18.06.33.18.44.12.11.29.15.51.12.34-.05.67-.21.98-.49.31-.28.57-.53.77-.76.24-.27.45-.52.63-.77.18-.24.33-.44.44-.59.07-.11.13-.21.18-.29.05-.08.06-.14.03-.17-.06-.04-.16.04-.29.24-.12.17-.25.33-.38.49-.12.16-.29.36-.51.61-.15.19-.31.36-.47.51-.16.15-.29.27-.39.37-.21.18-.36.23-.44.16-.1-.07-.11-.23-.02-.48.09-.3.29-.72.6-1.27.21-.36.4-.69.57-.96.18-.28.26-.5.25-.66v-.03c-.02-.23-.16-.35-.41-.36-.25,0-.52,0-.81.02-.3,0-.34-.17-.11-.54.06-.09.11-.16.16-.21.04-.05.1-.11.16-.19-.02-.08-.07-.14-.15-.17-.08-.03-.16-.04-.24-.03-.33.05-.58.22-.75.53-.1.16-.13.32-.12.47.02.15.08.26.18.33-.16.26-.37.58-.65.97-.17.24-.31.43-.41.57-.1.14-.2.28-.32.43Zm8.7-.98c.14-.17.18-.29.14-.35-.04-.04-.12,0-.22.13-.17.24-.37.48-.58.72-.21.24-.4.45-.58.65-.42.45-.79.75-1.11.91-.32.16-.55.25-.69.27-.32.04-.49-.13-.52-.51-.02-.18,0-.38.07-.59.23-.11.5-.26.81-.44.31-.18.61-.38.9-.6.3-.23.57-.48.82-.77.25-.29.37-.6.37-.93,0-.17-.05-.32-.15-.45-.1-.13-.27-.18-.5-.15h-.02c-.28.04-.56.15-.85.33-.29.18-.58.39-.87.61-.18.16-.36.32-.53.48-.17.16-.31.3-.41.41-.14.15-.26.29-.36.42-.1.12-.21.27-.34.44-.04.06-.07.11-.1.17-.03.05-.03.1,0,.13.04.04.11,0,.2-.1.06-.08.14-.17.22-.28.08-.11.13-.19.16-.22l.02.02c-.35.62-.51,1.16-.49,1.63.03.67.42.95,1.18.85.7-.1,1.45-.54,2.24-1.34.18-.18.39-.42.64-.72.25-.3.43-.54.55-.71Zm0,0c.04-.06.07-.1.09-.14l.02.02c-.17.29-.29.55-.35.77-.06.22-.1.42-.11.61,0,.42.11.68.3.79.19.11.4.14.63.09.19-.04.38-.12.57-.24.19-.12.38-.26.57-.42.19-.16.36-.33.53-.51.17-.18.31-.36.43-.53l.02.02c-1.04,2.69-2,4.61-3.82,7.66,1.21-.8,2.92-3.65,3.74-5.45.31-.28.65-.6,1.03-.96.38-.36.74-.74,1.08-1.12.21-.26.42-.51.61-.74.2-.23.36-.45.5-.65.05-.07.1-.15.15-.23.05-.08.06-.14.03-.17-.06-.04-.14.01-.24.16-.2.26-.39.51-.57.73-.18.23-.38.46-.6.71-.29.33-.62.67-.98,1.02-.36.35-.65.63-.87.83.27-.54.54-1.1.82-1.68.27-.58.48-1.02.64-1.32.18-.36.33-.68.47-.95.14-.27.29-.55.46-.85.18-.29.08-.42-.3-.36-.15.02-.29.1-.42.25-.13.14-.29.39-.5.74h-.02c.01-.2-.02-.38-.11-.54-.08-.16-.23-.24-.44-.24-.28-.01-.59.08-.95.27-.35.19-.7.43-1.05.71-.19.16-.36.32-.51.46-.15.15-.27.27-.38.37-.1.1-.21.22-.32.36-.11.14-.18.23-.21.27-.1.15-.18.27-.24.37-.06.1-.08.17-.05.2.03.03.09,0,.18-.1.06-.08.11-.14.15-.2Zm-4.73,10.7c.09-.13.12-.21.09-.25-.03-.02-.07,0-.12.05-.05.05-.1.1-.13.15-.1.13-.21.26-.31.39-.11.13-.23.27-.38.44-.12.12-.23.24-.34.35-.11.11-.22.21-.33.3-.08.06-.17.12-.28.18-.11.06-.2.07-.27.03-.07-.05-.1-.13-.09-.24.01-.11.03-.2.04-.26.06-.23.17-.52.32-.87s.32-.73.53-1.13c.2-.4.43-.83.67-1.28s.49-.89.73-1.31c.16-.27.35-.59.57-.95.22-.36.44-.72.66-1.07.22-.35.42-.67.61-.96.18-.29.31-.48.38-.58-.01-.09-.11-.11-.3-.08-.21.04-.41.18-.61.43-.34.44-.66.89-.96,1.35-.3.46-.58.9-.83,1.33-.16.26-.32.53-.49.81-.17.28-.32.56-.47.84-.15.27-.29.53-.42.77-.13.24-.24.44-.34.61-.13.15-.25.3-.38.46-.12.16-.24.3-.35.43-.11.13-.2.25-.28.35-.08.1-.12.15-.13.17-.06.09-.08.15-.06.18.04.04.11.01.19-.09.08-.12.18-.24.29-.39.11-.14.23-.28.34-.43l.02.02c-.22.41-.4.8-.54,1.16-.14.37-.2.66-.17.89.02.18.08.29.2.36.12.06.27.08.45.05.15-.03.3-.08.45-.15.15-.08.29-.17.43-.27.13-.1.26-.2.36-.31.11-.11.2-.21.29-.3.19-.21.38-.42.55-.64.18-.22.31-.39.4-.52Zm0,0c.08-.12.18-.24.29-.39.11-.14.23-.29.34-.43l.02.02c-.22.41-.4.8-.54,1.16-.14.37-.2.66-.17.89.02.18.08.29.2.36.12.06.27.08.45.05.15-.03.3-.08.45-.15.15-.08.29-.17.43-.27.14-.1.26-.2.36-.31.11-.11.21-.21.29-.3.19-.21.38-.42.55-.64.18-.22.31-.39.4-.52.09-.13.12-.21.09-.24-.03-.02-.07,0-.12.05-.05.05-.1.1-.13.15-.1.13-.21.26-.31.39-.1.13-.23.27-.38.44-.12.12-.23.24-.34.35-.11.11-.22.21-.33.3-.08.06-.17.13-.28.18-.11.06-.2.07-.27.03-.07-.05-.1-.13-.09-.24.01-.11.03-.2.04-.26.06-.23.17-.52.32-.87.15-.35.32-.73.53-1.13.2-.4.43-.83.67-1.28.24-.45.49-.89.73-1.31.16-.27.35-.59.57-.95.22-.36.44-.72.66-1.07.22-.35.42-.67.6-.96.18-.29.31-.48.38-.58-.01-.09-.11-.11-.3-.08-.21.04-.41.18-.61.43-.34.44-.66.89-.96,1.35-.3.46-.58.9-.83,1.33-.16.26-.32.53-.49.81-.17.28-.32.56-.47.84-.15.27-.29.53-.42.77-.13.24-.24.44-.34.61-.13.15-.25.3-.38.46-.12.16-.24.3-.35.43-.11.13-.2.25-.28.35-.08.1-.12.15-.13.17-.06.09-.08.15-.06.18.04.04.11.01.19-.09Zm8.26-1.57c-.08.12-.18.25-.31.4s-.27.32-.44.52c-.13.15-.26.29-.39.42-.14.13-.25.23-.34.3-.07.05-.14.09-.21.13-.07.04-.14.04-.2.01-.1-.05-.1-.19-.02-.44.06-.16.13-.33.22-.51.08-.17.18-.35.27-.51.15-.28.3-.55.45-.79.15-.25.27-.45.37-.61.08-.13.1-.21.06-.26-.04-.04-.16-.04-.35,0-.15.03-.29.11-.44.26-.15.15-.31.36-.49.63.03-.17,0-.32-.09-.45-.09-.13-.23-.19-.42-.18-.25,0-.53.08-.82.24-.3.15-.61.35-.93.6-.16.13-.3.25-.43.37-.13.12-.24.22-.33.3-.09.08-.18.18-.29.31-.1.13-.17.2-.19.23-.18.22-.24.35-.2.4.03.02.08,0,.16-.08.05-.06.1-.11.12-.16.03-.04.06-.08.08-.11l.02.02c-.14.23-.23.42-.28.59-.05.17-.07.32-.07.46.01.3.11.49.3.57.18.08.38.09.58.04.17-.04.34-.12.52-.22.18-.11.35-.23.51-.36.16-.14.31-.28.45-.42.14-.15.26-.28.36-.42l.02.02c-.07.11-.12.24-.14.37-.03.13-.03.25,0,.34.03.11.1.19.19.25.1.06.23.07.41.04.31-.05.59-.19.84-.41.25-.22.46-.42.62-.6.15-.17.31-.35.47-.56.17-.21.3-.38.4-.51m-.05-.2c.05-.06.1-.11.14-.15.04-.04.07-.05.1-.03.04.03-.02.16-.18.38m-.05-.2c-.08.12-.15.21-.2.29-.05.08-.06.13-.03.15s.08,0,.16-.08c.05-.06.1-.11.12-.16m-.05-.2s.08-.1.17-.21c.09-.11.18-.21.27-.29.09-.08.19-.18.32-.29.12-.12.27-.24.44-.37.3-.23.61-.43.91-.59.31-.16.59-.25.84-.25.19,0,.32.05.41.16.08.11.12.25.12.4h.02c.17-.27.31-.47.41-.58.11-.11.23-.18.36-.21.34-.06.44.03.29.26-.14.23-.26.45-.37.66-.11.21-.24.45-.38.73-.12.24-.29.58-.51,1.02-.22.44-.43.88-.65,1.3.19-.16.43-.38.74-.66.31-.28.58-.55.83-.81.18-.2.35-.39.5-.56.15-.18.31-.37.48-.58.08-.12.15-.16.21-.13.03.02.02.06-.02.13-.04.06-.08.13-.12.18-.11.16-.25.33-.41.51-.17.18-.34.38-.52.59-.29.3-.59.6-.92.89-.32.29-.62.55-.88.77-.15.33-.31.68-.5,1.04-.18.36-.37.72-.55,1.07-.18.35-.35.67-.51.96-.16.29-.29.52-.4.69-.51.8-1.05,1.54-1.63,2.2-.58.67-1.12,1.19-1.63,1.57-.43.34-.84.55-1.2.61-.11.02-.23.03-.35.02-.12,0-.23-.03-.32-.07-.1-.04-.17-.11-.23-.2-.06-.09-.09-.22-.1-.39,0-.28.09-.6.29-.98.2-.37.46-.75.77-1.14.31-.39.65-.76,1.02-1.14.37-.38.71-.71,1.02-1.01.37-.34.7-.64.99-.9.29-.25.56-.49.82-.71.25-.22.5-.44.74-.64.24-.21.51-.44.79-.69.07-.13.14-.28.23-.45.08-.17.17-.35.26-.53.09-.18.17-.36.25-.53.08-.17.14-.32.2-.45h-.02c-.1.12-.23.26-.37.4-.14.14-.29.28-.45.41-.16.13-.32.24-.49.34-.17.1-.33.17-.5.21-.21.05-.4.04-.57-.03-.18-.07-.28-.26-.31-.58,0-.14.03-.29.07-.46.05-.17.14-.36.28-.59l-.02-.02s-.05.07-.08.11m-22.39,6.52c.58-.13,1.21-.34,1.88-.64.67-.29,1.34-.67,2.01-1.13.28-.18.57-.4.89-.66.31-.26.62-.52.92-.81.3-.28.58-.56.84-.84.26-.28.49-.53.67-.75.55-.68,1-1.3,1.35-1.87.35-.57.6-1.1.77-1.59.07-.19.08-.38.01-.56-.02-.12-.07-.28-.15-.49-.08-.21-.18-.44-.29-.69-.07-.15-.12-.33-.15-.54-.03-.21.06-.33.26-.37.22-.04.4.03.54.2.15.17.24.43.27.78.01.24,0,.52-.06.84-.05.32-.12.62-.2.88-.18.58-.43,1.19-.74,1.83-.31.64-.72,1.26-1.22,1.87-.52.67-1.08,1.26-1.66,1.76-.59.5-1.19.95-1.82,1.34-.76.46-1.53.83-2.29,1.11-.77.28-1.51.5-2.24.66-.16.07-.35.15-.55.22-.2.07-.38.13-.54.17-.3.08-.54.13-.72.14-.18,0-.28-.03-.3-.12-.02-.12.05-.22.21-.31.16-.09.34-.16.54-.21.23-.05.45-.1.66-.12.21-.03.44-.05.69-.06.44-.28.93-.72,1.46-1.3.54-.59,1.11-1.32,1.71-2.19.24-.34.47-.71.71-1.1.24-.4.44-.81.62-1.23.18-.42.33-.84.44-1.26.11-.42.16-.82.14-1.21-.03-.59-.19-.99-.48-1.21-.3-.22-.66-.29-1.09-.21-.55.09-1.08.32-1.62.67-.53.35-.99.74-1.38,1.16-.4.45-.71.96-.95,1.52-.24.56-.35,1.07-.33,1.53.02.38.13.69.32.94.19.24.47.34.85.31.42-.04.81-.25,1.16-.61.35-.37.65-.74.89-1.13.2-.3.36-.64.48-1.01.12-.37.18-.68.17-.91-.01-.24-.07-.42-.18-.55-.09-.07-.12-.12-.11-.14.02-.05.08-.04.18.04.03.02.1.1.2.22.1.12.17.31.2.56.02.29-.02.62-.13.97-.11.35-.26.69-.46,1.01-.12.18-.26.37-.44.56-.18.19-.37.37-.57.54-.21.17-.43.31-.67.43-.24.12-.48.19-.73.22-.48.05-.86-.05-1.14-.31-.28-.26-.44-.62-.48-1.09-.02-.44.1-.96.36-1.54.26-.58.63-1.14,1.13-1.67.45-.48.96-.9,1.53-1.25.57-.35,1.14-.58,1.71-.68.3-.05.61-.07.93-.06.32.01.61.08.88.22.27.13.49.34.66.61.17.28.28.64.31,1.1.02.37-.03.76-.16,1.17-.12.41-.28.82-.49,1.24-.2.42-.44.82-.7,1.23-.26.4-.52.78-.77,1.12-.23.31-.49.62-.79.93-.3.31-.62.61-.95.9-.33.29-.67.56-1.02.8-.34.25-.67.45-.98.63Zm-5.74-16.81c.82-.5,1.59-.98,2.32-1.45.72-.47,1.47-.93,2.26-1.4.49-1.08,1.01-2.04,1.56-2.89.55-.85,1.11-1.56,1.69-2.13.31-.3.62-.54.93-.72.31-.18.61-.29.89-.35.24-.05.48-.02.73.09.25.11.36.37.34.79,0,.29-.1.62-.3.98-.19.36-.45.73-.76,1.1-.31.37-.69.74-1.12,1.1-.44.36-.9.69-1.39.99-.1.06-.23.14-.38.24-.16.1-.29.18-.41.24-.25.66-.48,1.31-.7,1.94-.22.63-.44,1.24-.65,1.82-.51,1.42-1.1,2.65-1.76,3.69-.66,1.04-1.39,1.92-2.19,2.64-.8.72-1.65,1.29-2.54,1.71-.9.42-1.83.72-2.81.9-.8.13-1.66.17-2.57.1-.91-.06-1.71-.34-2.4-.83-.53.66-1,1.31-1.4,1.94-.4.63-.68,1.19-.84,1.7-.09.25-.16.37-.22.35-.04-.02-.06-.09-.06-.2,0-.11.02-.19.03-.24.13-.55.38-1.16.74-1.83.36-.67.8-1.35,1.33-2.04-.34-.31-.64-.74-.9-1.3-.26-.56-.39-1.23-.39-2.01.01-.9.23-1.72.65-2.44.42-.73.93-1.36,1.54-1.9.61-.54,1.26-.97,1.94-1.3.69-.33,1.31-.54,1.87-.65.4-.09.83-.14,1.31-.15.47-.01.94.03,1.41.13.47.1.9.26,1.3.49.39.23.71.52.95.89Zm6.51-3.93c.08-.06.17-.11.26-.16.1-.05.19-.1.26-.16.41-.26.81-.55,1.2-.86.39-.31.74-.63,1.05-.97.32-.34.57-.67.76-1.01.19-.34.3-.65.33-.95.03-.27-.04-.45-.19-.55-.16-.09-.33-.11-.53-.04-.42.12-.86.5-1.33,1.16-.26.34-.57.85-.9,1.52-.34.67-.64,1.33-.91,2Zm-10.27,9.66c-.36.04-.75.02-1.17-.06-.42-.08-.8-.23-1.16-.46-.31.3-.6.59-.88.86-.28.27-.56.55-.85.85-.17.18-.33.36-.49.52-.15.16-.31.33-.46.52.59.59,1.33.93,2.2,1.03.87.1,1.71.08,2.51-.08,1.6-.34,2.97-1.19,4.12-2.56,1.15-1.37,2.2-3.32,3.16-5.85.2-.5.39-.99.59-1.44.2-.46.4-.9.6-1.34v-.04c-.73.44-1.42.88-2.1,1.31-.67.44-1.37.9-2.09,1.39.14.33.22.7.24,1.11.01.61-.11,1.16-.37,1.67-.26.5-.59.93-.99,1.29-.4.36-.86.65-1.38.87-.51.22-1.01.36-1.49.41Zm-.08-.36c.42-.04.84-.17,1.27-.37.42-.2.81-.47,1.17-.8.36-.33.64-.72.86-1.17.22-.45.33-.93.32-1.44-.02-.32-.06-.6-.13-.86-.31.23-.63.45-.95.67-.32.22-.66.44-1.01.67-.49.34-1.04.76-1.66,1.25-.62.49-1.25,1.04-1.88,1.64.35.18.71.3,1.06.37.36.06.67.08.96.05Zm3.37-5.01c-.2-.39-.48-.69-.83-.91-.35-.22-.74-.37-1.16-.46-.42-.09-.85-.13-1.29-.12-.44,0-.84.06-1.2.14-.52.1-1.07.3-1.65.59-.58.29-1.12.66-1.61,1.12-.49.47-.89,1.03-1.21,1.69-.32.66-.49,1.42-.5,2.27,0,.63.07,1.19.22,1.67.16.48.35.87.59,1.16.24-.34.54-.69.88-1.04.27-.3.53-.57.79-.81.26-.25.55-.52.88-.82-.38-.35-.61-.79-.7-1.32-.05-.24-.03-.36.07-.37.02,0,.06.09.1.28.07.26.18.48.32.66.14.18.29.35.46.5.62-.55,1.26-1.07,1.93-1.57.67-.49,1.33-.95,1.97-1.38l1.93-1.29Zm8.13.35c.45-.58.84-1.08,1.16-1.49.33-.41.62-.76.87-1.07.25-.31.48-.59.7-.84.21-.26.43-.53.64-.81.45-.59.88-1.16,1.3-1.72.42-.57.79-1.1,1.1-1.59.32-.5.57-.95.76-1.36.19-.4.28-.75.29-1.04-.01-.32-.14-.46-.39-.43-.18.02-.38.16-.61.4-.23.24-.44.5-.64.79-.31.46-.67,1.02-1.1,1.68-.42.66-.87,1.41-1.34,2.27-.32.6-.61,1.12-.85,1.55-.24.43-.46.83-.66,1.22-.2.38-.39.76-.59,1.14-.2.38-.41.82-.65,1.3Zm2.83,3.39c-.1.11-.22.24-.35.38-.13.14-.28.27-.44.39-.16.12-.32.23-.48.32-.17.09-.33.15-.5.17-.44.06-.66-.13-.67-.56-.01-.28.06-.59.22-.91.16-.32.32-.64.49-.95.13-.25.26-.49.4-.71.13-.22.26-.43.36-.63.04-.07.06-.14.07-.21,0-.07-.02-.12-.07-.14-.06-.03-.13-.02-.23.03-.09.05-.19.11-.3.19-.18.14-.4.34-.66.58-.26.25-.54.55-.84.91-.22.25-.4.48-.57.68-.16.21-.33.41-.49.61-.16.2-.33.4-.5.61-.17.21-.36.44-.56.68-.15.17-.32.27-.52.3-.15.02-.25.01-.3-.02-.05-.04-.05-.15,0-.34.18-.53.41-1.12.7-1.79.07-.16.15-.33.24-.51.09-.18.19-.37.3-.57v-.03c-.14.19-.27.36-.39.51-.12.15-.23.3-.33.45-.1.13-.17.17-.22.11-.02-.05,0-.13.08-.24.01-.02.07-.09.16-.21.09-.12.2-.26.32-.42.12-.16.24-.32.37-.49.13-.17.25-.32.37-.45.31-.61.65-1.27,1.01-1.98.36-.71.75-1.41,1.16-2.1.27-.46.59-1,.98-1.62.38-.62.78-1.25,1.18-1.88.4-.63.8-1.2,1.18-1.73.38-.52.7-.92.95-1.19.27-.29.54-.56.81-.8.27-.25.56-.39.86-.43.28-.04.46.03.57.2.11.17.15.37.15.61-.02.3-.13.67-.35,1.09-.21.42-.5.89-.85,1.4-.35.51-.75,1.05-1.19,1.63-.44.57-.9,1.16-1.38,1.74-.58.72-1.19,1.44-1.84,2.17-.65.73-1.32,1.55-2.02,2.47-.07.13-.17.32-.3.57-.12.25-.26.53-.4.82-.14.3-.28.6-.41.9-.13.3-.25.57-.36.81l.02.02c.23-.28.49-.61.79-.99.3-.38.62-.76.94-1.14.33-.38.69-.74,1.07-1.08.39-.34.74-.53,1.06-.57.47-.06.7.13.7.59,0,.24-.09.5-.25.79-.16.29-.31.57-.45.84-.28.49-.47.89-.59,1.19-.11.3-.12.49-.04.56.06.04.14.04.23,0,.09-.05.18-.1.26-.16.12-.1.25-.21.39-.33.14-.12.32-.31.53-.58.16-.19.33-.39.5-.61.17-.22.3-.4.4-.55.12-.17.21-.23.26-.19.03.05-.01.16-.14.35-.09.13-.24.35-.48.66-.23.31-.45.58-.65.81Zm2.06-1.02c.2-.1.42-.22.66-.38.24-.16.47-.35.67-.56.24-.25.43-.5.55-.76.12-.25.18-.47.18-.66,0-.24-.08-.34-.28-.31-.18.02-.46.31-.84.85-.15.21-.32.49-.51.86-.19.37-.34.69-.44.96Zm8.62-1.19c.2-.09.42-.22.67-.38.24-.16.47-.35.67-.56.24-.25.43-.5.55-.76.12-.25.19-.47.18-.66,0-.24-.08-.34-.28-.32-.18.02-.46.31-.85.85-.15.21-.32.49-.51.86-.19.37-.34.69-.44.96Zm6.69-3.4c-.21.03-.47.22-.79.56-.32.35-.64.77-.97,1.27-.38.56-.65,1.01-.81,1.36-.16.35-.22.61-.17.77.03.16.12.24.29.21.19-.03.45-.18.77-.46.32-.28.61-.6.86-.95.15-.19.3-.4.44-.64.15-.24.28-.47.4-.69.12-.22.22-.42.29-.61.07-.19.11-.33.1-.43-.01-.3-.15-.43-.41-.4Zm3.89,3.37c.14-.02.37-.11.68-.27.32-.16.69-.47,1.11-.91.18-.19.37-.41.58-.65.1-.11.19-.22.28-.33.04-.11.1-.21.16-.31.18-.29.4-.44.65-.46.15,0,.27.04.35.14.08.1.11.22.09.35-.02.25-.15.48-.4.69-.09.08-.18.19-.27.33-.09.14-.14.3-.14.49,0,.2.06.35.18.44.12.09.27.13.47.1.21-.03.42-.16.64-.4.22-.24.43-.62.62-1.13.08-.2.15-.43.22-.7.07-.27.13-.54.19-.8.06-.26.12-.5.18-.72.06-.22.11-.37.16-.46v-.02c-.1.15-.24.32-.41.52-.17.2-.34.39-.5.56-.14.15-.28.29-.41.42-.14.13-.24.22-.32.28-.11.08-.17.1-.2.05-.02-.06,0-.14.09-.21.1-.1.23-.22.37-.35s.29-.29.44-.46c.18-.19.36-.4.53-.62.18-.22.37-.47.58-.75.02-.05.06-.13.12-.22s.11-.18.18-.25c.1-.11.21-.2.31-.26.11-.06.19-.09.26-.1.23-.03.31.02.24.16s-.17.26-.3.38c-.09.1-.18.18-.26.24-.08.06-.15.13-.2.2-.07.11-.11.22-.11.33,0,.11,0,.23.02.36.04.35.08.69.1,1.02.02.33-.01.68-.11,1.05-.05.19-.13.4-.24.61-.11.22-.22.38-.33.5.11-.06.24-.15.39-.27.16-.11.31-.25.47-.4.27-.26.5-.51.71-.75.2-.25.38-.47.55-.68.05-.06.1-.11.14-.16.04-.05.08-.06.11-.03.04.04-.02.19-.19.43-.1.13-.23.3-.39.51-.16.21-.35.42-.57.63-.22.22-.43.41-.64.58-.21.17-.4.32-.59.45-.18.13-.43.26-.75.41-.31.14-.63.24-.94.28-.28.04-.5.02-.68-.04-.18-.07-.32-.17-.42-.29-.1-.13-.17-.28-.22-.45-.04-.17-.06-.35-.05-.54,0-.08,0-.15.02-.22l-.06.07c-.24.3-.46.54-.64.72-.79.8-1.54,1.25-2.24,1.34-.75.1-1.15-.18-1.18-.85-.03-.47.14-1.01.49-1.63l-.02-.02s-.08.11-.16.22c-.08.11-.15.21-.21.28-.09.11-.15.15-.2.1-.03-.03-.03-.07,0-.13.03-.05.06-.11.1-.17.12-.17.24-.31.34-.44.1-.12.22-.26.36-.42.1-.12.24-.25.41-.41.17-.16.35-.32.53-.48.29-.22.57-.43.86-.61.29-.18.57-.29.85-.33h.02c.23-.04.4.01.5.14.1.13.15.28.15.45,0,.34-.12.65-.37.93-.25.29-.52.54-.82.77-.29.22-.58.43-.9.6-.31.18-.58.32-.81.44-.07.21-.09.41-.08.59.03.38.21.55.52.51Zm-.35-1.39c.2-.1.42-.22.67-.38.24-.16.47-.35.67-.56.24-.25.43-.5.55-.76.12-.25.19-.47.18-.66,0-.24-.08-.34-.28-.31-.18.02-.46.31-.84.85-.15.21-.32.49-.51.87-.19.37-.34.69-.44.96Zm10.74-4.53c.45-.58.84-1.08,1.16-1.49.33-.41.62-.76.87-1.07.25-.31.49-.59.7-.84.21-.26.43-.53.64-.81.45-.59.88-1.16,1.3-1.72.42-.57.78-1.1,1.1-1.59.32-.5.57-.95.76-1.36.19-.4.28-.75.29-1.04-.01-.32-.14-.46-.39-.43-.18.02-.38.16-.61.4-.23.24-.44.5-.64.79-.31.46-.67,1.02-1.1,1.68-.42.66-.87,1.41-1.34,2.27-.32.6-.6,1.12-.85,1.55-.24.43-.46.83-.66,1.22-.2.38-.39.76-.59,1.14-.2.38-.41.82-.65,1.3Zm2.83,3.39c-.1.11-.22.24-.35.38-.13.14-.28.27-.44.39-.16.12-.32.23-.48.32s-.33.15-.49.17c-.44.06-.66-.13-.67-.56-.01-.28.06-.59.22-.91.16-.32.32-.64.49-.95.13-.25.26-.49.4-.71.13-.22.25-.43.36-.63.04-.07.06-.14.07-.21,0-.07-.02-.12-.07-.14-.06-.03-.13-.02-.23.03-.09.05-.19.11-.3.19-.18.14-.4.34-.66.58-.26.25-.54.55-.84.91-.22.25-.4.48-.57.68-.16.21-.33.41-.49.61-.16.2-.33.4-.5.61-.17.21-.36.44-.56.68-.15.17-.32.27-.52.3-.15.02-.25.01-.3-.02-.05-.03-.05-.15,0-.34.18-.53.41-1.12.7-1.79.07-.16.15-.33.24-.51.09-.18.19-.37.29-.57v-.03c-.14.19-.27.36-.39.51-.12.15-.23.3-.33.45-.1.13-.17.17-.22.11-.02-.05.01-.13.08-.24.01-.02.07-.09.16-.21.09-.12.2-.26.32-.42.12-.16.24-.32.37-.49.13-.17.25-.32.37-.45.31-.61.64-1.27,1.01-1.98.36-.71.75-1.41,1.16-2.1.27-.46.59-1,.98-1.62.38-.62.78-1.25,1.18-1.88.4-.63.8-1.2,1.18-1.73.38-.52.7-.92.95-1.19.27-.29.54-.56.81-.8.27-.25.56-.39.86-.43.27-.04.46.03.57.2.1.17.15.37.14.61-.02.3-.13.67-.34,1.09-.21.42-.5.89-.85,1.4-.35.51-.75,1.05-1.19,1.63-.44.57-.91,1.15-1.38,1.74-.58.72-1.19,1.44-1.84,2.17-.65.73-1.32,1.55-2.02,2.47-.07.13-.17.32-.29.57-.12.25-.26.53-.4.82-.14.3-.28.6-.41.9-.13.3-.25.57-.36.81l.02.02c.23-.28.49-.61.79-.99.3-.38.62-.76.94-1.14.33-.38.69-.74,1.07-1.08.39-.34.74-.53,1.05-.57.47-.06.7.13.7.59,0,.24-.09.5-.25.79-.16.29-.31.57-.45.84-.28.49-.47.89-.59,1.19-.11.3-.12.49-.04.56.06.04.14.04.23,0,.09-.05.18-.1.26-.16.12-.1.25-.21.39-.33.14-.12.32-.31.53-.58.16-.19.33-.39.5-.61.17-.22.3-.4.4-.55.12-.17.21-.23.26-.19.03.05-.01.16-.14.35-.09.13-.24.35-.47.66-.23.31-.45.58-.65.81Zm-27.94,8.63c.12-.02.21.01.26.1.05.09.03.21-.05.36-.08.17-.21.31-.38.44-.17.12-.3.2-.4.21-.06-.05-.1-.14-.13-.25-.03-.12-.03-.24,0-.37.04-.15.12-.26.24-.33.12-.07.27-.12.44-.15h.02Zm-2.07,3.43c-.06.04-.16.13-.3.27-.15.15-.28.29-.39.42-.12.13-.22.25-.31.36-.09.1-.18.21-.26.31-.13.15-.21.21-.25.2-.03-.02-.03-.05,0-.09.02-.04.08-.12.16-.24.04-.06.11-.14.19-.24.09-.1.19-.22.29-.34.11-.12.21-.24.33-.36.11-.12.22-.23.31-.32.22-.22.39-.36.53-.44.14-.08.29-.13.47-.16.2-.03.31-.03.34,0,.03.03,0,.12-.09.26-.25.4-.51.85-.79,1.36-.12.23-.23.42-.31.6-.08.17-.14.31-.18.42-.08.22-.07.36.01.42.1.06.24.02.43-.13.09-.07.2-.16.32-.28.12-.12.26-.26.39-.42.17-.2.3-.35.39-.47.09-.12.2-.26.33-.42.13-.18.22-.25.27-.22.03.02.02.07-.04.16s-.09.14-.11.17c-.09.13-.22.3-.4.52-.17.21-.34.41-.49.59-.16.18-.37.39-.62.61-.26.23-.54.37-.85.42-.37.06-.58-.07-.63-.39-.02-.12-.01-.25.02-.38.03-.13.08-.25.13-.38.06-.16.14-.33.25-.51.1-.18.21-.35.32-.52.11-.17.21-.33.31-.47.1-.14.17-.25.24-.33Zm10.75-2.21c-.18.03-.41.19-.68.46-.27.28-.54.61-.81,1-.32.44-.54.79-.66,1.06-.12.27-.16.46-.12.58.03.12.12.17.27.14.17-.03.4-.16.67-.38s.52-.48.72-.76c.13-.15.25-.32.37-.5.12-.19.23-.36.33-.53.1-.17.17-.33.23-.47.06-.14.08-.25.07-.33-.03-.22-.16-.32-.39-.28Zm3.84,3.59c-.24.23-.47.45-.7.65-.23.2-.48.41-.74.63-.26.22-.53.47-.83.74-.29.27-.63.58-1.01.94-.35.33-.67.66-.97,1.01-.3.35-.56.68-.78,1.01s-.39.65-.52.96c-.12.31-.17.58-.15.82.03.27.15.43.36.45.16.02.34-.02.56-.14.21-.11.4-.23.55-.36.37-.32.79-.79,1.25-1.4.46-.61.97-1.46,1.55-2.52.29-.53.56-1.06.83-1.58.26-.52.47-.92.61-1.21Zm1.45-4.51c-.18.03-.41.19-.68.46-.27.28-.54.61-.82,1-.32.44-.54.79-.66,1.06-.12.27-.16.46-.12.58.03.12.12.17.27.14.17-.03.4-.16.67-.38.28-.23.52-.48.72-.76.13-.15.25-.32.37-.5.12-.19.23-.36.32-.53.1-.17.18-.33.23-.47.06-.14.08-.25.07-.33-.03-.22-.15-.32-.39-.28Zm3.68,2.32c.12-.02.32-.1.6-.24.28-.14.6-.38.95-.74.15-.15.31-.33.49-.51.18-.19.34-.38.48-.57.08-.1.15-.14.19-.11.05.04.01.13-.11.27-.1.13-.26.32-.46.56-.21.24-.38.43-.54.57-.67.64-1.32,1.01-1.95,1.12-.67.12-1.04-.07-1.1-.57-.05-.35.07-.76.35-1.25l-.02-.02s-.06.09-.13.18c-.07.09-.13.16-.18.22-.07.09-.13.12-.17.09-.03-.02-.03-.05,0-.09.03-.04.05-.09.08-.13.1-.13.2-.25.28-.35.08-.1.19-.21.3-.33.09-.09.2-.2.35-.33.15-.13.3-.26.46-.38.25-.18.5-.35.75-.5.25-.15.5-.25.75-.29h.02c.21-.04.36-.01.46.08.1.09.15.2.16.33.02.25-.08.49-.28.72-.21.23-.44.43-.7.62-.25.18-.5.35-.78.5-.27.15-.5.27-.7.37-.05.16-.06.31-.04.45.05.28.21.4.5.35Zm-.38-1.02c.18-.08.37-.19.58-.32s.4-.28.58-.45c.21-.2.36-.4.46-.6.1-.2.14-.36.13-.5,0-.18-.09-.25-.26-.22-.16.03-.4.25-.72.68-.12.16-.26.39-.42.67-.15.29-.27.53-.35.74Z"/><path class="cls-7" d="m73.96,26.41c0-.11-.09-.2-.2-.2h-2.66c-.11,0-.2.09-.2.2,0,.1.08.19.18.2.65.08.72.22.72,1.14v1.05c0,.43-.35.79-.79.79h-1.62c-.43,0-.79-.35-.79-.79v-1.05c0-.92.07-1.06.7-1.14.1-.01.18-.1.18-.2,0-.11-.09-.2-.2-.2h-2.66c-.11,0-.2.09-.2.2,0,.1.08.19.18.2.68.08.76.21.76,1.14v4.7c0,.93-.08,1.06-.72,1.14-.1.01-.18.1-.18.2,0,.11.09.2.2.2h2.65c.11,0,.2-.09.2-.2,0-.1-.08-.19-.18-.2-.66-.08-.73-.21-.73-1.14v-1.5c0-.43.35-.79.79-.79h1.62c.43,0,.79.35.79.79v1.5c0,.93-.07,1.06-.78,1.14-.1.01-.18.1-.18.2,0,.11.09.2.2.2h2.73c.11,0,.2-.09.2-.2,0-.1-.08-.19-.18-.2-.67-.08-.74-.21-.74-1.14v-4.7c0-.93.06-1.06.74-1.14.1-.01.18-.1.18-.2Zm4.45-.37c-2.38,0-3.71,2.01-3.71,4.11,0,2.3,1.51,4.02,3.58,4.02s3.65-1.57,3.65-4.16c0-2.37-1.61-3.98-3.52-3.98Zm-.21.48c1.31,0,2.28,1.39,2.28,3.83,0,2.23-.91,3.34-1.99,3.34-1.43,0-2.34-1.7-2.34-3.82s.93-3.35,2.05-3.35Zm10.35,1.65c.1,0,.18-.1.18-.2-.04-.64-.08-1.4-.09-1.9,0-.09-.08-.17-.17-.17-.05,0-.1.02-.13.06-.16.18-.29.24-.54.24h-4.29c-.27,0-.41-.02-.55-.22-.03-.05-.08-.08-.14-.08-.09,0-.16.07-.16.15-.02.55-.07,1.24-.11,1.93,0,.11.08.21.2.21.09,0,.17-.06.19-.15.12-.49.23-.82.37-1.01.15-.23.35-.35,1.24-.35.26,0,.47.21.47.47v5.29c0,.92-.08,1.06-.85,1.14-.1.01-.18.1-.18.2,0,.11.09.2.2.2h2.94c.11,0,.2-.09.2-.2,0-.1-.08-.19-.18-.2-.81-.08-.89-.23-.89-1.14v-5.18c0-.32.26-.58.58-.58.7,0,.93.08,1.12.32.16.18.28.51.39,1.01.02.09.11.16.2.15Zm6.3,3.83c-.1-.02-.19.03-.23.13-.17.43-.34.76-.52.99-.25.31-.59.4-1.24.4-.45,0-.83-.01-1.03-.13-.2-.12-.26-.41-.26-.98v-1.35c0-.43.35-.79.79-.79h.05c.86,0,1.02.05,1.15.75.02.09.1.16.19.16.11,0,.19-.09.19-.19v-1.99c0-.11-.09-.19-.19-.19-.09,0-.17.07-.19.16-.13.69-.28.75-1.16.75h-.04c-.43,0-.79-.35-.79-.79v-1.84c0-.38.03-.41.41-.41h.63c.66,0,.95.08,1.13.32.15.2.26.48.35.84.03.1.12.17.23.15.1-.02.17-.11.17-.21-.02-.29-.04-.58-.05-.84-.03-.42-.38-.75-.79-.75h-4c-.11,0-.2.09-.2.2,0,.1.08.19.18.2.63.07.71.2.71,1.17v4.66c0,.94-.08,1.07-.85,1.16-.1.01-.18.1-.18.2,0,.11.09.2.2.2h4.56c.36,0,.66-.24.74-.59.08-.38.16-.85.22-1.18.02-.1-.05-.2-.16-.22Zm5.95-.04c-.1-.03-.22.03-.25.13-.16.48-.34.81-.52,1.02-.25.32-.62.4-1.14.4-.38,0-.69-.02-.88-.12-.21-.11-.26-.34-.26-.92v-4.71c0-.95.08-1.07.74-1.15.1-.01.18-.1.18-.2,0-.11-.09-.2-.2-.2h-2.7c-.11,0-.2.09-.2.2,0,.1.08.19.18.2.68.08.75.21.75,1.15v4.67c0,.95-.08,1.08-.84,1.16-.1.01-.18.1-.18.2,0,.11.09.2.2.2h4.29c.35,0,.65-.23.72-.58.08-.4.17-.89.23-1.22.02-.1-.04-.2-.14-.23Z"/><path class="cls-6" d="m73.38,25.82c0-.11-.09-.2-.2-.2h-2.66c-.11,0-.2.09-.2.2,0,.1.08.19.18.2.65.08.72.22.72,1.14v1.05c0,.43-.35.79-.79.79h-1.62c-.43,0-.79-.35-.79-.79v-1.05c0-.92.07-1.06.7-1.14.1-.01.18-.1.18-.2,0-.11-.09-.2-.2-.2h-2.66c-.11,0-.2.09-.2.2,0,.1.08.19.18.2.68.08.76.21.76,1.14v4.7c0,.92-.08,1.06-.72,1.14-.1.01-.18.1-.18.2,0,.11.09.2.2.2h2.65c.11,0,.2-.09.2-.2,0-.1-.08-.19-.18-.2-.66-.08-.73-.21-.73-1.14v-1.5c0-.43.35-.79.79-.79h1.62c.43,0,.79.35.79.79v1.5c0,.93-.07,1.06-.78,1.14-.1.01-.18.1-.18.2,0,.11.09.2.2.2h2.73c.11,0,.2-.09.2-.2,0-.1-.08-.19-.18-.2-.67-.08-.74-.21-.74-1.14v-4.7c0-.93.06-1.06.74-1.14.1-.01.18-.1.18-.2Zm4.45-.37c-2.38,0-3.71,2.01-3.71,4.11,0,2.3,1.51,4.02,3.58,4.02s3.65-1.57,3.65-4.16c0-2.37-1.61-3.98-3.52-3.98Zm-.21.48c1.31,0,2.28,1.39,2.28,3.83,0,2.23-.91,3.34-1.99,3.34-1.43,0-2.34-1.7-2.34-3.82s.93-3.35,2.05-3.35Zm10.35,1.65c.1,0,.18-.1.18-.2-.04-.64-.08-1.4-.09-1.9,0-.09-.08-.17-.17-.17-.05,0-.1.02-.13.06-.16.18-.29.24-.54.24h-4.29c-.27,0-.41-.02-.55-.22-.03-.05-.08-.08-.14-.08-.09,0-.16.07-.16.15-.02.55-.07,1.23-.11,1.93,0,.11.08.21.2.21.09,0,.17-.06.19-.15.12-.49.23-.82.37-1.01.15-.23.35-.35,1.24-.35.26,0,.47.21.47.47v5.29c0,.92-.08,1.06-.85,1.14-.1.01-.18.1-.18.2,0,.11.09.2.2.2h2.94c.11,0,.2-.09.2-.2,0-.1-.08-.19-.18-.2-.81-.08-.89-.23-.89-1.14v-5.18c0-.32.26-.58.58-.58.7,0,.93.08,1.11.32.16.18.28.51.39,1.01.02.09.1.16.2.15Zm6.3,3.83c-.1-.02-.2.04-.23.13-.16.43-.34.76-.52.99-.25.31-.59.4-1.24.4-.45,0-.82-.01-1.03-.13-.2-.12-.26-.41-.26-.98v-1.35c0-.43.35-.79.79-.79h.05c.86,0,1.02.05,1.15.75.02.09.1.16.19.16.11,0,.19-.09.19-.19v-1.99c0-.11-.09-.19-.19-.19-.09,0-.17.07-.19.16-.13.69-.28.75-1.16.75h-.04c-.43,0-.79-.35-.79-.79v-1.84c0-.38.03-.41.41-.41h.63c.66,0,.95.08,1.12.32.15.2.26.48.36.84.03.1.12.17.23.15.1-.02.17-.11.17-.21-.02-.29-.04-.58-.05-.84-.03-.42-.38-.75-.8-.75h-4c-.11,0-.2.09-.2.2,0,.1.08.19.18.2.63.07.71.2.71,1.17v4.66c0,.94-.08,1.07-.85,1.16-.1.01-.18.1-.18.2,0,.11.09.2.2.2h4.56c.36,0,.66-.24.74-.59.08-.38.17-.85.22-1.18.02-.1-.05-.2-.16-.22Zm5.95-.04c-.11-.03-.22.03-.25.13-.16.48-.34.81-.52,1.02-.25.32-.62.4-1.14.4-.38,0-.69-.02-.88-.12-.21-.11-.26-.34-.26-.92v-4.71c0-.95.08-1.07.74-1.15.1-.01.18-.1.18-.2,0-.11-.09-.2-.2-.2h-2.69c-.11,0-.2.09-.2.2,0,.1.08.19.18.2.68.08.75.21.75,1.15v4.67c0,.95-.08,1.07-.84,1.16-.1.01-.18.1-.18.2,0,.11.09.2.2.2h4.29c.35,0,.65-.23.72-.58.08-.4.17-.89.23-1.22.02-.1-.04-.2-.14-.23Z"/><path class="cls-5" d="m51.07,28.77c-.07,0-.12-.04-.14-.11l-.55-1.78c-.04-.14-.24-.14-.29,0l-.55,1.78c-.02.06-.08.11-.14.11h-1.79c-.14,0-.21.18-.09.27l1.46,1.11c.05.04.07.1.05.16l-.56,1.79c-.04.14.12.25.23.16l1.43-1.1c.05-.04.13-.04.18,0l1.43,1.1c.12.09.28-.02.23-.16l-.56-1.79c-.02-.06,0-.13.05-.16l1.46-1.11c.11-.09.05-.27-.09-.27h-1.79Z"/><path class="cls-5" d="m58.68,28.77c-.07,0-.12-.04-.14-.11l-.55-1.78c-.04-.14-.24-.14-.29,0l-.55,1.78c-.02.06-.08.11-.14.11h-1.79c-.14,0-.21.18-.09.27l1.46,1.11c.05.04.07.1.05.16l-.56,1.79c-.04.14.12.25.23.16l1.43-1.1c.05-.04.13-.04.18,0l1.43,1.1c.12.09.28-.02.23-.16l-.56-1.79c-.02-.06,0-.13.05-.16l1.46-1.11c.11-.09.05-.27-.09-.27h-1.79Z"/><path class="cls-5" d="m109.02,26.88c.04-.14.24-.14.29,0l.55,1.78c.02.06.08.11.14.11h1.79c.14,0,.21.18.09.27l-1.46,1.11c-.05.04-.07.1-.05.16l.56,1.79c.04.14-.12.25-.24.16l-1.43-1.1c-.05-.04-.13-.04-.18,0l-1.43,1.1c-.12.09-.28-.02-.24-.16l.56-1.79c.02-.06,0-.13-.05-.16l-1.46-1.11c-.11-.09-.05-.27.09-.27h1.79c.07,0,.12-.04.14-.1l.55-1.78Z"/><path class="cls-5" d="m117.61,28.77c-.07,0-.12-.04-.14-.11l-.54-1.78c-.04-.14-.24-.14-.29,0l-.55,1.78c-.02.06-.08.11-.14.11h-1.79c-.14,0-.21.18-.09.27l1.46,1.11c.05.04.07.1.05.16l-.56,1.79c-.04.14.12.25.23.16l1.43-1.1c.05-.04.13-.04.18,0l1.43,1.1c.12.09.28-.02.23-.16l-.56-1.79c-.02-.06,0-.13.05-.16l1.46-1.11c.12-.09.05-.27-.09-.27h-1.79Z"/><path class="cls-6" d="m50.76,28.46c-.07,0-.12-.04-.14-.11l-.55-1.78c-.04-.14-.24-.14-.29,0l-.55,1.78c-.02.06-.08.11-.14.11h-1.79c-.14,0-.21.18-.09.27l1.46,1.11c.05.04.07.1.05.16l-.56,1.79c-.04.14.12.25.23.16l1.43-1.1c.05-.04.13-.04.18,0l1.43,1.1c.12.09.28-.02.23-.16l-.56-1.79c-.02-.06,0-.13.05-.16l1.46-1.11c.11-.09.05-.27-.09-.27h-1.79Z"/><path class="cls-6" d="m58.38,28.46c-.07,0-.12-.04-.14-.11l-.55-1.78c-.04-.14-.24-.14-.29,0l-.55,1.78c-.02.06-.08.11-.14.11h-1.79c-.14,0-.21.18-.09.27l1.46,1.11c.05.04.07.1.05.16l-.56,1.79c-.04.14.12.25.23.16l1.43-1.1c.05-.04.13-.04.18,0l1.43,1.1c.12.09.28-.02.23-.16l-.56-1.79c-.02-.06,0-.13.05-.16l1.46-1.11c.11-.09.05-.27-.09-.27h-1.79Z"/><path class="cls-6" d="m108.72,26.58c.04-.14.24-.14.29,0l.55,1.78c.02.06.08.11.14.11h1.79c.14,0,.21.18.09.27l-1.46,1.11c-.05.04-.07.1-.05.16l.56,1.79c.04.14-.12.25-.24.16l-1.43-1.1c-.05-.04-.13-.04-.18,0l-1.43,1.1c-.12.09-.28-.02-.24-.16l.56-1.79c.02-.06,0-.13-.05-.16l-1.46-1.11c-.11-.09-.05-.27.09-.27h1.79c.07,0,.12-.04.14-.1l.55-1.78Z"/><path class="cls-6" d="m117.31,28.46c-.07,0-.12-.04-.14-.11l-.55-1.78c-.04-.14-.24-.14-.29,0l-.55,1.78c-.02.06-.08.11-.14.11h-1.79c-.14,0-.21.18-.09.27l1.46,1.11c.05.04.07.1.05.16l-.56,1.79c-.04.14.12.25.24.16l1.43-1.1c.05-.04.13-.04.18,0l1.43,1.1c.12.09.28-.02.23-.16l-.56-1.79c-.02-.06,0-.13.05-.16l1.46-1.11c.11-.09.05-.27-.09-.27h-1.79Z"/><path class="cls-1" d="m145.9,30.17c-3.26-1.68-6.64-3.13-10.07-4.46-3.1-1.2-6.45-2.38-9.62-3.47-.54-.18-.81-.78-.61-1.31l2.51-6.48c.2-.51-.05-1.09-.56-1.29-6.27-2.44-13.01-4.3-20.05-5.58-7.62-1.39-15.61-2.1-23.76-2.15-8.3-.05-16.54.57-24.4,1.86-7.22,1.18-14.13,2.94-20.51,5.26-.52.19-.78.78-.58,1.3l2.79,7.14c.21.53-.07,1.13-.61,1.31-5.72,1.93-11.36,3.95-16.61,6.24-5.12,2.23-10.08,4.8-14.99,7.99-.52.34-.6,1.07-.17,1.52l46.5,48.27c.06.06.08.16.06.24-.05.18-.28.23-.41.1-15.63-16.23-31.27-32.46-46.9-48.69-.43-.45-.35-1.18.17-1.52,5.04-3.31,10.32-6.08,15.56-8.36,5.19-2.27,10.54-4.19,16.16-6.09.54-.18.82-.78.61-1.31l-2.79-7.12c-.2-.52.06-1.1.58-1.3,6.49-2.39,13.73-4.25,21.07-5.46,7.89-1.29,16.15-1.91,24.48-1.87,8.18.05,16.19.76,23.85,2.16,7.17,1.3,14.21,3.28,20.59,5.78.51.2.76.77.56,1.28l-2.5,6.46c-.21.53.07,1.12.61,1.31,3.05,1.05,6.12,2.13,9.16,3.32,3.44,1.34,6.84,2.8,10.11,4.48,2.24,1.15,4.42,2.35,6.53,3.6,1.78,1.05,3.69,2.26,5.44,3.43.52.34.59,1.07.16,1.52-24.77,25.71-49.54,51.42-74.31,77.14-.39.41-1.05.41-1.44,0-7.05-7.32-14.1-14.64-21.15-21.96-.13-.14-.06-.36.12-.41.08-.02.17,0,.23.07l20.8,21.6c.39.41,1.05.41,1.44,0l73.55-76.36c.43-.45.35-1.18-.16-1.52-1.6-1.06-3.25-2.09-4.93-3.09-2.11-1.25-4.28-2.45-6.5-3.59Z"/><path class="cls-1" d="m143.65,30.86c-3.15-1.62-6.41-3.02-9.72-4.3-3.15-1.22-5.85-2.17-8.97-3.24-.2-.07-.23-.33-.05-.44.06-.04.14-.05.21-.02,3.17,1.09,5.84,2.03,8.99,3.25,3.33,1.29,6.61,2.7,9.77,4.33,2.15,1.1,4.25,2.26,6.3,3.48,1.71,1.01,3.55,2.17,5.23,3.29.52.34.59,1.07.16,1.52-12.77,13.24-25.54,26.48-38.31,39.72-.1.1-.25.1-.35,0-.1-.09-.1-.25,0-.34l37.9-39.3c.43-.45.36-1.18-.16-1.52-1.54-1.01-3.11-2-4.72-2.95-2.03-1.2-4.12-2.36-6.28-3.46Zm-41.77,63.09c.14.08.17.27.06.38-6.03,6.25-12.06,12.51-18.08,18.76-.39.41-1.05.41-1.44,0-6.43-6.67-12.87-13.34-19.3-20.01-.13-.14-.07-.37.12-.42.09-.02.18,0,.24.07l18.94,19.64c.39.41,1.05.41,1.44,0l17.73-18.39c.08-.08.2-.1.29-.04Zm-46.6-9.52c-.06.18-.29.23-.42.1-14.82-15.37-29.64-30.74-44.46-46.11-.43-.45-.35-1.18.17-1.52,4.86-3.18,9.96-5.85,15-8.05,5.22-2.27,10.04-4.01,15.71-5.91.06-.02.13-.02.19.02.19.1.17.38-.04.45-5.62,1.89-10.46,3.62-15.66,5.89-4.93,2.15-9.7,4.61-14.43,7.68-.52.34-.6,1.07-.17,1.52l44.05,45.68c.06.07.09.16.06.25Z"/><path class="cls-5" d="m45.23,67.55c.5,0,.91-.41.91-.91,0-.42-.31-.75-.66-.98-.68-.45-.96-1.51-1.5-4.93-1.3-8.21-2.43-16.36-3.7-24.65-.07-.43-.54-.66-.92-.44-.16.09-.27.25-.3.44l-4.1,25.25c-.49,2.96-.8,3.93-1.51,4.35-.36.21-.67.55-.67.97,0,.5.41.91.91.91h2.72c.52,0,.94-.42.94-.94,0-.41-.28-.75-.65-.95-.85-.45-.86-1.2-.59-3.41.19-1.51.38-2.84.54-3.93.07-.49.49-.86.99-.86h2.07c.49,0,.91.36.98.84.21,1.44.41,3.01.6,4.25.28,1.89.27,2.66-.31,3.08-.34.24-.64.57-.64.98,0,.51.42.93.93.93h3.95Zm-5.2-13.74c.08.6-.38,1.14-.99,1.14h-.78c-.61,0-1.08-.54-.99-1.15.46-3.16.86-6.29,1.37-9.54,0-.02.02-.03.04-.03s.04.01.04.03l1.32,9.55Zm93.84-3.49s.02-.08.06-.1c1.46-.72,3.07-2.75,3.07-7.23,0-2.37-.46-4.3-1.21-5.43-.79-1.24-1.81-1.73-3.44-1.73h-5.01c-.5,0-.9.4-.9.9,0,.43.32.76.71.94.84.38.93,1.29.93,4.59v18.87c0,3.34-.1,4.23-1.03,4.6-.4.16-.72.5-.72.93,0,.49.4.89.89.89h4.22c1.7,0,3.31-.64,4.41-2.12,1.1-1.48,1.9-3.9,1.9-7.36,0-4.49-1.55-6.91-3.8-7.63-.05-.01-.08-.06-.08-.1Zm-2.54-.51c-.28,0-.51-.23-.51-.51v-8.73c0-1.28.07-2.03.22-2.32.13-.25.38-.49.82-.49,1.1,0,2.2,1.68,2.2,6.08s-.82,5.98-2.73,5.98Zm-.51,2.37c0-.24.2-.44.44-.44,2.21,0,3.4,2.27,3.4,6.82,0,5.04-1.3,7.02-2.43,7.02-1.06,0-1.41-1.04-1.41-4.4v-9Zm-74.98,8.41c-.21-.13-.49,0-.53.24-.28,1.66-.57,2.86-.85,3.63-.42,1.07-1.03,1.37-1.78,1.37-.53,0-.99-.04-1.3-.34-.34-.39-.42-1.24-.42-3.25v-16.6c0-2.92.09-3.67.82-3.98.34-.15.61-.44.61-.81,0-.43-.35-.78-.78-.78h-3.76c-.43,0-.78.35-.78.78,0,.37.27.66.61.81.72.32.82,1.06.82,3.98v16.48c0,2.85-.11,3.56-.98,3.87-.35.12-.63.42-.63.79,0,.42.34.77.77.77h6.85c.5,0,.93-.38.98-.88.15-1.56.38-4.32.5-5.76.01-.13-.05-.26-.17-.33Zm1.79-20.51c-.45,0-.81.36-.81.81,0,.36.25.65.57.82.66.36.75,1.1.75,3.94v16.52c0,2.94-.09,3.69-.87,4-.3.12-.54.38-.54.71,0,.38.31.68.68.68h4.05c.37,0,.67-.3.67-.67,0-.33-.24-.59-.55-.69-.95-.3-1.03-1.02-1.03-4.02v-4.91c0-.49.54-.79.96-.53.1.06.21.1.33.09.14,0,.29-.02.49-.08,2-.56,3.74-3.21,3.74-8.77,0-2.82-.52-5.01-1.37-6.29-.74-1.11-1.7-1.58-3.15-1.58h-3.91Zm2.92,3.34c0-.73.04-1.16.19-1.41.11-.17.29-.34.61-.34.97,0,2.1,1.5,2.1,6.46,0,5.78-1.47,6.76-2.02,6.76-.19,0-.35-.05-.5-.12-.26-.13-.37-.43-.37-.72v-10.62Zm15.74,17.35c-.22-.11-.48.02-.53.26-.28,1.54-.57,2.67-.87,3.45-.4,1.07-.95,1.37-1.97,1.37-.69,0-1.2-.09-1.49-.43-.31-.39-.4-1.33-.4-3.34v-6.74c0-.55.45-1,1-1h.09c1.47,0,1.67.16,1.94,2.9.02.17.16.31.34.31.19,0,.34-.15.34-.34v-7.71c0-.19-.15-.34-.34-.34-.18,0-.32.13-.34.31-.27,2.7-.48,2.86-1.94,2.86h-.09c-.55,0-1-.45-1-1v-7.99c0-1.41.08-1.54.67-1.54h.69c1.16,0,1.66.39,1.93,1.16.26.66.44,1.69.62,3.03.03.21.23.35.43.29.16-.04.26-.18.26-.35-.05-1.74-.12-3.68-.15-4.87-.02-.54-.46-.97-1-.97h-6.47c-.43,0-.78.35-.78.78,0,.37.27.66.61.81.66.3.77,1,.77,3.8v16.65c0,2.92-.12,3.56-.97,3.86-.35.12-.61.42-.61.79,0,.43.35.78.78.78h7.21c.51,0,.93-.38.98-.88.16-1.55.39-4.13.5-5.56.01-.14-.07-.28-.19-.34Zm12.68-19.97c0-.39-.32-.71-.72-.71h-2.86c-.4,0-.72.32-.72.72,0,.37.29.66.63.79.72.28.97.94,1.05,2.17.08,1.28.17,3.47.17,7.15v7.44s-.02.04-.04.04c-.02,0-.04-.01-.04-.03l-5.98-17.61c-.14-.41-.52-.68-.95-.68h-1.81c-.41,0-.74.33-.74.74,0,.36.28.65.59.84.41.26.67.73.9,1.46.31.94.31,1.71.31,4.54v8.94c0,3.59-.1,5.78-.17,7.1-.06,1.25-.29,1.96-.84,2.29-.32.18-.61.47-.61.83,0,.4.33.73.73.73h2.91c.4,0,.72-.32.72-.72,0-.37-.29-.66-.63-.79-.79-.3-1.01-1.06-1.08-2.39-.06-1.28-.15-3.47-.15-7.06v-9.34s.01-.03.03-.03c.01,0,.03,0,.03.02l6.65,20.35c.08.23.29.38.53.38.31,0,.55-.25.55-.55v-16.52c0-3.68.1-5.86.17-7.19.06-1.15.26-1.8.77-2.09.32-.18.62-.46.62-.83Zm14.65,19.82c-.22-.18-.55-.06-.61.22-.78,3.45-1.7,5.52-2.98,5.52-2.08,0-3.63-5.26-3.63-12.97,0-6.38,1.38-12.15,3.51-12.15,1.21,0,2.27,1.35,2.89,5.61.04.24.3.38.52.27.12-.06.19-.19.19-.33-.1-2.01-.19-3.77-.3-5.75-.02-.38-.25-.72-.6-.88-.6-.28-1.45-.64-2.32-.64-4.07,0-6.64,6.08-6.64,14.72,0,6.68,1.72,13.87,6.19,13.87.92,0,1.99-.48,2.64-.81.27-.14.45-.39.5-.69.26-1.5.59-3.96.79-5.66.01-.13-.04-.26-.14-.34Zm9.83-.02c-.21-.13-.49,0-.53.24-.28,1.66-.57,2.86-.85,3.63-.42,1.07-1.03,1.37-1.78,1.37-.53,0-.99-.04-1.3-.34-.34-.39-.42-1.24-.42-3.25v-16.6c0-2.92.09-3.67.82-3.98.34-.15.61-.44.61-.81,0-.43-.35-.78-.77-.78h-3.76c-.43,0-.78.35-.78.78,0,.37.27.66.61.81.72.32.82,1.06.82,3.98v16.48c0,2.85-.11,3.56-.98,3.87-.35.12-.63.42-.63.79,0,.42.34.77.77.77h6.85c.51,0,.93-.38.98-.88.15-1.56.38-4.32.5-5.76.01-.13-.05-.26-.17-.33Zm12.1-19.78c0-.41-.33-.74-.74-.74h-2.87c-.41,0-.74.33-.74.74,0,.38.3.68.65.82.74.31.99,1.03,1.07,2.16.06,1.24.13,2.91.13,6.25v5.01c0,6.93-.92,10.18-2.81,10.18s-2.69-3.08-2.69-9.11v-10.36c0-2.94.09-3.75.74-4.09.33-.17.6-.45.6-.82,0-.43-.35-.78-.78-.78h-3.62c-.43,0-.78.35-.78.78,0,.37.27.66.61.81.7.33.79,1.12.79,4.1v10.53c0,4.92.4,7.79,1.35,9.63.82,1.63,1.95,2.18,3.09,2.18,1.24,0,2.43-1.11,3.21-3.08.96-2.48,1.2-6.16,1.2-10.4v-4.58c0-3.42.08-4.88.15-6.25.06-1.08.28-1.78.79-2.11.32-.2.64-.49.64-.88Z"/><path class="cls-6" d="m44.73,66.99c.5,0,.91-.41.91-.91,0-.42-.31-.75-.66-.98-.68-.45-.96-1.51-1.5-4.93-1.3-8.2-2.43-16.36-3.7-24.65-.07-.43-.54-.66-.92-.44-.16.09-.27.25-.3.44l-4.1,25.25c-.49,2.96-.8,3.93-1.51,4.35-.36.21-.67.55-.67.97,0,.5.41.91.91.91h2.72c.52,0,.94-.42.94-.94,0-.41-.28-.75-.65-.95-.85-.45-.86-1.2-.59-3.41.19-1.51.38-2.84.54-3.93.07-.49.49-.86.99-.86h2.07c.49,0,.91.36.98.84.21,1.43.41,3.01.6,4.25.28,1.89.27,2.66-.31,3.08-.34.24-.64.57-.64.98,0,.51.42.93.93.93h3.95Zm-5.2-13.74c.08.6-.38,1.14-.99,1.14h-.78c-.61,0-1.08-.54-.99-1.15.46-3.16.86-6.29,1.37-9.54,0-.02.02-.03.04-.03s.04.01.04.03l1.32,9.55Zm93.84-3.49s.02-.08.06-.1c1.46-.72,3.07-2.75,3.07-7.23,0-2.37-.46-4.3-1.21-5.43-.79-1.23-1.81-1.73-3.44-1.73h-5.01c-.49,0-.89.4-.89.9,0,.43.32.76.7.94.84.38.93,1.29.93,4.59v18.87c0,3.34-.1,4.23-1.03,4.6-.4.16-.71.5-.71.93,0,.49.4.89.89.89h4.22c1.7,0,3.31-.64,4.41-2.12,1.1-1.48,1.9-3.9,1.9-7.36,0-4.49-1.55-6.91-3.8-7.63-.04-.01-.08-.06-.08-.1Zm-2.54-.51c-.28,0-.51-.23-.51-.51v-8.73c0-1.28.07-2.03.22-2.32.13-.25.38-.49.82-.49,1.1,0,2.2,1.68,2.2,6.08s-.82,5.98-2.73,5.98Zm-.51,2.37c0-.24.2-.44.44-.44,2.2,0,3.4,2.27,3.4,6.82,0,5.04-1.3,7.02-2.43,7.02-1.06,0-1.41-1.04-1.41-4.4v-9Zm-74.98,8.41c-.21-.13-.49,0-.53.24-.28,1.66-.57,2.86-.85,3.63-.42,1.07-1.03,1.37-1.78,1.37-.53,0-.99-.04-1.3-.34-.34-.38-.42-1.24-.42-3.25v-16.6c0-2.92.09-3.67.82-3.98.34-.15.61-.44.61-.81,0-.43-.35-.78-.78-.78h-3.76c-.43,0-.78.35-.78.78,0,.37.27.66.61.81.72.32.82,1.06.82,3.98v16.48c0,2.85-.11,3.56-.98,3.87-.35.12-.63.42-.63.79,0,.42.34.77.77.77h6.85c.5,0,.93-.38.98-.88.15-1.56.38-4.32.5-5.76.01-.13-.05-.26-.17-.33Zm1.79-20.51c-.45,0-.81.36-.81.81,0,.36.25.65.57.82.66.36.75,1.09.75,3.94v16.52c0,2.94-.09,3.69-.87,4-.3.12-.54.38-.54.71,0,.38.31.68.68.68h4.05c.37,0,.67-.3.67-.67,0-.33-.24-.59-.55-.69-.95-.3-1.03-1.02-1.03-4.02v-4.91c0-.49.54-.79.96-.53.1.06.21.1.33.09.14,0,.29-.02.49-.08,2-.56,3.74-3.21,3.74-8.77,0-2.82-.52-5.01-1.37-6.29-.74-1.11-1.7-1.58-3.15-1.58h-3.91Zm2.92,3.34c0-.73.04-1.16.19-1.41.11-.17.29-.34.61-.34.97,0,2.1,1.5,2.1,6.46,0,5.78-1.47,6.76-2.02,6.76-.19,0-.35-.05-.5-.12-.26-.13-.38-.43-.38-.72v-10.62Zm15.74,17.35c-.22-.11-.48.02-.53.26-.28,1.54-.57,2.67-.87,3.45-.4,1.07-.95,1.37-1.97,1.37-.69,0-1.2-.09-1.49-.43-.31-.39-.4-1.33-.4-3.34v-6.74c0-.55.45-1,1-1h.09c1.47,0,1.67.16,1.94,2.9.02.17.16.31.34.31.19,0,.34-.15.34-.34v-7.71c0-.19-.15-.34-.34-.34-.18,0-.32.13-.34.31-.27,2.7-.48,2.86-1.94,2.86h-.09c-.55,0-1-.45-1-1v-7.99c0-1.41.08-1.54.67-1.54h.69c1.16,0,1.66.39,1.93,1.16.26.66.44,1.69.62,3.03.03.21.23.35.43.29.16-.04.26-.18.26-.35-.05-1.74-.12-3.68-.15-4.87-.02-.54-.46-.97-1-.97h-6.47c-.43,0-.78.35-.78.78,0,.37.27.66.61.81.66.3.77,1,.77,3.8v16.65c0,2.92-.12,3.56-.97,3.86-.35.12-.61.42-.61.79,0,.43.35.78.78.78h7.21c.51,0,.93-.38.98-.88.16-1.55.39-4.13.5-5.56.01-.14-.07-.28-.19-.34Zm12.68-19.97c0-.39-.32-.71-.71-.71h-2.86c-.4,0-.72.32-.72.72,0,.37.29.66.63.79.72.28.97.94,1.05,2.17.08,1.28.17,3.47.17,7.15v7.44s-.02.04-.04.04c-.02,0-.04-.01-.04-.03l-5.98-17.61c-.14-.41-.52-.68-.95-.68h-1.81c-.41,0-.74.33-.74.74,0,.36.28.65.59.84.41.26.67.73.9,1.46.31.94.31,1.71.31,4.54v8.94c0,3.59-.1,5.78-.17,7.1-.06,1.25-.29,1.96-.84,2.29-.32.18-.61.47-.61.83,0,.4.33.73.73.73h2.91c.4,0,.72-.32.72-.72,0-.37-.29-.66-.63-.79-.79-.3-1.01-1.06-1.08-2.39-.06-1.28-.15-3.47-.15-7.06v-9.34s.01-.03.03-.03c.01,0,.03,0,.03.02l6.65,20.35c.07.23.29.38.53.38.31,0,.55-.25.55-.55v-16.52c0-3.68.1-5.86.17-7.19.06-1.15.26-1.8.77-2.09.32-.18.62-.46.62-.83Zm14.65,19.82c-.22-.18-.55-.06-.61.22-.78,3.45-1.7,5.52-2.98,5.52-2.08,0-3.63-5.26-3.63-12.97,0-6.38,1.38-12.15,3.51-12.15,1.21,0,2.27,1.35,2.89,5.61.04.24.3.38.52.27.12-.06.19-.19.19-.33-.1-2.01-.19-3.77-.3-5.75-.02-.38-.25-.72-.59-.88-.6-.28-1.46-.64-2.32-.64-4.07,0-6.64,6.08-6.64,14.72,0,6.68,1.72,13.87,6.19,13.87.92,0,1.99-.48,2.64-.81.27-.14.45-.39.5-.68.26-1.5.59-3.96.79-5.66.02-.13-.04-.26-.14-.34Zm9.83-.02c-.21-.13-.49,0-.53.24-.28,1.66-.57,2.86-.85,3.63-.42,1.07-1.03,1.37-1.78,1.37-.53,0-.99-.04-1.3-.34-.34-.38-.42-1.24-.42-3.25v-16.6c0-2.92.09-3.67.82-3.98.34-.15.61-.44.61-.81,0-.43-.35-.78-.78-.78h-3.76c-.43,0-.78.35-.78.78,0,.37.27.66.61.81.72.32.82,1.06.82,3.98v16.48c0,2.85-.11,3.56-.98,3.87-.35.12-.63.42-.63.79,0,.42.34.77.77.77h6.85c.51,0,.93-.38.98-.88.15-1.56.38-4.32.5-5.76.01-.13-.05-.26-.17-.33Zm12.1-19.78c0-.41-.33-.74-.74-.74h-2.87c-.41,0-.74.33-.74.74,0,.38.3.68.65.82.74.31.99,1.03,1.07,2.16.06,1.24.13,2.91.13,6.25v5.01c0,6.93-.92,10.18-2.81,10.18s-2.69-3.08-2.69-9.12v-10.36c0-2.94.08-3.75.74-4.09.33-.17.6-.45.6-.82,0-.43-.35-.78-.78-.78h-3.62c-.43,0-.78.35-.78.78,0,.37.27.66.61.81.7.33.79,1.12.79,4.1v10.53c0,4.92.4,7.79,1.35,9.63.82,1.63,1.95,2.18,3.09,2.18,1.24,0,2.43-1.11,3.21-3.08.95-2.48,1.2-6.16,1.2-10.4v-4.58c0-3.42.08-4.88.15-6.25.06-1.08.28-1.78.79-2.11.32-.2.64-.49.64-.88Z"/><path class="cls-5" d="m51.99,17.63c-.03-.12-.16-.18-.27-.15l-2.81.86c-.11.03-.17.15-.14.26.03.1.13.16.24.14.93-.17,1.01-.08,1.22.6l.39,1.28c.1.33.1.55,0,.68-.09.13-.25.22-.45.28-1.48.45-2.78-1.06-3.34-2.89-.64-2.13,0-3.66,1.2-4.03.8-.24,1.58-.02,2.29.98.07.1.2.13.31.08.11-.06.15-.19.1-.3-.17-.4-.32-.74-.43-1.03-.13-.32-.45-.54-.8-.51-.41.04-.91.11-1.43.26-2.17.66-3.68,2.62-2.87,5.3.68,2.25,2.57,3.38,5,2.64.6-.18,1.14-.46,1.62-.74.35-.2.47-.64.35-1.01-.05-.14-.09-.29-.14-.45l-.31-1.04c-.19-.64-.18-.75.17-.96.09-.05.13-.16.1-.26Zm7.79,1.84c0-.1-.07-.17-.17-.2-.17-.05-.37-.15-.59-.32-.26-.18-.54-.45-1.01-.93-.22-.22-.47-.5-.69-.75-.28-.32-.19-.78.06-1.13.29-.4.42-.88.27-1.49-.15-.65-.53-1.05-1.02-1.23-.45-.16-.95-.17-1.73.02l-2.67.64c-.1.02-.17.13-.14.23.02.09.11.16.21.15.56-.06.66.05.84.83l.98,4.12c.19.8.16.98-.41,1.18-.09.03-.15.13-.13.22.02.1.13.16.23.14l2.58-.62c.1-.02.16-.13.14-.23-.02-.1-.12-.16-.21-.14-.58.07-.68-.07-.87-.87l-.33-1.41c-.02-.1.04-.2.14-.22.31-.06.5.05.72.35.4.49.82,1,1.18,1.37.58.58,1,.78,2.24.55.07-.02.15-.03.22-.05.09-.02.15-.1.15-.19Zm-4.51-2.47c-.16.04-.32-.06-.36-.22l-.54-2.27c-.06-.23-.05-.33-.02-.4.05-.08.16-.15.38-.2.54-.13,1.25.13,1.51,1.26.13.57.09,1.03-.16,1.36-.18.25-.42.38-.82.48Zm11.1,1.52c.1-.02.18-.11.16-.22-.01-.1-.1-.17-.2-.17-.47,0-.63-.17-1.06-.98-.89-1.67-1.69-3.34-2.57-5.03-.09-.17-.29-.24-.47-.17-.11.05-.19.15-.22.26l-1.16,5.73c-.16.78-.29.98-.76,1.12-.09.03-.15.12-.14.22.02.1.11.18.22.16l1.86-.28c.11-.02.18-.11.16-.22-.01-.1-.1-.17-.19-.17-.58-.01-.62-.15-.56-.71.02-.19.05-.37.08-.53.05-.34.32-.6.66-.65l.75-.11c.33-.05.65.11.79.41.1.2.19.4.28.57.23.45.22.61-.19.76-.09.03-.15.12-.14.22.02.11.11.18.22.16l2.47-.37Zm-3.47-3.04c.16.34-.05.74-.42.79-.38.06-.7-.27-.64-.65.09-.56.17-1.11.28-1.69,0,0,0-.02.02-.02,0,0,.02,0,.02.01l.74,1.55Zm10.17-4.58c0-.1-.1-.17-.2-.16l-2.09.2c-.1,0-.17.1-.16.2,0,.1.09.17.19.17.57,0,.76.15.84.5.07.32.18.88.27,1.82l.18,1.88s-.01.03-.03.03c0,0-.02,0-.02,0l-3.72-4.04c-.17-.18-.41-.27-.65-.25l-1.29.12c-.1,0-.17.1-.16.2,0,.1.09.17.19.17.34.02.54.13.72.34.2.22.22.42.28,1.14l.22,2.28c.09.92.09,1.48.07,1.82,0,.38-.16.58-.6.68-.09.02-.16.11-.15.2,0,.1.1.17.2.16l2.12-.2c.1,0,.17-.1.16-.2,0-.1-.09-.17-.19-.17-.61,0-.78-.18-.87-.56-.06-.32-.17-.88-.26-1.79l-.23-2.37s0-.02.02-.02c0,0,.01,0,.02,0l4.24,4.78c.08.09.19.13.31.12.2-.02.35-.2.33-.4l-.38-4c-.09-.94-.09-1.5-.08-1.84,0-.35.15-.54.57-.63.09-.02.16-.1.15-.2Zm1.07-.28c-.1,0-.19.09-.18.2,0,.1.08.18.18.18.57.04.64.18.68,1.03l.17,4.17c.03.85-.04,1-.67,1.09-.1.01-.17.1-.17.2,0,.1.09.18.19.18l2.26-.09c1.24-.05,2.21-.36,2.92-1.02.7-.64,1.12-1.59,1.06-2.94-.04-1-.43-1.76-.92-2.26-.65-.65-1.6-.89-2.89-.84l-2.63.11Zm2.06,1.01c-.01-.34,0-.49.08-.56.07-.06.23-.12.5-.13.56-.02,1.06.14,1.47.57.43.45.74,1.25.79,2.36.09,2.11-.79,3.18-1.88,3.23-.55.02-.73-.22-.76-.96l-.18-4.51Zm13.76,5.81c.02-.09-.03-.19-.11-.24-.16-.09-.32-.24-.49-.45-.2-.23-.42-.57-.75-1.15-.15-.27-.33-.6-.49-.9-.19-.38,0-.81.33-1.08.37-.31.62-.76.63-1.37,0-.67-.26-1.15-.69-1.45-.4-.27-.88-.4-1.68-.41l-2.74-.04c-.11,0-.19.08-.19.19,0,.1.07.18.17.19.55.08.63.21.62,1.01l-.06,4.24c-.01.83-.09.98-.68,1.04-.1,0-.18.09-.18.19,0,.1.08.19.18.19l2.65.04c.1,0,.19-.08.19-.19,0-.1-.07-.18-.17-.19-.58-.07-.64-.23-.63-1.06l.02-1.45c0-.1.09-.19.19-.18.32.02.47.17.62.51.27.57.55,1.17.81,1.61.42.71.78,1,2.04,1.08.07,0,.15,0,.22,0,.09,0,.17-.06.19-.15Zm-3.77-3.5c-.16,0-.29-.14-.29-.3l.03-2.34c0-.24.03-.33.08-.39.07-.06.19-.11.42-.1.56,0,1.18.43,1.16,1.6,0,.58-.17,1.02-.49,1.28-.23.19-.5.27-.91.26Zm9.41,2.23c-.1-.03-.21.02-.26.11-.18.36-.36.62-.53.8-.25.26-.57.31-1.15.27-.39-.03-.69-.07-.84-.17-.17-.11-.21-.35-.17-.87l.09-1.36c.02-.34.32-.6.67-.58.81.06.94.1,1.04.73.02.1.1.17.19.18.11,0,.21-.08.22-.19l.12-1.74c0-.11-.08-.21-.19-.22-.1,0-.19.06-.21.15-.19.6-.33.63-1.13.57-.34-.02-.6-.32-.58-.66l.11-1.68c.02-.36.07-.39.41-.37l.39.03c.67.05.94.16,1.08.37.13.17.21.41.28.73.02.1.11.17.22.16.11,0,.2-.1.2-.21,0-.21,0-.43,0-.64,0-.42-.33-.76-.74-.79l-3.78-.26c-.11,0-.19.07-.2.18,0,.1.06.18.16.2.53.1.6.23.55,1.04l-.29,4.26c-.06.83-.15.93-.8.96-.1,0-.18.08-.18.18,0,.1.07.19.18.2l4.29.29c.35.02.68-.19.77-.53.09-.31.18-.66.25-.92.03-.11-.04-.22-.14-.25Zm5.08-3.02c.11,0,.2-.1.19-.21,0-.31-.02-.58-.02-.82,0-.32-.18-.62-.48-.73-.25-.09-.55-.18-.86-.22-1.5-.18-2.43.63-2.57,1.77-.13,1.05.59,1.75,1.5,2.43.71.54,1.07,1.01.99,1.64-.08.65-.53,1.05-1.13.98-.89-.11-1.3-1.1-1.47-1.8-.03-.11-.14-.19-.26-.17-.1.02-.17.11-.17.21,0,.44.01.94.05,1.28.02.2.14.38.32.47.09.05.2.1.34.16.27.11.59.2.96.25,1.51.18,2.58-.64,2.72-1.82.13-1.08-.54-1.77-1.51-2.46-.78-.57-1.12-.97-1.04-1.59.08-.63.56-1,1.07-.94.76.09,1.01.78,1.16,1.43.02.1.11.17.21.16Zm5.09-1.09c-2.18-.39-3.54,1.28-3.86,3.05-.37,2.05.59,3.81,2.46,4.14,1.77.32,3.38-.82,3.79-3.1.38-2.14-.68-3.79-2.39-4.1Zm-.24.39c1.03.19,1.38,1.61,1.01,3.7-.35,1.94-1.1,2.86-1.93,2.71-1.13-.2-1.41-1.86-1.08-3.7.31-1.72,1.1-2.88,2.01-2.72Zm8.77,8.72c.04-.09.01-.19-.06-.25-.13-.13-.26-.3-.38-.55-.15-.27-.29-.64-.48-1.29-.09-.3-.2-.66-.28-.98-.11-.41.18-.79.56-.98.43-.22.77-.6.91-1.2.15-.65,0-1.17-.36-1.56-.33-.35-.77-.58-1.55-.77l-2.67-.64c-.1-.02-.21.04-.23.14-.02.09.03.19.12.23.52.2.57.34.38,1.12l-.98,4.12c-.19.8-.3.94-.89.87-.1-.01-.19.05-.21.14-.02.1.04.2.14.23l2.58.62c.1.02.2-.04.23-.14.02-.1-.03-.19-.12-.22-.55-.2-.58-.37-.39-1.17l.33-1.41c.02-.1.12-.16.22-.14.31.08.42.27.49.64.13.62.29,1.26.44,1.75.25.78.55,1.15,1.76,1.5.07.02.15.04.22.06.09.03.18-.02.22-.1Zm-2.92-4.24c-.16-.04-.26-.2-.22-.36l.54-2.27c.06-.23.1-.32.17-.37.08-.05.21-.06.43-.01.54.13,1.05.68.78,1.81-.13.57-.39.96-.75,1.14-.27.14-.54.15-.95.06Zm10.78.44c.12.03.24-.04.26-.16.14-.6.32-1.3.44-1.77.03-.11-.03-.22-.14-.25-.06-.02-.13,0-.19.03-.19.12-.35.13-.6.05l-4.06-1.24c-.28-.09-.4-.16-.5-.39-.02-.06-.07-.11-.13-.12-.1-.03-.21.03-.25.13-.17.5-.41,1.12-.64,1.73-.05.12.02.26.15.29.1.03.21-.01.26-.1.25-.4.45-.7.65-.83.24-.17.51-.18,1.16.02.23.07.37.32.29.55l-1.56,5.15c-.27.89-.39,1.02-1.13.87-.11-.02-.22.04-.25.15-.03.11.03.23.14.26l3.08.94c.11.03.23-.03.26-.14.03-.11-.02-.22-.12-.26-.73-.3-.76-.47-.49-1.37l1.53-5.04c.09-.29.4-.46.69-.37.47.14.74.29.86.55.1.23.13.57.1,1.09,0,.11.06.2.17.23Z"/><path class="cls-1" d="m51.61,17.24c-.03-.12-.16-.18-.27-.15l-2.81.86c-.11.03-.17.15-.14.26.03.1.13.16.24.14.93-.17,1.01-.08,1.22.6l.39,1.28c.1.33.1.55,0,.68-.09.13-.25.22-.45.28-1.48.45-2.78-1.06-3.34-2.89-.64-2.13,0-3.66,1.2-4.03.8-.24,1.58-.02,2.29.98.07.1.2.13.31.08.11-.06.15-.19.1-.3-.17-.4-.32-.74-.43-1.03-.13-.32-.45-.54-.8-.51-.41.04-.91.11-1.42.26-2.17.66-3.68,2.62-2.87,5.3.68,2.25,2.57,3.38,5,2.64.6-.18,1.14-.46,1.62-.74.35-.2.47-.64.35-1.01-.05-.14-.09-.29-.14-.45l-.31-1.04c-.19-.64-.18-.75.17-.96.09-.05.13-.16.1-.26Zm7.79,1.84c0-.1-.07-.17-.17-.2-.17-.05-.37-.15-.59-.32-.26-.18-.54-.45-1.01-.93-.22-.22-.47-.5-.69-.75-.28-.32-.19-.78.06-1.13.29-.4.42-.88.27-1.49-.15-.65-.53-1.05-1.02-1.23-.45-.16-.95-.17-1.73.02l-2.67.64c-.1.02-.17.13-.14.23.02.09.11.16.21.15.56-.06.66.05.84.83l.98,4.12c.19.8.16.98-.41,1.18-.09.03-.15.13-.13.22.02.1.13.16.23.14l2.58-.62c.1-.02.16-.12.14-.23-.02-.1-.12-.16-.21-.14-.58.07-.68-.07-.87-.87l-.33-1.41c-.02-.1.04-.2.14-.22.31-.06.5.05.72.35.4.49.82,1,1.18,1.37.58.58,1,.78,2.24.55.07-.02.15-.03.22-.05.09-.02.15-.1.15-.19Zm-4.51-2.47c-.16.04-.32-.06-.36-.22l-.54-2.27c-.06-.24-.05-.33-.02-.4.05-.08.16-.15.38-.2.54-.13,1.25.13,1.51,1.26.13.57.09,1.03-.16,1.36-.18.25-.42.38-.82.48Zm11.1,1.52c.1-.02.18-.11.16-.22-.01-.1-.1-.17-.2-.17-.47,0-.63-.17-1.06-.98-.89-1.67-1.69-3.34-2.57-5.03-.09-.17-.29-.24-.47-.17-.11.05-.19.15-.22.26l-1.16,5.73c-.16.78-.29.98-.76,1.12-.09.03-.15.12-.14.22.02.1.11.18.22.16l1.86-.28c.11-.02.18-.11.16-.22-.01-.1-.1-.17-.19-.17-.58-.01-.62-.15-.56-.71.02-.19.05-.37.08-.53.05-.34.32-.6.66-.65l.75-.11c.33-.05.65.11.79.41.1.2.19.4.28.57.23.45.22.61-.19.76-.09.03-.15.12-.14.22.02.11.11.18.22.16l2.47-.37Zm-3.47-3.04c.16.34-.05.74-.42.79-.38.06-.7-.27-.64-.65.09-.56.17-1.11.28-1.69,0,0,0-.02.02-.02,0,0,.02,0,.02.01l.74,1.55Zm10.17-4.58c0-.1-.1-.17-.2-.16l-2.09.2c-.1,0-.17.1-.16.2,0,.1.09.17.19.17.57,0,.76.15.84.5.07.32.18.88.27,1.82l.18,1.88s-.01.03-.03.03c0,0-.02,0-.02,0l-3.72-4.04c-.17-.18-.41-.27-.65-.25l-1.29.12c-.1,0-.17.1-.16.2,0,.1.09.17.19.17.34.02.54.13.72.34.2.22.22.42.28,1.14l.22,2.28c.09.92.09,1.48.07,1.82,0,.38-.16.58-.6.68-.09.02-.16.11-.15.2,0,.1.1.17.2.16l2.12-.2c.1,0,.17-.1.16-.2,0-.1-.09-.17-.19-.17-.61,0-.78-.18-.87-.56-.06-.32-.17-.88-.26-1.79l-.23-2.37s0-.02.02-.02c0,0,.01,0,.02,0l4.24,4.78c.08.09.19.13.31.12.2-.02.35-.2.33-.4l-.38-4c-.09-.94-.09-1.5-.08-1.84,0-.35.15-.54.57-.63.09-.02.16-.1.15-.2Zm1.07-.28c-.1,0-.19.09-.18.2,0,.1.08.18.18.18.57.04.64.18.68,1.03l.17,4.17c.03.85-.04,1-.67,1.09-.1.01-.17.1-.17.2,0,.1.09.18.19.18l2.26-.09c1.24-.05,2.21-.36,2.92-1.02.7-.64,1.12-1.59,1.06-2.94-.04-1-.43-1.76-.92-2.26-.65-.65-1.6-.89-2.89-.84l-2.63.11Zm2.06,1.01c-.01-.34,0-.49.08-.56.07-.06.22-.12.5-.13.56-.02,1.06.14,1.47.57.43.45.74,1.25.79,2.36.09,2.11-.79,3.19-1.88,3.23-.55.02-.73-.22-.76-.96l-.18-4.51Zm13.76,5.81c.02-.09-.03-.19-.11-.24-.15-.09-.32-.24-.49-.45-.2-.23-.42-.57-.75-1.15-.16-.27-.33-.6-.49-.9-.19-.38,0-.81.33-1.08.37-.31.62-.76.63-1.37,0-.67-.26-1.15-.69-1.45-.4-.27-.88-.4-1.68-.41l-2.74-.04c-.11,0-.19.08-.19.19,0,.1.07.18.17.19.55.08.62.21.61,1.01l-.06,4.24c-.01.83-.09.99-.68,1.04-.1,0-.18.09-.18.19,0,.1.08.19.19.19l2.65.04c.1,0,.19-.08.19-.19,0-.1-.07-.18-.17-.19-.58-.07-.64-.23-.63-1.06l.02-1.45c0-.1.09-.19.19-.18.32.02.47.17.62.51.27.57.55,1.17.81,1.61.42.71.79,1,2.04,1.08.07,0,.15,0,.22,0,.09,0,.17-.06.19-.15Zm-3.77-3.49c-.16,0-.29-.14-.29-.3l.03-2.34c0-.24.03-.33.08-.39.07-.06.19-.11.42-.1.56,0,1.18.43,1.16,1.6,0,.58-.17,1.02-.49,1.28-.23.19-.5.27-.91.26Zm9.41,2.23c-.1-.03-.21.02-.26.11-.18.36-.36.62-.53.8-.25.26-.57.31-1.15.27-.39-.03-.69-.07-.84-.17-.17-.11-.21-.36-.17-.87l.09-1.36c.02-.34.32-.6.66-.58.81.06.94.1,1.04.73.02.1.09.17.19.18.11,0,.21-.08.22-.19l.12-1.74c0-.11-.08-.21-.19-.22-.1,0-.18.06-.21.15-.19.6-.33.63-1.13.57-.34-.02-.6-.32-.58-.66l.11-1.68c.02-.36.07-.39.41-.37l.39.03c.66.05.94.16,1.08.37.13.17.21.41.29.73.02.1.11.17.21.16.11,0,.2-.1.2-.21,0-.21,0-.43,0-.64,0-.42-.32-.76-.74-.79l-3.78-.26c-.1,0-.19.07-.2.18,0,.1.06.18.16.2.53.1.6.22.55,1.04l-.29,4.26c-.06.83-.15.93-.8.96-.1,0-.18.08-.18.18,0,.1.07.19.18.2l4.29.29c.35.02.68-.19.77-.53.09-.31.18-.66.24-.92.03-.11-.04-.22-.14-.25Zm5.08-3.02c.11,0,.2-.1.19-.21-.01-.31-.02-.58-.02-.82,0-.32-.18-.62-.48-.73-.25-.09-.55-.18-.86-.22-1.5-.18-2.44.63-2.57,1.77-.13,1.05.59,1.75,1.5,2.43.71.54,1.07,1.01.99,1.64-.08.65-.52,1.05-1.13.98-.89-.11-1.3-1.1-1.47-1.8-.03-.11-.14-.19-.26-.17-.1.02-.17.11-.17.21,0,.44.01.94.05,1.28.02.2.14.38.32.47.1.05.2.1.34.16.27.11.59.2.96.25,1.51.18,2.58-.64,2.72-1.82.13-1.08-.54-1.77-1.51-2.46-.78-.57-1.12-.97-1.04-1.59.08-.63.56-1,1.07-.94.76.09,1.01.78,1.16,1.43.02.1.11.17.21.16Zm5.09-1.09c-2.17-.39-3.54,1.28-3.86,3.05-.37,2.05.59,3.81,2.46,4.14,1.77.32,3.38-.82,3.79-3.1.38-2.14-.68-3.79-2.39-4.1Zm-.24.39c1.03.19,1.38,1.61,1.01,3.7-.35,1.94-1.1,2.86-1.93,2.71-1.13-.2-1.41-1.86-1.09-3.7.31-1.72,1.1-2.88,2.01-2.72Zm8.77,8.72c.04-.09.01-.19-.06-.25-.13-.13-.26-.3-.38-.55-.15-.27-.29-.64-.48-1.29-.09-.3-.2-.66-.28-.98-.11-.41.18-.79.56-.98.43-.22.77-.6.91-1.2.15-.65,0-1.17-.36-1.56-.33-.35-.77-.58-1.55-.77l-2.67-.64c-.1-.02-.21.04-.23.14-.02.09.03.19.12.23.52.2.57.34.38,1.12l-.98,4.12c-.19.8-.3.94-.89.87-.1-.01-.19.05-.21.14-.02.1.04.2.14.23l2.58.62c.1.02.2-.04.23-.14.02-.1-.03-.19-.12-.22-.55-.2-.58-.37-.39-1.17l.34-1.41c.02-.1.12-.16.22-.14.31.08.42.27.49.64.13.62.28,1.26.44,1.75.25.78.55,1.15,1.76,1.5.07.02.15.04.22.06.09.03.18-.02.22-.1Zm-2.92-4.24c-.16-.04-.26-.2-.22-.36l.54-2.28c.06-.23.1-.32.17-.37.08-.05.21-.06.43-.01.54.13,1.05.68.79,1.81-.14.57-.39.96-.75,1.14-.27.14-.54.15-.95.06Zm10.78.43c.12.03.24-.04.26-.16.14-.6.32-1.3.44-1.77.03-.11-.03-.22-.14-.25-.06-.02-.13,0-.19.03-.19.12-.36.13-.6.05l-4.06-1.24c-.28-.09-.4-.16-.5-.39-.02-.06-.07-.11-.13-.12-.1-.03-.21.03-.25.13-.17.5-.41,1.12-.64,1.73-.04.12.02.26.15.29.1.03.21-.01.26-.1.24-.4.45-.7.65-.83.24-.17.51-.18,1.16.02.23.07.37.32.29.55l-1.56,5.15c-.27.89-.39,1.02-1.12.87-.11-.02-.22.04-.25.15-.03.11.03.23.14.26l3.08.94c.11.03.23-.03.26-.14.03-.11-.02-.22-.12-.26-.73-.3-.76-.47-.49-1.37l1.53-5.04c.09-.29.4-.46.69-.37.47.14.75.29.86.55.1.23.13.57.1,1.09,0,.11.06.2.17.23Z"/></svg>