<?xml version="1.0" encoding="UTF-8"?><svg id="Layer_1" xmlns="http://www.w3.org/2000/svg" viewBox="0 0 400 117"><defs><style>.cls-1{fill:#fff;fill-rule:evenodd;}</style></defs><path class="cls-1" d="m58.57,89.58l36.58-36.56h-48.49l11.91-11.88,8.22,8.23,23.79-23.77-2.74-10.97-7.32,7.31L58.57,0,0,58.5l21.99,21.94,6.83-6.86-15.1-15.08L58.57,13.71l15.08,15.08-6.86,6.86-8.22-8.23-31.12,31.08,5.49,5.48h37.51l-11.88,11.88-8.25-8.23-23.79,23.77,2.74,10.97,7.32-7.31,21.97,21.94,29.26-29.25-6.81-6.88-22.45,22.34-15.11-15,6.86-6.86,8.25,8.23Zm222-53.34h5.14l2,6.84h-8.27l1.13-6.84Zm81.85,34.12l5.44-34.12h8.29l-5.38,34.12h-8.36Zm-185.37-17.61l-4.46,27.6h8.46l2.06-13.15c.42.86,1.1,1.58,2.05,2.17,1.34.83,2.92,1.24,4.74,1.24,3.07,0,5.72-.97,7.95-2.91,2.24-1.94,3.67-4.83,4.29-8.67.44-2.62.33-4.94-.33-6.94-.66-2-1.75-3.55-3.26-4.66-1.52-1.11-3.37-1.66-5.56-1.66-1.91,0-3.56.44-4.95,1.31-.98.61-1.78,1.36-2.41,2.23l.02-3.15h-8.08c-.03.46-.04.95-.04,1.45h0c-.01.64-.02,1.29-.07,1.91-.1,1.09-.24,2.17-.42,3.23Zm14.85,10.24c-.95.95-2.13,1.43-3.54,1.43h0c-1.41,0-2.49-.51-3.24-1.52s-.94-2.71-.56-5.09c.31-2.03.95-3.51,1.92-4.45.97-.94,2.14-1.41,3.52-1.41,1.47,0,2.57.5,3.28,1.5.72,1,.89,2.7.52,5.11-.31,2-.95,3.48-1.9,4.43Zm-83.82,5.91c1.92,1.14,4.32,1.71,7.2,1.71,1.75,0,3.43-.23,5.04-.7,1.61-.47,2.87-1.08,3.78-1.83l-2.11-5.58c-.81.56-1.7,1-2.65,1.31-.95.31-1.82.47-2.6.47-1.88,0-3.23-.61-4.06-1.85-.83-1.23-1.08-2.79-.77-4.66.31-2,1.03-3.45,2.16-4.36,1.12-.91,2.47-1.36,4.04-1.36.88,0,1.79.14,2.75.42.95.28,1.76.69,2.42,1.22l2.49-5.62c-.88-.75-2.05-1.32-3.52-1.71-1.47-.39-2.91-.59-4.32-.59-3.85,0-7.08.97-9.69,2.91-2.61,1.94-4.23,4.83-4.86,8.67-.4,2.57-.2,4.84.61,6.85.82,2,2.18,3.57,4.11,4.71Zm38.41,11.83l-1.27-6.47c1.57-.28,2.88-.59,3.94-.91,1.06-.33,1.96-.77,2.7-1.34.74-.56,1.39-1.3,1.95-2.21l.72-1.22-6.18-22.43h8.46l3.25,13.92,7.91-13.92h8.46l-14.64,24.45c-1.16,1.91-2.32,3.47-3.47,4.69-1.16,1.22-2.35,2.19-3.57,2.91-1.22.72-2.5,1.26-3.85,1.62-1.35.36-2.82.67-4.41.92Zm82.18-11.74c1.88,1.08,4.22,1.62,7.04,1.62h0c2.44,0,4.65-.43,6.61-1.29,1.97-.86,3.6-2.15,4.9-3.87,1.3-1.72,2.15-3.86,2.56-6.42.44-2.75.27-5.11-.52-7.08-.78-1.97-2.1-3.49-3.94-4.57-1.85-1.08-4.19-1.62-7.04-1.62-2.44,0-4.66.43-6.64,1.29-1.98.86-3.64,2.15-4.95,3.87-1.31,1.72-2.17,3.86-2.58,6.42-.4,2.72-.22,5.07.57,7.05.78,1.99,2.11,3.51,3.99,4.6Zm10.89-6c-.94.95-2.07,1.43-3.38,1.43h0c-1.44,0-2.51-.51-3.22-1.52s-.87-2.71-.49-5.09c.34-2.03.98-3.51,1.9-4.45.92-.94,2-1.41,3.4-1.41s2.47.5,3.19,1.5c.72,1,.89,2.7.51,5.11-.34,2-.98,3.48-1.92,4.43Zm52.04-10.24l-2.94,17.61h0s8.46,0,8.46,0l2.17-13.3c.25-1.53.74-2.74,1.48-3.61.73-.88,1.73-1.31,2.98-1.31,1,0,1.68.32,2.04.96.36.64.43,1.66.21,3.07l-2.35,14.19h8.46l2.1-13.3c.25-1.53.76-2.74,1.53-3.61.77-.88,1.76-1.31,2.98-1.31.97,0,1.64.32,2.02.96.38.64.45,1.66.23,3.07l-2.32,14.19h8.46l2.21-14c.59-3.66.31-6.33-.85-8.04-1.16-1.7-3.16-2.55-6.01-2.55-1.72,0-3.4.45-5.05,1.36-1.26.69-2.33,1.6-3.21,2.71-.35-1.24-.99-2.18-1.91-2.83-1.17-.83-2.57-1.24-4.39-1.24s-3.43.38-4.83,1.15c-1.13.62-2.11,1.49-2.94,2.62l.05-3.37h-8.08c-.02.44-.03.9-.04,1.37-.01.66-.02,1.34-.08,1.98-.11,1.09-.24,2.17-.4,3.23Zm43.37,0l-4.38,27.6h8.46l1.99-13.14c.42.86,1.1,1.57,2.05,2.16,1.34.83,2.92,1.24,4.74,1.24,3.07,0,5.71-.97,7.95-2.91,2.24-1.94,3.67-4.83,4.29-8.67.44-2.62.33-4.94-.33-6.94-.66-2-1.75-3.55-3.26-4.66-1.52-1.11-3.37-1.66-5.56-1.66-1.91,0-3.56.44-4.95,1.31-.96.61-1.76,1.34-2.39,2.2l.08-3.12h-8.08c-.02.34-.04.69-.05,1.05h0c-.04.77-.08,1.56-.14,2.3-.1,1.09-.23,2.17-.42,3.23Zm14.85,10.24c-.95.95-2.14,1.43-3.54,1.43h0c-1.41,0-2.49-.51-3.24-1.52s-.94-2.71-.56-5.09c.31-2.03.95-3.51,1.92-4.45.97-.94,2.14-1.41,3.52-1.41,1.47,0,2.57.5,3.29,1.5.72,1,.89,2.7.52,5.11-.31,2-.95,3.48-1.9,4.43Zm39.45,7.62c-3.03,0-5.54-.57-7.51-1.71-1.97-1.14-3.37-2.72-4.2-4.73-.83-2.02-1.04-4.34-.64-6.96.38-2.34,1.15-4.37,2.32-6.07,1.17-1.7,2.68-3.02,4.5-3.96,1.83-.94,3.92-1.41,6.27-1.41s4.45.52,6.03,1.57c1.58,1.05,2.7,2.49,3.35,4.31.66,1.83.78,3.93.38,6.3l-.24,1.64h-15.01c0,1.36.35,2.44,1.04,3.26.89,1.05,2.53,1.57,4.9,1.57,1.06,0,2.09-.14,3.07-.42.98-.28,2.53-1.02,3.59-1.65l1.57,5.85c-1.35.88-2.8,1.4-4.39,1.8-1.6.41-3.29.61-5.07.61h0Zm-3.47-16.89c-.31.59-.55,1.24-.72,1.94h8.09c.11-1.36-.08-2.4-.57-3.12-.6-.86-1.53-1.29-2.82-1.29-.94,0-1.74.22-2.39.66-.66.44-1.19,1.04-1.6,1.81Zm-240.9-8.32c-1.18.06-2.06.28-3.07.77-1.16.56-2.34,1.87-3.23,3.03-.25.32-.49.68-.72,1.05l.1-4.08h-8.08c-.02.38-.04.78-.05,1.19h0c-.03.72-.05,1.47-.12,2.17-.11,1.09-.24,2.19-.4,3.28l-2.88,17.57h8.46l1.84-11.33c.22-1.5.64-2.71,1.26-3.63.63-.92,1.38-1.61,2.28-2.06.89-.45,1.87-.68,2.94-.68.75,0,1.37.05,1.85.14.49.09,1.45.43,2.08.71l-2.25-8.12Zm72.28,7.03h5.97l-1.67-6.14h-3.32l1.22-7.59-8.68,1.97-.89,5.62h-4.46l-.98,6.14h4.46l-1.36,8.44c-.47,3.09,0,5.49,1.43,7.2,1.42,1.7,3.86,2.55,7.3,2.55.63,0,1.27-.05,1.95-.14.67-.09,1.37-.28,2.09-.56l1.03-6.42c-.5.16-.93.27-1.29.35-.36.08-.79.11-1.29.11-.91,0-1.65-.24-2.23-.73-.58-.48-.76-1.38-.54-2.7l1.27-8.11h.01Zm58.02,17.94h8.46l3.81-24.2h-8.36l-3.92,24.2Zm-12.74-15.17l4.41.7h0c2.28.35,3.9,1.12,4.86,2.32.95,1.2,1.27,2.82.96,4.85-.28,1.69-.95,3.09-2,4.22-1.05,1.13-2.38,1.96-4.01,2.51-1.63.55-3.44.82-5.44.82-2.13,0-4.06-.21-5.8-.63-1.74-.42-3.15-.99-4.25-1.71l2.16-5.44c1.16.63,2.46,1.14,3.92,1.55,1.45.41,2.9.61,4.34.61,1.19,0,2.08-.17,2.67-.51.59-.34.94-.81,1.03-1.41.1-.5-.02-.91-.33-1.22-.31-.31-.8-.53-1.45-.66l-4.37-.66c-2.25-.34-3.85-1.15-4.79-2.41-.94-1.26-1.25-2.88-.94-4.85.25-1.62.89-3,1.92-4.13,1.03-1.13,2.36-1.97,3.99-2.53,1.63-.56,3.43-.85,5.4-.85,1.79,0,3.46.18,5.02.54h.03s.04.02.04.02c.02,0,.05.01.07.02h0s0,0,0,0c.04,0,.07.02.11.03l1.98,7.14c-.88-.56-2.52-1.22-3.75-1.6-1.24-.37-2.4-.56-3.5-.56-1.28,0-2.23.18-2.86.56-.63.37-.99.86-1.08,1.45-.07.44.03.83.28,1.17.25.35.7.56,1.36.66Z"/></svg>