<?xml version="1.0" encoding="UTF-8"?><svg id="Layer_1" xmlns="http://www.w3.org/2000/svg" viewBox="0 0 400 71"><defs><style>.cls-1{fill:#0a95dc;}.cls-2{fill:#fff;}</style></defs><path class="cls-1" d="m30.88,14.13H13.75C5.32,14.13,0,19.73,0,26.72v6.25c0,6.98,5.24,12.59,13.75,12.59h10.29c3.82,0,6.83-2.84,6.83-6.25H13.75c-4.26,0-6.83-2.76-6.83-6.25v-6.25c0-3.49,2.66-6.25,6.83-6.25h17.21v28.26c0,3.49-2.66,6.25-6.83,6.25h-10.38c-3.82,0-6.83,2.84-6.83,6.25h17.13c8.43,0,13.75-5.6,13.75-12.59v-28.26c0-3.49-3.11-6.33-6.92-6.33Z"/><path class="cls-1" d="m367.97,14.13c-8.43,0-13.75,5.6-13.75,12.59v12.59c0,3.49,3.11,6.25,6.83,6.25v-18.84c0-3.49,2.66-6.25,6.83-6.25h8.61c3.82,0,6.83-2.84,6.83-6.25h-15.35v-.08Z"/><path class="cls-1" d="m96.72,39.3c-4.26,0-6.83-2.76-6.83-6.25v-12.59h10.29c3.82,0,6.83-2.84,6.83-6.25h-17.21V0c-3.82,0-6.83,2.84-6.83,6.25v26.72c0,6.98,5.24,12.59,13.75,12.59h3.46c3.82,0,6.83-2.84,6.83-6.25h-10.29Z"/><path class="cls-1" d="m298.67,45.64c-8.43,0-13.75-5.6-13.75-12.59v-12.59h-20.94v12.59c0,3.49,2.66,6.25,6.83,6.25h10.29c0,3.49-3.11,6.25-6.83,6.25h-3.46c-8.43,0-13.75-5.6-13.75-12.59V6.33c0-3.49,3.11-6.25,6.83-6.25v14.13h20.94v-7.88c0-3.49,3.11-6.25,6.83-6.25v14.13h17.21c0,3.49-3.1,6.25-6.83,6.25h-10.29v12.59c0,3.49,2.66,6.25,6.83,6.25h10.29c0,3.49-3.1,6.25-6.83,6.25l-3.37.08Z"/><path class="cls-1" d="m71.61,20.46v18.84c0,3.49,3.11,6.25,6.83,6.25V14.13c-3.82,0-6.83,2.84-6.83,6.33Z"/><path class="cls-1" d="m55.28,39.3c-4.26,0-6.83-2.76-6.83-6.25V14.13c-4.08,0-6.83,2.84-6.83,6.25v12.59c0,6.98,5.24,12.59,13.75,12.59h9.41c3.82,0,6.83-2.84,6.83-6.25h-16.33Z"/><path class="cls-1" d="m166.64,39.3c-4.26,0-6.83-2.76-6.83-6.25V14.21c-3.82,0-6.83,2.84-6.83,6.25v12.59c0,6.98,5.24,12.59,13.75,12.59h5.15c3.82,0,6.83-2.84,6.83-6.25h-12.07v-.08Zm36.11-18.84v12.59c0,3.9-3.02,6.25-6.83,6.25h-10.29V14.13c-3.82,0-6.83,2.84-6.83,6.25v18.84c0,3.49,3.11,6.25,6.83,6.25h10.29c7.63,0,13.75-4.79,13.75-12.59V14.13c-3.82,0-6.92,2.84-6.92,6.33Z"/><path class="cls-1" d="m149.16,26.72c0-6.98-5.24-12.59-13.75-12.59h-11.98c-8.43,0-13.75,5.6-13.75,12.59v6.25c0,6.98,5.24,12.59,13.75,12.59h15.44c3.82,0,6.83-2.84,6.83-6.25h-22.36c-4.26,0-6.83-2.76-6.83-6.25h25.73c3.9,0,6.92-2.84,6.92-6.33Zm-25.73,0c-3.82,0-6.83,2.84-6.83,6.25v-6.25c0-3.49,2.66-6.25,6.83-6.25h11.98c4.26,0,6.83,2.76,6.83,6.25h-18.81Z"/><path class="cls-1" d="m253.33,26.72c0-6.98-5.24-12.59-13.75-12.59h-11.98c-8.43,0-13.75,5.6-13.75,12.59v6.25c0,6.98,5.24,12.59,13.75,12.59h15.44c3.82,0,6.83-2.84,6.83-6.25h-22.27c-4.26,0-6.83-2.76-6.83-6.25h25.73c3.73,0,6.83-2.84,6.83-6.33Zm-25.73,0c-3.82,0-6.83,2.84-6.83,6.25v-6.25c0-3.49,2.66-6.25,6.83-6.25h11.98c4.26,0,6.83,2.76,6.83,6.25h-18.81Z"/><path class="cls-1" d="m350.84,26.72c0-6.98-5.23-12.59-13.75-12.59h-12.07c-8.43,0-13.75,5.6-13.75,12.59v6.25c0,6.98,5.23,12.59,13.75,12.59h15.44c3.82,0,6.83-2.84,6.83-6.25h-22.36c-4.26,0-6.83-2.76-6.83-6.25h25.73c3.9,0,7.01-2.84,7.01-6.33Zm-25.82,0c-3.82,0-6.83,2.84-6.83,6.25v-6.25c0-3.49,2.66-6.25,6.83-6.25h12.07c4.26,0,6.83,2.76,6.83,6.25h-18.9Z"/><path class="cls-1" d="m391.39,5.2c1.15-.89,2.66-.81,3.64-.81,1.07,0,2.48-.08,3.64.81,1.15.89,1.33,2.36,1.33,3.57s-.18,2.6-1.33,3.57c-1.15.89-2.66.81-3.64.81-1.07,0-2.48.08-3.64-.81-1.15-.89-1.33-2.35-1.33-3.57s.09-2.6,1.33-3.57Zm.18,6.17c.89,1.14,2.31,1.06,3.46,1.06s2.57.08,3.46-1.06c.62-.81.71-2.03.71-2.6s0-1.87-.71-2.6c-.89-1.14-2.31-1.06-3.46-1.06s-2.57-.08-3.46,1.06c-.62.81-.71,2.03-.71,2.6.09.57.09,1.87.71,2.6Zm1.06-.08v-4.3c0-.16,0-.32.18-.49.18-.16.36-.24.8-.24h2.22c.36,0,.8,0,1.06.24.44.32.53.97.53,1.38,0,1.38-.8,1.46-1.15,1.46h-.53l2.04,1.87h-1.24l-1.86-1.71c-.18-.16-.27-.24-.27-.49,0-.41.27-.41.44-.41h.8c.09,0,.53,0,.62-.08.09-.08.18-.24.18-.32v-.65c0-.08-.09-.24-.18-.41-.18-.16-.44-.24-.62-.24h-1.86c-.09,0-.27,0-.36.08-.09.08-.09.24-.09.32v3.9h-.71v.08Z"/><path class="cls-2" d="m83.57,70.89v-1.08h5.59c.7,0,1.06-.46,1.06-1.39,0-.32-.07-.59-.21-.81-.14-.23-.44-.42-.9-.57l-3.96-1.3c-.61-.2-1.05-.49-1.31-.86-.27-.38-.4-.91-.4-1.59,0-.74.19-1.31.56-1.72.37-.41.94-.61,1.71-.61h5.41v1.08h-5.17c-.39,0-.68.1-.86.3-.18.2-.27.52-.27.98,0,.22.01.4.04.54.03.14.11.29.26.45.15.15.37.27.64.37l3.77,1.25c.73.25,1.26.54,1.59.89.32.34.49.87.49,1.6s-.17,1.33-.5,1.79c-.32.45-.85.68-1.57.68h-5.96Z"/><path class="cls-2" d="m101.82,70.89h-6.24c-.93,0-1.4-.47-1.4-1.4v-7.12c0-.51.12-.87.36-1.08.24-.22.59-.33,1.04-.33h6.19v1.08h-5.6c-.27,0-.44.05-.53.14-.09.09-.13.27-.13.52v2.57h6.11v1.08h-6.11v2.78c0,.26.04.43.13.54.09.09.26.14.53.14h5.66v1.08Z"/><path class="cls-2" d="m113.33,60.96v8.79c0,.41-.11.72-.33.94-.21.21-.5.31-.87.31-.29,0-.53-.06-.74-.17-.2-.11-.39-.32-.57-.61l-4.71-7.49c-.1-.16-.19-.24-.29-.24-.13,0-.2.09-.2.28v8.11h-1.3v-8.86c0-.42.12-.71.36-.89.25-.19.54-.28.87-.28.55,0,.98.24,1.29.72l4.76,7.54c.11.16.2.24.27.24.11,0,.17-.08.17-.24v-8.15h1.3Z"/><path class="cls-2" d="m116.04,70.89v-1.08h5.58c.71,0,1.06-.46,1.06-1.39,0-.32-.07-.59-.21-.81-.14-.23-.44-.42-.9-.57l-3.96-1.3c-.61-.2-1.05-.49-1.31-.86-.27-.38-.4-.91-.4-1.59,0-.74.19-1.31.56-1.72.37-.41.94-.61,1.71-.61h5.42v1.08h-5.17c-.39,0-.68.1-.86.3-.18.2-.27.52-.27.98,0,.22.01.4.04.54.03.14.12.29.26.45.15.15.37.27.64.37l3.77,1.25c.73.25,1.26.54,1.59.89.32.34.49.87.49,1.6s-.17,1.33-.5,1.79c-.32.45-.85.68-1.57.68h-5.96Z"/><path class="cls-2" d="m134.29,70.89h-6.24c-.93,0-1.4-.47-1.4-1.4v-7.12c0-.51.12-.87.36-1.08.24-.22.59-.33,1.04-.33h6.18v1.08h-5.6c-.27,0-.44.05-.53.14-.09.09-.13.27-.13.52v2.57h6.12v1.08h-6.12v2.78c0,.26.04.43.13.54.09.09.26.14.53.14h5.66v1.08Z"/><path class="cls-2" d="m145.63,70.89h-1.33v-8.85h-4.04v-1.08h9.42v1.08h-4.04v8.85Z"/><path class="cls-2" d="m160.18,60.96v9.92h-1.33v-4.54h-5.84v4.54h-1.33v-9.92h1.33v4.31h5.84v-4.31h1.33Z"/><path class="cls-2" d="m170.74,70.89h-6.24c-.93,0-1.4-.47-1.4-1.4v-7.12c0-.51.12-.87.36-1.08.24-.22.59-.33,1.04-.33h6.19v1.08h-5.6c-.27,0-.44.05-.53.14-.09.09-.13.27-.13.52v2.57h6.11v1.08h-6.11v2.78c0,.26.04.43.13.54.09.09.26.14.53.14h5.66v1.08Z"/><path class="cls-2" d="m177.43,70.89v-1.08h5.59c.71,0,1.06-.46,1.06-1.39,0-.32-.07-.59-.21-.81-.14-.23-.44-.42-.9-.57l-3.96-1.3c-.61-.2-1.05-.49-1.31-.86-.27-.38-.4-.91-.4-1.59,0-.74.19-1.31.56-1.72.37-.41.94-.61,1.71-.61h5.41v1.08h-5.17c-.39,0-.68.1-.86.3-.18.2-.27.52-.27.98,0,.22.01.4.04.54.03.14.11.29.26.45.15.15.37.27.64.37l3.77,1.25c.73.25,1.26.54,1.59.89.32.34.49.87.49,1.6s-.17,1.33-.5,1.79c-.32.45-.85.68-1.57.68h-5.96Z"/><path class="cls-2" d="m189.99,69.36c.42.38,1.13.57,2.13.57s1.71-.19,2.13-.57c.42-.38.63-1.03.63-1.94v-6.45h1.33v6.58c0,1.25-.35,2.14-1.04,2.67-.7.53-1.71.79-3.04.79s-2.35-.26-3.04-.79c-.69-.53-1.04-1.42-1.04-2.67v-6.58h1.33v6.45c0,.92.21,1.56.63,1.94Z"/><path class="cls-2" d="m208.15,60.96v8.79c0,.41-.11.72-.33.94-.21.21-.5.31-.87.31-.28,0-.53-.06-.74-.17-.2-.11-.39-.32-.57-.61l-4.71-7.49c-.1-.16-.19-.24-.29-.24-.13,0-.2.09-.2.28v8.11h-1.3v-8.86c0-.42.12-.71.36-.89.25-.19.54-.28.87-.28.55,0,.98.24,1.29.72l4.76,7.54c.11.16.2.24.27.24.11,0,.17-.08.17-.24v-8.15h1.3Z"/><path class="cls-2" d="m214.41,70.89l3.8-8.95c.16-.38.34-.65.54-.82.2-.18.48-.27.83-.27s.62.09.83.27c.22.18.4.45.56.82l3.79,8.95h-1.4l-1.13-2.69h-5.3l-1.11,2.69h-1.4Zm4.83-8.32l-1.91,4.55h4.5l-1.89-4.55c-.14-.32-.26-.48-.36-.48-.03,0-.06,0-.09.03-.02,0-.04.03-.06.06-.02.02-.04.05-.07.09-.02.04-.03.07-.04.1-.01.03-.02.07-.04.11-.02.05-.03.08-.04.1Z"/><path class="cls-2" d="m235.63,60.96v8.79c0,.41-.11.72-.33.94-.21.21-.5.31-.87.31-.29,0-.53-.06-.74-.17-.2-.11-.39-.32-.57-.61l-4.71-7.49c-.1-.16-.19-.24-.29-.24-.13,0-.2.09-.2.28v8.11h-1.3v-8.86c0-.42.12-.71.36-.89.25-.19.54-.28.87-.28.55,0,.98.24,1.29.72l4.76,7.54c.1.16.2.24.27.24.11,0,.17-.08.17-.24v-8.15h1.3Z"/><path class="cls-2" d="m243.8,70.89h-3.84c-.46,0-.8-.1-1.04-.31-.24-.22-.36-.58-.36-1.09v-7.12c0-.51.12-.87.36-1.08.24-.22.59-.33,1.04-.33h3.64c.77,0,1.42.13,1.96.4.53.26.94.64,1.21,1.12.28.48.47,1,.59,1.55.11.55.17,1.17.17,1.86,0,.55-.03,1.05-.1,1.5-.06.45-.17.91-.34,1.36-.16.44-.38.82-.64,1.12-.27.3-.63.55-1.09.74-.45.19-.97.28-1.56.28Zm-.6-8.85h-2.66c-.26,0-.43.05-.53.16-.09.09-.13.26-.13.51v6.42c0,.26.04.44.13.54.09.09.26.14.53.14h2.73c.49,0,.9-.07,1.26-.21.35-.14.63-.33.83-.55.21-.23.37-.52.49-.86.12-.36.21-.71.24-1.06.04-.35.06-.76.06-1.23,0-.59-.04-1.09-.11-1.5-.08-.43-.21-.82-.42-1.19-.2-.38-.5-.66-.91-.85-.4-.2-.9-.3-1.5-.3Z"/><path class="cls-2" d="m257.59,69.34l2-7.5c.18-.66.58-.99,1.2-.99s1.01.33,1.2.99l2,7.5c.04.16.12.24.24.24.1,0,.17-.1.23-.3l2.13-8.32h1.34l-2.39,8.93c-.1.39-.25.67-.44.85-.19.17-.47.26-.84.26-.41,0-.71-.09-.9-.28-.18-.2-.31-.47-.4-.81l-1.96-7.29c-.04-.18-.11-.27-.21-.27s-.18.09-.21.27l-1.97,7.29c-.09.34-.22.61-.4.81-.18.19-.48.28-.89.28-.37,0-.65-.09-.84-.26-.19-.18-.34-.46-.44-.85l-2.39-8.93h1.34l2.13,8.32c.06.2.13.3.23.3.12,0,.2-.08.24-.24Z"/><path class="cls-2" d="m268.72,70.89l3.8-8.95c.16-.38.34-.65.54-.82.2-.18.48-.27.83-.27s.62.09.83.27c.22.18.4.45.56.82l3.79,8.95h-1.4l-1.13-2.69h-5.3l-1.12,2.69h-1.4Zm4.83-8.32l-1.91,4.55h4.5l-1.89-4.55c-.14-.32-.26-.48-.36-.48-.03,0-.06,0-.09.03-.02,0-.04.03-.06.06-.02.02-.04.05-.07.09-.02.04-.03.07-.04.1-.01.03-.02.07-.04.11-.02.05-.03.08-.04.1Z"/><path class="cls-2" d="m283.95,70.89h-1.33v-8.85h-4.04v-1.08h9.41v1.08h-4.04v8.85Z"/><path class="cls-2" d="m297.63,70.89h-6.24c-.93,0-1.4-.47-1.4-1.4v-7.12c0-.51.12-.87.36-1.08.24-.22.59-.33,1.04-.33h6.19v1.08h-5.6c-.27,0-.44.05-.53.14-.09.09-.13.27-.13.52v2.57h6.11v1.08h-6.11v2.78c0,.26.04.43.13.54.09.09.26.14.53.14h5.66v1.08Z"/><path class="cls-2" d="m300.13,70.89v-8.42c0-1,.49-1.5,1.47-1.5h4.63c.88,0,1.5.26,1.87.77.37.51.56,1.26.56,2.24s-.18,1.81-.53,2.35c-.34.54-.92.81-1.74.81h-1.61v.07l4.1,3.69h-1.77l-3.83-3.49c-.25-.23-.37-.43-.37-.62v-.23c0-.33.2-.5.6-.5h2.44c.55,0,.91-.17,1.07-.51.17-.34.26-.86.26-1.57s-.1-1.17-.3-1.47c-.2-.3-.61-.45-1.24-.45h-3.56c-.25,0-.43.05-.54.16-.12.09-.17.27-.17.52v8.17h-1.33Z"/></svg>