<?xml version="1.0" encoding="UTF-8"?><svg id="Layer_1" xmlns="http://www.w3.org/2000/svg" viewBox="0 0 250 71.25"><defs><style>.cls-1,.cls-2{fill:#fff;}.cls-2,.cls-3{fill-rule:evenodd;}.cls-4,.cls-3{fill:#ae194a;}</style></defs><circle class="cls-1" cx="35.62" cy="35.62" r="35.62"/><path class="cls-4" d="M27.53,9.98h15v-2.06h-15v2.06Z"/><path class="cls-3" d="M35.51,18.08l-14.99-7.59-2,1.03,14.76,7.71-5.76,2.97-8-4.12-9,4.63v10.54l8,4.12v9.26l8,4.12v9.26l9,4.63,9-4.63v-9.26l8-4.12v-9.26l8-4.12v-10.54l-9-4.63-8,4.12-5.82-3,13.82-7.68-2-1.03-14.01,7.59ZM29.76,23.36l5.76-2.97,5.76,2.97-5.76,2.97-5.76-2.97ZM28.53,25.02v6.96l6,3.09v-6.96l-6-3.09ZM27.53,33.77l-5.76,2.97,5.76,2.97,5.76-2.97-5.76-2.97ZM26.53,25.02l-6,3.09v6.96l6-3.09v-6.96ZM18.53,28.11l-6-3.09v6.96l6,3.09v-6.96ZM25.29,23.36l-5.76,2.97-5.76-2.97,5.76-2.97,5.76,2.97ZM44.53,31.99v-6.96l6,3.09v6.96l-6-3.09ZM37.76,36.74l5.76-2.97,5.76,2.97-5.76,2.97-5.76-2.97ZM36.53,28.11l6-3.09v6.96l-6,3.09v-6.96ZM58.53,31.99l-6,3.09v-6.96l6-3.09v6.96ZM57.29,23.36l-5.76,2.97-5.76-2.97,5.76-2.97,5.76,2.97ZM35.53,47.15l5.76,2.97-5.76,2.97-5.76-2.97,5.76-2.97ZM34.53,38.4v6.96l-6,3.09v-6.96l6-3.09ZM42.53,41.49v6.96l-6-3.09v-6.96l6,3.09ZM26.53,41.49l-6-3.09v6.96l6,3.09v-6.96ZM34.53,54.87l-6-3.09v6.96l6,3.09v-6.96ZM42.53,58.75l-6,3.09v-6.96l6-3.09v6.96ZM44.53,48.45l6-3.09v-6.96l-6,3.09v6.96Z"/><path class="cls-1" d="M162.68,14.5l-7.83.69v27.05h8.49v-18.09c1.42-1.25,3.4-1.88,5.94-1.88,1.27,0,2.29.18,3.06.53v19.42h8.49v-20.07c0-2.58-.69-4.58-2.08-5.99-1.35-1.41-3.33-2.11-5.95-2.11-3.85,0-6.95,1.64-9.29,4.93h-.46l-.37-4.48Z"/><path class="cls-1" d="M141.15,14.51l8.54.68v27.04h-8.54V14.51Z"/><path class="cls-1" d="M121.23,42.23c-3.81-9.05-6.94-18.48-9.05-27.72l8.13.68c1.46,6.77,3.27,12.74,5.43,19.24h.23c2.15-6.3,3.83-12.27,5.33-19.24l8.19-.68c-2.04,8.97-5.04,18.4-8.93,27.72h-9.33Z"/><path class="cls-1" d="M185.1,14.51l8.54.69v27.03h-8.54V14.51Z"/><path class="cls-1" d="M199.95,39.31c2.27,2.43,5.9,3.59,10.9,3.59,2.42,0,4.53-.34,6.3-1.12,1.81-.78,3.46-1.86,4.96-3.23l-3.81-6.29c-2.08,1.68-4.48,2.53-7.21,2.53-2.23,0-3.79-.49-4.68-1.47-.85-1.02-1.27-2.6-1.27-4.76,0-2.04.27-3.96.81-5.76,1.04-.31,2.33-.47,3.87-.47,1.08,0,2,.08,2.77.24l.38,2.21,7.11.85c.5-2.11.82-4.66.82-6.81v-2.11c-2.69-1.61-6.18-2.41-10.45-2.41s-7.66,1.33-10.16,3.99c-2.46,2.62-3.69,6.17-3.69,10.63s1.12,7.97,3.35,10.4Z"/><path class="cls-2" d="M235.28,42.89c-4.46,0-7.72-1.19-9.75-3.58-2.04-2.39-3.06-5.8-3.06-10.22,0-2.9.58-5.48,1.73-7.75,1.19-2.27,2.89-4.05,5.08-5.35,2.23-1.29,4.87-1.94,7.91-1.94,8.54,0,12.81,4.66,12.81,13.98,0,4.5-1.21,8.11-3.64,10.81-2.42,2.7-6.12,4.05-11.08,4.05ZM236.32,35.55c1.54,0,2.96-.2,4.27-.59.65-1.68.98-3.86.98-6.52s-.4-4.37-1.21-5.35c-.77-1.02-2.17-1.53-4.21-1.53-1.46,0-2.89.18-4.27.53-.65,1.64-.98,3.84-.98,6.58,0,2.58.38,4.39,1.15,5.4.81.98,2.23,1.47,4.27,1.47Z"/><path class="cls-2" d="M82.89,26.39c-.03-2.25.83-4.05,1.69-5.6.88-1.57,2.25-2.8,4.09-3.67,1.85-.88,4.22-1.41,7.12-1.61l14.07-.99,1.31,6.54h-7.13v.46c3.35,1.12,4.57,3.88,4.6,6.75.03,2.85-.94,5.05-2.93,6.6-1.97,1.52-5.03,2.31-9.18,2.36-.83,0-1.97-.13-3.11-.29-.84.45-1.7,1.9-1.01,2.18.44.18,1.15.33,2.13.44l6.43.77c3.13.38,5.47,1.23,7.01,2.54s2.5,3.38,2.54,6.17c.02,1.94-.52,3.87-1.71,5.45-1.03,1.41-2.54,2.46-4.54,3.15-2.67.96-5.51,1.1-8.32,1.13-2.72.03-5.05-.19-6.99-.67-1.92-.46-3.38-1.21-4.38-2.26-1.12-1.17-1.7-2.79-1.72-4.38-.04-3.03,2.19-5.45,5.29-5.76v-.31c-2.26-.44-3.91-2.22-3.94-4.55v-.03c-.01-.94.16-1.73.52-2.38.38-.65.93-1.15,1.67-1.49.73-.36,1.63-.58,2.69-.66v-.25c-.91-.39-1.72-.87-2.42-1.44-2.48-2.03-3.78-5.09-3.81-8.19ZM96.31,51.76c-1.31.02-2.38-.09-3.23-.31-1.32-.32-2.27-1.17-2.28-2.65-.01-1.22.6-2.6,2.18-2.6,2.58,0,6.07.48,8.88,1.33.46,1.68.04,3.52-1.53,3.89-1.22.3-2.49.31-3.75.33h-.27ZM91.9,29.91c-.93-1.67-1.06-5.4,0-6.96,2.51-.88,7.37-.72,8.43,1.13.82,1.44,1.33,4.29.4,5.99-.72,1.33-3.14,1.68-4.46,1.7-1.65.02-3.46-.33-4.38-1.86Z"/><path class="cls-1" d="M126.75,58.13l-2.81-9.98h1.94l1.79,7.33h.09l1.91-7.33h1.76l1.92,7.34h.09l1.79-7.34h1.94l-2.81,9.98h-1.78l-1.99-7h-.08l-2,7h-1.78Z"/><path class="cls-1" d="M140.24,48.15v9.98h-1.8v-9.98h1.8Z"/><path class="cls-1" d="M150.37,48.15v9.98h-1.6l-4.69-6.8h-.08v6.8h-1.8v-9.98h1.61l4.68,6.8h.09v-6.8h1.79Z"/><path class="cls-1" d="M152.33,58.13v-9.98h6.47v1.52h-4.67v2.71h4.34v1.52h-4.34v2.72h4.71v1.52h-6.51Z"/><path class="cls-1" d="M165.84,48.15v9.98h-1.8v-9.98h1.8Z"/><path class="cls-1" d="M167.79,48.15h2.21l2.96,7.23h.12l2.96-7.23h2.21v9.98h-1.73v-6.86h-.09l-2.75,6.83h-1.29l-2.75-6.84h-.09v6.87h-1.73v-9.98Z"/><path class="cls-1" d="M180.2,58.13v-9.98h3.73c.76,0,1.41.14,1.93.43.52.29.91.68,1.18,1.18.27.5.4,1.06.4,1.7s-.13,1.21-.4,1.71c-.27.5-.67.89-1.19,1.17-.52.28-1.17.42-1.94.42h-2.47v-1.49h2.23c.45,0,.81-.08,1.1-.23.29-.16.5-.37.63-.64.14-.27.21-.59.21-.94s-.07-.67-.21-.94c-.14-.27-.35-.48-.64-.63-.29-.15-.65-.23-1.1-.23h-1.65v8.47h-1.8Z"/><path class="cls-1" d="M197.9,53.14c0,1.08-.2,2-.6,2.76-.4.76-.94,1.35-1.63,1.75-.69.41-1.47.61-2.34.61s-1.65-.2-2.34-.61c-.69-.41-1.23-1-1.63-1.76-.4-.77-.6-1.69-.6-2.76s.2-1.99.6-2.76c.4-.77.95-1.35,1.63-1.76.69-.41,1.47-.61,2.34-.61s1.65.2,2.34.61c.69.41,1.24.99,1.63,1.76.4.76.6,1.68.6,2.76ZM196.08,53.14c0-.76-.12-1.4-.35-1.91-.23-.52-.56-.92-.97-1.18-.41-.27-.89-.4-1.43-.4s-1.02.13-1.43.4c-.41.27-.74.66-.98,1.18-.23.52-.35,1.16-.35,1.91s.12,1.4.35,1.92c.24.52.56.91.98,1.18.41.27.89.4,1.43.4s1.02-.13,1.43-.4c.41-.27.74-.66.97-1.18.24-.52.35-1.16.35-1.92Z"/><path class="cls-1" d="M199.6,58.13v-9.98h3.73c.76,0,1.41.13,1.93.4.52.27.92.64,1.18,1.12.27.48.4,1.03.4,1.67s-.14,1.2-.41,1.67c-.27.47-.67.83-1.19,1.09-.52.25-1.17.38-1.93.38h-2.66v-1.5h2.41c.45,0,.81-.06,1.1-.19.29-.13.5-.31.63-.55.14-.24.21-.54.21-.9s-.07-.66-.21-.91c-.14-.25-.35-.45-.64-.58-.29-.13-.65-.2-1.1-.2h-1.65v8.47h-1.8ZM204.74,53.61l2.46,4.52h-2.01l-2.42-4.52h1.97Z"/><path class="cls-1" d="M208.06,49.67v-1.52h7.94v1.52h-3.08v8.46h-1.79v-8.46h-3.08Z"/><path class="cls-1" d="M220.93,58.13v-9.98h1.8v4.22h4.61v-4.22h1.81v9.98h-1.81v-4.24h-4.61v4.24h-1.8Z"/><path class="cls-1" d="M237.38,48.15h1.8v6.52c0,.71-.17,1.34-.51,1.89-.33.54-.8.97-1.41,1.27-.61.3-1.31.45-2.12.45s-1.52-.15-2.13-.45c-.61-.31-1.08-.73-1.41-1.27-.33-.54-.5-1.17-.5-1.89v-6.52h1.8v6.37c0,.42.09.79.27,1.11.18.32.44.58.78.77.33.18.73.27,1.18.27s.85-.09,1.19-.27c.34-.19.6-.44.78-.77.18-.32.27-.7.27-1.11v-6.37Z"/><path class="cls-1" d="M241.15,58.13v-9.98h3.81c.72,0,1.32.11,1.79.34.48.22.84.53,1.07.92.24.39.36.83.36,1.33,0,.41-.08.75-.23,1.04-.15.29-.36.52-.63.7-.26.18-.56.31-.88.38v.1c.35.02.69.13,1.02.33.33.19.59.47.8.83.21.36.31.79.31,1.3s-.12.98-.37,1.39c-.25.41-.62.73-1.13.97-.5.24-1.13.36-1.9.36h-4.03ZM242.95,56.62h1.94c.65,0,1.13-.12,1.41-.38.29-.25.44-.58.44-.97,0-.3-.07-.56-.22-.8-.15-.24-.35-.43-.62-.57-.27-.14-.59-.21-.96-.21h-1.99v2.92ZM242.95,52.4h1.78c.31,0,.59-.06.84-.17.25-.12.45-.28.59-.49.15-.21.22-.47.22-.76,0-.39-.14-.7-.41-.96-.27-.25-.67-.38-1.2-.38h-1.82v2.75Z"/></svg>