<?xml version="1.0" encoding="UTF-8"?><svg id="Layer_1" xmlns="http://www.w3.org/2000/svg" xmlns:xlink="http://www.w3.org/1999/xlink" viewBox="0 0 100 100"><defs><style>.cls-1{fill:#fff;}.cls-2{clip-path:url(#clippath);}.cls-3{fill:none;}</style><clipPath id="clippath"><rect class="cls-3" x="14.61" y="-.01" width="70" height="100"/></clipPath></defs><g class="cls-2"><path class="cls-1" d="m53.4,87.76c1.44-.18,2.89-.36,4.33-.72,1.44-.36,2.89-.9,4.33-1.62,1.44-.72,2.53-1.62,3.61-2.7.9-1.08,1.62-2.16,2.16-3.24.54-1.26.9-2.52,1.08-3.6.18-1.26.36-2.52.54-3.6v-38.31c0-8.27,6.86-15.11,15.15-15.11v51.98c0,3.42-.36,7.01-1.26,10.43-.72,3.6-2.71,6.83-5.77,10.07-1.98,1.98-4.15,3.6-6.68,4.86-2.53,1.08-5.05,1.98-7.58,2.52-2.53.54-5.05.9-7.4,1.08-2.35.18-4.51.18-6.31.18s-3.97,0-6.31-.18c-2.35-.18-4.87-.54-7.4-1.08-2.53-.54-5.05-1.44-7.58-2.52-2.53-1.08-4.69-2.7-6.68-4.86-3.07-3.06-5.05-6.47-5.77-10.07-.72-3.6-1.26-7.01-1.26-10.43v-36.87c0-8.27,6.86-15.11,15.15-15.11v50c0,2.16.18,4.5.54,7.19.36,2.52,1.44,4.86,3.43,6.83,1.08,1.08,2.35,1.98,3.61,2.7,1.26.72,2.71,1.26,4.15,1.62,1.44.36,2.89.54,4.33.72s2.71.18,3.79.18c1.26-.18,2.53-.18,3.79-.36v.02Z"/><path class="cls-1" d="m56.65,12.76v-6.47C56.65,2.87,59.54,0,62.96,0h9.02v6.47c0,3.42-2.89,6.29-6.31,6.29h-9.02Zm-27.06-.18v-6.29C29.59,2.87,32.48,0,35.9,0h9.02v6.47c0,3.42-2.89,6.29-6.31,6.29h-9.02v-.18Z"/></g></svg>