<?xml version="1.0" encoding="UTF-8"?><svg id="Layer_1" xmlns="http://www.w3.org/2000/svg" viewBox="0 0 380 114"><defs><style>.cls-1{fill:#fff;}.cls-2{fill:#1b1c1e;}.cls-3{fill-rule:evenodd;}.cls-3,.cls-4{fill:#ffa400;}</style></defs><path class="cls-3" d="m73.83,89.31c-4.66,1.93-9.5,2.83-14.26,2.83-14.27,0-27.88-8.17-33.84-21.66-1.94-4.39-2.85-8.95-2.89-13.46.04-4.5.95-9.06,2.89-13.46,5.97-13.49,19.57-21.66,33.84-21.66,4.76,0,9.6.91,14.26,2.83.73.36,1.6.71,2.33,1.07l7.46-13.86-3.55-1.66c-1.23-.48-2.57-.83-3.8-1.3,0-2.37,0-4.73-.24-7.1-2.94-.83-5.99-1.42-9.06-1.78-1.1,2.13-2.08,4.15-3.07,6.39l-4.04-.23-4.04.12c-.98-2.13-1.96-4.27-3.07-6.39-3.06.36-6.12.83-9.18,1.66-.24,2.37-.37,4.73-.37,7.1-1.34.48-2.57.83-3.8,1.3l-3.67,1.66c-1.71-1.78-3.43-3.31-5.27-4.86-2.81,1.42-5.38,3.08-7.83,4.97l.03.09c.72,2.21,1.45,4.44,2.41,6.54l-2.94,2.6-2.7,2.85c-2.2-.94-4.53-1.78-6.85-2.49-1.96,2.37-3.67,4.86-5.27,7.46,1.6,1.78,3.18,3.56,4.9,5.21l-1.71,3.43c-.49,1.19-.86,2.49-1.34,3.67-2.44,0-4.9,0-7.35.23-.86,2.85-1.47,5.8-1.84,8.76,2.2,1.07,4.41,2.01,6.61,2.96l-.24,3.86.24,3.86c-2.2.94-4.41,1.89-6.61,2.96.37,2.96.98,5.92,1.84,8.76,2.44.23,4.9.23,7.35.23.49,1.19.86,2.49,1.34,3.67l1.71,3.43c-1.71,1.66-3.31,3.43-4.9,5.21,1.6,2.6,3.31,5.09,5.27,7.46,2.33-.71,4.65-1.55,6.85-2.49l2.7,2.85,2.94,2.6c-.98,2.13-1.71,4.38-2.44,6.64,2.44,1.89,5.02,3.56,7.83,4.97,1.84-1.54,3.55-3.08,5.27-4.86l3.67,1.66c1.23.48,2.44.83,3.8,1.3,0,2.37.13,4.74.37,7.1,3.07.83,6.12,1.3,9.18,1.66,1.1-2.13,2.08-4.27,3.07-6.39l4.04.12,4.04-.23c.98,2.25,1.96,4.27,3.07,6.39,3.06-.36,6.12-.94,9.06-1.78.24-2.37.24-4.74.24-7.1,1.23-.48,2.57-.83,3.8-1.3l3.55-1.66-7.46-13.86c-.73.36-1.6.71-2.33,1.07v.05Zm3.55,12.78c.6-.2,1.17-.38,1.68-.58v-.02l1.13-.53-5.14-9.53-.08.04-.06.04-.06.02c-4.86,2.01-9.99,3.03-15.25,3.03-15.76,0-29.94-9.09-36.16-23.15-2.05-4.64-3.08-9.51-3.12-14.41.04-4.91,1.06-9.78,3.12-14.41,6.21-14.06,20.4-23.15,36.16-23.15,5.26,0,10.39,1.02,15.25,3.03l.06.02.06.04.08.04,1.98-3.67c.39.17.79.33,1.18.52l1.1-2.21c-.35-.17-.73-.32-1.1-.48l1.99-3.69-1.13-.53c-.53-.21-1.09-.38-1.68-.58-.67-.21-1.36-.44-2.04-.7l-1.58-.61v-1.66c0-1.79,0-3.51-.1-5.2-1.7-.42-3.44-.76-5.22-1.02-.82,1.64-1.52,3.14-2.19,4.69l-.7,1.59-1.79-.11-3.93-.23-3.93.11-1.7.05-.68-1.5c-.72-1.56-1.46-3.15-2.23-4.73-2.01.27-3.74.58-5.34.94-.14,1.73-.2,3.46-.2,5.18v1.72l-1.66.59c-.56.2-1.09.37-1.61.54-.72.23-1.39.47-2.05.71l-3.61,1.63-1.66.75-1.25-1.3c-1.15-1.19-2.34-2.32-3.76-3.56-1.55.86-3.05,1.82-4.55,2.89.54,1.64,1.11,3.23,1.81,4.75l.73,1.61-1.34,1.19-2.86,2.54-2.62,2.76-1.23,1.3-1.66-.71c-1.53-.66-3.18-1.29-4.93-1.86-1.04,1.34-2.05,2.77-3.05,4.34,1.18,1.3,2.34,2.55,3.57,3.74l1.27,1.23-.79,1.56-1.67,3.36c-.22.5-.39,1.04-.6,1.62-.22.65-.44,1.31-.72,1.97l-.63,1.53h-1.71c-1.85,0-3.61,0-5.37.1-.43,1.64-.79,3.32-1.05,5.04,1.63.75,3.28,1.46,4.89,2.15l1.6.69-.1,1.69-.23,3.72.23,3.72.1,1.69-1.6.69c-1.61.69-3.25,1.4-4.89,2.15.27,1.72.62,3.4,1.05,5.04,1.75.1,3.52.1,5.37.1h1.71l.63,1.53c.27.66.49,1.32.72,1.97.2.56.39,1.12.6,1.62l1.67,3.36.79,1.56-1.27,1.23c-1.24,1.19-2.39,2.44-3.57,3.74,1,1.57,2.01,3.01,3.05,4.34,1.75-.59,3.39-1.2,4.93-1.86l1.66-.71,1.23,1.3,2.62,2.76,2.86,2.54,1.34,1.19-.73,1.61c-.7,1.51-1.25,3.09-1.81,4.75,1.49,1.08,3,2.04,4.55,2.89,1.42-1.24,2.62-2.37,3.76-3.56l1.25-1.3,1.66.75,3.61,1.63c.66.26,1.33.48,2.05.71.52.17,1.05.34,1.61.54l1.66.59v1.72c0,1.72.06,3.45.2,5.18,1.61.37,3.34.67,5.34.94.79-1.58,1.52-3.18,2.23-4.74l.68-1.5,1.7.05,3.93.11,3.93-.23,1.79-.11.7,1.59c.67,1.55,1.37,3.04,2.19,4.69,1.77-.26,3.52-.6,5.22-1.02.1-1.69.1-3.41.1-5.2v-1.66l1.58-.61c.68-.26,1.37-.48,2.04-.7Z"/><path class="cls-4" d="m79.06,101.51c-.52.2-1.09.38-1.68.58-.67.22-1.36.44-2.04.7l-1.58.61v1.66c0,1.79,0,3.51-.1,5.2-1.7.42-3.44.76-5.22,1.02-.82-1.64-1.52-3.14-2.19-4.69l-.7-1.59-1.79.11-3.93.23-3.93-.11-1.7-.05-.68,1.5c-.71,1.56-1.44,3.15-2.23,4.74-2-.27-3.74-.58-5.34-.94-.14-1.73-.2-3.46-.2-5.18v-1.72l-1.66-.59c-.56-.2-1.09-.37-1.61-.54-.72-.23-1.39-.45-2.05-.71l-3.61-1.63-1.66-.75-1.25,1.3c-1.14,1.19-2.34,2.32-3.76,3.56-1.55-.86-3.05-1.82-4.55-2.89.56-1.66,1.11-3.24,1.81-4.75l.73-1.61-1.34-1.19-2.86-2.54-2.62-2.76-1.23-1.3-1.66.71c-1.53.66-3.18,1.28-4.93,1.86-1.04-1.34-2.05-2.77-3.05-4.34,1.18-1.3,2.33-2.55,3.57-3.74l1.27-1.23-.79-1.56-1.67-3.36c-.2-.5-.39-1.05-.6-1.62-.23-.65-.46-1.31-.72-1.97l-.63-1.53h-1.71c-1.85,0-3.62,0-5.37-.1-.43-1.64-.79-3.32-1.05-5.04,1.63-.75,3.28-1.46,4.89-2.15l1.6-.69-.1-1.69-.23-3.72.23-3.72.1-1.69-1.6-.69c-1.61-.69-3.25-1.4-4.89-2.15.27-1.72.62-3.4,1.05-5.04,1.76-.1,3.52-.1,5.37-.1h1.71l.63-1.53c.28-.66.51-1.32.72-1.97.2-.58.38-1.12.6-1.62l1.67-3.36.79-1.56-1.27-1.23c-1.23-1.19-2.39-2.44-3.57-3.74,1-1.57,2.01-3.01,3.05-4.34,1.75.58,3.39,1.2,4.93,1.86l1.66.71,1.23-1.3,2.62-2.76,2.86-2.54,1.34-1.19-.73-1.61c-.7-1.52-1.27-3.1-1.81-4.75,1.49-1.08,3-2.04,4.55-2.89,1.42,1.24,2.61,2.37,3.76,3.56l1.25,1.3,1.66-.75,3.61-1.63c.66-.25,1.33-.48,2.05-.71.52-.17,1.05-.34,1.61-.54l1.66-.59v-1.72c0-1.72.06-3.45.2-5.18,1.61-.37,3.33-.67,5.34-.94.77,1.58,1.51,3.18,2.23,4.73l.68,1.5,1.7-.05,3.93-.11,3.93.23,1.79.11.7-1.59c.67-1.55,1.37-3.04,2.19-4.69,1.77.26,3.52.6,5.22,1.02.1,1.69.1,3.41.1,5.2v1.66l1.58.61c.68.26,1.37.49,2.04.7.6.2,1.15.37,1.68.58l1.13.53-1.99,3.69c.37.16.75.31,1.1.48l-1.1,2.21c-.39-.18-.79-.34-1.18-.52l-1.98,3.67-.08-.04-.06-.04-.06-.02c-4.86-2.01-9.99-3.03-15.25-3.03-15.76,0-29.95,9.09-36.16,23.15-2.05,4.64-3.08,9.51-3.12,14.41.04,4.91,1.06,9.78,3.12,14.41,6.22,14.06,20.4,23.15,36.16,23.15,5.26,0,10.39-1.02,15.25-3.03l.06-.02.06-.04.08-.04,5.14,9.53-1.13.53v.02Z"/><path class="cls-2" d="m79.06,101.51c-.52.2-1.09.38-1.68.58-.67.22-1.36.44-2.04.7l-1.58.61v1.66c0,1.79,0,3.51-.1,5.2-1.7.42-3.44.76-5.22,1.02-.82-1.64-1.52-3.14-2.19-4.69l-.7-1.59-1.79.11-3.93.23-3.93-.11-1.7-.05-.68,1.5c-.71,1.56-1.44,3.15-2.23,4.74-2-.27-3.74-.58-5.34-.94-.14-1.73-.2-3.46-.2-5.18v-1.72l-1.66-.59c-.56-.2-1.09-.37-1.61-.54-.72-.23-1.39-.45-2.05-.71l-3.61-1.63-1.66-.75-1.25,1.3c-1.14,1.19-2.34,2.32-3.76,3.56-1.55-.86-3.05-1.82-4.55-2.89.56-1.66,1.11-3.24,1.81-4.75l.73-1.61-1.34-1.19-2.86-2.54-2.62-2.76-1.23-1.3-1.66.71c-1.53.66-3.18,1.28-4.93,1.86-1.04-1.34-2.05-2.77-3.05-4.34,1.18-1.3,2.33-2.55,3.57-3.74l1.27-1.23-.79-1.56-1.67-3.36c-.2-.5-.39-1.05-.6-1.62-.23-.65-.46-1.31-.72-1.97l-.63-1.53h-1.71c-1.85,0-3.62,0-5.37-.1-.43-1.64-.79-3.32-1.05-5.04,1.63-.75,3.28-1.46,4.89-2.15l1.6-.69-.1-1.69-.23-3.72.23-3.72.1-1.69-1.6-.69c-1.61-.69-3.25-1.4-4.89-2.15.27-1.72.62-3.4,1.05-5.04,1.76-.1,3.52-.1,5.37-.1h1.71l.63-1.53c.28-.66.51-1.32.72-1.97.2-.58.38-1.12.6-1.62l1.67-3.36.79-1.56-1.27-1.23c-1.23-1.19-2.39-2.44-3.57-3.74,1-1.57,2.01-3.01,3.05-4.34,1.75.58,3.39,1.2,4.93,1.86l1.66.71,1.23-1.3,2.62-2.76,2.86-2.54,1.34-1.19-.73-1.61c-.7-1.52-1.27-3.1-1.81-4.75,1.49-1.08,3-2.04,4.55-2.89,1.42,1.24,2.61,2.37,3.76,3.56l1.25,1.3,1.66-.75,3.61-1.63c.66-.25,1.33-.48,2.05-.71.52-.17,1.05-.34,1.61-.54l1.66-.59v-1.72c0-1.72.06-3.45.2-5.18,1.61-.37,3.33-.67,5.34-.94.77,1.58,1.51,3.18,2.23,4.73l.68,1.5,1.7-.05,3.93-.11,3.93.23,1.79.11.7-1.59c.67-1.55,1.37-3.04,2.19-4.69,1.77.26,3.52.6,5.22,1.02.1,1.69.1,3.41.1,5.2v1.66l1.58.61c.68.26,1.37.49,2.04.7.6.2,1.15.37,1.68.58l1.13.53-1.99,3.69c.37.16.75.31,1.1.48l-1.1,2.21c-.39-.18-.79-.34-1.18-.52l-1.98,3.67-.08-.04-.06-.04-.06-.02c-4.86-2.01-9.99-3.03-15.25-3.03-15.76,0-29.95,9.09-36.16,23.15-2.05,4.64-3.08,9.51-3.12,14.41.04,4.91,1.06,9.78,3.12,14.41,6.22,14.06,20.4,23.15,36.16,23.15,5.26,0,10.39-1.02,15.25-3.03l.06-.02.06-.04.08-.04,5.14,9.53-1.13.53v.02Z"/><path class="cls-4" d="m58.92,28.81c4.76,0,9.59,1.23,13.96,3.53l1.22-2.16c-4.74-2.5-9.98-3.83-15.17-3.83-17.47,0-31.66,13.75-31.66,30.67s14.2,30.66,31.66,30.66c5.22,0,10.46-1.32,15.17-3.83l-1.22-2.15c-4.34,2.31-9.17,3.53-13.96,3.53-16.06,0-29.13-12.66-29.13-28.21s13.07-28.21,29.13-28.21h0Z"/><path class="cls-4" d="m12.98,57.02h2.53c0-22.61,20.16-41.7,44.04-41.7,5.98,0,11.98,1.25,17.45,3.59.39.17.8.33,1.18.52l1.1-2.21c-.37-.17-.73-.32-1.1-.48-5.84-2.53-12.25-3.88-18.63-3.88-25.24,0-46.57,20.23-46.57,44.16Z"/><path class="cls-1" d="m76.09,76.72v-39.1h4.32l11.22,34.25h.17l11.25-34.25h4.33v39.1h-3.33v-17.16l.33-15.98-.17-.02-11.39,33.17h-2.22l-11.36-33.12-.16.02.34,15.92v17.16h-3.33Z"/><path class="cls-1" d="m114.17,64.74v-4.83c0-3.67,1.03-6.72,3.09-9.15,2.07-2.43,4.55-3.64,7.46-3.64,3.14,0,5.57,1.09,7.31,3.26,1.74,2.17,2.61,5.1,2.61,8.77v3.2h-17.14v2.39c0,2.8.7,5.11,2.08,6.97,1.38,1.85,3.25,2.78,5.62,2.78,1.65,0,3.07-.28,4.26-.83,1.19-.55,2.22-1.35,3.07-2.37l1.35,2.28c-.9,1.13-2.08,2.02-3.51,2.7-1.43.67-3.15,1.01-5.17,1.01-3.24,0-5.89-1.18-7.94-3.53-2.05-2.36-3.08-5.36-3.08-9.02h-.01Zm3.33-5.19h13.81v-1.24c0-2.4-.58-4.39-1.75-5.97-1.16-1.58-2.77-2.38-4.84-2.38s-3.8.92-5.13,2.77c-1.33,1.85-2.04,4.12-2.09,6.82Z"/><path class="cls-1" d="m139.18,64.47v-4.51c0-3.74.93-6.82,2.79-9.22,1.86-2.4,4.52-3.61,7.98-3.61,2.81,0,5.12.94,6.93,2.85,1.77,1.83,2.65,4.22,2.63,7.18v.27l-.05.13h-2.96c0-2.31-.62-4.15-1.88-5.52-1.25-1.37-2.81-2.06-4.67-2.06-2.58,0-4.47.94-5.66,2.83-1.19,1.89-1.77,4.28-1.77,7.16v4.51c0,2.92.6,5.32,1.77,7.2,1.18,1.88,3.07,2.82,5.66,2.82,1.74,0,3.27-.6,4.57-1.82,1.3-1.21,1.98-2.88,1.98-5h2.94l.09.16v.22c0,2.58-.94,4.76-2.8,6.53-1.93,1.82-4.18,2.71-6.76,2.71-3.46,0-6.12-1.2-7.98-3.58-1.86-2.39-2.79-5.47-2.79-9.22v-.02Z"/><path class="cls-1" d="m191.35,68.98c0-2.7.98-4.86,2.94-6.46,1.96-1.61,4.61-2.4,7.97-2.4h5.24v-3.57c0-2.06-.53-3.67-1.61-4.83-1.08-1.17-2.57-1.74-4.5-1.74-1.8,0-3.27.55-4.42,1.67-1.15,1.12-1.74,2.47-1.74,4.08l-3.1-.02-.05-.16v-.32c0-2.06.85-3.9,2.55-5.51,1.81-1.72,4.12-2.58,6.93-2.58s5.01.82,6.71,2.45c1.7,1.64,2.54,3.97,2.54,7.03v14.27c0,1.2.06,2.24.2,3.15.14.91.27,1.8.39,2.7h-3.42c-.14-.99-.27-1.82-.35-2.48-.1-.66-.14-1.31-.14-1.95-.91,1.45-2.09,2.65-3.53,3.58-1.44.94-3.07,1.41-4.84,1.41-2.48,0-4.4-.75-5.74-2.24-1.35-1.5-2.03-3.52-2.03-6.06h-.01Zm3.33.11c0,1.56.43,2.83,1.28,3.81.85.98,2.04,1.47,3.57,1.47,1.85,0,3.5-.52,4.93-1.55,1.43-1.03,2.44-2.34,3.04-3.94v-6.28h-5.32c-2.28,0-4.09.63-5.45,1.86-1.35,1.24-2.04,2.78-2.04,4.6h-.01Z"/><path class="cls-1" d="m218.41,76.72v-29.06h2.96l.28,4.81c.8-1.7,1.85-3.02,3.18-3.95,1.32-.93,2.88-1.4,4.65-1.4,2.67,0,4.72.96,6.16,2.88,1.43,1.93,2.14,4.92,2.14,8.98v17.72h-3.33v-17.7c0-3.31-.49-5.64-1.5-6.98-1-1.34-2.44-2.01-4.36-2.01-1.7,0-3.13.54-4.27,1.62s-2,2.53-2.58,4.34v20.73h-3.33Z"/><path class="cls-1" d="m245.62,39.39v-4.56h3.33v4.56h-3.33Zm0,37.34v-29.06h3.33v29.06h-3.33Z"/><path class="cls-1" d="m255.33,76.72v-2.42l14.2-23.77h-13.87v-2.87h17.67v2.44l-14.29,23.82s19.62.27,20.88,10.08c-6.33-8.59-24.6-7.29-24.6-7.29Z"/><path class="cls-1" d="m278.7,68.98c0-2.7.98-4.86,2.94-6.46,1.96-1.61,4.61-2.4,7.95-2.4h5.24v-3.57c0-2.06-.53-3.67-1.61-4.83-1.08-1.17-2.57-1.74-4.5-1.74-1.8,0-3.27.55-4.42,1.67-1.15,1.12-1.74,2.47-1.74,4.08l-3.1-.02-.05-.16v-.32c0-2.06.85-3.9,2.54-5.51,1.81-1.72,4.12-2.58,6.93-2.58s5.02.82,6.71,2.45c1.7,1.64,2.55,3.97,2.55,7.03v14.27c0,1.2.06,2.24.2,3.15.14.91.27,1.8.39,2.7h-3.42c-.14-.99-.27-1.82-.35-2.48-.1-.66-.14-1.31-.14-1.95-.91,1.45-2.09,2.65-3.53,3.58-1.46.94-3.06,1.41-4.84,1.41-2.48,0-4.39-.75-5.74-2.24-1.36-1.5-2.03-3.52-2.03-6.06h0Zm3.33.11c0,1.56.43,2.83,1.28,3.81.85.98,2.04,1.47,3.57,1.47,1.85,0,3.48-.52,4.93-1.55,1.43-1.03,2.45-2.34,3.04-3.94v-6.28h-5.32c-2.28,0-4.09.63-5.45,1.86-1.36,1.24-2.04,2.78-2.04,4.6h-.01Z"/><path class="cls-1" d="m303.15,50.38v-2.71h4.19v-7.41h3.33v7.41h5.24v2.71h-5.24v18.85c0,1.88.28,3.21.84,4,.56.78,1.28,1.18,2.19,1.18.44,0,.87-.02,1.3-.09.43-.05.9-.13,1.44-.25l.44,2.47c-.44.21-1.02.39-1.73.53-.71.13-1.43.2-2.15.2-1.77,0-3.15-.65-4.15-1.94-1-1.29-1.49-3.34-1.49-6.12v-18.85h-4.19v.02Z"/><path class="cls-1" d="m322.52,39.39v-4.56h3.33v4.56h-3.33Zm0,37.34v-29.06h3.33v29.06h-3.33Z"/><path class="cls-1" d="m332.37,64.35v-4.27c0-3.75,1-6.86,2.99-9.3,1.99-2.44,4.67-3.66,8.03-3.66s6.04,1.21,8.04,3.64c2,2.43,3,5.53,3,9.31v4.27c0,3.81-1,6.93-2.99,9.33-1.99,2.4-4.67,3.62-8.03,3.62s-6.07-1.2-8.05-3.62c-1.99-2.42-2.99-5.52-2.99-9.33Zm3.33,0c0,2.91.67,5.32,2,7.25,1.33,1.94,3.24,2.91,5.73,2.91s4.32-.97,5.66-2.92c1.35-1.94,2.03-4.35,2.03-7.24v-4.27c0-2.85-.67-5.24-2.03-7.19-1.36-1.94-3.26-2.92-5.7-2.92s-4.36.97-5.7,2.92c-1.33,1.94-2,4.34-2,7.19v4.27h.01Z"/><path class="cls-1" d="m360.64,76.72v-29.06h2.96l.28,4.81c.8-1.7,1.85-3.02,3.18-3.95,1.32-.93,2.88-1.4,4.65-1.4,2.67,0,4.72.96,6.16,2.88,1.43,1.93,2.14,4.92,2.14,8.98v17.72h-3.33v-17.7c0-3.31-.49-5.64-1.49-6.98-1-1.34-2.44-2.01-4.36-2.01-1.7,0-3.13.54-4.27,1.62-1.14,1.08-2,2.53-2.58,4.34v20.73h-3.33Z"/><path class="cls-1" d="m165.54,76.72v-41.9h3.33v17.43c.84-1.63,1.91-2.89,3.26-3.79,1.34-.9,2.88-1.34,4.58-1.34,2.63,0,4.66.94,6.08,2.83,1.42,1.89,2.13,4.83,2.13,8.82v17.95h-3.33v-17.99c0-3.12-.49-5.35-1.48-6.68-.99-1.34-2.41-2.01-4.26-2.01-1.66,0-3.09.52-4.27,1.55-1.18,1.03-2.09,2.4-2.72,4.12v21.02h-3.33.01Z"/></svg>