<svg viewBox="0 0 526 172" fill="none" xmlns="http://www.w3.org/2000/svg">
<path d="M171.246 0C188.797 6.18502 204.728 16.4678 219.038 30.8525C244.253 56.0872 256.86 86.849 256.86 123.138C256.86 140.691 253.854 156.978 247.845 172H139.022L116.495 143.069H172.642L194.831 171.709C204.805 156.97 209.792 140.668 209.792 122.803C209.792 99.4664 201.891 79.6467 186.09 63.3447C170.288 47.0427 151.18 38.8917 128.767 38.8916C105.681 38.8917 86.3489 46.8195 70.7715 62.6748C55.1941 78.5302 47.4054 98.6847 47.4053 123.138C47.4053 142.218 52.2156 158.506 61.835 172H9.375C3.1265 156.67 4.10627e-05 140.104 0 122.301C1.06916e-05 98.7409 5.71553 77.1343 17.1465 57.4824C28.5774 37.7191 44.2669 22.0313 64.2148 10.4189C71.5594 6.16733 79.0997 2.69503 86.835 0H171.246Z" fill="white"/>
<path d="M350.239 0C356.713 3.07442 362.666 7.16047 368.097 12.2607C381.881 25.1014 388.773 40.3434 388.773 57.9854C388.773 68.9277 385.748 78.9216 379.696 87.9658C373.757 97.0101 365.071 104.323 353.64 109.906C368.657 114.373 380.368 122.189 388.773 133.354C397.187 144.275 401.442 157.157 401.544 172H355.147C355.038 161 350.167 151.691 340.527 144.074C330.777 136.37 316.713 132.406 298.334 132.183V91.9854C309.653 91.0921 318.058 89.3611 323.55 86.793C329.153 84.1132 333.467 80.484 336.493 75.9062C339.631 71.3283 341.2 66.4711 341.2 61.335C341.2 54.6355 338.846 49.1086 334.14 44.7539C329.433 40.2876 323.269 38.0537 315.648 38.0537C308.924 38.0537 302.816 40.1198 297.325 44.251C291.834 48.2707 288.08 53.519 286.062 59.9951H240.843C243.196 41.7949 249.752 27.1674 260.511 16.1133C267.264 9.18355 274.801 3.81327 283.118 0H350.239Z" fill="white"/>
<path d="M526 42.4092H455.949L445.862 87.2959C448.664 86.5143 451.41 85.9561 454.1 85.6211C456.789 85.1745 459.367 84.9512 461.832 84.9512C484.246 84.9512 502.85 92.5993 517.643 107.896C520.753 111.066 523.538 114.423 526 117.967V172H493.804C493.893 170.757 493.94 169.488 493.94 168.192C493.94 156.803 490.522 147.479 483.686 140.222C476.961 132.852 468.78 129.167 459.143 129.167C453.988 129.167 448.889 130.452 443.846 133.02C438.915 135.588 434.04 139.44 429.221 144.576L390.893 136.034L420.64 0H526V42.4092Z" fill="white"/>
</svg>
