<svg width="20" height="18" viewBox="0 0 20 18" fill="none" xmlns="http://www.w3.org/2000/svg">
<path d="M8.05556 8.28255C9.54861 8.74792 10.2778 10.0277 10.2778 11.7341C10.2778 14.5263 8.19444 15.7285 5.9375 15.7285H0V2H5.79861C7.88194 2 9.72222 2.65928 9.72222 5.41274C9.72222 6.77008 9.13194 7.66205 8.05556 8.28255ZM2.67361 4.32687V7.54571H5.41667C6.38889 7.54571 7.08333 7.08033 7.08333 5.9169C7.08333 4.63712 6.21528 4.32687 5.24306 4.32687H2.67361ZM5.59028 13.4017C6.66667 13.4017 7.56944 12.9751 7.56944 11.5789C7.56944 10.1828 6.84028 9.60111 5.625 9.60111H2.67361V13.4017H5.59028ZM18.0208 4.0554H13.0556V2.69806H18.0208V4.0554ZM20 10.9197C20 11.0748 19.9653 11.2687 19.9653 11.4238H13.5417C13.5417 13.0139 14.3056 13.9446 15.7292 13.9446C16.4583 13.9446 17.4306 13.518 17.6736 12.6648H19.8264C19.1667 14.9141 17.7778 16 15.6597 16C12.8472 16 11.0764 13.867 11.0764 10.7645C11.0764 7.77839 12.9167 5.4903 15.6597 5.4903C18.4375 5.4903 20 7.9723 20 10.9197ZM13.5417 9.67867H17.5347C17.4306 8.36011 16.8056 7.58449 15.5556 7.58449C14.4097 7.58449 13.6111 8.39889 13.5417 9.67867Z" fill="#8BB3C3"/>
</svg>
