<svg width="20" height="18" viewBox="0 0 20 18" fill="none" xmlns="http://www.w3.org/2000/svg">
<path fill-rule="evenodd" clip-rule="evenodd" d="M8.04939 1C6.36323 1 5 2.39697 5 4.11562C5 5.10494 5.45151 5.98708 6.15573 6.55784C5.45152 7.12861 5 8.01073 5 9.00006C5 9.98934 5.45148 10.8715 6.15565 11.4422C5.45148 12.013 5 12.8951 5 13.8844C5 15.6087 6.38425 17 8.06478 17C9.76246 17 11.1608 15.5945 11.1608 13.8527V11.5677C11.6518 11.9131 12.2471 12.1157 12.8886 12.1157H12.9506C14.6368 12.1157 16 10.7187 16 9.00006C16 8.01073 15.5485 7.12861 14.8443 6.55784C15.5485 5.98708 16 5.10494 16 4.11562C16 2.39697 14.6368 1 12.9506 1H8.04939ZM6.32161 4.11562C6.32161 3.13672 7.09718 2.34688 8.04939 2.34688H9.83919V5.88436H8.04939C7.09718 5.88436 6.32161 5.09454 6.32161 4.11562ZM12.9506 5.88436H11.1608V2.34688H12.9506C13.9028 2.34688 14.6784 3.13672 14.6784 4.11562C14.6784 5.09454 13.9028 5.88436 12.9506 5.88436ZM6.32161 9.00006C6.32161 8.02116 7.09718 7.23131 8.04939 7.23131H9.83919V10.7687H8.04939L8.03779 10.7688C7.09091 10.7624 6.32161 9.97499 6.32161 9.00006ZM11.1608 9.00006C11.1608 8.02116 11.9364 7.23131 12.8886 7.23131H12.9506C13.9028 7.23131 14.6784 8.02116 14.6784 9.00006C14.6784 9.97896 13.9028 10.7688 12.9506 10.7688H12.8886C11.9364 10.7688 11.1608 9.97896 11.1608 9.00006ZM6.32161 13.8844C6.32161 12.9092 7.09121 12.1217 8.03833 12.1157L8.04252 12.1157L8.04939 12.1157H9.83919V13.8527C9.83919 14.8436 9.03954 15.6531 8.06478 15.6531C7.10718 15.6531 6.32161 14.8578 6.32161 13.8844Z" fill="#F1D5AB"/>
</svg>
