<svg width="20" height="18" viewBox="0 0 20 18" fill="none" xmlns="http://www.w3.org/2000/svg">
<path d="M7.45102 13.8842C7.45102 13.9503 7.38495 13.9833 7.28584 13.9833C7.18673 14.0164 7.12065 13.9503 7.12065 13.8842C7.12065 13.8182 7.18673 13.7521 7.28584 13.7521C7.38495 13.7521 7.45102 13.8182 7.45102 13.8842ZM6.42689 13.719C6.45992 13.653 6.55903 13.6199 6.65814 13.653C6.75725 13.686 6.79029 13.7521 6.79029 13.8182C6.75725 13.8842 6.65814 13.9173 6.59207 13.8842C6.49296 13.8842 6.42689 13.7851 6.42689 13.719ZM7.91353 13.686C7.9796 13.653 8.07871 13.719 8.07871 13.7851C8.11175 13.8512 8.04567 13.8842 7.94657 13.9173C7.84746 13.9503 7.74835 13.9173 7.74835 13.8512C7.74835 13.7521 7.81442 13.686 7.91353 13.686ZM10.0609 1C14.653 1 18.3861 4.50187 18.3861 9.0609C18.3861 12.7279 16.1396 15.8664 12.836 16.9566C12.4065 17.0557 12.2413 16.7914 12.2413 16.5602C12.2413 16.2959 12.2743 14.9084 12.2743 13.8182C12.2743 13.0253 12.0101 12.5297 11.7127 12.2654C13.5628 12.0672 15.5119 11.8029 15.5119 8.63143C15.5119 7.7064 15.1816 7.27693 14.653 6.68227C14.719 6.45102 15.0164 5.59207 14.5539 4.43579C13.8601 4.20454 12.2743 5.32778 12.2743 5.32778C11.6136 5.12956 10.9198 5.06349 10.193 5.06349C9.49928 5.06349 8.80551 5.12956 8.14478 5.32778C8.14478 5.32778 6.526 4.23757 5.86527 4.43579C5.40276 5.59207 5.66705 6.45102 5.76616 6.68227C5.23757 7.27693 4.97328 7.7064 4.97328 8.63143C4.97328 11.8029 6.85636 12.0672 8.7064 12.2654C8.44211 12.4967 8.24389 12.8601 8.17782 13.3887C7.68227 13.6199 6.49296 13.9833 5.76616 12.6949C5.30365 11.902 4.47774 11.836 4.47774 11.836C3.68486 11.836 4.4447 12.3645 4.4447 12.3645C4.97328 12.5958 5.33668 13.5539 5.33668 13.5539C5.83223 15.0405 8.14478 14.545 8.14478 14.545C8.14478 15.2387 8.14478 16.362 8.14478 16.5932C8.14478 16.7914 8.01264 17.0557 7.58316 16.9897C4.27952 15.8664 2 12.7279 2 9.0609C2 4.50187 5.50187 1 10.0609 1ZM5.20454 12.3976C5.23757 12.3645 5.30365 12.3976 5.36972 12.4306C5.43579 12.4967 5.43579 12.5958 5.40276 12.6288C5.33668 12.6619 5.27061 12.6288 5.20454 12.5958C5.1715 12.5297 5.13847 12.4306 5.20454 12.3976ZM4.84114 12.1333C4.87417 12.1003 4.90721 12.1003 4.97328 12.1333C5.03936 12.1663 5.07239 12.1994 5.07239 12.2324C5.03936 12.2985 4.97328 12.2985 4.90721 12.2654C4.84114 12.2324 4.8081 12.1994 4.84114 12.1333ZM5.8983 13.3226C5.96438 13.2565 6.06349 13.2896 6.12956 13.3556C6.19563 13.4217 6.19563 13.5208 6.1626 13.5539C6.12956 13.6199 6.03045 13.5869 5.96438 13.5208C5.86527 13.4548 5.86527 13.3556 5.8983 13.3226ZM5.5349 12.8271C5.60098 12.794 5.66705 12.8271 5.73312 12.8931C5.76616 12.9592 5.76616 13.0583 5.73312 13.0913C5.66705 13.1244 5.60098 13.0913 5.5349 13.0253C5.46883 12.9592 5.46883 12.8601 5.5349 12.8271Z" fill="#8BB3C3"/>
</svg>
