<svg width="20" height="18" viewBox="0 0 20 18" fill="none" xmlns="http://www.w3.org/2000/svg">
<path d="M10.0179 4.875C12.2679 4.875 14.125 6.73214 14.125 8.98214C14.125 11.2679 12.2679 13.0893 10.0179 13.0893C7.73214 13.0893 5.91071 11.2679 5.91071 8.98214C5.91071 6.73214 7.73214 4.875 10.0179 4.875ZM10.0179 11.6607C11.4821 11.6607 12.6607 10.4821 12.6607 8.98214C12.6607 7.51786 11.4821 6.33929 10.0179 6.33929C8.51786 6.33929 7.33929 7.51786 7.33929 8.98214C7.33929 10.4821 8.55357 11.6607 10.0179 11.6607ZM15.2321 4.73214C15.2321 5.26786 14.8036 5.69643 14.2679 5.69643C13.7321 5.69643 13.3036 5.26786 13.3036 4.73214C13.3036 4.19643 13.7321 3.76786 14.2679 3.76786C14.8036 3.76786 15.2321 4.19643 15.2321 4.73214ZM17.9464 5.69643C18.0179 7.01786 18.0179 10.9821 17.9464 12.3036C17.875 13.5893 17.5893 14.6964 16.6607 15.6607C15.7321 16.5893 14.5893 16.875 13.3036 16.9464C11.9821 17.0179 8.01786 17.0179 6.69643 16.9464C5.41071 16.875 4.30357 16.5893 3.33929 15.6607C2.41071 14.6964 2.125 13.5893 2.05357 12.3036C1.98214 10.9821 1.98214 7.01786 2.05357 5.69643C2.125 4.41071 2.41071 3.26786 3.33929 2.33929C4.30357 1.41071 5.41071 1.125 6.69643 1.05357C8.01786 0.982143 11.9821 0.982143 13.3036 1.05357C14.5893 1.125 15.7321 1.41071 16.6607 2.33929C17.5893 3.26786 17.875 4.41071 17.9464 5.69643ZM16.2321 13.6964C16.6607 12.6607 16.5536 10.1607 16.5536 8.98214C16.5536 7.83929 16.6607 5.33929 16.2321 4.26786C15.9464 3.58929 15.4107 3.01786 14.7321 2.76786C13.6607 2.33929 11.1607 2.44643 10.0179 2.44643C8.83929 2.44643 6.33929 2.33929 5.30357 2.76786C4.58929 3.05357 4.05357 3.58929 3.76786 4.26786C3.33929 5.33929 3.44643 7.83929 3.44643 8.98214C3.44643 10.1607 3.33929 12.6607 3.76786 13.6964C4.05357 14.4107 4.58929 14.9464 5.30357 15.2321C6.33929 15.6607 8.83929 15.5536 10.0179 15.5536C11.1607 15.5536 13.6607 15.6607 14.7321 15.2321C15.4107 14.9464 15.9821 14.4107 16.2321 13.6964Z" fill="#8BB3C3"/>
</svg>
