<?xml version="1.0" encoding="UTF-8"?><svg id="Layer_1" xmlns="http://www.w3.org/2000/svg" xmlns:xlink="http://www.w3.org/1999/xlink" viewBox="0 0 200 100"><defs><style>.cls-1{fill:url(#linear-gradient);}</style><linearGradient id="linear-gradient" x1="3.18" y1="63.84" x2="204.29" y2="35.34" gradientUnits="userSpaceOnUse"><stop offset=".54" stop-color="#fff"/><stop offset=".84" stop-color="#fff" stop-opacity=".62"/><stop offset="1" stop-color="#fff" stop-opacity=".43"/></linearGradient></defs><path class="cls-1" d="m199.63.67c-.66-.62-1.98-.74-3.26-.63-2.36.21-4.29.91-5.95,1.91-3.76,2.33-6.43,5.3-8.58,8.62-.57.87-1.34,1.38-2.38,1.81,0,0,0,0,0,0-2.72.84-6.81,3.12-9.69,3.99,0-.38-.08-.59,0-.79,1.53-3.85,3.7-7.43,6.96-10.46,1.39-1.28,3.05-2.35,5.28-2.74,1.72-.3,2.43.1,2.3,1.08-.05.36,1.46-.86,1.35-1.19-.18-.54-1.17-1.29-3.65-.67-1.79.46-3.64,1.25-5,2.26-4.33,3.23-6.46,7.55-8.64,12-.58,1.18-1.38,1.77-2.7,2.42-1.61.8-3.13,1.83-4.59,2.89-.98.7-3.98,4.41,1.18,4.16-.83.95-1.76,1.91-2.82,2.82-1.13.85-2.8,1.51-3.87,1.83.23-.56.4-.96.58-1.37,1.06-2.39,2.25-4.7,1.67-7.07-.66-2.74-4.11-3.83-7.65-2.21-2.52,1.18-4.29,2.69-5.17,4.59,0,0,0-.02-.01-.02-.05.16-.12.34-.2.52-.02.07-.06.13-.08.2-.63,1.48-1.71,3.43-2.01,3.94-1.11,1.87-2.6,4.21-3.86,6.06-.65.95-1.96,1.72-3.08,2.42-.89.56-1.75.32-1.78-.62-.03-1.22-.09-2.54.4-3.7,1.32-3.09,3.03-6.04,4.57-8.97.33-.62.15-1.38.21-2.07-.79.18-1.66.22-2.35.57-3.58,1.83-6.34,4.49-8.7,7.52-.33.43-.7.83-1.19,1.43-.23-1.17-.4-2.02-.54-2.88-.17-1.09-.69-2.14-1.95-2.09-.94.04-2.2.65-2.87,1.37-1.41,1.5-2.52,3.26-3.72,4.95-.32.45-.63.91-.95,1.37-.13-.05-.25-.1-.38-.15.12-.62.31-1.24.36-1.85.1-1.21.2-2.42.18-3.61-.01-1.07-.68-1.48-1.84-1.33-2.27.29-3.53,1.93-4.38,3.7-2.07,4.32-3.73,8.86-5.45,13.44-.63,1.69-1.38,3.42-2.38,4.93-.99,1.51-2.15,1.23-2.59-.43-.17-.66-.54-1.41-.67-2.08-.3-1.63-.12-2.76.05-4.52.04-.46.46-1.5.08-1.66-.21-.1-1.56.45-1.52.93.19,2.23-1.02,4.4-2.17,6.67-.87,1.72-1.94,3.41-3.15,4.87-1.23,1.49-2.52,1.1-3.16-.72-.17-.5-.27-1.07-.29-1.62-.19-4.99,1.06-9.71,3.7-13.8,1.03-1.6,2.63-2.99,4.23-3.87,2.24-1.23,3.86.03,3.92,2.56.03.94-.05,1.68-.33,2.78.12.04.6.15.72.19.34-.48.88-.94.98-1.44.38-1.96-.12-3.65-1.49-4.85-1.18-1.05-2.78-1.39-4.26-.44-1.53.99-3.21,2.16-4.15,3.72-2.38,3.96-4.39,8.23-6.11,12.65-1.18,3.03-1.92,6.26-3.95,8.8-1.21,1.52-2.3,1.28-2.66-.77-.22-1.3-.23-2.8.1-4.07,1.03-3.98,2.37-7.84,3.74-11.65-2.07.72-4.21,3.48-6.77,1.69.37-1.25.76-2.29.99-3.36.1-.47-.12-1.02-.19-1.54-.44.22-.96.33-1.3.7-.3.32-.43.91-.56,1.4-.4,1.52-.65,3.11-1.12,4.61-1.5,4.74-2.88,9.57-4.17,14.47-.37,1.43-.92,2.85-1.59,4.1-.33.63-1.24,1.25-1.73,1.09-.5-.17-1.02-1.24-1.16-2.04-.23-1.36-.23-2.8-.19-4.21.03-1.03.14-2.05.25-3.06,0,0,.01.01.01.01.16-2,1.8-5.76,1.83-6.31.09-2.44-.25-4.71-2-6.06-1.72-1.34-3.46-1.02-5.16.57-2.42,2.29-3.94,5.46-5.02,9.06-1.47,4.87-2.72,9.87-4.06,14.81-.55,2.02-1.51,3.95-2.57,5.5-.97,1.42-2.35.71-2.81-1.33-.38-1.69-.71-3.63-.48-5.26.59-4.2,1.61-8.23,2.59-12.27.48-1.99,1.71-4.04.35-6.04-.99-1.47-2.77-.93-4.44,1.88-2.15,3.68-3.91,7.81-5.59,11.95-.58,1.42-.88,3.1-1.28,4.67-.19-.14-.38-.29-.57-.43-1.03-4.26-.39-8.09,1.33-11.5,3.36-6.6,6.93-12.98,9.36-20.48.57-1.75.95-3.77,1.02-5.63.11-2.84-1.53-4.07-3.36-2.42-1.37,1.25-2.65,2.9-3.67,4.72-2.47,4.43-3.74,9.73-4.63,15.16-.59,3.55-1.05,7.13-1.37,10.75-.15.27-.31.53-.47.79-.5.8-1.04,1.58-1.55,2.37-.53.82-1.04,1.66-1.49,2.52.17-5.64-1.64-8.86-5.46-9.22-.75-.07-1.52-.18-2.24.04-4.97,1.51-9.91,3.16-14.84,4.74-.98.31-1.99.53-3,.47-1.46-.09-2.39-1.37-2.6-4.14-.32-4.15.55-7.46,2.25-10.09,5.02-7.62,11.34-10.78,17.96-11.77,1.22-.18,2.56.33,3.7,1.02,1.64.97,1.85,3.51.63,5.51-.37.6-.9.94-1.36,1.4.22.24.44.48.66.72,2.01-.23,3.35-4.08,2.37-6.61-1.02-2.64-2.71-3.53-4.57-3.57-7.93-.23-15.23,3.9-20.86,13.51-.83,1.43-1.42,3.51-1.72,5.49-1.02,6.65,1,10.77,4.83,10.8.42,0,.84-.15,1.25-.3,4.38-1.61,8.75-3.32,13.19-4.68,1.75-.54,3.61-.71,5.39-.42,2.21.36,3.5,2.66,3.32,6.01-.17,3.12-.42,6.59-1.34,9.18-4.92,13.99-11.09,24.17-20.8,28.62-3.68,1.69-7.15-2.23-8.03-9.58-.24-2.04-.16-4.2.11-6.07.69-4.77,2.69-7.64,5.15-9.64.52-.42.94-1.14,1.41-1.71-.09-.25-.17-.5-.26-.75-.34,0-.74-.17-1.02.04C2.62,73.14-.4,78.44.04,87.3c.36,6.91,3.34,12.06,6.96,12.61,1.4.2,2.86.11,4.05-.59,8.03-4.76,13.62-13.68,18.5-24.95,1.3-2.96,2.19-6.23,2.63-9.79.02-.04.05-.07.06-.12.51-2.02,1.63-3.83,2.76-5.56.26-.41.54-.81.82-1.22-.44,6.46-.37,13.03.4,19.67.09.76.58,1.46.88,2.19.32-.69.76-1.31.94-2.09.14-.62-.08-1.46-.05-2.18.16-3.18.17-6.47.81-9.42.79-3.65,2.05-7.07,3.41-10.34.96-2.31,2.17-4.45,3.51-6.32.54-.75,1.62-.7,2.45-1.01-.04,1.19.14,2.47-.12,3.55-.52,2.16-1.35,4.17-1.85,6.35-.94,4.03-1.71,8.2-.8,12.6.79,3.72,3.38,4.87,5.04,2.15,1.11-1.8,1.87-4.1,2.69-6.25.51-1.33.76-2.86,1.29-4.76.36,1.96.59,3.4.94,4.79.87,3.42,2.85,4.14,4.57,1.53,1.24-1.85,2.16-4.1,3.25-6.15.49-.93.93-1.92,1.64-3.37.28,1.57.33,2.53.64,3.31.47,1.18.98,2.8,1.77,3.19,1.38.67,2.41-.79,3.17-2.25.33-.63.61-1.34.79-2.06,1.13-4.54,2.5-8.96,3.73-13.39,1.12-3.95,1.02-3.99,4.35-3.57,1.98.24,1.87.2,1.23,2.58-.9,3.38-2.06,6.83-1.26,10.45.65,2.86,2.37,3.38,4.09,1.14,1.04-1.33,1.86-2.96,2.59-4.56.79-1.75,1.34-3.62,2.04-5.42.3.81.25,1.6.33,2.36.08.86.22,1.73.45,2.54.75,2.62,2.64,3.2,4.39,1.15,1.48-1.7,2.63-3.77,3.94-5.64.52-.75.99-1.53,1.49-2.3.48,1.03.41,2.04.74,2.83.39.92.99,2.09,1.76,2.29.68.18,1.74-.74,2.58-1.29.36-.23.67-.72.82-1.15,1.33-3.6,2.78-7.11,4.21-10.59.96-2.33,1.7-4.72,2.78-6.97.47-.99,1.28-1.9,2.12-2.64.42-.37,1.29-.46,1.85-.34.28.06.44.85.44,1.32,0,.84-.05,1.71-.27,2.54-.99,3.76-1.95,7.57-2.75,11.45-.24,1.16-.41,2.32-.6,3.49.22.03.44.06.65.1.33-.86.7-1.7,1.02-2.56,1.66-4.49,3.36-8.91,5.48-13.1.72-1.41,2.02-2.67,3.27-3.77,1.06-.93,2.12-.65,2.38.45.6,2.58.79,5.11-.89,7.85-.58.95-.65,2.2-.65,3.28,0,.86.82.93,1.35.2.49-.67.86-1.53.92-2.28.16-1.91.39-3.79,1.73-5.46,1.69-2.09,3.4-4.15,5.32-6.03,1.17-1.14,2.68-2.02,4.05-2.98.23.09.46.19.69.28-.23.75-.34,1.53-.69,2.25-1.31,2.67-2.77,5.36-3.82,8.17-.44,1.18-.36,2.52-.18,3.72.17,1.18,1.2,1.45,2.61,1.08,1.76-.45,3.06-1.41,3.87-2.76,1.66-1.96,2.87-4.32,4.06-6.36.17-.29.56-.95.96-1.63-.02,1.24-.31,2.53-.21,3.76.11,1.4.28,2.88.98,4.06.99,1.63,3.33,1.63,5.24.18,1.12-.85,1.93-1.95,2.97-2.87.6-.54,1.3-1.23,2.05-1.43,2.93-.79,7.34-4.95,10.22-8.39-1.74,5.03-2.59,10.19-3.01,15.43-.04.46.36.79.55,1.17.33-.58.87-1.21.94-1.7.22-1.6.12-3.12.46-4.71.96-4.71,2.26-9.29,3.49-13.69.28-1.02.87-1.58,2.08-1.99,2.19-.74,3.37-2.03,5.48-2.44.54-.11,2.75-.75,4.01-1.29-.08.19-.14.36-.21.52-2.36,4.97-5.89,11.16-6.24,15.45-.04.44.25,1.65.84,1.73.78.36,1.24-.15,1.31-.44-.45-.94-.12-3.64.13-4.27,1.71-4.54,2.7-6.41,4.16-10.6,1.03-2.97,3.55-4.14,7.67-4.58,1.43-.16,3.35-.26,4.8-.62-.04-.15-.54-.71-.57-.86-2.92.48-5.82.96-9.15,1.52.99-1.38,1.75-2.53,2.67-3.61,2.12-2.49,4.41-4.72,7.94-6.33,1.23-.55,2.84-.73,4.23-.71,1.32.02,1.86.59,1.69.85-.21.3-.5,1.26-.57,1.59.1.33.61.39.84.39.79-.66,1.19-2.33.48-2.99ZM39.51,39.98c.93-3.59,2.38-6.9,3.74-10.23.22-.53.55-1,.87-1.43,1.02-1.32,2.2-3.21,3.45-1.82.5.55.22,3.06-.15,4.47-2.23,8.33-5.7,15.44-9.51,22.33-.21-.1-.41-.21-.62-.31.6-4.39,1.14-8.83,2.22-13.01Zm21.3,24.85c-.58,1.57-1.46,3.43-3.05,2.87-1.67-.6-1.6-2.98-1.89-4.84-.02-.14-.01-.3,0-.45.52-4.2.94-8.45,1.99-12.43.81-3.1,2.49-5.69,4.91-7.03,2.19-1.2,3.69-.15,4.07,2.76.11.85-.77,3.42-1.23,5.3,0,.01,0,.01-.01.03-.12.53-.59,2.33-.76,2.77-1.42,3.62-2.68,7.36-4.04,11.02Zm87.21-29.36c-.66.12-1.67-.45-1.98-.97-.51-.89-.59-2-.88-3.22,1.72,1.05,4.43,1.58,7.26.95-.76,1.77-2.31,2.87-4.4,3.25Zm6.12-5.4c-.33.46-1.25.9-1.95,1.07-2.1.53-3.89.04-5.33-.86-.57-.36-.93-1.28-.76-1.93.35-1.32,1.03-2.63,1.77-3.88.55-.93,1.54-1.81-.97-1.96,1.85-1.55,3.46-2.53,5.47-2.88,2.35-.41,3.68.16,4.13,1.77.81,2.9-.33,5.76-2.36,8.65Zm7.91-8.34c1.13-1.64,2.84-2.2,4.7-2.8-.56.93-1.68,2.87-3.37,5.04-1.99,1.46-2.76-.53-1.33-2.24Z"/></svg>