<svg width="340" height="82" viewBox="0 0 340 82" fill="none" xmlns="http://www.w3.org/2000/svg">
<path d="M79.9781 80.4617L81.3084 75.6942H81.468C80.9625 79.2631 82.1598 81.5004 85.4058 81.5004C85.897 81.5731 86.3983 81.5347 86.8728 81.3881C87.3473 81.2416 87.783 80.9905 88.1479 80.6533C88.5128 80.3161 88.7976 79.9014 88.9815 79.4396C89.1654 78.9778 89.2436 78.4807 89.2104 77.9847C89.2178 77.283 89.0486 76.5907 88.7185 75.9717C88.3884 75.3526 87.9079 74.8267 87.3214 74.4424L85.2461 72.8443C84.5448 72.3997 83.9609 71.7923 83.544 71.0736C83.1272 70.3549 82.8896 69.5462 82.8516 68.716C82.8507 68.0422 82.9925 67.3759 83.2676 66.7609C83.5428 66.146 83.945 65.5964 84.4478 65.1484C84.9506 64.7004 85.5426 64.3643 86.1847 64.162C86.8267 63.9598 87.5043 63.8961 88.1728 63.9751C89.8983 63.9337 91.5958 64.4166 93.0417 65.3601L91.6582 70.0477C92.2701 66.7451 91.2591 64.4546 88.0664 64.4546C87.599 64.3898 87.1231 64.4262 86.671 64.5612C86.2188 64.6962 85.8009 64.9267 85.4453 65.2372C85.0897 65.5477 84.8048 65.931 84.6098 66.3611C84.4148 66.7912 84.3142 67.2582 84.3149 67.7306C84.3794 68.4428 84.6105 69.1297 84.9895 69.7359C85.3686 70.3421 85.8848 70.8503 86.4966 71.2196L88.6517 72.8976C89.3049 73.3435 89.8432 73.9381 90.2224 74.6325C90.6017 75.327 90.811 76.1016 90.8334 76.8927C90.8362 77.6006 90.6914 78.3013 90.4082 78.95C90.125 79.5987 89.7097 80.1811 89.1888 80.6599C88.6679 81.1387 88.053 81.5034 87.3832 81.7307C86.7135 81.958 86.0037 82.0428 85.2993 81.9798C83.4197 81.9747 81.578 81.4493 79.9781 80.4617ZM49.8333 48.3143L48.4764 0.878926H43.6607L25.8612 40.5371L6.62494 0.878926H1.48995L0 48.3143H4.33681C3.77808 41.7623 3.59183 27.2467 3.37898 17.6318L3.19274 6.63189L23.3602 48.3143H24.7171L43.0488 7.24448L43.7405 48.3143H49.8333ZM94.5317 48.3143H101.024L82.6387 0H81.0157L61.1409 48.3143H65.4778C67.1539 43.1739 69.6815 36.0626 72.4486 28.2588H87.0021L94.5317 48.3143ZM73.2467 26.2346C74.0715 23.9174 74.9495 21.547 75.9074 19.1766L79.7387 8.12341L86.2571 26.2879L73.2467 26.2346ZM145.509 0.878926C145.828 7.59072 146.52 18.9901 146.733 29.0845L146.919 37.6873L119.169 0.878926H114.007L113.209 48.3143H117.466C116.987 41.2829 116.668 32.3338 116.109 17.0725L115.71 6.23238L147.398 48.3143H149.154L149.686 0.878926H145.509ZM160.887 0.878926V4.6077C164.346 4.07502 169.215 3.46244 174.031 3.11619L178.102 2.84985V48.3143H183.982V2.84985L188.318 3.11619C192.725 3.35212 197.114 3.85017 201.462 4.6077V0.878926H160.887ZM225.381 46.1569L218.889 46.2901V23.9973H219.501C226.339 24.2637 230.516 24.3968 235.464 24.6632V21.2807C230.516 21.547 226.472 21.7601 219.501 22.0264H218.756V2.76995L225.248 2.90312C231.352 3.10345 237.438 3.67268 243.473 4.6077V0.878926H213.009V48.3143H245.788V44.4523C238.737 45.3313 232.485 45.9438 225.407 46.1569H225.381ZM286.788 48.3143H293.759L278.141 23.6245C284.899 22.2661 289.289 18.5373 289.289 12.305C289.289 4.31473 282.185 0.772389 272.048 0.772389H257.734V48.3143H263.561V24.3436H271.542L286.761 48.3143H286.788ZM263.561 22.2395V2.90312H270.611C277.502 2.90312 283.116 5.56653 283.116 12.5447C283.116 19.5228 277.502 22.2395 270.611 22.2395H263.561ZM333.508 48.3143H340L321.668 0H320.045L300.197 48.3143H304.534C306.237 43.1739 308.738 36.0626 311.505 28.2588H326.058L333.588 48.3143H333.508ZM312.223 26.2346C313.021 23.9174 313.899 21.547 314.724 19.1766L318.582 8.12341L325.34 26.2346H312.223ZM253.051 75.1348C255.392 74.7353 258.984 73.5634 258.984 70.9799C258.993 70.8192 258.966 70.6585 258.907 70.5089C258.848 70.3593 258.757 70.2243 258.641 70.113C258.525 70.0018 258.386 69.917 258.234 69.8643C258.082 69.8117 257.92 69.7925 257.76 69.808C256.601 70.2433 255.565 70.9564 254.744 71.885C253.923 72.8136 253.342 73.9294 253.051 75.1348ZM253.051 75.4012C252.932 75.9617 252.87 76.5328 252.865 77.1058C252.865 79.343 253.636 80.4084 255.392 80.4084C256.227 80.3593 257.033 80.0861 257.726 79.6175C258.419 79.1488 258.973 78.502 259.33 77.745H259.516C259.06 78.8362 258.331 79.7915 257.399 80.5191C256.467 81.2468 255.364 81.7223 254.195 81.8999C252.758 81.8999 251.535 80.9943 251.535 78.5973C251.535 73.9097 255.366 69.2487 259.304 69.2487C259.489 69.2251 259.677 69.2424 259.855 69.2995C260.032 69.3565 260.195 69.4519 260.332 69.5788C260.469 69.7058 260.577 69.8613 260.647 70.0343C260.718 70.2074 260.75 70.3938 260.74 70.5804C260.74 72.6845 257.548 74.8951 253.024 75.4278L253.051 75.4012ZM241.398 78.3309C241.398 73.6966 245.575 69.2221 248.768 69.2221C249.556 69.2149 250.318 69.5103 250.896 70.0477L249.858 71.3528H249.646C249.282 70.9697 248.844 70.6638 248.36 70.4533C247.875 70.2428 247.353 70.1321 246.825 70.1276C245.585 70.8416 244.553 71.8695 243.834 73.1082C243.115 74.3469 242.733 75.753 242.728 77.1857C242.728 79.4229 243.579 80.435 245.149 80.435C246.719 80.435 247.81 79.7159 249.113 77.7716H249.3C247.836 80.0888 246.426 81.9265 244.218 81.9265C242.01 81.9265 241.398 80.5682 241.398 78.3842V78.3309ZM239.509 78.3309C237.832 80.5682 236.475 81.8466 235.464 81.8466C235.317 81.8518 235.171 81.8248 235.036 81.7676C234.9 81.7103 234.779 81.6241 234.68 81.5151C234.581 81.4061 234.507 81.2768 234.464 81.1362C234.42 80.9957 234.407 80.8473 234.427 80.7014C234.656 78.8615 235.158 77.0661 235.917 75.3745C236.475 73.9606 236.902 72.4985 237.194 71.0066C237.194 70.607 236.981 70.3141 236.608 70.3141C236.236 70.3141 234.374 71.3528 230.729 76.4932L229.451 81.3672H227.962L230.622 71.2995C230.888 70.3407 230.489 69.9678 229.398 70.1543H228.919V69.8879L232.644 69.009L230.835 75.8273C233.682 71.486 235.677 69.009 237.513 69.009C237.687 69.0002 237.86 69.0292 238.021 69.0942C238.182 69.1591 238.327 69.2584 238.446 69.3851C238.565 69.5118 238.655 69.6629 238.71 69.8279C238.765 69.9929 238.783 70.1679 238.764 70.3407C238.529 72.1706 238.055 73.9616 237.353 75.6675C236.79 77.0133 236.371 78.4149 236.103 79.8491C236.099 79.9177 236.11 79.9864 236.134 80.0509C236.157 80.1154 236.194 80.1744 236.241 80.2243C236.289 80.2741 236.346 80.3138 236.409 80.3409C236.472 80.3679 236.54 80.3819 236.608 80.3818C237.22 80.3818 238.205 79.4496 239.269 78.1445H239.429L239.509 78.3309ZM219.208 75.1082C221.549 74.7087 225.141 73.5368 225.141 70.9533C225.149 70.795 225.124 70.6368 225.066 70.4892C225.008 70.3416 224.92 70.208 224.806 70.0972C224.693 69.9864 224.558 69.901 224.409 69.8465C224.26 69.7921 224.102 69.7699 223.944 69.7814C222.78 70.2151 221.74 70.9273 220.915 71.8558C220.089 72.7843 219.503 73.9009 219.208 75.1082ZM219.208 75.3745C219.089 75.9351 219.027 76.5061 219.022 77.0791C219.022 79.3164 219.793 80.3818 221.682 80.3818C222.517 80.3327 223.323 80.0595 224.016 79.5908C224.709 79.1222 225.263 78.4754 225.62 77.7184H225.833C225.374 78.8081 224.644 79.7621 223.713 80.4894C222.781 81.2168 221.679 81.6932 220.512 81.8733C219.075 81.8733 217.851 80.9677 217.851 78.5706C217.851 73.883 221.682 69.2221 225.62 69.2221C225.805 69.1985 225.993 69.2158 226.171 69.2729C226.349 69.3299 226.512 69.4252 226.649 69.5522C226.786 69.6792 226.894 69.8346 226.964 70.0077C227.034 70.1807 227.066 70.3671 227.057 70.5538C227.057 72.6579 223.864 74.8685 219.341 75.4012L219.208 75.3745ZM212.61 73.883L213.355 71.2196C212.643 70.5236 211.689 70.132 210.694 70.1276C209.248 71.0671 208.064 72.3594 207.254 73.883C206.444 75.4066 206.035 77.1114 206.065 78.837C206.065 80.1953 206.544 80.5149 206.969 80.5149C208.246 80.5149 210.215 78.1179 212.716 73.9629L212.61 73.883ZM215.536 78.1179L215.776 78.251C214.259 80.6215 212.902 81.8466 211.891 81.8466C210.88 81.8466 210.934 81.3406 210.934 80.7014C210.955 80.1945 211.045 79.6929 211.2 79.2099L212.317 75.0816C210.242 78.6239 207.688 81.8466 206.118 81.8466C205.107 81.8466 204.282 81.1542 204.282 79.4229C204.282 75.2147 208.486 69.1954 212.264 69.1954C212.802 69.1993 213.324 69.3767 213.754 69.7015L214.765 65.9194C215.031 64.9872 214.472 64.6676 213.408 64.8541H212.61V64.5877L216.76 63.5756L212.557 79.5561C212.557 80.0355 212.557 80.2752 212.956 80.2752C213.355 80.2752 214.366 79.5295 215.616 77.9581L215.536 78.1179ZM200.93 65.9727C200.926 65.819 200.954 65.6661 201.012 65.5237C201.069 65.3812 201.156 65.2522 201.266 65.1447C201.376 65.0373 201.506 64.9536 201.65 64.899C201.794 64.8444 201.947 64.8201 202.1 64.8274C202.256 64.8239 202.411 64.8516 202.557 64.9089C202.702 64.9662 202.834 65.0519 202.945 65.1611C203.057 65.2703 203.146 65.4007 203.206 65.5446C203.267 65.6886 203.298 65.8432 203.298 65.9993C203.301 66.1565 203.273 66.3129 203.214 66.4585C203.155 66.6042 203.066 66.7362 202.954 66.8461C202.841 66.956 202.708 67.0416 202.561 67.0976C202.414 67.1535 202.257 67.1786 202.1 67.1712C201.943 67.1751 201.787 67.1465 201.642 67.0872C201.496 67.028 201.364 66.9394 201.254 66.827C201.145 66.7145 201.059 66.5807 201.003 66.4337C200.947 66.2867 200.922 66.1298 200.93 65.9727ZM197.444 80.8345C197.423 80.6309 197.423 80.4256 197.444 80.222L199.945 71.4061C200.211 70.4472 199.945 70.0743 198.721 70.2608H198.242V69.9945L201.967 69.1155L199.094 79.5561C198.908 80.222 199.094 80.435 199.573 80.435C200.052 80.435 201.302 79.3697 202.233 78.1978L202.42 78.3309C200.823 80.435 199.227 81.8466 198.189 81.8466C197.684 81.8466 197.338 81.5537 197.338 80.9144L197.444 80.8345ZM186.403 79.3963L187.52 78.2244C187.84 79.066 188.409 79.7898 189.15 80.2991C189.892 80.8083 190.771 81.0788 191.671 81.0742C191.935 80.8945 192.151 80.6522 192.3 80.3688C192.448 80.0853 192.525 79.7696 192.522 79.4496C192.437 78.7536 192.171 78.0923 191.751 77.5319L189.888 74.2293C189.585 73.7472 189.402 73.199 189.356 72.6312C189.485 71.7064 189.944 70.8596 190.648 70.2475C191.352 69.6354 192.255 69.2995 193.187 69.302C193.8 69.306 194.402 69.4613 194.94 69.754C195.479 70.0466 195.937 70.4677 196.274 70.9799L195.209 72.3116C194.906 71.6662 194.444 71.1081 193.867 70.689C193.29 70.27 192.617 70.0036 191.91 69.9146C191.542 69.9906 191.213 70.1963 190.984 70.4945C190.754 70.7927 190.639 71.1634 190.66 71.5392C190.703 72.116 190.906 72.6693 191.245 73.1373L193.533 76.8927C193.8 77.3744 193.946 77.9136 193.959 78.4641C193.844 79.4089 193.394 80.2811 192.691 80.9216C191.988 81.562 191.078 81.9282 190.128 81.9532C189.37 81.8849 188.643 81.6208 188.018 81.1865C187.393 80.7523 186.891 80.1629 186.562 79.4762L186.403 79.3963ZM178.74 75.1348C181.055 74.7353 184.647 73.5634 184.647 70.9799C184.659 70.8205 184.637 70.6603 184.58 70.5107C184.524 70.361 184.436 70.2255 184.322 70.1137C184.208 70.0019 184.07 69.9166 183.92 69.8638C183.769 69.811 183.608 69.7919 183.449 69.808C182.287 70.2393 181.249 70.9511 180.428 71.8803C179.606 72.8096 179.026 73.9275 178.74 75.1348ZM178.74 75.4012C178.599 75.9584 178.528 76.531 178.527 77.1058C178.527 79.343 179.325 80.4084 181.055 80.4084C181.89 80.3622 182.698 80.0901 183.391 79.6211C184.085 79.1521 184.638 78.5037 184.993 77.745H185.205C184.747 78.8348 184.017 79.7888 183.085 80.5161C182.154 81.2434 181.052 81.7198 179.884 81.8999C178.447 81.8999 177.224 80.9943 177.224 78.5973C177.224 73.9097 181.055 69.2487 184.993 69.2487C185.178 69.2251 185.366 69.2424 185.544 69.2995C185.721 69.3565 185.884 69.4519 186.021 69.5788C186.158 69.7058 186.266 69.8613 186.336 70.0343C186.407 70.2074 186.439 70.3938 186.429 70.5804C186.429 72.6845 183.263 74.8951 178.74 75.4278V75.4012ZM177.543 69.3819L176.825 71.5126H176.585C176.346 71.3147 176.044 71.2106 175.734 71.2196C174.51 71.2196 174.031 71.7257 170.599 78.6239L169.827 81.5004H168.311L170.971 71.4327C171.211 70.4739 170.971 70.101 169.774 70.2874H169.268V70.0211L172.993 69.1422L170.838 77.452C174.137 70.3407 175.361 69.1422 176.718 69.1422C176.984 69.1362 177.248 69.1909 177.49 69.302L177.543 69.3819ZM160.754 72.0453C160.754 74.176 159.797 77.3721 153.97 81.8733L153.677 81.6602V75.6409C152.563 78.2166 150.711 80.404 148.356 81.9265L148.063 81.7135L147.771 72.1252C147.771 71.0332 147.398 70.0477 145.961 70.5538V70.3673L149.154 69.1155L149.527 80.5416C150.644 79.6713 151.569 78.5779 152.243 77.3308C152.916 76.0836 153.323 74.71 153.438 73.2971C153.476 72.7115 153.361 72.126 153.104 71.5984C152.847 71.0707 152.458 70.6189 151.974 70.2874V70.1543L153.81 69.1155C154.247 69.6202 154.576 70.2089 154.777 70.8456C154.979 71.4822 155.048 72.1533 154.981 72.8177V80.5416C156.112 79.7335 157.058 78.693 157.756 77.4896C158.453 76.2862 158.886 74.9477 159.025 73.5634C159.077 72.9408 158.972 72.3152 158.721 71.7431C158.471 71.1711 158.081 70.6708 157.588 70.2874V70.1543L159.397 69.1155C160.149 69.9233 160.55 70.9956 160.515 72.0985L160.754 72.0453ZM137.022 75.0816C139.336 74.6821 142.955 73.5101 142.955 70.9266C142.963 70.7659 142.937 70.6053 142.878 70.4557C142.818 70.3061 142.728 70.171 142.611 70.0598C142.495 69.9485 142.356 69.8637 142.204 69.811C142.052 69.7584 141.891 69.7392 141.731 69.7547C140.571 70.19 139.535 70.9032 138.714 71.8318C137.893 72.7604 137.312 73.8762 137.022 75.0816ZM137.022 75.3479C136.89 75.9063 136.827 76.4788 136.835 77.0525C136.835 79.2898 137.607 80.3551 139.496 80.3551C140.331 80.3061 141.137 80.0329 141.83 79.5642C142.523 79.0955 143.077 78.4487 143.434 77.6917H143.62C143.161 78.7815 142.431 79.7355 141.5 80.4628C140.568 81.1901 139.466 81.6665 138.299 81.8466C136.862 81.8466 135.638 80.9411 135.638 78.544C135.638 73.8564 139.496 69.1954 143.434 69.1954C143.619 69.1718 143.807 69.1892 143.985 69.2462C144.163 69.3033 144.326 69.3986 144.463 69.5256C144.6 69.6525 144.707 69.808 144.778 69.981C144.848 70.1541 144.88 70.3405 144.87 70.5271C144.87 72.6312 141.678 74.8419 137.155 75.3745L137.022 75.3479ZM131.993 65.9461C131.989 65.7923 132.017 65.6395 132.075 65.497C132.133 65.3546 132.219 65.2256 132.329 65.1181C132.439 65.0106 132.57 64.927 132.713 64.8724C132.857 64.8178 133.01 64.7934 133.164 64.8008C133.474 64.8008 133.772 64.9243 133.992 65.1441C134.211 65.3638 134.334 65.6619 134.334 65.9727C134.334 66.2835 134.211 66.5816 133.992 66.8014C133.772 67.0211 133.474 67.1446 133.164 67.1446C132.853 67.1446 132.556 67.0211 132.336 66.8014C132.116 66.5816 131.993 66.2835 131.993 65.9727V65.9461ZM128.481 80.8079C128.449 80.605 128.449 80.3983 128.481 80.1953L131.009 71.5659C131.275 70.607 130.876 70.2342 129.785 70.4206H129.306V70.1543L133.031 69.2753L130.211 79.5561C130.024 80.222 130.211 80.435 130.663 80.435C131.115 80.435 132.392 79.3697 133.323 78.1978L133.483 78.3576C131.913 80.435 130.29 81.8466 129.253 81.8466C129.133 81.8515 129.013 81.8301 128.902 81.7838C128.791 81.7376 128.691 81.6676 128.61 81.5788C128.529 81.49 128.469 81.3845 128.432 81.2698C128.396 81.155 128.386 81.0337 128.401 80.9144L128.481 80.8079ZM118.424 72.0719C118.424 70.6603 118.105 69.9678 116.615 70.5005V70.3141L119.808 69.0623L120.207 80.6481C121.525 79.907 122.659 78.878 123.525 77.6376C124.391 76.3972 124.966 74.9773 125.209 73.4835C125.246 72.8625 125.136 72.2413 124.886 71.6716C124.636 71.1019 124.254 70.6 123.772 70.2075L125.475 69.2221C125.83 69.5684 126.112 69.9826 126.304 70.4402C126.496 70.8977 126.594 71.3892 126.592 71.8855C126.592 73.9896 125.581 77.745 119.063 81.9265L118.77 81.7135L118.451 72.1252L118.424 72.0719ZM111.905 74.2293L112.996 70.9799C112.633 70.6679 112.209 70.4337 111.751 70.2917C111.294 70.1497 110.812 70.103 110.336 70.1543C107.835 70.9799 105.174 75.268 105.174 79.2365C105.174 80.2752 105.573 80.5416 105.972 80.5416C107.223 80.5416 109.298 78.1978 112.012 74.2293H111.905ZM114.566 78.2244L114.752 78.3576C113.103 80.728 111.693 81.9532 110.682 81.9532C109.671 81.9532 109.777 81.4738 109.777 80.8878C109.816 80.35 109.932 79.8207 110.123 79.3164L111.506 75.0549C109.271 78.6505 106.558 81.9532 104.961 81.9532C104.003 81.9532 103.232 81.314 103.232 79.7692C103.425 77.9198 104.012 76.1334 104.953 74.5301C105.894 72.9268 107.167 71.5437 108.686 70.4739C109.678 69.8076 110.822 69.4043 112.012 69.302C112.464 69.2737 112.91 69.4163 113.262 69.7015V69.3286L114.965 68.7693L111.373 79.8224C111.24 80.3018 111.373 80.5416 111.719 80.5416C112.065 80.5416 113.209 79.7958 114.38 78.2244H114.566ZM95.0372 75.2147C97.3785 74.8152 100.97 73.6433 100.97 71.0598C100.979 70.8991 100.952 70.7384 100.893 70.5888C100.834 70.4392 100.743 70.3042 100.627 70.1929C100.511 70.0817 100.372 69.9968 100.22 69.9442C100.068 69.8916 99.9065 69.8724 99.7465 69.8879C98.5866 70.3232 97.5509 71.0363 96.7299 71.9649C95.909 72.8935 95.3278 74.0093 95.0372 75.2147ZM95.0372 75.4811C94.9053 76.0395 94.8428 76.612 94.8509 77.1857C94.8509 79.4229 95.6225 80.4883 97.3785 80.4883C98.2133 80.4392 99.0195 80.166 99.7124 79.6974C100.405 79.2287 100.959 78.5819 101.316 77.8249H101.502C101.044 78.9146 100.314 79.8687 99.3823 80.596C98.4508 81.3233 97.3488 81.7997 96.1812 81.9798C94.7445 81.9798 93.5206 81.0742 93.5206 78.6772C93.5206 73.9896 97.3785 69.3286 101.316 69.3286C101.501 69.305 101.69 69.3223 101.867 69.3794C102.045 69.4364 102.208 69.5318 102.345 69.6587C102.482 69.7857 102.59 69.9412 102.66 70.1142C102.731 70.2873 102.762 70.4737 102.753 70.6603C102.753 72.7644 99.5602 74.975 95.0372 75.5077V75.4811Z" fill="white"/>
</svg>
