<?xml version="1.0" encoding="UTF-8"?><svg id="Layer_1" xmlns="http://www.w3.org/2000/svg" xmlns:xlink="http://www.w3.org/1999/xlink" viewBox="0 0 100 100"><defs><style>.cls-1{fill:#ff1000;stroke:#fff;stroke-width:2px;}.cls-2{clip-path:url(#clippath);}.cls-3{fill:none;}.cls-4{fill:#d01000;}.cls-5{fill:#a41000;}</style><clipPath id="clippath"><rect class="cls-3" y="2" width="100" height="96"/></clipPath></defs><g class="cls-2"><path class="cls-1" d="m52.38,2l15.09,33.67,32.53,4.73-22.62,17.3,19.76,40.3-36.61-27.6-35.77,27.6,13.61-44.3L0,25.04l44.33,6.96L52.38,2Z"/><path class="cls-4" d="m68.54,63.4l26.04,31.47-18.38-37.44-7.66,5.97Z"/><path class="cls-4" d="m60.54,69.22l-10.86-7.94-23.11,34.1"/><path class="cls-4" d="m3.74,26.62l35.74,26.72,3.01-10.21L3.74,26.62Z"/><path class="cls-4" d="m52.59,4.87l3.55,29.74-11.12-1.54s7.57-28.2,7.57-28.2Z"/><path class="cls-5" d="m45.02,33.08l-2.58,10.13,15.5,6.81-1.82-15.44s-11.1-1.5-11.1-1.5Z"/><path class="cls-4" d="m97.59,41.04l-25.91,6.79-4.87-11.33,30.78,4.54Z"/><path class="cls-4" d="m83.77,86.77l.05-13.8,10.75,21.92-10.79-8.11h0Z"/></g></svg>