<?xml version="1.0" encoding="UTF-8"?><svg id="Layer_1" xmlns="http://www.w3.org/2000/svg" viewBox="0 0 379.64 114"><defs><style>.cls-1{fill:#fff;}.cls-2{fill:#ffa400;}</style></defs><path class="cls-1" d="m77.65,78.36v-41.51h7.19l8.66,17.97,1.41,5.16h.23l1.36-5.27,8.13-17.85h7.07v41.51h-7.45v-21.39l.79-7.95h-.29l-2.21,7.13-6.75,14.58h-2.5l-7.19-14.64-2.21-7.19h-.35l1.12,8.01v21.45h-7.07.06Z"/><path class="cls-1" d="m115.79,63.54c0-5.33,1.06-9.25,3.18-11.81,2.12-2.56,5.04-3.83,8.81-3.83,1.27,0,2.5.18,3.68.56,1.18.38,2.24,1,3.18,1.89.94.88,1.68,2.06,2.27,3.56.56,1.47.85,3.36.85,5.63,0,.85-.06,1.8-.15,2.77-.09.97-.26,2.06-.47,3.21h-14.38c.09,2.44.59,4.33,1.53,5.63.94,1.3,2.48,1.94,4.57,1.94,1.27,0,2.45-.21,3.48-.59,1.03-.38,1.86-.82,2.41-1.27l2.18,4.92c-.97.85-2.33,1.59-4.04,2.15-1.71.56-3.48.85-5.33.85-2.03,0-3.8-.35-5.3-1.06-1.5-.71-2.71-1.74-3.65-3.09-.94-1.36-1.65-2.98-2.12-4.89-.47-1.91-.68-4.09-.68-6.57h-.03Zm7.19-2.71h8.19v-1.06c0-1.77-.24-3.12-.74-4.07-.59-1.15-1.5-1.74-2.8-1.74-1.5,0-2.62.62-3.39,1.8-.77,1.21-1.18,2.89-1.3,5.07h.03Z"/><path class="cls-1" d="m141.13,63.54c0-5.15.94-9.07,2.8-11.67,1.86-2.62,4.6-3.92,8.19-3.92,1.77,0,3.24.15,4.36.47,1.12.32,2.12.71,3,1.21l-1.65,5.83c-.71-.35-1.41-.62-2.06-.8-.65-.18-1.44-.27-2.36-.27-1.65,0-2.92.71-3.74,2.15-.83,1.44-1.24,3.77-1.24,6.95,0,2.68.41,4.86,1.27,6.57.85,1.71,2.21,2.53,4.07,2.53.97,0,1.83-.12,2.5-.38.71-.24,1.35-.59,1.94-.97l1.47,5.48c-.97.8-2.15,1.38-3.54,1.77-1.38.38-2.77.59-4.15.59-2,0-3.68-.35-5.07-1.09-1.36-.74-2.48-1.77-3.36-3.15-.85-1.36-1.5-3-1.85-4.92-.38-1.91-.56-4.07-.56-6.45l-.03.06Z"/><path class="cls-1" d="m162.93,78.36v-41.51h7.07v14.52h.18c.8-1.03,1.74-1.86,2.89-2.5,1.12-.65,2.53-.94,4.24-.94,1.21,0,2.27.18,3.18.53.91.35,1.68.94,2.33,1.77.62.82,1.12,1.94,1.44,3.36.32,1.41.47,3.18.47,5.3v19.44h-7.07v-17.88c0-2.15-.24-3.68-.74-4.62-.5-.94-1.38-1.41-2.71-1.41-.94,0-1.83.32-2.59,1-.8.68-1.33,1.5-1.59,2.53v20.41h-7.1Z"/><path class="cls-1" d="m187.99,70.17c0-3.56,1.27-6.07,3.8-7.57,2.15-1.3,4.98-1.94,8.45-1.94.59,0,1.18,0,1.8.06.06-.65.09-1.24.09-1.8,0-1.38-.21-2.44-.56-3.18-.5-1.03-1.56-1.56-3.15-1.56-1.18,0-2.39.15-3.65.41-1.27.27-2.39.68-3.39,1.21l-1.8-5.3c1.18-.71,2.65-1.3,4.45-1.71,1.8-.44,3.8-.65,6.07-.65,3.36,0,5.68.88,7.01,2.62,1.33,1.74,1.97,4.21,1.97,7.42,0,1.86-.06,3.68-.15,5.45-.09,1.8-.18,3.53-.21,5.27v1.44c0,1.21.03,2.39.12,3.53.09,1.59.35,3.12.79,4.54h-5.71l-1.12-3.62h-.24c-.65,1.15-1.53,2.09-2.68,2.83-1.15.77-2.59,1.12-4.33,1.12-2.33,0-4.18-.77-5.51-2.33-1.33-1.56-2-3.65-2-6.27l-.06.03Zm7.31-1.18c0,1.21.24,2.15.74,2.77.5.65,1.18.94,2.03.94,1.06,0,1.94-.27,2.59-.8.68-.53,1.18-1.12,1.47-1.74v-4.92c-.53-.09-1.06-.12-1.59-.12-.35,0-.68,0-1,.06-.82.09-1.56.27-2.18.53-.62.27-1.12.68-1.5,1.21-.38.53-.56,1.21-.56,2.03v.03Z"/><path class="cls-1" d="m213.98,78.36v-29.63h5.65l.82,3.45h.18c.71-1.15,1.68-2.12,2.92-2.95,1.24-.82,2.83-1.24,4.83-1.24,1.18,0,2.24.18,3.15.53.91.35,1.71.94,2.36,1.74.65.8,1.12,1.91,1.44,3.27.32,1.36.47,3.06.47,5.07v19.74h-7.07v-18.03c0-2.18-.26-3.68-.77-4.57-.5-.85-1.38-1.3-2.62-1.3-1.03,0-1.91.32-2.65.94-.74.62-1.3,1.41-1.59,2.36v20.56h-7.07l-.06.06Z"/><path class="cls-1" d="m240.34,40.36c0-1.18.38-2.15,1.12-2.92.77-.77,1.83-1.15,3.18-1.15s2.47.38,3.33,1.12c.83.77,1.24,1.74,1.24,2.95s-.41,2.18-1.24,2.92c-.8.71-1.89,1.03-3.21,1.03h-.12c-1.38,0-2.44-.35-3.18-1.06-.77-.77-1.12-1.71-1.12-2.89Zm.85,38v-29.63h7.07v29.63h-7.07Z"/><path class="cls-1" d="m252.77,78.36v-6.27l9.6-14.52,2.59-2.53h-12.23v-6.27h19.62v6.27l-9.48,14.76-2.53,2.33s15.91,2.47,17.14,14.43c-6.16-9.75-24.71-8.16-24.71-8.16v-.03Z"/><path class="cls-1" d="m274.92,70.17c0-3.56,1.27-6.07,3.8-7.57,2.15-1.3,4.98-1.94,8.45-1.94.59,0,1.18,0,1.8.06.06-.65.09-1.24.09-1.8,0-1.38-.21-2.44-.56-3.18-.5-1.03-1.56-1.56-3.15-1.56-1.18,0-2.39.15-3.65.41-1.27.27-2.39.68-3.36,1.21l-1.8-5.3c1.18-.71,2.65-1.3,4.45-1.71,1.8-.44,3.8-.65,6.07-.65,3.36,0,5.69.88,7.01,2.62,1.33,1.74,1.97,4.21,1.97,7.42,0,1.86-.06,3.68-.15,5.45-.09,1.8-.18,3.53-.21,5.27v1.44c0,1.21.03,2.39.12,3.53.09,1.59.35,3.12.8,4.54h-5.71l-1.12-3.62h-.23c-.65,1.15-1.53,2.09-2.68,2.83-1.15.77-2.59,1.12-4.33,1.12-2.33,0-4.18-.77-5.51-2.33-1.33-1.56-2-3.65-2-6.27l-.09.03Zm7.3-1.18c0,1.21.24,2.15.74,2.77.5.65,1.18.94,2.03.94,1.06,0,1.94-.27,2.59-.8.68-.53,1.18-1.12,1.47-1.74v-4.92c-.53-.09-1.06-.12-1.59-.12-.35,0-.68,0-1,.06-.83.09-1.56.27-2.18.53-.62.27-1.12.68-1.5,1.21-.38.53-.56,1.21-.56,2.03v.03Z"/><path class="cls-1" d="m298.61,55v-6.27h3.27v-5.6l7.07-2.18v7.75h5.74v6.27h-5.74v12.93c0,1.71.18,2.89.5,3.59s.91,1.06,1.8,1.06c.59,0,1.12-.06,1.59-.18.47-.12,1-.29,1.56-.53l.88,5.63c-.85.44-1.89.82-3.03,1.12-1.15.29-2.36.44-3.62.44-2.27,0-3.95-.65-5.07-1.97-1.12-1.33-1.68-3.51-1.68-6.57v-15.55h-3.27v.06Z"/><path class="cls-1" d="m317.9,40.36c0-1.18.38-2.15,1.12-2.92.77-.77,1.83-1.15,3.18-1.15s2.47.38,3.33,1.12c.82.77,1.24,1.74,1.24,2.95s-.41,2.18-1.24,2.92c-.8.71-1.89,1.03-3.21,1.03h-.12c-1.39,0-2.45-.35-3.18-1.06-.77-.77-1.12-1.71-1.12-2.89Zm.85,38v-29.63h7.07v29.63h-7.07Z"/><path class="cls-1" d="m330.36,63.54c0-5.24,1.03-9.16,3.09-11.72,2.06-2.56,4.92-3.86,8.6-3.86,3.95,0,6.89,1.3,8.84,3.92,1.91,2.62,2.89,6.51,2.89,11.67s-1.03,9.22-3.09,11.75c-2.06,2.56-4.92,3.83-8.63,3.83-7.81,0-11.7-5.21-11.7-15.61v.03Zm7.31,0c0,2.98.35,5.27,1,6.89.68,1.62,1.8,2.44,3.39,2.44s2.62-.71,3.33-2.12c.74-1.41,1.09-3.8,1.09-7.22,0-3.06-.32-5.36-1-6.95-.68-1.59-1.8-2.39-3.45-2.39-1.38,0-2.47.71-3.24,2.12-.77,1.41-1.15,3.8-1.15,7.22h.03Z"/><path class="cls-1" d="m357.82,78.36v-29.63h5.66l.83,3.45h.18c.71-1.15,1.68-2.12,2.92-2.95,1.24-.82,2.83-1.24,4.83-1.24,1.18,0,2.24.18,3.15.53.91.35,1.71.94,2.36,1.74.65.8,1.12,1.91,1.44,3.27.32,1.36.47,3.06.47,5.07v19.74h-7.07v-18.03c0-2.18-.27-3.68-.77-4.57-.5-.85-1.38-1.3-2.62-1.3-1.03,0-1.91.32-2.65.94-.74.62-1.3,1.41-1.59,2.36v20.56h-7.07l-.06.06Z"/><path class="cls-2" d="m70.65,89.35c-4.46,1.91-9.09,2.82-13.64,2.82l.03-.06c-13.66,0-26.68-8.18-32.39-21.66-1.85-4.39-2.73-8.95-2.76-13.45.03-4.5.91-9.06,2.76-13.45,5.71-13.48,18.72-21.66,32.39-21.66,4.55,0,9.18.88,13.64,2.82.28.16.59.3.89.44.07.03.14.07.22.1.23.12.46.23.69.34.15.07.29.14.42.2l2.19-4.25c-6.02-3.11-12.73-4.62-19.49-4.42-6.85.23-13.52,2.19-19.38,5.76s-10.71,8.58-14.06,14.56c-3.35,5.98-5.11,12.74-5.11,19.61h-5.68c0-1.91.11-3.82.34-5.7.71-5.84,2.59-11.51,5.48-16.7,3.84-6.84,9.35-12.57,16.05-16.64,6.68-4.08,14.32-6.33,22.13-6.58,5.91-.2,11.79.8,17.3,2.85,1.7.63,3.35,1.37,4.97,2.19l2.33-4.53-3.38-1.65c-.47-.19-.94-.35-1.42-.52-.16-.05-.32-.11-.48-.17-.12-.04-.23-.08-.35-.12-.46-.16-.93-.32-1.38-.5,0-2.37,0-4.73-.23-7.1-2.81-.83-5.74-1.43-8.66-1.77-1.05,2.14-1.99,4.13-2.93,6.38l-3.86-.23-3.86.11c-.94-2.14-1.88-4.27-2.93-6.38-2.93.34-5.85.83-8.78,1.65-.23,2.37-.34,4.73-.34,7.1-.54.2-1.08.4-1.62.57-.68.23-1.36.46-2.02.71l-3.52,1.65c-1.62-1.77-3.27-3.31-5.03-4.85-2.7,1.43-5.17,3.08-7.47,4.96v.09c.68,2.22,1.39,4.45,2.3,6.56l-2.81,2.59-2.59,2.85c-2.1-.94-4.35-1.77-6.56-2.48-1.88,2.37-3.49,4.87-5.03,7.47.04.04.08.09.11.13.04.04.07.09.11.13,1.45,1.71,2.9,3.39,4.46,4.96l-1.65,3.45c-.23.6-.45,1.25-.65,1.88-.2.6-.4,1.2-.62,1.77-2.33,0-4.69,0-7.02.23-.82,2.85-1.42,5.79-1.76,8.75,2.13,1.08,4.23,2.02,6.34,2.96l-.23,3.88.23,3.88c-2.13.94-4.23,1.91-6.34,2.96.37,2.94.94,5.93,1.76,8.75,2.33.23,4.69.23,7.02.23.23.6.45,1.25.65,1.88.2.6.4,1.2.62,1.77l1.65,3.45c-1.45,1.48-2.83,3.07-4.2,4.65-.16.19-.32.37-.49.56,1.51,2.62,3.15,5.1,5.03,7.47,2.24-.71,4.46-1.54,6.56-2.48l2.59,2.85,2.81,2.59c-.85,1.95-1.5,3.99-2.14,6.04-.06.2-.13.4-.19.6,2.36,1.88,4.8,3.56,7.5,4.96,1.73-1.54,3.38-3.08,5.03-4.85l3.52,1.65c.14.05.27.1.4.15.63.23,1.24.47,1.9.68.11.04.21.07.32.11.33.11.67.22,1.01.35,0,2.37.11,4.73.34,7.1,2.93.83,5.85,1.31,8.78,1.65.85-1.68,1.61-3.39,2.36-5.08.08-.17.15-.34.23-.51.11-.2.2-.41.29-.61.03-.06.05-.12.08-.18l3.86.11,3.86-.23c.94,2.25,1.88,4.28,2.93,6.38,2.93-.34,5.85-.94,8.66-1.77.23-2.37.23-4.73.23-7.1.47-.19.94-.35,1.42-.52.16-.05.32-.11.48-.17.12-.04.23-.08.35-.12.46-.16.93-.32,1.38-.51l3.38-1.65-7.13-13.85c-.28.16-.59.3-.89.44-.07.03-.14.07-.22.1-.23.12-.46.23-.69.34-.15.07-.29.14-.42.2v.06Z"/><path class="cls-2" d="m56.04,80.38c3.93.14,7.83-.73,11.33-2.51l.17-.09h.02s2.36,4.55,2.36,4.55c-.08.04-.16.08-.23.12-1.64.83-3.35,1.5-5.1,2-2.82.8-5.77,1.16-8.72,1.06-4.88-.17-9.64-1.6-13.8-4.15h-.02c-4.16-2.56-7.6-6.14-9.98-10.41v-.02c-2.39-4.27-3.63-9.08-3.62-13.97.01-4.89,1.28-9.7,3.68-13.95v-.02c2.41-4.26,5.87-7.82,10.04-10.35h.02c4.18-2.54,8.94-3.95,13.82-4.1,2.96-.09,5.9.29,8.72,1.1,1.75.51,3.45,1.18,5.09,2.02.08.04.16.08.24.12l-2.38,4.55h-.02s-.17-.1-.17-.1c-3.5-1.8-7.39-2.68-11.32-2.56-3.99.12-7.89,1.27-11.31,3.33h-.02c-3.42,2.08-6.25,5-8.23,8.49v.02c-1.98,3.49-3.03,7.44-3.04,11.46,0,4.02,1.01,7.97,2.97,11.47v.02c1.97,3.49,4.79,6.43,8.2,8.51h.02c3.41,2.1,7.3,3.26,11.3,3.4Z"/></svg>