<?xml version="1.0" encoding="UTF-8"?><svg id="Layer_1" xmlns="http://www.w3.org/2000/svg" xmlns:xlink="http://www.w3.org/1999/xlink" viewBox="0 0 100 100"><defs><style>.cls-1,.cls-2{fill:#fff;}.cls-2,.cls-3,.cls-4{fill-rule:evenodd;}.cls-3{fill:url(#linear-gradient);}.cls-4{fill:#ffa300;}</style><linearGradient id="linear-gradient" x1="46.06" y1="98.65" x2="52.71" y2="22.52" gradientTransform="translate(0 99.89) scale(1 -1)" gradientUnits="userSpaceOnUse"><stop offset="0" stop-color="#0068b0"/><stop offset=".49" stop-color="#3c94cc"/><stop offset="1" stop-color="#9ee0f8"/></linearGradient></defs><path class="cls-1" d="m90,0H10C4.48,0,0,4.48,0,10v80c0,5.52,4.48,10,10,10h80c5.52,0,10-4.48,10-10V10c0-5.52-4.48-10-10-10Z"/><path class="cls-3" d="m10.94,4.04h51.04c-8.9,2.69-5.36,14.42-4.18,18.69-3.72-4.08-9.9-5.92-12.43-4.62.21-1,.57-1.72.65-2.85-1.65-1.42-5.66-1.07-7.18-.35-7.01,3.31-7.72,16.11-2.8,18.44-1.06-6.64,1.91-9.06,3.54-10.07.09,1.63.09,1.89.29,2.76,1.59-.03,3.92.18,5.39.15.29-1.18,1.35-2.13,1.94-2.31-.39,1.38-.42,2.12-.26,3.11,1.77.18,4.66.09,8.27,1.36-35.46,8.41-20.5,29.55-15.2,29.07-.82-3.15-.73-8.25-.45-9.56.58,1.06,1.24,2.25,1.81,2.98.29-.71,1.39-2.57,1.95-3.97-1.37-3.08-1-6.04-.06-7.94-.08,2.69.81,4.46,1.71,5.75,3.43-3.71,5.7-7.34,10.61-10.36-10.61,17.53,1.41,27.77,16.68,27.41-2.06-2.56-3.8-3.98-4.93-6.51-2.01.07-4-.04-6.97-2.49,2.71.12,3.47.54,6.48.29-1.12-2.07-1.6-3.73-1.94-4.38-3.26-.56-4.49-1.03-6.42-2.19,2.66.12,4.29-.17,5.18-.41-.71-2.96-1.29-8.53-.17-11.07,8.95,9.69,12.95,20.37,14.72,29.48-21.8,3.09-32.21,8.9-41.59,13.56-11.67,5.81-16.85-9-4.83-15.52-13.08-2.48-25.84,6.87-27.73,19.42V10.97c0-3.81,3.11-6.93,6.9-6.93Zm67.66,0c2.83,1.45,3.89,3.88,3.66,7.43-1.35-1.72-3.09-3.59-6.51-3.82.18.54.26,1.21.32,2.1-3.05-.61-6.79,1.98-8.55,3.79-1.41-.41-3.18-.41-4.6.65,1.22.13,2.46.18,3,.83-2.24,1.06-4.47,4.8-4.24,8.94,9.7-14.51,24.04-12.94,34.26-2.31v-10.7c0-3.81-3.11-6.93-6.9-6.93h-10.45v.02Zm17.36,27.31c-1.3-.57-3.02-2.16-3.86-3.29.17-.62.33-1.24.28-1.92-2.06-.6-4-.98-5.44-1.01-.15-1.81-.32-3.25-.91-5.27-.26,1.54-.47,2.96-1.15,3.91-1.59-.32-4.98-.35-6.98,0-.06-1.45.14-2.9.85-4.92-1.09,1.01-2.44,2.76-2.92,5.06-1.6.26-5.21.35-8.48,3.22,6.72-.86,17.93-4.17,28.62,7.76v-3.56.02Zm0,15.87c-1.93-1.72-3.99-4.14-5.52-6.63-.23-2.36-.62-3.85-.97-5.69-.26,1.95-.29,3.26-.88,4.32-1.97-1.81-5.39-2.01-7.07-3.37-.29-1.81-.38-3.43-.62-4.86-.97.57-2.32,1.96-3.71,3.53-.86-1.18-1.29-2.79-1.57-4.62-.77,1.04-1.47,2.04-1.92,2.99-.94-.6-3.12-.74-6.04-.47,4.15,4.57,12.96,15.92,17.03,30.96,3.48-.36,7.22-.66,11.25-.88v-15.27h0Z"/><path class="cls-4" d="m95.96,65.42v23.62c0,3.81-3.11,6.93-6.9,6.93h-56.96c7.42-11.37,17.86-17.22,23.08-19.29-1.65,7.82,3.06,12.79,6.84,13.26-10.12-22.23,26.05-24.27,33.94-24.52Z"/><path class="cls-2" d="m18.38,28.47c5.35,0,9.73-4.38,9.73-9.76s-4.37-9.76-9.73-9.76-9.73,4.38-9.73,9.76,4.37,9.76,9.73,9.76Z"/></svg>