<svg width="20" height="18" viewBox="0 0 20 18" fill="none" xmlns="http://www.w3.org/2000/svg">
<path d="M10 1C14.3871 1 18 4.6129 18 9C18 13.4194 14.3871 17 10 17C5.58065 17 2 13.4194 2 9C2 4.6129 5.58065 1 10 1ZM15.2581 4.70968C15.129 4.90323 14 6.35484 11.4516 7.3871C11.7097 7.90323 11.871 8.29032 12.0645 8.74194C14.3226 8.45161 16.5806 8.90323 16.8065 8.96774C16.8065 7.35484 16.2258 5.87097 15.2581 4.70968ZM14.5161 3.90323C12.8387 2.41935 10.5484 1.87097 8.3871 2.3871C8.58065 2.64516 9.80645 4.32258 10.9355 6.3871C13.3548 5.48387 14.3871 4.09677 14.5161 3.90323ZM7.06452 2.83871C5.16129 3.74194 3.74194 5.51613 3.29032 7.6129C3.6129 7.64516 6.41935 7.64516 9.6129 6.80645C8.48387 4.77419 7.25806 3.09677 7.06452 2.83871ZM3.16129 9.03226C3.16129 10.7742 3.80645 12.3871 4.90323 13.5806C6 11.7097 8.25806 9.70968 10.7419 9C10.5484 8.6129 10.3871 8.22581 10.1613 7.83871C6.77419 8.87097 3.45161 8.83871 3.16129 8.80645C3.16129 8.90323 3.16129 8.96774 3.16129 9.03226ZM5.77419 14.4194C7.80645 16 10.4516 16.2581 12.6452 15.3226C12.5484 14.7097 12.1613 12.6129 11.1935 10.129C8.45161 11.0645 6.51613 12.9677 5.77419 14.4194ZM13.8065 14.6774C15.3226 13.6452 16.4194 12 16.7419 10.0968C16.4839 10.0323 14.6129 9.48387 12.4839 9.80645C13.3548 12.2903 13.7419 14.2903 13.8065 14.6774Z" fill="#8BB3C3"/>
</svg>
