<svg width="20" height="18" viewBox="0 0 20 18" fill="none" xmlns="http://www.w3.org/2000/svg">
<path d="M5.57143 16H2.25V5.29754H5.57143V16ZM3.89286 3.86577C2.85714 3.86577 2 2.97092 2 1.89709C2 0.85906 2.85714 0 3.89286 0C4.96429 0 5.82143 0.85906 5.82143 1.89709C5.82143 2.97092 4.96429 3.86577 3.89286 3.86577ZM14.6786 16V10.8098C14.6786 9.55705 14.6429 7.9821 12.9286 7.9821C11.2143 7.9821 10.9643 9.30649 10.9643 10.7025V16H7.64286V5.29754H10.8214V6.7651H10.8571C11.3214 5.94183 12.3929 5.04698 14 5.04698C17.3571 5.04698 18 7.26622 18 10.1298V16H14.6786Z" fill="#8BB3C3"/>
</svg>
