<svg id="Layer_1" data-name="Layer 1" xmlns="http://www.w3.org/2000/svg" viewBox="0 0 127.82 30.78"><defs><style>.cls-1{fill:#71878d;}</style></defs><title>Untitled-2</title><path class="cls-1" d="M71,39.34l.5-1.79h.06c-.19,1.34.26,2.18,1.48,2.18a1.25,1.25,0,0,0,1.43-1.32,1.57,1.57,0,0,0-.71-1.33l-.78-.6a1.94,1.94,0,0,1-.9-1.55,1.79,1.79,0,0,1,2-1.78,3.21,3.21,0,0,1,1.83.52l-.52,1.76h0c.23-1.24-.15-2.1-1.35-2.1a1.24,1.24,0,0,0-1.41,1.23,1.71,1.71,0,0,0,.82,1.31l.81.63A1.88,1.88,0,0,1,75.08,38,1.91,1.91,0,0,1,73,39.91a3.83,3.83,0,0,1-2-.57ZM59.67,27.27,59.16,9.46H57.35L50.66,24.35,43.43,9.46H41.5l-.56,17.81h1.63c-.21-2.46-.28-7.91-.36-11.52l-.07-4.13,7.58,15.65h.51l6.89-15.42.26,15.42Zm16.8,0h2.44L72,9.13h-.61L63.92,27.27h1.63c.63-1.93,1.58-4.6,2.62-7.53h5.47l2.83,7.53Zm-8-8.29c.31-.87.64-1.76,1-2.65l1.44-4.15L73.36,19ZM95.63,9.46c.12,2.52.38,6.8.46,10.59l.07,3.23L85.73,9.46H83.79l-.3,17.81h1.6c-.18-2.64-.3-6-.51-11.73l-.15-4.07,11.91,15.8H97l.2-17.81Zm5.78,0v1.4c1.3-.2,3.13-.43,4.94-.56l1.53-.1V27.27h2.21V10.2l1.63.1a41.84,41.84,0,0,1,4.94.56V9.46Zm24.24,17-2.44.05V18.14h.23c2.57.1,4.14.15,6,.25V17.12c-1.86.1-3.38.18-6,.28h-.28V10.17l2.44.05a57,57,0,0,1,6.85.64V9.46H121V27.27h12.32V25.82c-2.65.33-5,.56-7.66.64Zm23.08.81h2.62L145.48,18c2.54-.51,4.19-1.91,4.19-4.25,0-3-2.67-4.33-6.48-4.33h-5.38V27.27H140v-9h3l5.72,9ZM140,17.48V10.22h2.65c2.59,0,4.7,1,4.7,3.62s-2.11,3.64-4.7,3.64Zm26.29,9.79h2.44L161.84,9.13h-.61l-7.46,18.14h1.63c.64-1.93,1.58-4.6,2.62-7.53h5.47l2.83,7.53Zm-8-8.29c.3-.87.63-1.76.94-2.65l1.45-4.15,2.54,6.8ZM136.05,37.34c.88-.15,2.23-.59,2.23-1.56a.42.42,0,0,0-.46-.44,2.85,2.85,0,0,0-1.77,2Zm0,.1a3.22,3.22,0,0,0-.07.64c0,.84.29,1.24.95,1.24a1.75,1.75,0,0,0,1.48-1l.07,0a2.59,2.59,0,0,1-2,1.56c-.54,0-1-.34-1-1.24,0-1.76,1.44-3.51,2.92-3.51a.48.48,0,0,1,.54.5c0,.79-1.2,1.62-2.9,1.82Zm-4.38,1.1c0-1.74,1.57-3.42,2.77-3.42a1.16,1.16,0,0,1,.8.31l-.39.49h-.08a1.48,1.48,0,0,0-1.06-.46,3.07,3.07,0,0,0-1.54,2.65c0,.84.32,1.22.91,1.22s1-.27,1.49-1l.07,0c-.55.87-1.08,1.56-1.91,1.56s-1.06-.51-1.06-1.33Zm-.71,0c-.63.84-1.14,1.32-1.52,1.32a.38.38,0,0,1-.39-.43,7,7,0,0,1,.56-2,9.36,9.36,0,0,0,.48-1.64c0-.15-.08-.26-.22-.26s-.84.39-2.21,2.32l-.48,1.83h-.56l1-3.78c.1-.36-.05-.5-.46-.43l-.18,0v-.1l1.4-.33-.68,2.56c1.07-1.63,1.82-2.56,2.51-2.56a.45.45,0,0,1,.47.5,7.89,7.89,0,0,1-.53,2,7.76,7.76,0,0,0-.47,1.57.19.19,0,0,0,.19.2c.23,0,.6-.35,1-.84l.06,0Zm-7.63-1.21c.88-.15,2.23-.59,2.23-1.56a.42.42,0,0,0-.45-.44,2.86,2.86,0,0,0-1.78,2Zm0,.1a3.22,3.22,0,0,0-.07.64c0,.84.29,1.24,1,1.24a1.75,1.75,0,0,0,1.48-1l.08,0a2.6,2.6,0,0,1-2,1.56c-.54,0-1-.34-1-1.24,0-1.76,1.44-3.51,2.92-3.51a.48.48,0,0,1,.54.5c0,.79-1.2,1.62-2.9,1.82Zm-2.48-.56.28-1a1.44,1.44,0,0,0-1-.41,3.82,3.82,0,0,0-1.74,3.27c0,.51.18.63.34.63.48,0,1.22-.9,2.16-2.46Zm1.1,1.59.09.05c-.57.89-1.08,1.35-1.46,1.35s-.36-.19-.36-.43a2.13,2.13,0,0,1,.1-.56l.42-1.55c-.78,1.33-1.74,2.54-2.33,2.54-.38,0-.69-.26-.69-.91,0-1.58,1.58-3.84,3-3.84a.94.94,0,0,1,.56.19l.38-1.42c.1-.35-.11-.47-.51-.4l-.3,0,0-.1,1.56-.38-1.58,6c0,.18,0,.27.15.27s.53-.28,1-.87Zm-5.49-4.56a.42.42,0,0,1,.44-.43.44.44,0,0,1,.45.44.43.43,0,0,1-.45.44.43.43,0,0,1-.44-.45Zm-1.31,5.58a1.11,1.11,0,0,1,0-.23l.94-3.31c.1-.36,0-.5-.46-.43l-.18,0v-.1l1.4-.33L115.77,39c-.07.25,0,.33.18.33s.65-.4,1-.84l.07.05c-.6.79-1.2,1.32-1.59,1.32-.19,0-.32-.11-.32-.35ZM111,38.94l.42-.44h0a1.66,1.66,0,0,0,1.56,1.07.73.73,0,0,0,.32-.61,1.5,1.5,0,0,0-.29-.72L112.31,37a1.33,1.33,0,0,1-.2-.6,1.45,1.45,0,0,1,1.44-1.25,1.4,1.4,0,0,1,1.16.63l-.4.5h0a1.59,1.59,0,0,0-1.24-.9.59.59,0,0,0-.47.61,1.17,1.17,0,0,0,.22.6l.86,1.41a1.28,1.28,0,0,1,.16.59,1.49,1.49,0,0,1-1.44,1.31,1.65,1.65,0,0,1-1.34-.93Zm-2.88-1.6c.87-.15,2.22-.59,2.22-1.56a.41.41,0,0,0-.45-.44,2.83,2.83,0,0,0-1.77,2Zm0,.1a2.61,2.61,0,0,0-.08.64c0,.84.3,1.24.95,1.24a1.74,1.74,0,0,0,1.48-1l.08,0a2.6,2.6,0,0,1-2,1.56c-.54,0-1-.34-1-1.24,0-1.76,1.44-3.51,2.92-3.51a.48.48,0,0,1,.54.5c0,.79-1.19,1.62-2.89,1.82Zm-.45-2.26-.27.8h-.09a.48.48,0,0,0-.32-.11c-.46,0-.64.19-1.93,2.78l-.29,1.08h-.57l1-3.78c.09-.36,0-.5-.45-.43l-.19,0,0-.1,1.4-.33-.81,3.12c1.24-2.67,1.7-3.12,2.21-3.12a.66.66,0,0,1,.29.06Zm-6.31,1c0,.8-.36,2-2.55,3.69l-.11-.08V37.53a5.33,5.33,0,0,1-2,2.36l-.11-.08-.11-3.6c0-.41-.14-.78-.68-.59v-.07L97,35.08l.14,4.29a3.84,3.84,0,0,0,1.47-2.72,1.27,1.27,0,0,0-.55-1.13v-.05l.69-.39a1.84,1.84,0,0,1,.44,1.39l0,2.9a3.67,3.67,0,0,0,1.52-2.62,1.41,1.41,0,0,0-.54-1.23v-.05l.68-.39a1.57,1.57,0,0,1,.42,1.12Zm-8.92,1.14c.87-.15,2.23-.59,2.23-1.56a.42.42,0,0,0-.46-.44,2.85,2.85,0,0,0-1.77,2Zm0,.1a2.62,2.62,0,0,0-.07.64c0,.84.29,1.24,1,1.24a1.75,1.75,0,0,0,1.48-1l.07,0a2.6,2.6,0,0,1-2,1.56c-.54,0-1-.34-1-1.24,0-1.76,1.45-3.51,2.93-3.51a.48.48,0,0,1,.54.5c0,.79-1.2,1.62-2.9,1.82Zm-1.89-3.53a.42.42,0,0,1,.44-.43.44.44,0,0,1,.44.44.44.44,0,1,1-.88,0Zm-1.32,5.58a.74.74,0,0,1,0-.23L90.18,36c.1-.36-.05-.5-.46-.43l-.18,0,0-.1,1.4-.33L89.88,39c-.07.25,0,.33.17.33s.65-.4,1-.84l.06.06c-.59.78-1.2,1.31-1.59,1.31a.31.31,0,0,1-.32-.35Zm-3.78-3.28c0-.53-.12-.79-.68-.59v-.07l1.2-.47.15,4.35A3.78,3.78,0,0,0,88,36.72a1.47,1.47,0,0,0-.54-1.23v0l.64-.37a1.39,1.39,0,0,1,.42,1c0,.79-.38,2.2-2.83,3.77l-.11-.08-.12-3.6ZM83,37l.41-1.22a1.32,1.32,0,0,0-1-.31c-.94.31-1.94,1.92-1.94,3.41,0,.39.15.49.3.49.47,0,1.25-.88,2.27-2.37Zm1,1.5.07.05c-.62.89-1.15,1.35-1.53,1.35s-.34-.18-.34-.4a2.09,2.09,0,0,1,.13-.59l.52-1.6c-.84,1.35-1.86,2.59-2.46,2.59-.36,0-.65-.24-.65-.82a4.89,4.89,0,0,1,2.05-3.49,2.65,2.65,0,0,1,1.25-.44.68.68,0,0,1,.47.15l0-.14.64-.21-1.35,4.15c-.05.18,0,.27.13.27s.56-.28,1-.87Zm-7.34-1.13c.88-.15,2.23-.59,2.23-1.56a.42.42,0,0,0-.46-.44,2.85,2.85,0,0,0-1.77,2Zm0,.1a2.62,2.62,0,0,0-.07.64c0,.84.29,1.24.95,1.24a1.75,1.75,0,0,0,1.48-1l.07,0a2.6,2.6,0,0,1-2,1.56c-.54,0-1-.34-1-1.24,0-1.76,1.45-3.51,2.93-3.51a.48.48,0,0,1,.54.5c0,.79-1.2,1.62-2.9,1.82Z" transform="translate(-40.94 -9.13)"/></svg>