<svg id="Layer_1" data-name="Layer 1" xmlns="http://www.w3.org/2000/svg" width="140" height="58.5" viewBox="0 0 140 58.5"><defs><style>.cls-1{opacity:0.75;}.cls-2{fill:#fff;}.cls-3,.cls-4{fill:#71878d;}.cls-4{stroke:#fff;stroke-miterlimit:10;stroke-width:3px;}</style></defs><title>logo-map</title><g class="cls-1"><rect class="cls-2" width="140" height="49"/></g><path class="cls-3" d="M117.06,164.42l.48-1.75h.06c-.19,1.31.26,2.15,1.43,2.15a1.23,1.23,0,0,0,1.38-1,1.73,1.73,0,0,0-.71-1.56l-.76-.59a1.86,1.86,0,0,1-.88-1.5,1.75,1.75,0,0,1,1.72-1.78h.28a3.2,3.2,0,0,1,1.78.5l-.51,1.72h0c.22-1.21-.14-2-1.31-2a1.2,1.2,0,0,0-1.3,1v.18a1.66,1.66,0,0,0,.8,1.27l.79.61a1.83,1.83,0,0,1,.49,2.53,1.85,1.85,0,0,1-1.49.8h-.17A3.72,3.72,0,0,1,117.06,164.42Zm-11-11.75-.49-17.35h-1.76l-6.52,14.51-7-14.51H88.33l-.55,17.35h1.63c-.2-2.4-.28-7.71-.35-11.22l-.07-4,7.38,15.22h.5l6.71-15,.26,15Zm16.36,0h2.37L118,135h-.59l-7.28,17.67h1.58c.62-1.88,1.55-4.49,2.56-7.34h5.33Zm-7.79-8.08c.3-.85.62-1.71,1-2.57l1.43-4,2.4,6.64ZM141,135.31c.11,2.46.37,6.63.45,10.32l.06,3.15L131.4,135.32h-1.89l-.29,17.35h1.63c-.17-2.57-.29-5.84-.5-11.42l-.14-4,11.52,15.42h.64l.2-17.35Zm5.63,0v1.37c1.27-.19,3-.41,4.83-.53l1.49-.1v16.62h2.14V136l1.58.11a43.07,43.07,0,0,1,4.79.54v-1.33Zm23.6,16.54-2.35.08v-8.15h.23c2.5.09,4,.14,5.84.24v-1.24c-1.82.1-3.29.17-5.84.27h-.28V136h2.38a53.37,53.37,0,0,1,6.67.63v-1.31h-11.1v17.35h12v-1.43c-2.57.32-4.87.55-7.46.63Zm22.48.79h2.54l-5.7-9c2.47-.49,4.07-1.84,4.07-4.12,0-2.93-2.59-4.22-6.3-4.22h-5.25v17.37h2.15V143.9h2.93l5.62,8.77Zm-8.51-9.51v-7.07h2.57c2.52,0,4.58,1,4.58,3.53s-2.06,3.56-4.58,3.56Zm25.6,9.54h2.38L205.51,135h-.59l-7.27,17.67h1.59c.62-1.88,1.54-4.49,2.55-7.34h5.33l2.75,7.34Zm-7.79-8.08c.3-.85.62-1.71.92-2.57l1.43-4,2.47,6.62Zm-21.66,17.88c.86-.15,2.15-.58,2.15-1.52a.41.41,0,0,0-.37-.43h-.08a2.84,2.84,0,0,0-1.73,2Zm0,.1c0,.21-.06.41-.07.62,0,.82.29,1.21.93,1.21a1.71,1.71,0,0,0,1.43-1h.06a2.47,2.47,0,0,1-1.93,1.58c-.52,0-1-.32-1-1.2,0-1.72,1.43-3.42,2.86-3.42a.48.48,0,0,1,.53.4v.08c0,.77-1.17,1.58-2.86,1.78Zm-4.27,1.07c0-1.7,1.53-3.33,2.69-3.33a1.17,1.17,0,0,1,.78.3l-.38.48h-.08a1.37,1.37,0,0,0-1-.45,3,3,0,0,0-1.5,2.58c0,.82.31,1.19.89,1.19s1-.27,1.41-1H179c-.53.84-1,1.52-1.85,1.52s-1-.5-1-1.3Zm-.72,0c-.61.82-1.1,1.29-1.48,1.29a.37.37,0,0,1-.38-.36h0a.06.06,0,0,1,0-.06,7,7,0,0,1,.58-2,8.93,8.93,0,0,0,.48-1.6.24.24,0,0,0-.2-.25h0c-.13,0-.82.38-2.14,2.26l-.44,1.83h-.55l1-3.68q.15-.52-.45-.42h-.19v-.1l1.36-.32-.66,2.49c1-1.58,1.77-2.49,2.44-2.49a.45.45,0,0,1,.47.41v.08a8.14,8.14,0,0,1-.52,1.95,6.8,6.8,0,0,0-.45,1.52.18.18,0,0,0,.16.2h0c.22,0,.58-.34,1-.82h.06ZM168,162.46c.86-.14,2.15-.57,2.15-1.52a.41.41,0,0,0-.4-.43h-.05a2.77,2.77,0,0,0-1.66,2Zm0,.1a4.2,4.2,0,0,0-.07.62c0,.82.29,1.21,1,1.21a1.68,1.68,0,0,0,1.43-1h.08a2.55,2.55,0,0,1-2,1.52c-.52,0-1-.33-1-1.21,0-1.71,1.43-3.42,2.86-3.42a.48.48,0,0,1,.53.4h0v.07c0,.78-1.18,1.58-2.86,1.78Zm-2.42-.58.27-1a1.41,1.41,0,0,0-1-.4,3.72,3.72,0,0,0-1.68,3.18c0,.5.17.62.33.62.47,0,1.17-.87,2.13-2.4Zm1.07,1.55h.1c-.56.87-1.06,1.32-1.43,1.32s-.35-.19-.35-.42a2.31,2.31,0,0,1,.12-.52l.41-1.51c-.76,1.29-1.69,2.48-2.26,2.48-.37,0-.68-.26-.68-.89,0-1.54,1.55-3.74,2.92-3.74a.89.89,0,0,1,.55.18l.37-1.38c.09-.34-.11-.46-.5-.39h-.3v-.1l1.54-.37L165.57,164c0,.17,0,.26.15.26s.51-.27,1-.85Zm-5.34-4.45a.42.42,0,0,1,.4-.42h0a.44.44,0,0,1,.45.42h0a.41.41,0,0,1-.4.42h0a.4.4,0,0,1-.42-.38v0Zm-1.21,5.44a.89.89,0,0,1,0-.23l.89-3.2c.1-.35,0-.49-.45-.42h-.17v-.1l1.37-.32-1.06,3.82c-.07.24,0,.32.18.32s.63-.39,1-.81h.07c-.59.77-1.17,1.29-1.55,1.29-.19,0-.31-.11-.31-.34Zm-4-.53.4-.43h0a1.61,1.61,0,0,0,1.5,1,.68.68,0,0,0,.3-.59,1.41,1.41,0,0,0-.27-.71l-.72-1.22a1.18,1.18,0,0,1-.19-.58,1.43,1.43,0,0,1,1.43-1.22,1.41,1.41,0,0,1,1.13.62l-.39.48h0a1.56,1.56,0,0,0-1.21-.88.57.57,0,0,0-.45.6,1,1,0,0,0,.21.58l.87,1.4a1.25,1.25,0,0,1,.16.57,1.44,1.44,0,0,1-1.47,1.37,1.62,1.62,0,0,1-1.31-.91Zm-2.81-1.56c.84-.15,2.14-.58,2.14-1.52a.41.41,0,0,0-.35-.43h-.12a2.76,2.76,0,0,0-1.73,2Zm0,.1a2.57,2.57,0,0,0-.08.62c0,.82.29,1.21.92,1.21a1.68,1.68,0,0,0,1.43-1h.08a2.54,2.54,0,0,1-2,1.62c-.52,0-1-.32-1-1.2,0-1.72,1.43-3.42,2.86-3.42a.47.47,0,0,1,.52.39h0v.08c0,.77-1.16,1.58-2.82,1.78Zm-.43-2.16-.29.76h-.08a.52.52,0,0,0-.32-.11c-.44,0-.62.19-1.88,2.71l-.27,1.06h-.57l1-3.66c.09-.35,0-.49-.43-.42h-.24v-.09l1.35-.33-.79,3c1.21-2.6,1.66-3,2.14-3a.72.72,0,0,1,.29.06Zm-6.16,1c0,.78-.35,2-2.48,3.58l-.11-.08v-2.21a5.26,5.26,0,0,1-2,2.3l-.11-.08-.13-3.51c0-.4-.14-.76-.67-.58v-.06l1.17-.46.14,4.18a3.7,3.7,0,0,0,1.43-2.65,1.25,1.25,0,0,0-.54-1.11h0l.67-.38a1.75,1.75,0,0,1,.43,1.35v2.82a3.61,3.61,0,0,0,1.49-2.56,1.43,1.43,0,0,0-.53-1.2h0l.66-.39a1.57,1.57,0,0,1,.39,1.07Zm-8.73,1.08c.84-.14,2.14-.57,2.14-1.52a.42.42,0,0,0-.39-.43h0A2.79,2.79,0,0,0,137.94,162.45Zm0,.11a2.56,2.56,0,0,0-.07.62c0,.82.28,1.21,1,1.21a1.71,1.71,0,0,0,1.43-1h.07a2.55,2.55,0,0,1-2,1.52c-.53,0-1-.34-1-1.22,0-1.71,1.42-3.41,2.85-3.41a.46.46,0,0,1,.53.38h0v.08c0,.78-1.17,1.58-2.86,1.78Zm-1.85-3.44a.44.44,0,0,1,.4-.43h0a.43.43,0,0,1,.43.43h0a.42.42,0,0,1-.36.49.43.43,0,0,1-.49-.36v-.13h0Zm-1.24,5.43a.41.41,0,0,1,0-.22l.91-3.16c.1-.35,0-.48-.43-.42h-.21v-.09l1.35-.32-1,3.75c-.07.25,0,.33.16.33a2.36,2.36,0,0,0,1-.82l.06.06c-.66.76-1.25,1.32-1.63,1.32a.33.33,0,0,1-.32-.3h0Zm-3.69-3.19c0-.52-.11-.77-.66-.58v-.06l1.17-.46.14,4.23a3.68,3.68,0,0,0,1.83-2.65,1.46,1.46,0,0,0-.53-1.2h0l.63-.35a1.39,1.39,0,0,1,.41,1c0,.77-.37,2.14-2.76,3.68l-.11-.08-.12-3.51Zm-2.38.78.37-1.16a1.34,1.34,0,0,0-1-.3c-.94.29-1.89,1.9-1.89,3.33,0,.38.14.48.29.48.46,0,1.21-.86,2.21-2.32Zm1,1.47h.07c-.61.86-1.12,1.31-1.49,1.31s-.33-.18-.33-.39a1.87,1.87,0,0,1,.12-.57l.51-1.56c-.82,1.32-1.81,2.52-2.4,2.52-.35,0-.63-.23-.63-.8a4.74,4.74,0,0,1,2-3.4,2.63,2.63,0,0,1,1.21-.43.75.75,0,0,1,.46.15v-.15l.63-.2-1.38,4.1c0,.17,0,.26.13.26a2.08,2.08,0,0,0,1-.85Zm-7.14-1.1c.85-.15,2.14-.58,2.14-1.52a.41.41,0,0,0-.37-.43h-.08a2.8,2.8,0,0,0-1.71,1.94Zm0,.09a3.4,3.4,0,0,0-.08.63c0,.81.29,1.21.93,1.21a1.68,1.68,0,0,0,1.43-1H125a2.51,2.51,0,0,1-2,1.54c-.53,0-1-.33-1-1.21,0-1.71,1.43-3.42,2.86-3.42a.46.46,0,0,1,.52.39h0a.11.11,0,0,1,0,.08c0,.77-1.17,1.58-2.85,1.78Z" transform="translate(-80 -129)"/><circle class="cls-4" cx="70" cy="49" r="8"/></svg>