<svg width="512" height="512" viewBox="0 0 512 512" fill="none" xmlns="http://www.w3.org/2000/svg">
<path d="M8.13776 168.715C77.2352 110.305 165.239 78.2313 256.279 78.5017C347.32 78.7721 435.128 111.368 503.871 170.187C504.612 170.821 504.771 172.017 503.959 172.904L256.827 442.785C255.95 443.742 254.399 443.737 253.529 442.776L8.03256 171.431C7.22669 170.54 7.39196 169.345 8.13776 168.715Z" fill="#D32714" stroke="#A12529" stroke-width="15" stroke-linejoin="round"/>
<path d="M283.664 192.794C283.563 192.795 283.474 192.729 283.444 192.633L256.224 104.708C256.158 104.492 255.853 104.492 255.786 104.708L228.556 192.633C228.526 192.729 228.437 192.795 228.336 192.794L139.687 192.618C139.467 192.618 139.373 192.898 139.549 193.031L211.386 247.223C211.464 247.282 211.496 247.383 211.467 247.475L183.905 335.313C183.838 335.526 184.085 335.699 184.263 335.564L255.866 281.119C255.948 281.056 256.062 281.056 256.144 281.119L327.737 335.564C327.915 335.699 328.162 335.526 328.095 335.312L300.533 247.475C300.504 247.383 300.536 247.282 300.614 247.223L372.451 193.031C372.627 192.898 372.533 192.618 372.313 192.618L283.664 192.794Z" fill="#FEFEFE"/>
</svg>
